<?xml version="1.0" standalone="no"?>
<!DOCTYPE svg PUBLIC "-//W3C//DTD SVG 20010904//EN"
 "http://www.w3.org/TR/2001/REC-SVG-20010904/DTD/svg10.dtd">
<svg version="1.0" xmlns="http://www.w3.org/2000/svg"
 width="400.000000pt" height="400.000000pt" viewBox="0 0 400.000000 400.000000"
 preserveAspectRatio="xMidYMid meet">
<metadata>
Created by potrace 1.16, written by Peter Selinger 2001-2019
</metadata>
<g transform="translate(0.000000,400.000000) scale(0.100000,-0.100000)"
fill="#4a4a4a" stroke="none">
<path d="M1455 3280 c-120 -10 -180 -27 -285 -78 -81 -39 -109 -60 -191 -142
-82 -80 -103 -108 -137 -180 -52 -109 -62 -162 -62 -318 0 -190 33 -301 114
-384 l37 -38 -32 0 c-24 0 -40 -10 -70 -42 -22 -24 -39 -47 -39 -51 0 -5 -33
-48 -73 -95 -152 -179 -179 -239 -185 -409 -5 -144 8 -230 50 -331 37 -89 113
-176 177 -204 109 -46 286 -29 461 46 13 5 15 -10 12 -110 -4 -131 6 -191 45
-271 35 -71 118 -148 170 -156 121 -21 243 7 333 75 28 21 54 38 55 36 2 -2
13 -25 24 -51 49 -114 162 -238 228 -251 110 -21 181 -14 261 26 72 37 168
151 232 277 27 53 35 62 54 57 108 -26 291 -7 423 43 206 80 390 220 525 402
115 152 152 251 152 399 -1 158 -44 248 -154 319 -100 65 -166 76 -442 76
-208 0 -235 2 -225 15 7 8 30 36 52 61 66 75 163 218 197 288 26 54 33 81 36
152 8 169 -43 265 -188 353 -86 51 -183 86 -268 96 -93 10 -250 -2 -312 -25
-79 -29 -75 -29 -88 13 -32 106 -145 227 -279 298 -177 94 -361 126 -608 104z
m360 -140 c109 -27 251 -99 313 -157 50 -47 112 -156 112 -197 0 -10 -31 -52
-70 -92 -96 -101 -122 -156 -128 -265 -3 -68 -1 -94 13 -122 39 -84 145 -66
223 36 74 98 92 151 93 280 l1 86 31 14 c127 60 301 69 421 23 143 -55 221
-115 246 -191 20 -61 9 -161 -26 -231 -38 -76 -127 -195 -256 -341 -105 -120
-116 -145 -77 -184 18 -18 29 -20 68 -15 255 32 549 33 651 1 79 -25 135 -68
158 -124 59 -136 26 -282 -98 -451 -140 -188 -345 -333 -554 -390 -80 -22
-210 -31 -257 -18 -26 8 -26 8 -17 65 13 76 4 239 -15 284 -32 78 -103 102
-173 59 -58 -36 -77 -82 -77 -185 0 -76 4 -99 26 -145 15 -30 39 -71 56 -90
l29 -35 -39 -75 c-86 -166 -176 -245 -280 -245 -44 0 -65 6 -96 27 -50 33
-105 114 -139 208 -26 70 -27 72 -10 108 20 42 37 181 29 239 -11 87 -87 121
-143 65 -34 -35 -46 -105 -36 -228 l6 -82 -53 -48 c-73 -66 -126 -88 -214 -89
-65 0 -74 2 -102 29 -51 49 -74 117 -79 234 -3 82 -1 113 14 150 26 69 59 115
108 150 66 48 116 102 116 126 0 37 -28 66 -63 66 -39 0 -63 -15 -142 -90 -95
-90 -297 -181 -435 -195 -82 -9 -139 6 -185 46 -40 36 -88 131 -104 207 -16
76 -14 229 4 289 35 117 226 341 345 403 13 7 73 16 132 20 120 8 148 21 148
70 0 46 -25 57 -126 57 -77 0 -97 3 -127 22 -100 61 -137 159 -138 356 -1 127
22 214 81 305 70 110 217 216 353 255 135 39 340 41 482 5z"/>
</g>
</svg>
