<?xml version="1.0" standalone="no"?>
<!DOCTYPE svg PUBLIC "-//W3C//DTD SVG 20010904//EN"
 "http://www.w3.org/TR/2001/REC-SVG-20010904/DTD/svg10.dtd">
<svg version="1.0" xmlns="http://www.w3.org/2000/svg"
 width="1200.000000pt" height="300.000000pt" viewBox="0 0 1200.000000 300.000000"
 preserveAspectRatio="xMidYMid meet">
<metadata>
Created by potrace 1.16, written by Peter Selinger 2001-2019
</metadata>
<g transform="translate(0.000000,300.000000) scale(0.100000,-0.100000)"
fill="#4a4a4a" stroke="none">
<path d="M6200 2271 c-298 -63 -784 -280 -1220 -544 -96 -58 -176 -105 -177
-103 -2 2 6 23 16 47 26 59 43 171 35 228 -9 67 -31 108 -73 133 -32 21 -48
23 -151 22 -306 -2 -625 -157 -1157 -561 -90 -68 -163 -122 -163 -121 0 2 11
35 25 73 21 59 25 88 25 186 0 139 -16 201 -62 246 -62 60 -164 65 -363 18
-299 -70 -738 -309 -1314 -713 -96 -68 -176 -120 -179 -117 -3 3 51 119 120
258 155 309 168 344 175 469 l6 97 -31 30 c-36 37 -65 39 -147 11 -152 -52
-471 -290 -856 -636 -164 -148 -419 -423 -419 -451 0 -26 19 -43 48 -43 17 0
43 21 90 72 350 383 898 843 1134 953 76 35 78 34 78 -34 0 -85 -20 -137 -156
-411 -126 -254 -154 -321 -154 -370 0 -63 66 -78 152 -35 27 14 138 87 246
163 549 386 998 622 1285 677 82 16 173 20 202 9 25 -10 42 -54 49 -129 11
-114 -6 -194 -69 -323 -30 -62 -55 -124 -55 -136 0 -50 50 -60 115 -23 22 13
143 101 269 196 524 396 798 535 1081 548 138 6 147 1 153 -85 6 -82 -24 -178
-83 -266 -51 -76 -56 -113 -17 -132 42 -21 96 4 360 163 372 224 683 372 1022
487 133 45 311 83 330 71 15 -9 12 -95 -6 -156 -9 -30 -51 -128 -94 -219 -113
-238 -132 -318 -89 -361 18 -18 30 -21 78 -17 74 6 154 46 312 158 478 340
704 461 892 477 l67 6 0 -70 c0 -98 -19 -151 -132 -378 -116 -230 -138 -288
-138 -359 1 -79 32 -106 123 -106 107 0 178 31 504 221 395 229 695 361 886
389 104 15 124 10 133 -37 11 -61 -4 -223 -31 -318 -34 -121 -33 -167 3 -195
55 -44 167 -12 411 119 618 331 1009 473 1401 506 76 7 126 -3 142 -28 4 -7 8
-46 8 -87 0 -88 -16 -128 -112 -284 -48 -76 -62 -108 -62 -139 -2 -92 89 -88
330 13 82 35 228 95 324 135 l175 71 -1 42 c0 23 -3 44 -6 47 -8 8 -173 -55
-432 -165 -207 -87 -276 -113 -276 -105 0 2 25 43 55 91 84 134 99 180 100
301 0 113 -9 135 -76 182 -33 22 -39 23 -174 18 -353 -15 -791 -166 -1380
-479 -233 -124 -270 -141 -324 -153 l-34 -7 6 33 c4 19 16 68 27 109 28 100
32 308 7 357 -31 58 -61 73 -146 73 -225 -1 -519 -123 -1075 -448 -98 -57
-202 -115 -231 -127 -62 -28 -165 -49 -178 -36 -16 16 14 96 112 291 128 254
152 320 158 435 9 176 -50 214 -255 165 -181 -44 -383 -148 -652 -337 -345
-243 -407 -282 -449 -283 -21 0 -7 38 90 247 113 243 139 352 108 442 -22 63
-106 76 -269 42z"/>
</g>
</svg>
