<?xml version="1.0" standalone="no"?>
<!DOCTYPE svg PUBLIC "-//W3C//DTD SVG 20010904//EN"
 "http://www.w3.org/TR/2001/REC-SVG-20010904/DTD/svg10.dtd">
<svg version="1.0" xmlns="http://www.w3.org/2000/svg"
 width="1200.000000pt" height="300.000000pt" viewBox="0 0 1200.000000 300.000000"
 preserveAspectRatio="xMidYMid meet">
<metadata>
Created by potrace 1.16, written by Peter Selinger 2001-2019
</metadata>
<g transform="translate(0.000000,300.000000) scale(0.100000,-0.100000)"
fill="#4a4a4a" stroke="none">
<path d="M8415 2276 c-249 -71 -614 -278 -1015 -577 -107 -80 -347 -271 -415
-331 -191 -167 -273 -224 -312 -216 -17 3 -18 28 -24 333 -7 360 -15 414 -66
461 -22 20 -36 24 -88 24 -51 0 -75 -6 -131 -35 -99 -50 -341 -233 -509 -385
-75 -69 -267 -251 -294 -280 -13 -14 -62 -65 -110 -115 l-86 -90 0 266 c0 246
-1 268 -20 303 -11 20 -35 47 -53 58 -29 18 -45 20 -120 15 -126 -7 -247 -54
-492 -190 -278 -155 -431 -272 -725 -557 -77 -75 -155 -146 -173 -159 l-32
-22 0 337 c0 449 -17 568 -86 623 -38 30 -83 26 -158 -13 -120 -62 -263 -184
-781 -666 -449 -418 -575 -506 -726 -504 -76 0 -110 17 -135 66 -14 27 -16 58
-11 227 6 214 17 278 96 568 54 201 61 245 61 404 0 133 -1 138 -26 168 -23
27 -32 31 -77 31 -67 -1 -160 -40 -271 -114 -185 -125 -633 -503 -931 -787
-252 -239 -382 -357 -433 -391 -31 -21 -60 -46 -63 -57 -18 -47 25 -90 77 -77
46 12 83 43 375 317 156 146 329 305 384 354 55 48 120 106 145 128 100 89
331 278 429 351 95 70 181 121 248 147 l26 10 -6 -133 c-5 -117 -11 -153 -52
-303 -87 -320 -105 -434 -105 -664 0 -225 23 -286 131 -342 38 -20 59 -23 144
-23 88 0 108 4 165 29 104 46 239 142 380 269 69 62 276 253 355 326 159 149
205 192 310 286 173 156 340 284 373 284 27 0 35 -101 39 -490 2 -217 6 -405
8 -418 15 -63 98 -82 182 -41 26 12 110 85 201 173 274 264 420 380 639 509
307 181 551 267 583 208 16 -31 12 -398 -5 -534 -14 -105 -14 -120 0 -146 18
-36 47 -47 84 -31 16 6 101 87 189 180 355 372 727 693 911 785 65 33 87 32
96 -2 3 -16 10 -179 13 -363 5 -224 11 -342 19 -355 6 -11 23 -31 38 -45 23
-22 36 -25 93 -25 43 0 80 7 103 18 35 17 182 133 293 231 55 49 323 261 426
337 391 291 809 517 1023 555 l37 6 0 -58 c0 -115 -25 -188 -162 -474 -122
-255 -150 -334 -151 -431 -1 -99 51 -130 182 -110 102 16 188 61 547 287 370
233 468 292 579 350 134 70 225 108 225 95 0 -57 -42 -191 -108 -349 -106
-252 -117 -288 -117 -399 0 -88 1 -94 28 -120 27 -28 29 -28 145 -27 141 1
179 11 522 142 387 149 587 222 745 274 138 45 325 98 346 98 4 0 -1 -21 -11
-46 -25 -58 -26 -116 -2 -137 20 -18 49 -22 69 -9 16 10 63 136 76 205 10 52
9 60 -10 85 -29 39 -78 39 -232 2 -191 -46 -439 -133 -1091 -380 -230 -87
-346 -120 -424 -120 l-49 0 6 58 c7 69 48 189 116 339 63 139 89 220 99 308
23 193 -37 246 -206 179 -151 -60 -236 -109 -721 -412 -170 -106 -326 -202
-347 -214 -22 -11 -49 -26 -61 -34 -32 -20 -112 -50 -154 -58 l-37 -7 9 38
c16 73 47 150 137 338 114 241 138 301 157 391 19 94 20 226 1 263 -30 56
-115 65 -251 27z"/>
</g>
</svg>
