<?xml version="1.0" standalone="no"?>
<!DOCTYPE svg PUBLIC "-//W3C//DTD SVG 20010904//EN"
 "http://www.w3.org/TR/2001/REC-SVG-20010904/DTD/svg10.dtd">
<svg version="1.0" xmlns="http://www.w3.org/2000/svg"
 width="1200.000000pt" height="1200.000000pt" viewBox="0 0 1200.000000 1200.000000"
 preserveAspectRatio="xMidYMid meet">

<g transform="translate(0.000000,1200.000000) scale(0.100000,-0.100000)"
fill="#000000" stroke="none">
<path d="M5155 9240 c-4 -6 9 -26 28 -43 18 -18 46 -51 61 -74 15 -23 34 -44
41 -47 7 -2 36 -35 64 -72 45 -59 50 -70 37 -82 -22 -22 -69 1 -93 46 -19 38
-47 52 -66 33 -7 -7 -2 -22 17 -50 19 -27 29 -57 33 -97 6 -53 12 -65 57 -117
l50 -58 -2 -84 c-1 -46 -9 -99 -16 -117 -16 -37 -9 -99 11 -105 14 -5 28 57
19 85 -5 14 7 34 48 77 30 31 59 54 64 51 4 -3 9 -29 10 -59 1 -46 -3 -62 -27
-94 -16 -22 -32 -50 -36 -64 -4 -13 -12 -30 -18 -38 -8 -10 -7 -16 5 -25 20
-15 27 -48 11 -53 -6 -2 -21 17 -32 43 -15 32 -25 44 -32 37 -13 -13 20 -163
38 -170 21 -8 16 -61 -7 -68 -27 -9 -38 0 -33 28 4 18 -4 29 -34 50 -22 15
-46 27 -54 27 -20 0 -39 20 -39 42 0 10 -7 18 -15 18 -18 0 -91 91 -111 139
-9 22 -13 49 -9 72 4 23 2 45 -6 57 -7 10 -9 27 -6 36 6 15 12 12 43 -18 20
-20 44 -38 54 -41 21 -7 45 -53 61 -120 13 -53 34 -85 56 -85 17 0 17 24 -1
39 -7 6 -16 36 -19 67 -3 34 -15 69 -29 90 -22 33 -118 114 -135 114 -17 0
-118 56 -135 75 -12 13 -17 37 -18 73 0 46 2 52 21 52 11 0 34 -9 49 -20 44
-32 62 -18 59 46 -2 47 1 58 29 93 47 58 51 87 16 121 -16 15 -38 40 -48 55
-17 25 -20 26 -29 10 -5 -9 -13 -65 -18 -123 -4 -58 -12 -109 -16 -113 -4 -4
-26 1 -48 11 -22 10 -50 16 -62 13 -13 -3 -51 6 -88 21 -78 31 -85 32 -113 6
-16 -15 -20 -27 -16 -50 6 -29 -27 -100 -46 -100 -5 0 -18 15 -29 33 -11 17
-32 43 -46 56 -14 13 -25 31 -25 41 0 26 -45 76 -211 233 l-61 57 -63 -6 c-46
-5 -74 -3 -102 9 -37 14 -119 21 -136 10 -12 -8 23 -43 44 -43 23 0 51 -28 47
-49 -3 -13 -17 -16 -78 -17 -89 0 -136 -22 -145 -66 -8 -35 -41 -38 -51 -5
-14 46 -59 103 -94 118 -109 48 -124 50 -248 33 -64 -8 -121 -19 -126 -24 -14
-14 41 -43 69 -36 14 4 25 11 25 16 0 16 20 12 47 -10 16 -12 41 -20 64 -20
21 0 41 -5 45 -11 13 -22 -17 -33 -86 -33 -60 1 -70 -1 -70 -16 0 -13 11 -19
42 -24 39 -6 154 -1 206 10 17 3 22 0 22 -15 0 -21 -22 -33 -44 -25 -7 3 -29
-9 -47 -26 -19 -17 -47 -37 -63 -45 -35 -18 -97 -20 -113 -4 -7 7 -37 11 -67
11 -31 0 -56 3 -56 6 0 4 14 16 30 27 27 18 34 32 28 52 -2 4 -50 6 -108 4
-101 -3 -107 -4 -158 -38 -29 -19 -55 -40 -58 -47 -3 -8 -34 -12 -92 -12 -57
0 -96 -5 -112 -15 -42 -23 -96 -72 -115 -104 -50 -83 -69 -104 -105 -119 -45
-18 -110 -72 -110 -92 0 -10 13 -14 45 -14 43 0 45 -1 65 -44 11 -25 20 -52
20 -60 0 -21 -64 -32 -97 -17 -14 6 -34 9 -44 6 -11 -4 -19 -3 -19 2 0 4 -4
14 -9 21 -27 43 -167 -112 -148 -162 6 -15 11 -14 44 10 21 16 45 37 54 47 13
16 20 17 37 8 12 -7 22 -17 22 -22 0 -6 7 -9 15 -5 9 3 15 0 15 -10 0 -8 -4
-13 -9 -10 -11 7 -23 -22 -16 -35 3 -5 1 -17 -4 -27 -15 -27 -2 -35 27 -16 27
18 168 29 191 14 21 -12 5 -40 -23 -40 -14 0 -28 -5 -31 -11 -4 -6 -12 -8 -19
-6 -21 8 -56 -12 -56 -33 0 -23 15 -25 50 -5 14 8 51 14 83 15 46 0 61 -4 79
-22 18 -18 35 -22 86 -23 44 -1 68 -7 80 -18 15 -16 14 -19 -16 -50 -18 -18
-32 -44 -32 -57 0 -14 -7 -34 -16 -45 -10 -14 -13 -31 -9 -57 4 -24 3 -38 -4
-38 -6 0 -23 -25 -37 -55 -21 -42 -32 -54 -43 -49 -35 14 -46 9 -49 -21 -2
-16 -16 -43 -31 -60 -39 -41 -45 -64 -25 -86 23 -26 59 -23 118 9 38 21 52 36
64 67 23 61 98 164 166 227 49 46 58 59 46 67 -8 6 -11 13 -7 18 5 4 12 1 18
-7 8 -13 12 -12 25 5 8 11 19 26 23 34 5 8 16 11 30 6 24 -7 27 -27 7 -44 -8
-7 -18 -25 -21 -41 -3 -16 -15 -38 -25 -51 -12 -13 -18 -30 -14 -43 3 -15 -3
-29 -20 -46 -15 -13 -26 -27 -26 -32 0 -5 -11 -26 -25 -46 -40 -58 -31 -68 29
-29 19 12 35 30 36 40 0 28 38 95 59 107 11 5 28 10 39 10 26 0 35 56 14 88
-14 22 -14 23 7 29 18 5 21 11 16 32 -4 20 0 33 19 50 28 26 57 22 50 -6 -3
-12 12 -36 46 -71 32 -34 50 -61 50 -77 0 -27 27 -34 48 -13 9 9 17 9 36 -2
36 -19 51 -8 66 47 26 95 115 249 186 320 28 27 39 32 60 27 19 -5 31 -2 39 9
6 9 36 25 66 37 62 25 79 37 79 56 0 17 -36 19 -46 3 -3 -6 -17 -9 -30 -6 -13
2 -29 -2 -35 -9 -6 -8 -29 -14 -50 -14 -21 0 -49 -4 -63 -10 -23 -8 -28 -6
-43 18 -21 32 -45 52 -55 46 -4 -2 -14 -29 -23 -59 -8 -30 -20 -55 -25 -55 -6
0 -10 -8 -10 -18 0 -10 -11 -29 -25 -42 -14 -13 -25 -31 -25 -40 0 -8 -7 -26
-16 -39 -14 -20 -22 -22 -57 -17 -22 4 -53 14 -68 23 -25 15 -29 15 -54 -1
-18 -12 -30 -15 -37 -8 -7 7 3 19 31 37 23 14 47 37 53 50 6 14 14 25 18 25 3
0 23 15 43 34 33 30 137 210 137 237 0 17 -32 6 -44 -16 -23 -41 -77 -104 -94
-109 -22 -7 -126 -132 -136 -164 -10 -31 -41 -46 -67 -31 -14 7 -41 9 -70 5
-39 -5 -49 -4 -49 8 0 8 5 18 10 21 6 3 8 16 4 29 -4 16 4 32 30 59 19 20 39
37 44 37 5 0 22 15 39 33 17 17 38 37 48 42 16 10 17 12 1 27 -23 23 -20 38 8
38 14 0 38 11 54 25 17 14 37 25 46 25 28 0 111 31 123 47 15 19 47 9 61 -20
7 -12 17 -29 24 -39 9 -13 8 -25 -7 -57 -13 -31 -15 -45 -7 -53 15 -15 80 16
110 53 22 27 26 28 85 22 33 -3 72 -12 87 -20 14 -7 33 -13 42 -13 9 0 37 -9
63 -20 32 -14 52 -17 63 -11 26 15 145 141 139 148 -3 3 -29 -9 -57 -26 -29
-18 -66 -35 -83 -38 -18 -3 -39 -10 -48 -14 -11 -6 -27 0 -50 16 -18 14 -43
25 -55 25 -26 0 -57 27 -48 42 4 5 20 7 36 4 23 -5 38 1 68 25 37 30 40 31 77
18 42 -14 111 -13 130 3 7 5 22 8 35 6 21 -3 23 -9 26 -75 3 -64 0 -76 -21
-105 -37 -48 -66 -104 -71 -135 -3 -16 -16 -35 -28 -43 -13 -8 -45 -35 -73
-60 -27 -25 -62 -52 -77 -59 -15 -8 -40 -28 -57 -45 -28 -29 -30 -34 -17 -51
10 -14 27 -19 68 -20 l55 0 24 57 c13 32 29 63 34 70 16 20 182 168 189 168 3
0 17 -24 30 -53 13 -29 39 -76 60 -104 20 -28 36 -59 36 -70 0 -51 58 -57 121
-11 55 41 108 68 131 68 9 0 20 5 23 10 11 18 54 12 53 -7 0 -10 2 -25 6 -33
8 -19 -49 -90 -72 -90 -44 -1 -78 -60 -50 -88 14 -14 48 -16 48 -4 0 5 22 32
49 60 41 42 56 52 83 52 19 0 39 5 46 12 6 6 43 12 84 12 46 1 73 6 75 13 5
14 -59 43 -95 43 -14 0 -44 11 -67 24 -26 16 -50 23 -63 19 -32 -8 -29 25 4
37 26 10 64 -2 64 -20 0 -6 7 -10 16 -10 12 0 15 6 9 23 -15 49 -17 67 -7 67
12 0 23 -11 46 -45 13 -17 17 -18 40 -6 23 13 30 12 62 -5 21 -11 50 -41 70
-71 18 -28 42 -56 52 -62 22 -12 72 -108 72 -138 0 -11 10 -25 25 -31 13 -6
31 -25 39 -41 9 -16 25 -33 36 -36 12 -4 19 -12 17 -18 -6 -18 -33 -20 -49 -3
-8 8 -21 14 -29 13 -8 -1 -40 4 -72 12 -43 9 -66 10 -89 2 -17 -6 -40 -11 -51
-11 -11 0 -26 -8 -33 -17 -13 -17 -17 -15 -51 25 -21 23 -44 42 -50 42 -7 0
-13 7 -13 15 0 11 11 15 37 15 20 0 44 7 54 15 11 11 39 16 88 17 40 1 74 5
77 10 3 4 -9 28 -27 53 -27 37 -38 45 -64 45 -18 0 -38 -7 -45 -15 -7 -8 -37
-22 -66 -32 -32 -10 -76 -35 -105 -60 -28 -24 -56 -43 -62 -43 -7 0 -18 -9
-25 -21 -7 -11 -34 -30 -60 -41 -26 -11 -58 -30 -72 -43 -14 -12 -37 -25 -53
-29 -15 -4 -44 -22 -65 -41 -21 -18 -63 -43 -93 -55 -29 -12 -58 -26 -63 -31
-6 -5 -20 -9 -33 -9 -13 0 -23 -4 -23 -9 0 -5 -9 -13 -20 -16 -23 -7 -50 -53
-50 -85 0 -17 6 -20 49 -20 45 0 50 3 75 39 15 22 34 42 42 45 22 8 29 -22 10
-43 -9 -10 -16 -24 -16 -32 0 -9 -13 -28 -30 -44 -16 -16 -30 -38 -30 -49 0
-13 -26 -44 -65 -80 -74 -67 -83 -96 -32 -96 41 0 93 32 102 62 4 13 13 30 21
38 7 8 28 32 46 53 26 31 42 39 78 44 41 5 100 35 108 56 2 4 15 21 28 36 13
16 24 36 24 44 0 19 -49 36 -85 30 -21 -4 -26 -2 -23 8 3 8 14 15 26 17 12 2
35 19 50 38 15 19 36 34 48 34 12 0 27 7 34 15 7 8 20 15 29 15 9 1 34 25 56
55 61 83 86 86 66 7 -7 -26 -13 -58 -14 -72 -1 -14 -14 -36 -29 -48 -16 -13
-28 -30 -28 -38 0 -8 -9 -19 -21 -26 -21 -13 -59 -77 -59 -100 0 -14 -97 -118
-110 -118 -5 0 -23 -12 -41 -27 -18 -16 -46 -32 -63 -38 -21 -7 -37 -22 -50
-50 -20 -42 -32 -66 -52 -103 -6 -13 -28 -41 -47 -63 -20 -22 -34 -46 -31 -54
8 -19 47 -31 52 -16 2 6 13 11 25 11 12 0 29 4 37 10 12 7 12 13 1 34 -12 21
-11 28 7 53 22 32 53 61 81 77 10 6 31 20 46 30 22 16 31 17 45 8 15 -9 22 -9
32 1 45 42 79 54 191 67 55 6 74 13 97 35 33 31 40 65 14 65 -9 0 -27 -11 -40
-25 -19 -21 -32 -25 -78 -25 -30 0 -58 -4 -61 -10 -9 -15 -35 -12 -35 5 0 38
47 100 114 150 122 92 141 138 67 159 -31 9 -39 20 -22 30 5 3 20 -3 34 -14
33 -26 51 -25 74 3 35 42 48 49 77 36 19 -9 29 -9 39 -1 8 7 17 9 20 5 9 -8
-12 -33 -28 -33 -7 0 -23 -9 -36 -19 -22 -17 -24 -28 -26 -122 -2 -57 -6 -139
-11 -182 l-8 -79 -61 -56 c-61 -57 -103 -110 -103 -131 0 -20 31 -11 71 21 48
39 68 29 43 -23 -9 -19 -23 -42 -31 -51 -8 -9 -12 -22 -8 -28 4 -7 -1 -14 -11
-17 -11 -3 -30 -18 -43 -35 -18 -22 -21 -34 -14 -50 9 -20 9 -20 40 6 17 14
34 38 38 53 3 15 26 48 50 74 26 28 48 63 55 88 14 51 33 49 40 -4 l5 -37 41
48 c22 27 44 61 47 76 6 24 11 26 49 25 27 0 65 10 102 26 50 23 57 29 46 42
-8 10 -17 12 -24 6 -7 -6 -48 -10 -93 -9 -88 1 -82 -3 -112 71 -12 31 -6 52
12 40 7 -4 44 -11 82 -15 142 -15 170 -21 194 -39 21 -17 27 -18 45 -6 12 8
22 24 24 36 3 18 0 20 -28 15 -21 -5 -36 -2 -48 9 -26 23 -202 43 -232 27 -21
-11 -27 -8 -63 31 -31 33 -37 46 -29 58 5 9 17 15 27 13 9 -2 27 6 40 18 l22
21 59 -22 c33 -12 73 -23 89 -25 17 -2 49 -10 72 -18 41 -15 73 -13 73 5 0 5
-13 23 -29 41 -26 29 -35 32 -89 34 -49 2 -69 9 -111 36 -73 48 -86 98 -16 65
46 -22 73 -21 111 2 l32 19 23 -24 c12 -13 30 -24 40 -24 9 0 40 -23 68 -52
57 -58 63 -83 31 -136 -29 -46 -26 -57 25 -86 29 -17 45 -34 45 -46 0 -26 -22
-25 -45 0 -24 27 -50 27 -35 1 18 -36 11 -52 -56 -117 -84 -81 -123 -101 -163
-84 -39 16 -47 9 -77 -58 -14 -31 -34 -67 -45 -78 -12 -13 -19 -32 -17 -46 3
-21 9 -17 72 44 68 66 117 91 138 70 13 -13 -9 -77 -39 -115 -20 -25 -33 -97
-18 -97 7 0 55 95 91 180 30 69 35 76 71 85 21 6 55 18 75 27 20 9 45 14 56
11 15 -4 23 4 36 36 21 55 46 55 46 1 0 -25 11 -63 29 -98 15 -31 31 -75 35
-97 4 -22 11 -53 16 -70 5 -16 14 -57 21 -90 11 -54 81 -245 99 -270 7 -10 40
-111 75 -230 9 -33 30 -98 47 -145 42 -121 58 -184 58 -234 0 -24 7 -68 16
-97 8 -30 19 -67 24 -84 5 -16 12 -59 16 -95 4 -36 10 -69 14 -75 25 -36 31
-98 26 -250 -7 -220 -18 -307 -51 -395 -25 -69 -27 -83 -22 -177 3 -70 10
-108 21 -124 9 -13 16 -30 16 -37 0 -7 14 -33 30 -57 49 -72 40 -167 -25 -243
-15 -18 -33 -31 -40 -28 -17 6 -35 -13 -35 -37 0 -10 -10 -41 -22 -69 l-22
-50 -62 5 c-60 4 -65 7 -141 73 -176 153 -225 202 -233 236 -5 18 -14 52 -21
76 -8 30 -9 46 -1 54 14 14 32 1 32 -22 0 -10 16 -49 35 -86 28 -55 53 -85
139 -161 58 -51 108 -93 111 -93 3 0 5 14 5 30 0 17 5 30 10 30 6 0 10 -9 10
-19 0 -23 55 -81 76 -81 24 0 15 23 -22 60 -96 93 -254 368 -254 443 0 41 24
52 35 17 12 -37 25 -10 25 50 0 70 20 176 65 335 9 33 23 85 31 115 10 37 17
129 21 281 5 213 4 229 -16 286 -11 32 -21 74 -21 93 0 21 -16 61 -43 109 -24
42 -46 83 -50 92 -3 9 -25 32 -49 52 -42 34 -48 36 -146 43 -65 4 -102 11
-102 18 0 6 34 45 75 86 87 86 103 116 85 160 -7 17 -16 30 -21 30 -5 0 -9 13
-9 30 0 34 -16 45 -100 72 -50 16 -60 16 -112 2 -66 -17 -139 -57 -158 -88 -8
-12 -21 -48 -30 -81 -17 -59 -17 -60 -61 -68 -33 -5 -54 -3 -82 9 -36 17 -38
17 -58 -4 -11 -12 -28 -22 -37 -22 -22 0 -121 -84 -196 -166 -36 -40 -77 -72
-113 -90 -74 -36 -154 -117 -171 -175 -8 -24 -35 -73 -61 -109 -113 -153 -119
-174 -125 -455 -3 -119 -11 -238 -21 -295 -17 -97 -15 -193 5 -245 5 -14 10
-35 10 -45 0 -11 11 -30 25 -44 14 -14 25 -34 25 -44 0 -11 9 -31 21 -46 11
-14 19 -36 18 -48 -5 -38 42 -126 74 -139 34 -14 65 -66 44 -74 -7 -3 -22 -4
-32 -3 -38 5 -144 -34 -183 -67 -28 -25 -44 -32 -64 -28 -20 4 -34 -3 -59 -26
-17 -17 -39 -31 -48 -31 -9 0 -27 -10 -41 -21 l-25 -20 33 4 c43 5 51 -13 23
-52 -12 -16 -21 -34 -21 -39 0 -6 -9 -14 -20 -17 -11 -3 -25 -15 -30 -26 -7
-12 -21 -19 -41 -19 -30 0 -31 -1 -25 -35 5 -27 3 -37 -9 -41 -8 -3 -15 -14
-15 -24 0 -10 -7 -26 -16 -34 -14 -15 -19 -14 -55 6 -22 12 -46 32 -54 45 -9
13 -22 23 -29 23 -8 0 -28 17 -45 38 -29 38 -30 41 -32 166 -3 125 -3 127 -27
133 -20 5 -23 10 -18 34 4 23 2 28 -17 31 -18 2 -22 9 -20 33 1 16 12 36 24
45 24 19 31 69 17 121 -8 28 -7 42 6 67 9 18 23 32 31 32 10 0 15 11 15 35 0
34 -12 46 -25 25 -7 -11 -25 -4 -25 10 0 5 12 20 26 33 l26 24 -19 54 c-19 56
-53 81 -53 40 0 -12 -6 -21 -15 -21 -25 0 -17 29 17 61 18 16 36 29 40 29 4 0
12 9 18 21 9 16 8 24 -4 38 -15 16 -15 22 4 64 11 25 21 63 23 83 2 37 1 38
-38 42 -22 2 -46 8 -52 14 -14 11 -24 5 -76 -41 -24 -22 -35 -25 -90 -23 -34
2 -66 7 -72 13 -17 17 25 39 75 39 37 0 53 6 80 30 18 17 41 30 51 30 9 0 32
17 50 37 46 53 22 53 -87 2 -74 -35 -102 -43 -162 -46 -61 -3 -73 -1 -79 13
-8 21 21 44 57 44 14 0 42 9 63 20 20 11 49 20 63 20 17 0 28 6 31 20 3 10 16
26 29 34 12 9 27 30 33 48 5 18 18 56 29 85 11 28 17 54 14 57 -3 3 1 14 9 23
24 30 39 62 39 82 0 11 5 23 10 26 16 10 105 187 106 213 1 12 8 30 18 40 9
10 16 28 16 40 0 12 5 22 10 22 6 0 10 17 10 38 0 55 9 78 35 92 12 7 28 23
34 37 10 22 9 25 -9 30 -23 6 -27 28 -5 37 20 7 19 26 -2 41 -16 12 -16 14 0
38 20 31 24 185 6 220 -19 37 -51 67 -72 67 -11 0 -37 20 -59 45 -35 40 -44
45 -72 40 -17 -3 -73 -10 -125 -15 -76 -7 -101 -6 -129 6 -28 11 -51 13 -111
5 -42 -5 -123 -10 -181 -10 -58 0 -129 -3 -158 -7 -49 -6 -57 -10 -94 -58 -22
-28 -44 -61 -49 -73 -5 -13 -18 -36 -30 -53 -31 -41 -22 -134 20 -210 17 -30
32 -59 35 -65 10 -27 23 -154 19 -187 -4 -32 0 -43 26 -73 20 -23 31 -46 31
-66 0 -17 9 -42 20 -56 12 -15 18 -34 15 -44 -4 -11 5 -42 20 -71 15 -29 31
-77 37 -108 5 -30 18 -67 29 -81 10 -15 19 -32 19 -38 0 -5 11 -31 24 -56 14
-25 28 -71 31 -103 4 -31 13 -64 21 -72 7 -9 20 -35 28 -57 15 -41 14 -42 -7
-34 -12 4 -26 18 -32 29 -14 32 -62 30 -77 -3 -6 -13 -19 -27 -29 -30 -31 -10
-89 -86 -89 -116 0 -27 48 -127 78 -162 8 -9 20 -27 27 -40 7 -14 19 -21 33
-20 14 2 22 -3 22 -12 0 -8 -4 -15 -10 -15 -15 0 -11 -112 5 -140 22 -38 19
-62 -6 -58 -18 3 -24 -5 -36 -52 -7 -30 -20 -61 -27 -70 -13 -14 -24 -55 -29
-110 -2 -14 -7 -33 -11 -43 -5 -10 -6 -46 -2 -80 4 -34 9 -78 11 -97 5 -41 20
-157 34 -255 6 -38 16 -86 22 -105 7 -21 10 -92 9 -176 -1 -114 1 -143 13
-153 10 -7 18 -40 22 -86 6 -62 10 -74 27 -77 23 -4 20 -23 -4 -22 -20 1 -25
-40 -7 -52 6 -3 9 -19 7 -35 -3 -20 0 -29 9 -29 7 0 13 -10 13 -22 0 -13 9
-38 20 -56 11 -18 20 -41 20 -51 0 -10 7 -24 15 -31 8 -7 15 -22 15 -34 0 -63
72 -146 127 -146 17 0 33 -8 41 -20 14 -23 47 -27 55 -7 6 17 -3 68 -14 83 -6
7 -2 20 9 34 18 22 25 23 143 22 142 -2 297 -10 308 -17 29 -17 180 -30 480
-40 90 -3 182 -10 205 -16 22 -6 53 -12 67 -13 14 0 33 -7 41 -14 11 -8 65
-13 179 -15 162 -2 164 -2 213 26 64 36 95 34 193 -9 38 -17 53 -18 53 -3 0 7
7 17 15 23 11 8 12 15 4 26 -8 11 -12 12 -16 3 -9 -23 -52 -15 -57 9 -3 13 -8
37 -11 53 -25 112 -13 150 56 185 24 13 39 28 41 42 3 20 9 23 47 22 29 -1 47
-6 52 -17 14 -24 110 -40 239 -41 97 -1 115 -3 118 -17 7 -37 -124 -47 -257
-20 -71 14 -81 14 -75 -4 10 -26 103 -43 239 -45 71 0 134 -5 139 -10 22 -22
-16 -34 -129 -38 -80 -3 -115 -8 -112 -16 2 -7 32 -11 80 -11 72 0 98 -7 84
-22 -4 -3 -30 -7 -57 -7 -55 -1 -64 -15 -25 -36 19 -10 30 -11 50 -2 30 14
125 16 125 3 0 -5 -12 -17 -27 -27 -24 -15 -54 -18 -218 -19 -276 -3 -258 -1
-272 -30 -6 -14 -7 -27 -3 -30 5 -3 118 -3 252 -1 244 4 265 6 328 45 8 5 58
31 110 57 95 48 95 48 200 49 98 1 106 -1 123 -22 38 -47 67 -54 215 -50 129
3 186 -3 302 -33 19 -5 55 -14 80 -20 25 -7 59 -16 76 -21 46 -14 104 -11 120
6 25 25 47 19 40 -10 -8 -31 10 -33 54 -7 23 14 27 21 18 30 -7 7 -19 12 -28
12 -9 0 -25 9 -35 20 -10 11 -26 20 -37 20 -23 0 -115 51 -185 102 -29 21 -72
43 -95 48 -108 23 -115 28 -80 50 14 9 11 10 -15 6 -38 -6 -85 15 -106 48 -9
13 -29 26 -45 29 -21 4 -40 22 -70 67 -48 70 -52 90 -18 90 39 0 75 -17 130
-63 46 -39 131 -87 155 -87 4 0 26 -14 47 -31 31 -24 45 -29 70 -24 26 4 34 1
47 -18 8 -13 35 -29 58 -37 50 -16 90 -44 158 -111 26 -26 79 -62 122 -82 89
-43 124 -76 114 -106 -6 -20 -3 -21 77 -22 249 -2 627 -31 753 -58 124 -26
225 -44 285 -52 36 -4 97 -13 135 -19 39 -6 124 -10 190 -8 l120 3 3 57 3 57
-53 24 c-30 14 -60 32 -67 41 -7 9 -18 16 -23 16 -6 0 -23 11 -40 25 -16 14
-38 25 -48 25 -26 0 -32 14 -15 36 8 10 15 35 15 54 0 19 14 64 30 98 17 35
30 68 30 74 0 5 16 43 35 84 19 40 35 82 35 93 0 11 4 23 10 26 11 7 10 334
-1 341 -4 2 -6 41 -4 87 2 45 -2 118 -7 162 -5 44 -11 90 -11 102 -1 12 -8 28
-14 35 -7 6 -13 17 -13 23 0 5 -6 22 -14 37 -8 14 -17 46 -21 70 -3 24 -11 57
-18 73 -10 28 -160 185 -177 185 -4 0 -15 9 -25 20 -10 11 -24 20 -32 20 -32
0 -36 69 -7 115 7 11 14 47 17 81 2 33 7 66 11 73 4 7 9 130 10 274 1 144 6
269 10 278 4 8 2 27 -3 41 -5 14 -6 29 -1 34 13 15 23 191 11 199 -6 3 -11 15
-11 26 0 21 -17 31 -53 33 -15 1 -23 9 -25 25 -2 14 -14 39 -27 56 l-24 30 20
44 c10 24 19 56 19 71 0 15 10 38 23 52 37 41 47 66 47 110 0 72 -19 118 -70
172 -44 46 -50 49 -73 39 -31 -14 -95 -6 -120 15 -15 13 -21 13 -45 2 -15 -8
-34 -19 -42 -26 -8 -6 -28 -14 -45 -18 -16 -4 -46 -20 -65 -35 -33 -26 -38
-27 -105 -20 -38 4 -73 5 -77 3 -4 -3 -16 1 -27 7 -15 10 -24 9 -45 -4 -18
-13 -31 -14 -50 -8 -13 6 -26 8 -29 5 -2 -2 -33 -8 -68 -13 -66 -9 -126 -28
-150 -47 -8 -6 -25 -14 -40 -17 -38 -10 -180 -139 -219 -201 -19 -30 -41 -55
-47 -56 -7 0 -37 -16 -67 -35 -30 -19 -63 -35 -74 -35 -22 0 -62 -40 -62 -63
0 -26 -22 -69 -57 -111 -19 -23 -33 -51 -33 -66 0 -14 -7 -35 -15 -46 -19 -25
-20 -141 -2 -211 7 -28 34 -79 59 -114 64 -90 78 -122 78 -172 0 -69 -68 -152
-146 -177 -39 -13 -42 -27 -16 -84 15 -34 24 -41 67 -52 28 -7 62 -13 77 -14
22 0 31 -7 43 -37 15 -35 15 -37 -10 -63 -14 -15 -45 -33 -68 -40 -61 -19 -62
-24 -12 -49 l46 -23 -58 -38 c-85 -56 -113 -92 -113 -149 0 -77 18 -120 69
-170 l48 -47 129 -11 c172 -14 212 -15 235 -2 11 5 23 7 28 4 13 -7 1 -45 -14
-45 -7 0 -18 -7 -25 -14 -15 -19 -91 -56 -113 -56 -9 0 -19 -5 -22 -10 -3 -6
-27 -20 -53 -31 -26 -12 -72 -47 -102 -78 -47 -47 -165 -130 -220 -152 -9 -4
-73 -46 -144 -93 -102 -70 -131 -85 -142 -75 -8 6 -14 18 -14 25 0 8 -9 19
-20 26 -15 9 -20 24 -20 53 0 23 -7 50 -15 61 -19 26 -19 61 1 72 15 8 14 15
-10 66 -27 56 -27 58 -23 244 3 179 9 248 42 462 32 208 34 233 18 258 -11 19
-12 30 -2 59 6 19 11 56 10 82 -3 82 -3 95 1 138 2 22 9 48 16 55 8 11 9 31 2
75 -9 54 -11 89 -11 177 0 16 10 39 21 51 28 29 28 95 0 102 -15 4 -19 14 -20
42 0 20 -1 59 -2 86 -1 28 5 79 13 113 10 50 19 68 42 84 l29 21 -32 13 -32
14 21 34 c14 22 21 50 21 84 0 28 6 56 13 64 18 18 35 152 35 278 0 105 0 106
46 203 l46 98 -14 59 c-7 33 -11 62 -8 65 11 10 32 5 32 -9 0 -8 8 -24 19 -37
16 -20 21 -22 35 -9 12 9 15 22 11 38 -5 22 -4 23 24 17 35 -8 44 3 32 41 -5
16 -12 50 -15 75 -5 46 -5 47 27 54 54 11 89 9 162 -11 72 -20 179 -80 169
-95 -3 -5 -19 -9 -35 -9 -17 0 -39 -5 -50 -10 -15 -9 -26 -6 -53 15 -18 14
-38 25 -45 25 -7 0 -27 11 -45 25 -36 27 -66 33 -66 12 0 -14 31 -47 44 -47 4
0 19 -9 33 -20 14 -11 36 -20 49 -20 16 0 30 -12 48 -42 24 -39 24 -44 9 -55
-25 -19 -65 -5 -103 38 -20 21 -39 39 -43 39 -4 0 -7 -13 -7 -28 0 -19 11 -39
36 -63 20 -18 50 -54 67 -79 30 -45 105 -120 120 -120 4 0 7 17 7 38 0 20 9
54 20 75 11 20 20 44 20 52 0 24 33 85 46 85 6 0 17 -7 24 -15 6 -8 40 -30 75
-50 65 -36 123 -94 197 -195 38 -53 65 -77 74 -67 2 1 -4 23 -12 47 -11 31
-14 64 -11 106 6 67 1 74 -65 88 -41 9 -161 117 -146 131 7 7 135 -14 162 -26
18 -8 26 -20 26 -37 0 -28 36 -74 88 -112 20 -15 56 -46 80 -68 23 -23 47 -42
52 -42 13 0 13 -4 -11 59 -24 65 -61 111 -101 128 -39 17 -97 79 -119 129 -17
38 -22 42 -64 46 -55 7 -70 18 -100 79 -13 26 -42 61 -65 79 -46 36 -50 50
-16 50 14 0 27 4 30 9 6 9 85 23 124 22 104 -3 139 3 166 28 34 32 33 45 -4
37 -16 -3 -43 -9 -60 -12 -59 -12 -29 34 76 114 37 28 45 30 103 27 35 -3 66
-7 69 -10 3 -3 -4 -22 -15 -42 -21 -36 -36 -47 -102 -75 l-34 -14 31 -35 c29
-33 31 -33 50 -16 15 14 33 17 78 15 51 -3 59 -6 59 -23 0 -17 -7 -20 -40 -21
-38 0 -40 -2 -43 -33 -4 -40 -21 -47 -61 -27 -16 9 -41 16 -56 16 -14 0 -25 6
-25 14 0 7 -6 19 -14 25 -10 8 -19 6 -40 -10 -14 -11 -26 -24 -26 -29 0 -5 26
-16 58 -25 31 -9 77 -25 102 -37 24 -11 55 -24 67 -29 30 -11 29 -27 -1 -39
-13 -5 -27 -14 -31 -19 -3 -6 -31 -11 -61 -11 -44 0 -62 5 -89 26 -19 14 -42
24 -51 22 -28 -5 29 -64 81 -84 48 -18 95 -69 95 -103 0 -11 5 -23 10 -26 6
-3 10 -14 10 -24 0 -9 16 -32 35 -51 l34 -33 12 26 c10 21 9 37 -3 80 -9 30
-12 60 -8 67 12 19 63 -3 122 -52 26 -21 51 -38 57 -38 18 0 91 -71 91 -89 0
-9 5 -23 10 -31 16 -24 29 5 23 54 -9 76 -34 123 -75 139 -10 3 -20 18 -24 33
-10 39 24 64 87 64 41 0 49 3 49 19 0 12 -14 24 -44 35 -27 10 -75 47 -125 94
-70 67 -81 82 -81 111 l0 33 47 -7 c25 -4 56 -13 68 -21 15 -10 29 -12 46 -6
23 9 22 10 -21 37 -24 15 -59 32 -77 37 -17 5 -45 21 -60 36 -15 15 -43 38
-60 51 -18 12 -33 28 -33 35 0 7 -9 25 -20 39 -11 14 -20 30 -20 35 0 6 23 22
51 35 36 19 59 24 85 20 28 -5 34 -2 34 12 0 14 5 16 23 10 12 -4 47 -9 77
-10 30 -1 71 -8 90 -15 146 -55 183 -62 324 -64 l111 -2 47 40 c31 27 48 49
48 64 0 25 32 62 54 62 8 0 17 -7 20 -16 5 -12 15 -8 52 22 25 21 50 48 54 60
9 24 58 35 101 23 13 -4 47 -7 76 -8 28 -1 58 -4 67 -7 22 -8 99 -127 126
-194 13 -30 33 -77 46 -104 13 -28 24 -56 24 -63 0 -73 125 229 131 316 3 42
2 46 -34 66 -22 12 -57 48 -83 85 -25 36 -55 76 -67 90 -13 14 -29 37 -37 53
-7 15 -20 27 -29 27 -12 0 -12 -3 -3 -12 16 -16 15 -55 0 -61 -8 -3 -6 -8 7
-13 24 -9 35 -23 35 -47 0 -14 -5 -16 -25 -11 -18 4 -25 2 -25 -9 0 -24 26
-40 47 -29 15 8 27 2 63 -34 24 -24 48 -44 52 -44 11 0 10 -28 -2 -35 -20 -12
-79 8 -113 38 -19 18 -43 37 -54 43 -10 6 -29 31 -41 55 -13 24 -28 46 -32 49
-10 6 -40 89 -40 112 0 9 -23 38 -51 65 -47 45 -88 108 -77 119 7 7 38 -7 38
-17 0 -5 13 -9 29 -9 16 0 34 -7 41 -15 8 -9 30 -15 57 -15 54 0 133 -38 162
-79 17 -24 70 -61 88 -61 8 0 2 39 -7 45 -5 3 -10 16 -10 27 0 12 -7 29 -16
39 -18 20 -11 59 11 59 7 0 20 -11 29 -25 9 -14 24 -25 33 -25 9 0 27 -10 40
-22 19 -18 26 -20 32 -9 11 17 19 3 19 -32 -1 -45 16 -51 35 -12 14 30 15 36
2 49 -8 8 -15 22 -15 31 0 30 -32 113 -48 129 -17 14 -21 16 -42 16 -16 0 -12
37 5 44 25 9 18 45 -10 52 -14 3 -25 12 -25 20 0 7 -8 29 -17 48 -15 29 -23
35 -45 34 -19 -2 -33 6 -48 25 -15 19 -31 27 -52 27 -24 0 -32 6 -41 30 -7 19
-24 35 -47 44 -44 19 -62 34 -84 69 -22 32 -29 33 -53 8 -21 -22 -64 -41 -96
-41 -12 0 -33 -9 -47 -20 -14 -11 -36 -20 -49 -20 -14 0 -32 -6 -40 -13 -30
-25 -89 -39 -111 -27 -12 6 -40 8 -70 4 -53 -7 -64 3 -37 35 22 26 39 100 32
140 -5 28 -2 41 9 51 9 7 16 26 16 43 0 17 7 38 16 48 9 11 14 25 10 35 -6 15
-17 16 -81 11 -45 -4 -92 -15 -115 -27 -35 -18 -46 -19 -84 -9 -43 11 -45 13
-48 53 -3 36 -7 43 -40 59 -24 11 -38 24 -38 36 0 12 -9 21 -24 25 -20 5 -25
13 -28 44 l-3 37 -80 -4 c-91 -4 -131 -26 -159 -86 -9 -19 -28 -48 -42 -64
-16 -20 -27 -46 -30 -76 -2 -25 -8 -54 -14 -65 -19 -35 -12 -135 11 -175 20
-33 21 -47 17 -146 -6 -107 -5 -110 15 -107 29 4 56 52 42 74 -8 12 -8 32 -1
64 8 40 6 55 -11 95 -21 48 -20 49 5 160 10 43 61 103 94 110 15 4 30 11 33
16 4 5 11 9 16 9 14 0 2 -76 -17 -110 -25 -47 -44 -102 -44 -131 0 -33 0 -33
34 -17 28 12 28 13 46 106 13 63 68 152 95 152 26 0 29 -140 4 -156 -5 -3 -9
-14 -9 -25 0 -12 -19 -40 -42 -64 -38 -37 -127 -154 -136 -177 -2 -4 2 -8 9
-8 20 0 99 82 99 102 0 10 4 18 8 18 5 0 30 21 56 46 40 38 50 43 63 33 15
-13 14 -32 -5 -114 -15 -63 -22 -73 -52 -80 -34 -7 -54 -29 -47 -49 4 -9 -9
-30 -31 -52 l-37 -37 -105 -3 c-58 -2 -112 -1 -121 2 -13 3 -16 19 -15 77 1
56 -4 82 -21 118 -13 25 -23 54 -23 66 0 11 -9 28 -21 39 -11 10 -27 34 -35
52 -18 44 -36 37 -52 -20 -7 -24 -23 -55 -37 -68 l-25 -23 -36 19 c-47 25 -57
53 -49 141 5 52 13 77 26 89 19 17 19 18 -18 56 -20 21 -43 38 -50 38 -8 0
-13 12 -13 29 0 31 -22 57 -40 46 -5 -3 -10 -25 -11 -48 0 -27 -12 -63 -32
-102 -29 -55 -36 -61 -75 -69 -35 -7 -46 -6 -62 9 -24 22 -55 13 -45 -13 19
-45 17 -109 -4 -151 -12 -23 -19 -46 -15 -52 3 -6 -6 -29 -21 -51 -21 -31 -25
-46 -18 -57 18 -28 42 -24 61 8 25 46 58 39 55 -10 -1 -25 4 -42 17 -54 18
-17 18 -18 -1 -54 -23 -45 -17 -76 12 -60 10 5 19 16 19 24 0 18 66 85 84 85
7 0 31 16 54 36 51 43 65 38 56 -23 -11 -77 -80 -159 -114 -138 -5 3 -20 -4
-32 -16 -13 -11 -33 -28 -45 -36 -31 -21 -29 -39 7 -51 20 -8 38 -7 59 1 45
17 58 -1 32 -44 -12 -19 -21 -42 -21 -51 0 -25 -140 -133 -192 -147 -40 -11
-44 -16 -40 -37 3 -19 11 -24 33 -24 36 0 36 -9 2 -42 -21 -19 -39 -26 -70
-26 -51 -1 -138 -48 -187 -103 -20 -21 -39 -39 -43 -39 -3 0 -15 -7 -25 -17
-29 -26 -30 -10 -2 43 23 44 25 52 14 83 -10 26 -10 38 1 57 15 28 14 30 -30
39 -29 6 -33 5 -27 -10 17 -45 18 -91 2 -104 -9 -8 -18 -12 -19 -10 -1 2 -12
24 -25 49 -12 25 -27 53 -34 62 -16 22 0 41 36 41 33 0 42 14 23 35 -32 36
-87 125 -87 141 0 9 4 23 10 31 17 27 -13 29 -47 3 -19 -14 -48 -26 -65 -27
-42 -1 -55 -25 -35 -64 8 -18 18 -45 22 -62 4 -17 20 -43 36 -59 16 -16 29
-37 29 -47 0 -10 7 -25 16 -35 12 -13 15 -28 10 -53 -5 -27 -15 -39 -47 -55
-63 -33 -117 -37 -175 -12 -34 14 -75 22 -134 23 l-85 3 -3 -34 c-2 -20 2 -37
9 -42 8 -5 14 -31 15 -65 1 -35 7 -60 15 -65 15 -9 51 -2 60 13 6 9 102 7 154
-3 12 -3 21 2 23 12 2 11 -14 27 -47 48 -28 17 -51 35 -51 40 0 7 76 21 121
21 21 0 109 -69 109 -86 0 -15 -16 -18 -62 -15 -19 2 -28 -3 -28 -13 0 -8 -3
-21 -6 -30 -4 -11 2 -19 21 -26 33 -12 75 7 107 50 12 17 28 30 35 30 19 0 16
-34 -7 -63 -11 -14 -20 -31 -20 -39 0 -13 -23 -52 -72 -126 -24 -36 -55 -62
-72 -62 -3 0 -6 49 -6 109 l0 109 -42 -15 c-26 -9 -59 -13 -85 -9 -52 7 -73 0
-73 -24 0 -18 19 -30 46 -30 8 0 30 -10 48 -22 45 -30 57 -97 27 -156 -20 -39
-40 -132 -60 -275 -8 -61 -19 -90 -46 -133 -39 -60 -58 -65 -63 -15 -3 28 -6
31 -25 25 -12 -3 -29 -13 -38 -20 -8 -8 -18 -14 -22 -14 -16 0 -79 148 -84
197 -3 29 -9 53 -13 53 -10 0 -36 62 -32 75 8 24 -25 136 -59 201 l-37 72 4
178 c4 128 10 192 21 224 39 110 156 244 251 286 91 42 122 58 122 66 0 3 10
10 21 13 39 13 124 77 151 114 47 66 56 208 15 242 -30 25 -35 24 -119 -20
-91 -48 -122 -56 -138 -36 -29 35 -54 8 -43 -48 9 -49 22 -60 64 -53 55 9 60
-11 13 -51 -47 -39 -61 -41 -76 -9 -11 25 -33 28 -100 14 -31 -6 -23 17 15 41
38 25 51 64 23 74 -7 3 -16 28 -19 58 -8 69 -17 76 -64 56 -34 -15 -74 -21
-110 -18 -24 2 -13 48 22 94 19 25 35 51 35 57 0 6 12 15 26 20 28 11 24 30
-7 30 -22 0 -24 9 -7 45 9 21 9 27 -5 38 -9 6 -19 24 -22 38 -5 21 0 30 29 53
40 30 43 41 19 68 -13 14 -14 21 -5 30 7 7 12 31 12 54 0 35 -4 43 -22 47
l-22 6 23 25 c25 27 20 50 -9 41 -11 -3 -53 11 -104 35 -47 22 -100 40 -119
40 -18 0 -43 7 -55 16 -14 9 -32 14 -45 10 -12 -3 -46 2 -75 11 -29 9 -55 13
-58 10 -10 -10 4 -37 23 -44 29 -10 83 -65 83 -84 0 -25 -11 -29 -54 -19 -51
11 -96 55 -96 93 0 45 -22 28 -43 -34 -25 -74 -44 -113 -70 -146 -13 -15 -31
-40 -40 -55 -22 -35 -43 -27 -54 20 -7 30 -16 41 -50 57 -23 11 -42 25 -43 30
0 10 -43 62 -121 146 -36 38 -71 50 -84 29z m833 -184 c37 -39 52 -64 57 -92
3 -22 12 -59 20 -83 26 -77 0 -82 -67 -13 -39 40 -98 122 -98 136 0 3 8 12 17
21 13 14 15 22 6 45 -10 27 -8 40 7 40 4 0 30 -24 58 -54z m-1713 34 c3 -5 16
-10 29 -10 26 0 136 -102 136 -127 0 -9 5 -32 12 -50 13 -36 2 -58 -23 -48 -8
4 -36 33 -63 66 -27 32 -56 59 -64 59 -8 0 -31 12 -50 26 -19 15 -53 32 -76
39 -61 18 -54 41 10 37 30 -2 55 1 58 7 9 14 23 14 31 1z m1440 -33 c42 -41
45 -47 45 -95 0 -40 4 -54 19 -61 22 -12 38 2 50 46 10 37 45 39 49 3 2 -14 8
-29 13 -34 5 -6 9 -20 9 -33 0 -13 5 -32 12 -42 10 -17 6 -27 -33 -73 -24 -29
-50 -65 -58 -80 -7 -14 -27 -41 -43 -58 -23 -26 -34 -31 -56 -26 -15 4 -31 14
-37 23 -41 65 -53 78 -75 83 -23 5 -25 10 -26 68 -1 34 2 64 6 67 4 2 21 -11
39 -29 24 -25 31 -41 29 -62 -3 -26 0 -29 29 -32 20 -2 37 -12 47 -28 19 -28
36 -31 36 -6 0 19 -10 38 -79 161 -37 67 -41 79 -35 122 4 27 2 62 -5 80 -11
32 -8 49 9 49 5 0 30 -19 55 -43z m-1560 -49 c22 -6 52 -15 66 -20 31 -11 119
-102 119 -123 0 -19 -34 -19 -50 0 -7 8 -21 15 -31 15 -16 0 -18 -5 -13 -25 7
-30 1 -32 -82 -38 -43 -3 -74 -12 -108 -32 -41 -24 -53 -27 -76 -18 -16 6 -40
8 -54 6 -21 -4 -26 -1 -26 15 0 26 -24 45 -49 37 -13 -4 -28 3 -46 19 -15 14
-36 28 -47 32 -15 4 -17 9 -7 20 6 8 16 14 21 14 6 0 26 14 46 31 29 25 40 30
66 24 83 -17 117 -17 137 0 10 10 19 26 19 35 0 9 3 19 6 23 7 7 49 1 109 -15z
m-463 -89 c3 -20 -2 -38 -14 -54 -10 -13 -18 -27 -18 -31 0 -5 -9 -17 -19 -29
-11 -11 -35 -36 -53 -56 -65 -70 -144 -97 -202 -68 -44 21 -64 16 -72 -18 -4
-14 -21 -44 -39 -68 -18 -23 -41 -59 -50 -79 -23 -47 -43 -57 -100 -49 -48 6
-67 25 -46 46 6 6 11 19 11 29 0 10 11 25 25 34 14 9 25 25 25 35 0 23 -4 23
-35 3 -42 -27 -77 -100 -77 -158 0 -28 -5 -57 -10 -63 -6 -7 -7 -25 -4 -39 9
-36 -27 -76 -61 -68 -13 4 -30 1 -38 -6 -19 -16 -35 -4 -35 26 0 14 -7 39 -16
56 -15 30 -15 31 14 57 36 31 85 118 78 137 -3 8 -20 14 -41 14 -41 0 -47 21
-11 38 14 6 42 34 63 62 20 27 44 50 53 51 74 5 215 19 258 27 48 8 71 22 72
45 0 11 -38 9 -45 -3 -3 -5 -34 -10 -69 -10 -36 0 -67 -5 -75 -12 -10 -11 -15
-9 -29 8 -25 32 -59 46 -92 39 -17 -4 -31 -2 -36 6 -10 16 62 74 95 75 14 1
51 5 81 9 36 5 91 1 160 -10 58 -10 135 -19 172 -22 l67 -5 38 40 c47 50 69
53 75 11z m818 -107 c0 -5 -6 -17 -14 -28 -12 -16 -17 -17 -28 -6 -11 11 -10
16 6 28 22 16 36 18 36 6z m-1550 -32 c0 -6 -24 -46 -54 -90 -30 -43 -57 -88
-61 -99 -6 -19 -17 -23 -102 -36 l-43 -7 0 33 c0 26 10 41 53 81 28 27 74 61
101 76 27 15 58 33 70 39 26 16 36 16 36 3z m1898 -52 c17 -18 41 -53 52 -78
12 -25 29 -57 38 -72 13 -22 14 -30 4 -40 -10 -10 -16 -10 -30 0 -9 7 -26 16
-37 21 -11 5 -38 25 -59 45 l-39 36 13 40 c10 31 11 43 2 52 -17 17 -15 28 6
28 10 0 32 -15 50 -32z m1150 -6 c4 -43 -20 -89 -75 -145 -45 -46 -82 -65
-101 -53 -5 3 -12 20 -15 38 -4 26 3 47 31 96 31 53 40 62 59 57 15 -3 31 3
50 20 35 30 47 27 51 -13z m-2148 -62 c0 -11 -6 -20 -14 -20 -18 0 -29 16 -21
30 11 18 35 11 35 -10z m3658 -57 c3 -67 0 -78 -39 -157 -35 -72 -45 -86 -65
-86 -17 0 -24 6 -24 20 0 10 -5 30 -11 44 -9 19 -9 32 1 55 9 24 9 37 -2 66
-12 35 -12 38 11 54 12 9 39 31 59 48 55 49 66 41 70 -44z m-2821 33 c49 -21
88 -80 98 -151 7 -41 5 -45 -16 -50 -13 -3 -85 -4 -159 -2 -162 4 -199 17
-229 75 -11 22 -26 42 -33 44 -6 2 -9 12 -5 21 5 13 19 17 66 17 62 0 123 -23
165 -62 11 -10 28 -18 37 -18 10 0 23 -2 31 -5 7 -3 20 0 28 5 13 9 11 14 -14
36 -15 14 -41 27 -56 31 -27 5 -40 25 -40 65 0 14 8 16 43 14 23 -2 61 -11 84
-20z m3837 -17 c-2 -61 -13 -88 -38 -95 -14 -3 -32 -14 -42 -25 -9 -10 -27
-19 -39 -19 -13 0 -29 -10 -38 -22 -13 -19 -17 -21 -29 -10 -11 11 -10 16 8
31 12 9 27 35 35 56 32 93 65 125 124 121 16 -1 20 -8 19 -37z m-3664 -109 c0
-5 -4 -10 -10 -10 -5 0 -10 5 -10 10 0 6 5 10 10 10 6 0 10 -4 10 -10z m865
-40 c0 -22 -29 -18 -33 3 -3 14 1 18 15 15 10 -2 18 -10 18 -18z m3355 -18
c54 -8 61 -27 26 -65 -17 -19 -35 -27 -58 -27 -18 -1 -44 -7 -58 -15 -14 -8
-37 -14 -51 -15 -28 0 -79 -34 -68 -45 4 -3 38 -7 75 -8 38 -2 79 -8 90 -14
12 -7 24 -9 28 -6 3 3 39 0 78 -7 53 -10 82 -21 106 -42 18 -15 37 -28 42 -28
17 0 11 -48 -7 -55 -10 -4 -44 -9 -77 -11 -52 -4 -64 0 -115 31 -40 25 -73 36
-116 41 -33 4 -75 15 -93 26 l-32 20 -30 -32 c-22 -24 -36 -31 -52 -27 -12 3
-30 1 -40 -4 -13 -7 -41 -5 -95 7 -56 12 -81 14 -93 6 -21 -13 -103 -8 -108 6
-1 5 23 24 54 41 44 23 70 31 110 31 29 0 56 5 59 10 3 6 22 10 40 10 25 0 37
6 46 23 14 25 26 36 84 75 36 24 62 39 135 79 14 8 36 11 50 8 14 -4 45 -9 70
-13z m-3304 -53 c4 -7 24 -9 55 -5 38 5 49 4 49 -7 0 -23 -64 -76 -100 -83
-19 -3 -54 -12 -78 -20 -23 -8 -50 -14 -58 -14 -13 0 -13 2 0 22 9 12 16 35
16 50 0 21 5 28 19 28 10 0 29 9 42 20 27 22 45 25 55 9z m-1076 -18 c16 -4
26 -15 28 -30 4 -22 2 -22 -66 -16 -47 5 -72 4 -76 -4 -9 -14 -63 -15 -71 -1
-3 6 -17 10 -31 10 -17 0 -24 5 -24 19 0 16 8 21 43 24 71 6 171 5 197 -2z
m3065 -37 c-3 -20 -22 -60 -42 -88 -28 -42 -44 -54 -86 -69 -28 -9 -61 -27
-73 -38 -24 -22 -49 -17 -40 8 4 9 1 22 -5 29 -8 10 -2 24 27 61 81 102 94
113 140 113 24 0 46 5 49 10 3 6 13 10 22 10 12 0 14 -7 8 -36z m790 19 c-4
-10 -10 -28 -12 -41 -7 -31 -31 -46 -180 -115 -12 -5 -29 -7 -38 -3 -27 10
-12 39 33 65 24 13 46 31 49 40 3 9 17 28 31 44 21 22 34 27 75 27 43 0 48 -2
42 -17z m-2419 -18 c4 -8 1 -22 -6 -30 -8 -10 -11 -31 -7 -59 6 -39 3 -49 -28
-89 -19 -25 -35 -51 -35 -56 0 -16 32 -13 58 5 31 22 40 12 40 -48 0 -50 -3
-55 -54 -108 -66 -69 -117 -98 -139 -80 -19 16 -19 44 0 60 8 6 17 22 21 33 3
12 15 31 25 43 28 30 41 80 24 94 -19 16 -92 -56 -97 -95 -2 -22 -18 -41 -63
-77 -33 -27 -69 -48 -83 -48 -13 0 -39 -12 -58 -27 -31 -23 -33 -28 -20 -41
13 -14 19 -12 54 11 43 30 52 33 52 14 0 -20 -88 -97 -104 -91 -11 4 -24 -12
-46 -56 -17 -34 -36 -60 -41 -58 -6 2 -24 35 -41 73 -17 39 -41 79 -53 91 -21
20 -22 27 -18 115 5 80 10 102 35 147 26 46 33 52 62 52 20 0 40 8 51 20 10
11 25 20 33 20 22 0 9 -74 -22 -118 -14 -20 -29 -55 -34 -77 -5 -22 -13 -48
-17 -57 -5 -14 -2 -18 13 -18 28 0 82 76 82 115 0 17 9 50 20 73 11 22 20 53
20 68 0 35 68 100 133 129 25 11 48 28 51 38 8 31 35 19 42 -18 7 -39 21 -45
32 -16 8 22 80 79 100 80 7 1 15 -6 18 -14z m1903 -222 c-1 -33 -54 -107 -79
-113 -14 -3 -25 -12 -25 -20 0 -20 70 -17 142 6 45 14 61 15 87 6 45 -16 60
-15 100 9 28 17 46 20 84 15 26 -3 52 -6 57 -6 6 -1 28 4 50 10 22 6 54 14 70
17 17 3 39 13 50 23 11 9 42 25 68 35 47 18 48 18 76 -2 18 -14 36 -19 55 -16
26 5 80 -15 116 -44 8 -6 33 -13 55 -15 49 -4 63 -35 18 -40 -35 -4 -48 -48
-14 -48 11 0 23 5 26 10 10 16 17 12 64 -30 43 -39 43 -41 26 -60 -10 -11 -29
-20 -43 -20 -14 0 -40 -5 -58 -12 -28 -10 -36 -9 -52 5 -10 9 -22 17 -26 17
-20 0 -106 46 -103 55 2 5 25 12 52 15 47 5 48 6 31 23 -10 9 -29 17 -42 17
-14 0 -47 7 -74 16 -54 18 -69 16 -208 -18 -79 -19 -94 -20 -102 -8 -12 20
-46 0 -112 -65 -32 -32 -66 -55 -85 -60 -40 -8 -42 -22 -7 -35 21 -8 34 -6 63
9 187 101 287 135 310 107 8 -9 21 -16 31 -16 18 0 57 -37 48 -45 -3 -3 -14
-7 -24 -10 -130 -28 -164 -34 -194 -29 -53 7 -135 -18 -135 -42 0 -17 9 -20
75 -25 79 -6 110 -14 110 -31 0 -30 -93 -71 -140 -63 -40 8 -102 38 -146 71
-39 30 -43 30 -76 -1 -39 -36 -80 -42 -120 -17 -30 18 -81 23 -95 8 -10 -9 27
-57 52 -66 24 -9 41 -28 32 -37 -3 -3 -21 -6 -39 -8 -18 -2 -52 -6 -74 -10
-38 -7 -43 -5 -49 15 -4 13 -26 41 -49 62 -34 33 -44 38 -59 28 -10 -6 -48
-10 -85 -9 -37 1 -71 1 -77 -1 -33 -8 -97 2 -114 19 -13 13 -22 16 -29 9 -13
-13 -32 -2 -32 19 0 11 6 14 23 9 19 -4 26 0 35 18 8 18 21 25 59 31 26 3 59
13 72 22 18 11 29 13 46 5 27 -13 65 -5 65 13 0 7 6 18 14 24 7 6 16 32 20 57
6 43 18 64 97 156 18 22 34 30 55 30 31 -1 89 22 99 38 10 17 35 11 34 -7z
m1489 -21 c2 -7 -3 -12 -12 -12 -9 0 -16 7 -16 16 0 17 22 14 28 -4z m-1348
-2 c0 -5 -7 -10 -15 -10 -8 0 -15 5 -15 10 0 6 7 10 15 10 8 0 15 -4 15 -10z
m-2910 -70 c0 -5 -4 -10 -10 -10 -5 0 -10 5 -10 10 0 6 5 10 10 10 6 0 10 -4
10 -10z m2373 -62 c25 -13 21 -27 -15 -46 -17 -9 -41 -26 -52 -38 -16 -16 -36
-21 -81 -23 -33 -2 -73 -3 -89 -4 -18 -1 -33 5 -40 16 -9 15 -7 21 14 37 30
24 117 67 145 73 26 6 95 -3 118 -15z m-1669 -170 c9 -12 16 -29 16 -37 0 -25
-79 -88 -118 -96 -146 -25 -180 -15 -117 38 22 17 46 41 55 51 37 46 48 54 73
49 14 -3 33 0 44 6 26 15 30 14 47 -11z m2796 -44 c33 -28 31 -40 -8 -55 -39
-15 -102 -2 -135 27 -42 36 -30 49 46 52 58 1 70 -2 97 -24z m-1440 -109 c9
-11 22 -14 42 -10 21 5 30 2 35 -10 7 -20 -21 -46 -77 -73 -63 -30 -137 -129
-100 -133 6 -1 15 -3 20 -4 6 -1 15 -3 20 -4 20 -2 9 -32 -15 -41 -14 -5 -28
-16 -31 -24 -5 -13 -89 -31 -130 -27 -12 1 -52 -11 -88 -28 -50 -23 -66 -35
-66 -50 0 -17 6 -21 34 -21 49 0 78 -28 80 -75 1 -30 -3 -40 -17 -43 -10 -2
-25 2 -34 9 -8 8 -43 26 -77 41 -62 27 -79 50 -53 71 13 10 14 28 7 107 -7 82
-6 98 8 114 24 27 155 87 166 76 12 -12 -17 -69 -66 -134 -21 -26 -35 -52 -32
-57 8 -14 30 -10 45 7 8 9 32 28 54 42 49 31 64 50 65 80 0 13 19 44 43 70 23
26 47 56 53 67 12 23 71 65 89 65 7 0 18 -7 25 -15z m305 -22 c-4 -10 -10 -31
-13 -48 -5 -34 -68 -105 -92 -105 -49 0 -185 -114 -178 -149 6 -31 33 -21 56
20 26 45 92 81 127 69 73 -27 97 -32 108 -21 8 8 4 18 -12 35 -27 28 -25 34
19 95 31 43 33 43 77 37 36 -5 50 -2 70 14 48 38 57 3 17 -63 -33 -53 -51 -67
-85 -67 -31 0 -41 -17 -26 -42 9 -13 0 -26 -44 -67 -30 -27 -59 -50 -64 -51
-6 0 -35 9 -65 20 -66 24 -100 26 -100 5 0 -16 16 -24 88 -46 24 -7 45 -16 48
-21 3 -5 -16 -18 -43 -30 -47 -21 -49 -21 -93 -4 -119 46 -169 63 -174 58 -13
-12 -5 -33 17 -43 12 -5 36 -20 54 -33 l32 -23 -42 -30 c-54 -38 -100 -32
-149 18 -18 19 -44 42 -58 50 -22 15 -23 19 -12 43 10 22 18 26 54 26 75 0
180 89 157 132 -8 14 6 33 78 107 74 75 94 90 128 95 22 4 51 13 65 20 37 21
64 20 55 -1z m703 -19 c49 -12 70 -14 89 -5 30 14 88 14 114 1 22 -12 25 -30
5 -30 -8 0 -33 -9 -57 -19 -32 -15 -56 -18 -93 -14 -52 5 -176 57 -176 74 0
14 46 11 118 -7z m-2390 -51 c5 -10 12 -43 16 -73 4 -30 11 -59 15 -65 5 -5
11 -26 14 -45 19 -115 58 -270 86 -343 6 -16 11 -48 11 -72 0 -25 10 -65 25
-97 14 -29 25 -68 25 -86 0 -18 11 -50 25 -72 19 -30 25 -53 25 -94 0 -30 5
-58 10 -61 6 -3 10 -26 10 -49 0 -24 9 -63 19 -87 25 -56 59 -192 62 -244 1
-22 6 -45 11 -52 5 -7 8 -23 6 -36 -3 -26 19 -77 39 -90 7 -4 13 -20 13 -34 0
-28 -5 -28 107 2 59 16 63 16 87 -2 32 -23 32 -37 1 -51 -19 -9 -30 -9 -44 0
-43 26 -67 -19 -35 -67 12 -18 13 -28 4 -44 -6 -12 -11 -38 -12 -58 -1 -21 -9
-56 -19 -78 -12 -27 -17 -56 -14 -87 3 -26 1 -50 -4 -53 -14 -8 -20 -408 -9
-525 3 -30 1 -100 -5 -156 -6 -57 -7 -109 -2 -120 5 -10 9 -132 10 -270 1
-138 5 -255 8 -261 12 -19 24 -270 17 -348 -1 -16 0 -39 4 -50 10 -31 -9 -53
-32 -38 -11 6 -37 15 -58 18 -52 9 -124 45 -124 62 0 15 36 18 45 3 9 -14 92
-13 101 2 10 15 -24 38 -56 38 -31 0 -110 36 -110 51 0 18 32 22 57 7 19 -11
33 -12 68 -4 71 17 53 56 -24 56 -49 0 -77 12 -68 27 3 5 35 15 71 23 52 11
66 17 66 32 0 12 -7 18 -24 18 -70 0 -132 33 -120 63 8 21 22 21 62 1 40 -19
67 -15 67 11 0 15 -8 21 -32 23 -41 4 -44 29 -5 38 46 10 52 13 52 27 0 9 -15
16 -37 20 -61 8 -93 24 -93 47 0 23 4 24 29 8 10 -6 26 -8 36 -4 27 10 0 35
-46 42 -24 4 -39 12 -39 21 0 10 12 13 46 11 54 -3 71 16 29 32 -29 11 -29 33
1 39 27 5 44 21 44 41 0 18 -16 28 -59 36 -33 7 -41 12 -41 31 0 16 14 15 79
-3 19 -6 22 -4 19 12 -2 12 -13 20 -28 22 -52 6 -70 13 -70 28 0 12 7 14 28
10 19 -4 34 1 51 15 l24 20 -21 21 c-15 16 -33 21 -67 20 -45 0 -46 0 -30 18
10 11 37 22 62 26 41 6 43 8 28 24 -14 15 -40 23 -118 34 -9 1 -22 7 -28 13
-18 18 0 35 29 29 36 -8 87 7 87 25 0 9 -14 16 -39 19 -63 8 -55 27 14 35 50
6 60 10 60 26 0 18 -6 20 -47 17 -37 -2 -48 1 -51 13 -2 12 14 22 58 38 35 13
60 28 60 37 0 19 -49 18 -71 -2 -10 -9 -25 -14 -34 -10 -15 5 -14 9 5 36 12
16 30 30 41 30 30 0 59 18 59 36 0 13 -7 15 -32 10 -63 -13 -92 -12 -96 5 -2
12 11 17 60 25 45 6 63 13 63 24 0 10 -8 14 -25 13 -30 -3 -81 -5 -94 -4 -22
2 71 60 97 61 20 0 27 5 27 19 0 24 -32 36 -59 22 -24 -14 -81 -3 -81 15 0 18
36 37 84 43 45 7 70 35 46 52 -15 9 -47 7 -102 -6 -24 -6 -28 -4 -28 14 0 11
6 21 13 21 7 0 28 11 47 25 19 14 42 25 52 25 22 0 35 27 21 41 -7 7 -24 4
-51 -7 -41 -16 -72 -14 -72 4 0 5 25 19 56 32 30 13 57 27 60 31 10 17 -10 39
-37 39 -36 0 -40 27 -4 36 61 15 49 50 -20 56 -50 4 -56 31 -8 36 35 3 62 27
47 42 -5 5 -29 10 -54 12 -37 2 -45 6 -45 23 0 15 7 20 30 21 53 1 65 4 65 14
0 6 -10 10 -22 10 -13 0 -29 4 -36 9 -16 9 -1 24 36 35 29 9 28 24 -2 35 -13
5 -26 17 -29 25 -4 9 -17 16 -29 16 -13 0 -30 5 -38 10 -13 9 -11 14 13 31 26
20 37 49 17 49 -5 0 -10 13 -10 29 0 27 -3 30 -37 33 -46 4 -54 24 -14 33 52
11 35 65 -19 65 -15 0 -29 3 -33 6 -11 11 5 34 24 34 10 0 19 6 19 14 0 15
-29 29 -51 24 -8 -2 -14 4 -14 12 0 9 11 16 28 18 44 5 32 36 -16 40 -43 4
-49 23 -11 41 34 15 27 32 -25 57 -43 21 -43 31 2 47 29 11 19 26 -20 29 -48
4 -53 24 -8 32 19 4 35 10 35 14 0 17 -25 32 -53 32 -35 0 -32 22 4 30 15 4
24 13 24 25 0 17 -7 20 -43 21 -24 0 -48 6 -54 12 -13 13 -1 33 20 31 36 -3
52 2 52 16 0 9 -9 15 -25 15 -30 0 -33 15 -5 30 11 6 20 17 20 25 0 11 -13 15
-55 15 -40 0 -55 4 -55 14 0 19 25 38 47 36 37 -4 53 0 53 15 0 13 -21 19 -90
28 -30 4 -14 30 25 41 l39 12 -23 23 c-20 20 -29 22 -67 16 -36 -5 -44 -3 -44
10 0 8 16 25 35 36 39 23 43 34 18 47 -21 12 -10 42 17 42 11 0 20 7 20 15 0
8 -9 15 -19 15 -27 0 -34 15 -16 33 27 27 18 40 -21 33 -31 -6 -35 -5 -32 11
2 10 13 19 26 21 23 4 30 26 11 37 -5 4 -26 -1 -46 -10 -53 -25 -60 -5 -13 40
28 27 40 48 40 67 0 32 36 88 57 88 7 0 16 -8 21 -17z m1942 -38 c0 -8 -7 -15
-15 -15 -16 0 -20 12 -8 23 11 12 23 8 23 -8z m-2255 -5 c3 -5 -3 -10 -14 -10
-12 0 -21 5 -21 10 0 6 6 10 14 10 8 0 18 -4 21 -10z m1091 -441 c12 -19 -13
-32 -50 -25 -51 10 -48 36 3 36 22 0 43 -5 47 -11z m1286 -66 c20 -19 28 -36
28 -62 0 -20 11 -55 24 -78 14 -24 21 -45 16 -48 -11 -7 -40 5 -40 16 0 5 -18
18 -40 29 -36 18 -40 23 -33 48 9 34 9 59 -1 95 -11 36 9 36 46 0z m-664 -20
c82 -45 78 -41 64 -55 -6 -6 -33 -13 -59 -14 -69 -4 -164 53 -149 91 10 27 73
18 144 -22z m-638 -12 c0 -5 -6 -14 -14 -21 -8 -6 -12 -18 -10 -25 6 -15 -25
-35 -55 -35 -27 0 -27 26 0 33 15 4 19 11 14 26 -4 15 -1 21 17 24 40 8 48 7
48 -2z m-50 -136 c0 -27 -62 -45 -104 -29 -26 10 -18 32 12 37 63 9 92 7 92
-8z m-2 -101 c4 -26 -17 -36 -58 -28 -35 8 -60 31 -39 38 57 20 93 15 97 -10z
m-2872 -63 c26 -29 31 -57 12 -63 -15 -5 -184 -2 -330 6 -122 7 -344 -10 -410
-31 -44 -13 -49 -13 -72 4 -33 23 -31 32 8 65 l32 27 225 5 c255 7 452 16 456
20 10 10 60 -11 79 -33z m2800 -3 c4 -6 -3 -19 -16 -30 -18 -15 -33 -17 -69
-13 -90 12 -93 29 -7 39 27 3 52 8 54 11 9 9 31 5 38 -7z m-78 -93 c26 0 46
-6 52 -15 14 -22 2 -30 -46 -30 -37 0 -62 9 -103 36 -1 2 0 8 4 14 4 7 15 8
28 3 12 -4 41 -8 65 -8z m-2878 -65 c25 -6 49 -15 54 -21 14 -13 50 -11 64 3
9 9 15 9 23 1 15 -15 -23 -86 -80 -146 -31 -33 -46 -58 -46 -75 0 -32 -28 -41
-53 -19 -15 13 -22 13 -56 2 -26 -9 -45 -11 -57 -4 -27 14 -97 11 -131 -7 -31
-16 -53 -16 -169 4 -91 16 -99 20 -120 69 -10 24 -19 53 -19 63 0 11 -8 23
-17 29 -17 9 -17 12 -3 38 11 19 25 29 45 31 17 2 44 10 62 18 17 7 39 14 50
14 10 0 25 5 33 10 20 14 360 6 420 -10z m1778 -2 c10 -13 15 -59 13 -131 -1
-45 -15 -52 -69 -38 -50 14 -81 39 -87 69 -2 13 -7 32 -10 41 -7 22 12 39 62
57 48 17 78 17 91 2z m1012 -13 c7 -8 34 -15 63 -17 44 -3 52 -6 52 -23 0 -18
-6 -20 -53 -18 -39 2 -61 9 -87 29 -19 14 -32 30 -29 35 8 14 40 11 54 -6z
m110 -144 c0 -20 -10 -25 -71 -35 -38 -7 -72 15 -53 34 8 8 24 10 107 18 11 1
17 -5 17 -17z m-1300 -114 c19 -2 51 -12 70 -25 19 -12 40 -22 45 -22 24 -2
129 -88 146 -120 11 -19 32 -46 48 -60 29 -25 87 -108 129 -184 19 -35 22 -52
18 -116 -4 -82 5 -120 29 -120 15 0 15 1 0 217 -2 35 -9 71 -14 81 -9 17 2 53
12 42 39 -43 57 -194 51 -429 -3 -87 -8 -123 -23 -155 -11 -22 -26 -61 -35
-86 -33 -100 -39 -111 -67 -125 -15 -8 -33 -15 -39 -15 -17 0 -2 59 26 100 13
19 24 38 24 43 0 4 12 26 26 48 14 22 24 53 23 67 -1 15 1 38 4 52 16 71 17
111 2 116 -9 4 -23 -3 -34 -17 l-19 -23 -20 34 c-45 76 -99 143 -137 173 -22
17 -50 42 -62 54 -27 28 -108 65 -211 95 -67 20 -97 23 -233 21 -144 -1 -161
-3 -222 -28 -38 -15 -75 -24 -86 -20 -14 4 -21 0 -26 -15 -3 -11 -15 -20 -26
-20 -10 0 -41 -9 -69 -19 -30 -12 -52 -15 -56 -9 -3 5 -4 11 -3 13 11 10 104
55 114 55 7 0 24 9 39 21 14 11 26 18 26 14 0 -3 12 1 28 8 45 22 150 42 287
54 56 5 85 1 210 -27 28 -6 61 -14 75 -17 49 -10 146 -62 183 -97 36 -34 67
-46 67 -27 0 20 -189 171 -213 171 -8 0 -30 7 -49 15 -46 19 -223 27 -346 15
-100 -9 -126 -3 -103 23 11 14 100 25 256 33 92 5 191 -14 224 -42 16 -13 36
-24 45 -24 24 0 95 -47 143 -94 23 -22 47 -45 52 -51 38 -36 81 -90 81 -101 0
-7 9 -18 19 -24 31 -16 39 10 10 34 -13 12 -29 33 -36 48 -7 15 -24 34 -38 44
-14 9 -25 21 -25 28 -1 22 -116 117 -202 165 -119 67 -175 81 -339 82 -82 1
-149 5 -149 10 0 21 53 32 171 36 118 4 130 3 189 -21 35 -14 70 -26 78 -26 8
0 37 -18 64 -40 28 -22 60 -40 72 -40 14 0 41 -26 86 -83 44 -56 65 -77 68
-65 4 19 -12 45 -74 128 -55 72 -81 96 -151 137 -113 65 -160 83 -229 85 -36
1 -67 5 -70 10 -12 19 10 26 69 21 34 -2 78 -5 97 -6z m1278 -3 c21 -6 13 -19
-17 -31 -24 -8 -34 -8 -50 4 -35 24 -27 43 17 37 20 -3 43 -7 50 -10z m-838
-168 c0 -6 12 -22 26 -37 17 -18 24 -34 20 -44 -10 -26 -29 -12 -62 46 -16 30
-47 72 -67 93 -38 40 -42 48 -29 60 7 8 111 -102 112 -118z m-2140 99 c7 -9
11 -17 9 -18 -20 -14 -71 -29 -113 -33 -28 -3 -71 -11 -96 -19 -91 -29 -152
-33 -177 -13 -22 18 -6 25 69 31 40 3 87 11 103 16 17 6 55 19 85 30 68 24
104 25 120 6z m4911 -5 c61 -17 65 -29 41 -118 -12 -42 -23 -86 -24 -97 -4
-29 -47 -30 -104 -3 -32 16 -49 30 -48 41 2 21 -5 21 -34 1 -20 -14 -23 -14
-28 1 -4 8 -1 22 6 29 9 12 7 17 -9 25 -23 13 -20 25 15 83 16 25 32 38 51 41
53 8 98 7 134 -3z m-1946 -25 c0 -16 -8 -21 -36 -23 -23 -2 -40 2 -48 12 -20
24 -3 37 42 34 34 -2 42 -7 42 -23z m-2830 -31 c20 -21 5 -40 -38 -49 -18 -4
-70 -19 -117 -35 -68 -23 -109 -30 -207 -34 -96 -4 -124 -2 -133 9 -14 16 7
25 65 26 83 1 121 5 145 15 14 6 49 14 79 18 30 4 76 20 105 36 58 34 78 37
101 14z m4180 -6 c36 2 143 -17 168 -30 9 -5 17 -16 17 -25 0 -17 3 -17 -183
11 -48 7 -90 16 -94 19 -3 3 -3 14 1 23 5 12 12 14 34 8 15 -4 41 -7 57 -6z
m-1353 -38 c5 0 8 -10 6 -22 -3 -21 -7 -23 -62 -20 -57 2 -86 14 -86 33 0 5
20 8 45 7 25 0 48 2 52 6 4 4 13 4 21 1 7 -3 18 -5 24 -5z m1690 -13 c5 -8 0
-13 -13 -15 -29 -5 -49 5 -49 24 0 13 6 15 27 9 15 -3 31 -12 35 -18z m-463
-11 c31 -8 85 -17 120 -21 73 -8 111 -22 173 -63 24 -16 65 -37 91 -47 26 -10
65 -34 86 -54 22 -20 60 -51 85 -69 25 -18 46 -38 46 -43 0 -12 57 -95 103
-148 15 -18 33 -44 38 -58 5 -13 22 -43 38 -66 16 -23 32 -62 36 -87 4 -25 16
-57 27 -72 18 -26 18 -30 3 -85 -9 -32 -16 -62 -16 -68 1 -5 4 -43 7 -83 l6
-73 -26 7 c-25 6 -26 5 -26 -44 0 -35 -6 -57 -20 -73 -10 -13 -20 -22 -20 -19
-1 3 -3 50 -4 105 -3 78 -10 119 -31 180 -15 44 -31 84 -36 90 -5 5 -9 16 -9
24 0 14 -77 123 -92 129 -4 2 -8 16 -8 32 0 20 -6 31 -20 35 -10 3 -30 19 -44
36 -27 32 -232 189 -247 189 -14 0 -123 53 -137 67 -7 7 -31 13 -52 13 -21 0
-41 4 -44 8 -3 5 -31 14 -63 21 -32 7 -69 17 -83 21 -14 5 -63 11 -109 14 -89
6 -101 10 -84 27 20 20 263 -3 295 -28 7 -6 37 -13 66 -16 29 -3 65 -15 80
-25 15 -11 45 -25 66 -32 78 -25 117 -47 219 -122 57 -43 179 -163 219 -215
37 -51 58 -66 58 -41 0 6 -11 26 -25 44 -14 18 -25 37 -25 42 0 18 -141 167
-174 184 -18 9 -44 28 -57 42 -13 14 -28 26 -32 26 -5 0 -22 9 -37 20 -102 73
-368 168 -489 174 -76 4 -104 17 -84 37 10 10 44 9 158 -4 54 -6 140 -29 155
-42 8 -6 35 -17 60 -24 52 -14 103 -33 177 -67 28 -13 55 -24 58 -24 15 0 87
-61 168 -143 67 -68 98 -108 126 -166 46 -94 88 -161 101 -161 15 0 12 18 -9
59 -10 20 -27 56 -37 81 -50 123 -165 256 -316 367 -68 50 -230 133 -260 133
-15 0 -30 5 -33 10 -3 6 -19 10 -34 10 -15 0 -36 7 -47 15 -10 8 -40 15 -66
15 -45 0 -61 13 -41 33 8 9 6 9 72 -7z m-4052 -32 c9 -23 -9 -34 -68 -44 -30
-4 -85 -19 -124 -33 -77 -28 -121 -33 -240 -23 -77 6 -115 20 -84 30 8 3 70 7
139 10 143 6 187 11 206 27 11 9 127 45 157 48 4 1 10 -6 14 -15z m4483 -9
c19 -14 38 -25 43 -25 5 0 18 -11 29 -25 23 -29 43 -32 56 -9 15 27 34 6 27
-28 -8 -35 9 -52 35 -35 14 8 26 3 64 -28 48 -41 68 -85 81 -177 3 -26 10 -50
16 -53 14 -9 11 -45 -4 -45 -8 0 -21 8 -29 18 -17 20 -58 103 -58 119 0 16
-169 183 -186 183 -7 0 -14 5 -14 10 0 6 -5 10 -11 10 -6 0 -25 11 -43 25 -18
14 -37 25 -43 25 -16 0 -46 38 -38 49 10 18 39 12 75 -14z m-3373 -21 c2 -7
-23 -21 -59 -34 -87 -29 -108 -34 -108 -22 0 39 156 91 167 56z m-1188 -68
c27 -32 -13 -53 -164 -86 -22 -5 -53 -13 -68 -19 -38 -15 -150 -14 -165 1 -29
29 -13 38 66 36 81 -2 154 15 247 58 59 27 69 28 84 10z m1560 -130 c18 -10
40 -15 48 -12 9 4 36 -5 60 -19 25 -14 50 -25 56 -25 16 0 137 -64 137 -72 0
-5 25 -24 55 -43 50 -32 154 -148 168 -186 6 -18 -30 -99 -44 -99 -5 0 -18 18
-28 39 -29 55 -147 167 -222 209 -35 19 -102 48 -149 65 -80 27 -95 29 -250
31 -91 1 -181 -2 -200 -7 -78 -20 -90 -20 -90 -3 0 30 97 53 250 60 86 3 120
1 244 -20 22 -4 60 -17 84 -30 24 -13 48 -21 53 -18 17 10 9 24 -18 35 -16 6
-41 17 -57 25 -16 8 -39 14 -52 14 -13 0 -25 4 -28 9 -10 15 -218 34 -241 22
-5 -3 -36 -6 -67 -7 -31 -2 -66 -7 -77 -13 -11 -6 -38 -11 -60 -11 -22 0 -42
-4 -45 -9 -3 -4 -36 -18 -73 -31 -37 -12 -72 -26 -77 -31 -13 -12 -56 -12 -56
0 0 15 22 28 88 51 34 13 65 27 68 31 3 5 19 9 36 9 17 0 40 8 50 17 10 9 35
17 56 19 20 1 53 6 72 11 60 16 271 8 309 -11z m2438 -12 c46 -3 85 -10 89
-15 3 -5 23 -9 44 -9 21 0 42 -4 45 -10 3 -5 16 -10 28 -10 12 0 38 -11 58
-24 20 -14 53 -28 75 -32 44 -8 70 -19 95 -43 10 -9 56 -43 103 -76 47 -33 85
-64 86 -69 0 -5 18 -35 40 -68 22 -33 40 -63 40 -67 0 -4 11 -18 25 -31 23
-21 65 -96 65 -114 0 -4 6 -22 14 -39 26 -62 39 -123 43 -212 2 -49 6 -103 9
-118 6 -25 4 -28 -12 -25 -10 2 -25 16 -32 31 -16 34 -26 34 -41 0 -9 -20 -15
-23 -24 -14 -7 7 -13 24 -13 39 -2 49 -12 98 -33 157 -12 33 -21 66 -21 75 0
20 -54 125 -85 166 -13 17 -25 46 -27 64 -2 23 -11 38 -29 49 -15 9 -59 36
-98 61 -89 56 -161 98 -181 106 -8 3 -24 9 -35 13 -11 5 -45 20 -75 34 -30 14
-66 28 -80 31 -90 20 -370 32 -398 17 -20 -11 -42 2 -42 26 0 23 37 32 141 34
194 4 277 -7 355 -49 22 -12 110 -44 171 -62 23 -7 52 -24 64 -36 13 -13 30
-24 40 -24 9 0 22 -7 29 -15 7 -8 18 -15 25 -15 12 0 61 -40 116 -95 9 -8 25
-32 35 -53 10 -20 29 -51 42 -68 12 -17 22 -36 22 -42 0 -6 11 -23 24 -39 33
-39 76 -169 76 -229 0 -53 11 -80 28 -70 15 9 6 129 -14 190 -15 46 -57 138
-120 260 -22 42 -130 148 -193 189 -75 49 -108 68 -151 87 -25 11 -63 29 -85
40 -22 11 -51 20 -65 20 -14 1 -43 8 -65 16 -76 30 -199 46 -337 45 -77 -1
-95 8 -60 28 16 10 78 9 289 -5z m-4097 -13 c0 -16 -84 -43 -152 -48 -70 -5
-108 7 -108 33 0 13 13 14 83 10 46 -3 88 -2 97 4 19 12 80 13 80 1z m5 -86
c0 -14 -9 -22 -35 -27 -19 -4 -57 -12 -84 -17 -26 -6 -53 -8 -59 -4 -5 3 -25
6 -44 5 -33 -1 -43 10 -21 24 6 4 37 8 68 10 31 1 72 9 91 18 47 20 84 17 84
-9z m5061 -2 c-10 -10 -19 5 -10 18 6 11 8 11 12 0 2 -7 1 -15 -2 -18z m-3921
-22 c8 -14 -23 -41 -48 -41 -12 0 -31 -7 -41 -15 -21 -16 -66 -21 -66 -7 1 17
17 30 50 37 19 4 44 14 55 21 23 16 41 18 50 5z m601 -61 c11 -8 25 -20 32
-27 7 -7 19 -10 26 -7 24 9 73 -24 111 -73 19 -25 45 -53 56 -61 11 -8 32 -39
45 -69 22 -46 26 -71 26 -152 1 -91 -1 -100 -32 -154 -17 -31 -36 -60 -41 -63
-5 -3 -9 -20 -10 -37 0 -18 -9 -45 -20 -62 -10 -16 -22 -37 -26 -45 -3 -8 -19
-31 -35 -52 -15 -20 -35 -51 -42 -70 -8 -18 -23 -41 -34 -51 -17 -16 -23 -17
-42 -5 -19 12 -24 10 -38 -10 -8 -13 -30 -29 -49 -37 -18 -8 -33 -19 -33 -25
0 -16 -41 -49 -62 -50 -9 0 -18 -5 -20 -12 -2 -6 -23 -17 -46 -23 -35 -11 -42
-11 -42 1 0 19 -31 33 -49 23 -9 -4 -37 -11 -64 -14 -26 -4 -45 -10 -42 -15 3
-4 14 -6 24 -3 22 6 39 -16 22 -27 -17 -10 -159 -1 -193 12 -28 10 -37 31 -18
43 5 3 23 -1 39 -10 17 -8 39 -15 51 -15 25 0 27 28 3 37 -39 14 -127 99 -145
140 -10 23 -23 45 -28 48 -21 13 -49 98 -49 148 0 76 -17 193 -31 212 -7 9 -6
197 2 240 2 12 -3 21 -14 23 -14 3 -18 -3 -18 -25 0 -15 -6 -35 -13 -44 -8
-11 -11 -37 -7 -75 3 -33 1 -78 -4 -102 -7 -30 -6 -57 2 -88 7 -24 12 -59 12
-77 0 -17 9 -59 20 -91 11 -33 20 -75 20 -95 0 -20 6 -45 13 -56 8 -11 19 -35
25 -52 6 -18 23 -49 38 -68 32 -42 27 -56 -8 -23 -48 46 -106 153 -120 218 -5
25 -14 68 -19 95 -6 28 -13 75 -15 105 -9 102 -20 124 -41 77 -7 -15 -8 -29
-1 -41 6 -11 6 -27 0 -45 -6 -17 -6 -34 -1 -42 5 -8 9 -26 9 -40 0 -15 7 -43
15 -63 15 -35 13 -56 -4 -56 -13 0 -41 69 -41 102 0 17 -5 46 -12 64 -9 25 -9
42 0 69 7 26 8 44 1 59 -8 16 -7 41 1 82 7 32 14 77 16 99 7 102 25 168 52
200 15 19 34 44 43 56 18 26 49 20 49 -10 0 -17 3 -18 35 -7 19 7 45 22 58 34
13 12 31 22 40 22 9 0 18 4 21 9 3 5 32 12 63 16 32 4 63 10 68 15 43 32 434
49 471 20z m-1810 -22 c-8 -39 -11 -42 -33 -32 -10 4 -34 8 -53 9 -49 0 -47
28 3 36 20 3 40 9 44 12 3 4 15 7 26 7 17 0 19 -5 13 -32z m3959 -17 c7 -12
-12 -24 -25 -16 -11 7 -4 25 10 25 5 0 11 -4 15 -9z m202 -44 c16 -7 30 -7 48
1 15 7 34 8 48 3 12 -5 40 -14 62 -21 22 -7 47 -18 55 -25 8 -6 38 -18 65 -25
60 -16 185 -93 185 -115 0 -9 9 -15 24 -15 14 0 31 -7 40 -15 28 -29 30 -78
10 -292 -4 -40 -3 -63 4 -63 30 0 9 -81 -33 -130 -14 -15 -42 -85 -52 -127 -3
-14 -13 -23 -24 -23 -11 0 -22 -8 -26 -17 -4 -10 -27 -37 -52 -60 -25 -23 -53
-49 -61 -58 -60 -64 -84 -85 -100 -85 -10 0 -21 -4 -25 -9 -3 -6 -32 -25 -65
-42 -32 -18 -63 -43 -69 -56 -6 -13 -19 -23 -30 -23 -11 0 -48 -25 -82 -55
-72 -64 -97 -73 -143 -51 -39 18 -72 21 -81 6 -10 -16 -33 -11 -55 12 -16 17
-23 19 -32 10 -7 -7 -25 -12 -40 -12 -26 0 -28 2 -18 20 9 17 7 22 -15 30 -14
5 -25 17 -25 25 0 9 -7 18 -15 21 -26 10 -17 42 20 71 22 17 39 42 45 64 13
46 30 53 82 32 32 -13 45 -14 59 -4 14 8 30 8 63 0 34 -8 52 -8 87 4 24 8 58
13 74 10 23 -3 33 1 43 18 18 28 3 39 -54 39 -22 0 -49 7 -60 15 -10 8 -34 15
-53 15 -24 0 -39 7 -54 26 -11 15 -36 33 -54 41 -49 20 -36 37 33 44 32 3 80
10 107 14 40 6 47 5 47 -10 0 -25 12 -16 75 58 60 71 64 90 21 107 -14 5 -37
27 -50 49 -27 43 -60 66 -77 56 -14 -10 -1 -66 22 -91 33 -36 25 -49 -31 -48
-28 0 -55 5 -62 12 -8 8 -17 6 -36 -8 -29 -24 -51 -25 -58 -5 -4 11 -17 13
-47 9 -35 -4 -47 -1 -72 20 l-30 26 28 23 c15 12 27 27 27 33 0 6 14 23 30 39
23 22 33 26 42 17 14 -14 48 -16 48 -2 0 5 -9 14 -20 20 -11 6 -20 15 -20 21
0 10 28 53 68 102 12 16 22 41 22 55 0 33 22 97 50 146 11 20 20 52 20 71 0
18 5 37 10 40 6 3 10 17 10 30 0 51 8 58 68 50 30 -4 66 -12 79 -18z m-304
-27 c13 -33 13 -41 1 -51 -10 -9 -17 -9 -28 0 -10 9 -29 8 -77 -4 -90 -21 -99
-20 -99 10 0 16 7 28 18 31 9 3 35 14 57 24 35 17 56 23 101 29 6 0 18 -17 27
-39z m-19 -149 c17 -19 17 -22 -11 -73 -24 -45 -32 -53 -57 -53 -16 0 -31 6
-33 13 -3 6 2 12 9 12 25 0 60 46 58 77 -4 51 5 56 34 24z m-4114 -157 c25
-13 52 -28 60 -33 51 -30 70 -32 225 -31 40 0 85 -16 85 -32 0 -4 -20 -38 -44
-76 -24 -38 -46 -77 -50 -88 -3 -11 -28 -43 -56 -72 -27 -29 -50 -57 -50 -62
0 -5 17 -17 38 -26 34 -14 39 -14 69 2 18 9 35 24 38 33 3 9 20 25 37 36 18
10 39 25 47 33 24 23 31 -2 16 -58 -8 -30 -15 -66 -15 -81 0 -14 -20 -54 -45
-89 -25 -35 -45 -70 -45 -77 0 -7 -8 -13 -19 -13 -28 0 -44 -25 -36 -58 l6
-29 -49 5 c-36 3 -56 0 -75 -13 -14 -9 -38 -15 -54 -13 -27 3 -28 4 -31 74 -2
54 1 74 13 84 8 7 15 18 15 25 0 6 9 20 21 31 14 12 18 25 14 39 -13 41 -15
190 -3 214 11 20 10 25 -7 37 -10 8 -26 14 -36 14 -22 0 -69 38 -69 55 0 8
-19 29 -42 47 -24 17 -56 47 -72 65 l-29 34 29 30 c31 32 40 32 114 -7z m228
-1 c2 -8 -5 -13 -17 -13 -12 0 -21 6 -21 16 0 18 31 15 38 -3z m2317 -176 c-4
-18 -1 -45 5 -61 15 -39 -2 -57 -30 -31 -25 22 -27 76 -4 110 21 32 36 22 29
-18z m-88 -29 c-3 -8 -6 -5 -6 6 -1 11 2 17 5 13 3 -3 4 -12 1 -19z m25 -108
c7 -41 14 -61 55 -160 37 -88 96 -200 114 -216 21 -19 25 -44 8 -44 -18 0 -89
60 -89 75 0 7 -7 26 -15 42 -25 48 -66 156 -77 203 -6 25 -14 47 -18 50 -10 7
-29 88 -22 95 17 17 37 -4 44 -45z m2687 -137 c-13 -35 -77 -124 -101 -141
-22 -16 -24 -40 -3 -48 23 -9 18 -33 -9 -44 -13 -5 -27 -14 -31 -20 -4 -7 -23
-18 -41 -26 -19 -8 -34 -18 -34 -23 0 -16 -138 -81 -169 -81 -17 0 -32 -4 -36
-9 -3 -5 -19 -12 -35 -16 -16 -4 -45 -17 -63 -29 -19 -13 -49 -26 -68 -28 -19
-3 -55 -13 -81 -24 -26 -10 -50 -15 -54 -11 -20 19 149 109 241 129 28 6 61
16 75 23 14 7 45 21 70 30 89 35 111 47 107 58 -6 17 -59 3 -130 -34 -20 -11
-37 -4 -37 15 0 15 42 46 60 46 22 0 145 53 161 69 8 9 31 27 51 41 20 13 42
36 50 50 29 57 61 100 74 100 11 0 11 -6 3 -27z m71 -35 c0 -6 -14 -26 -31
-46 -17 -19 -36 -48 -41 -64 -13 -36 -78 -66 -78 -37 0 12 94 136 118 156 16
13 32 9 32 -9z m-5266 -53 c-6 -16 -24 -21 -24 -7 0 11 11 22 21 22 5 0 6 -7
3 -15z m2121 -16 c7 -11 -22 -49 -37 -49 -13 0 -9 48 5 53 19 8 25 8 32 -4z
m-1675 -39 c0 -11 -2 -20 -4 -20 -2 0 -12 -3 -21 -6 -14 -6 -14 -3 -4 20 14
31 29 34 29 6z m1830 -13 c0 -33 -154 -179 -224 -212 -61 -29 -74 -41 -58 -57
10 -10 107 33 164 73 14 10 29 19 34 19 4 0 33 27 66 60 32 33 60 60 63 60 8
0 6 -44 -3 -55 -8 -12 -112 -91 -157 -120 -29 -18 -35 -21 -53 -24 -5 0 -17
-9 -28 -19 -10 -10 -39 -23 -64 -31 -25 -7 -58 -19 -75 -26 -16 -7 -49 -14
-73 -14 -24 -1 -51 -5 -60 -10 -15 -8 -13 -11 11 -20 19 -8 34 -8 47 -1 10 5
28 10 39 10 12 0 21 5 21 10 0 6 18 10 40 10 44 0 95 21 102 42 3 9 10 10 28
2 l24 -11 -34 -16 c-18 -9 -40 -17 -48 -17 -8 0 -20 -7 -26 -16 -7 -8 -39 -21
-71 -27 -33 -7 -59 -16 -58 -22 4 -21 46 -15 107 14 34 17 72 31 84 31 12 0
22 4 22 8 0 5 39 28 86 53 47 24 95 53 107 65 32 30 83 64 97 64 19 0 -10 -34
-70 -81 -30 -23 -66 -53 -79 -66 -13 -13 -30 -23 -37 -23 -8 0 -22 -4 -32 -9
-9 -5 -42 -21 -72 -36 -70 -34 -88 -51 -73 -66 9 -9 19 -6 40 8 15 11 58 32
95 47 38 15 97 47 132 71 57 40 96 56 96 39 0 -19 -27 -47 -68 -71 -26 -15
-58 -35 -71 -45 -13 -10 -31 -18 -40 -18 -9 0 -27 -9 -41 -20 -14 -11 -35 -20
-47 -20 -12 0 -30 -8 -40 -19 -10 -10 -40 -23 -68 -30 -27 -7 -61 -19 -73 -27
-30 -19 -137 -27 -166 -12 -11 6 -29 19 -38 28 -9 10 -21 20 -27 21 -5 2 -11
29 -13 59 -3 53 -2 55 25 58 33 4 34 16 5 36 -15 11 -34 14 -58 10 -29 -5 -48
0 -96 27 -32 18 -69 41 -81 52 -22 20 -31 47 -15 47 12 0 155 -61 178 -77 13
-8 32 -11 47 -8 14 4 28 2 31 -4 12 -19 46 -13 46 9 0 16 -7 20 -31 20 -42 0
-33 23 12 31 19 3 47 11 62 18 16 6 32 9 37 6 11 -7 158 42 200 67 19 12 55
38 80 58 25 20 54 40 66 44 11 3 28 22 37 41 19 40 37 46 37 12z m-230 -20 c0
-24 -152 -127 -187 -127 -24 0 -10 35 15 38 13 2 28 12 35 23 6 10 17 19 23
19 6 0 28 13 50 30 42 32 64 38 64 17z m3148 -53 c12 -4 22 -12 22 -19 0 -17
-108 -125 -125 -125 -7 0 -30 -21 -50 -46 -31 -38 -186 -151 -255 -187 -8 -4
-35 -19 -60 -33 -79 -46 -162 -85 -168 -79 -11 11 13 37 58 62 25 14 56 34 69
44 13 11 28 19 33 19 13 0 71 44 164 127 45 39 99 82 121 96 21 13 63 52 93
85 57 63 61 65 98 56z m-3437 -62 c38 3 44 0 44 -17 0 -18 -7 -20 -84 -20 -57
0 -86 4 -88 12 -6 16 58 43 73 31 7 -5 31 -7 55 -6z m3691 -68 c21 -13 41 -24
46 -24 4 0 25 -17 46 -37 32 -31 37 -42 32 -66 -3 -16 -6 -36 -6 -43 0 -19
-29 -18 -37 1 -5 16 -124 75 -148 75 -16 0 -40 28 -32 37 4 3 33 -2 65 -11 73
-20 75 -20 63 3 -18 32 -132 66 -195 58 -41 -6 -46 -4 -46 13 0 23 32 30 115
23 40 -3 72 -13 97 -29z m-3162 -4 c0 -5 -7 -10 -16 -10 -8 0 -12 5 -9 10 3 6
10 10 16 10 5 0 9 -4 9 -10z m-1954 -31 c32 -11 68 -23 79 -26 27 -8 54 -33
71 -65 15 -29 18 -130 5 -163 -14 -36 26 -175 51 -175 3 0 23 -16 44 -35 20
-19 44 -35 53 -35 9 0 29 -7 44 -15 16 -8 58 -18 94 -21 62 -7 66 -9 79 -39 7
-18 22 -35 34 -38 25 -6 26 -29 3 -64 -15 -23 -18 -52 -18 -193 0 -143 2 -169
18 -192 19 -28 16 -68 -6 -68 -22 0 -67 168 -67 247 0 39 -4 74 -9 78 -6 3 -4
20 5 41 16 38 12 70 -7 59 -55 -35 -28 -355 40 -471 13 -21 18 -41 13 -46 -12
-12 -62 29 -62 52 0 10 -11 38 -25 61 -14 24 -25 59 -25 77 0 18 -5 42 -10 53
-21 39 -16 178 10 259 13 41 30 85 38 98 20 30 4 47 -25 27 -13 -9 -29 -42
-43 -87 -12 -40 -25 -82 -30 -94 -15 -38 2 -258 21 -270 5 -3 9 -19 9 -35 0
-16 7 -41 16 -55 12 -18 14 -28 6 -36 -18 -18 -36 -2 -50 43 -8 24 -19 50 -25
58 -26 30 -46 184 -27 196 16 10 11 41 -10 60 -20 18 -20 17 -20 -16 0 -19 -5
-52 -10 -74 -10 -43 -1 -97 31 -180 24 -63 24 -75 0 -75 -21 0 -45 25 -37 38
3 5 -2 21 -10 36 -7 16 -14 44 -14 62 0 19 -5 43 -12 54 -10 15 -9 24 2 45 12
22 12 28 -2 41 -13 14 -12 25 19 112 45 127 49 146 33 140 -15 -5 -53 -75 -69
-128 -6 -20 -13 -103 -16 -185 -5 -148 -11 -173 -38 -162 -11 4 -13 28 -11
120 2 63 8 127 14 141 5 15 8 32 4 37 -7 12 35 145 58 184 23 39 23 65 -1 65
-19 0 -51 -60 -51 -98 0 -9 -7 -26 -15 -36 -8 -11 -15 -29 -15 -41 0 -12 -4
-25 -9 -31 -5 -5 -14 -81 -20 -169 -7 -87 -14 -162 -17 -164 -11 -11 -39 18
-35 35 2 11 5 66 6 124 4 132 7 146 49 242 22 49 31 98 18 98 -15 0 -28 -21
-47 -75 -19 -59 -62 -135 -75 -135 -13 0 -13 27 0 35 6 3 10 17 10 29 0 13 7
29 15 36 8 7 15 23 15 36 0 25 6 38 53 117 30 49 31 91 2 67 -8 -7 -15 -18
-15 -25 0 -6 -9 -20 -20 -30 -19 -18 -21 -18 -33 -1 -19 26 -50 16 -61 -19 -5
-17 -13 -39 -18 -50 -5 -11 -26 -69 -47 -130 -21 -60 -44 -111 -51 -113 -22
-8 -28 20 -14 61 8 22 14 47 14 56 0 10 16 49 35 88 19 39 35 78 35 85 0 8 13
32 30 54 16 21 30 45 30 52 0 8 9 25 20 39 23 30 25 46 6 62 -22 18 -46 2 -46
-31 0 -17 -15 -52 -33 -81 -48 -74 -113 -206 -122 -244 -5 -23 -12 -33 -26
-33 -15 0 -19 7 -19 33 1 17 7 43 15 57 8 14 14 47 15 73 0 27 6 61 14 75 8
15 24 47 35 72 11 25 39 67 61 94 22 26 40 56 40 65 0 9 11 28 25 41 67 66 75
76 75 87 0 21 -21 15 -27 -7 -3 -11 -13 -20 -22 -20 -17 0 -42 -26 -86 -90
-13 -19 -44 -65 -69 -101 -54 -79 -108 -139 -124 -139 -17 0 -15 14 8 43 11
14 27 41 35 60 18 45 127 186 160 210 27 19 34 47 12 47 -8 0 -25 -13 -39 -29
-15 -16 -30 -30 -35 -32 -4 -2 -25 -25 -46 -51 -58 -72 -95 -62 -40 11 30 38
169 177 192 190 8 5 11 13 7 20 -16 25 -49 8 -110 -53 -47 -48 -66 -62 -75
-53 -6 6 -11 16 -11 22 0 18 132 145 150 145 9 0 43 -9 76 -21z m1854 -41
c-14 -14 -25 -17 -32 -10 -6 6 -2 15 13 25 31 22 46 10 19 -15z m3082 -3 c-1
-5 -27 -19 -57 -30 -29 -11 -57 -24 -61 -28 -10 -10 -44 -9 -44 2 0 13 22 29
52 36 15 4 33 14 39 21 14 17 76 15 71 -1z m-1312 -5 c28 -15 14 -38 -28 -50
-28 -7 -40 -7 -50 4 -12 12 -11 17 7 35 23 23 43 26 71 11z m-2474 -30 c21
-16 46 -30 55 -30 24 0 39 -21 39 -54 0 -17 7 -44 15 -60 15 -28 14 -30 -26
-83 -22 -30 -46 -52 -52 -50 -7 2 -12 27 -12 63 l0 58 -37 6 c-24 5 -48 19
-72 44 -53 56 -55 75 -15 108 42 35 56 35 105 -2z m-1437 -7 c-8 -9 -16 -10
-22 -4 -13 13 0 31 19 24 11 -4 12 -8 3 -20z m1214 12 c1 -5 -6 -11 -15 -13
-11 -2 -18 3 -18 13 0 17 30 18 33 0z m4177 -83 c0 -9 -9 -28 -20 -42 -18 -23
-28 -80 -14 -80 3 0 14 5 25 10 24 13 27 -11 4 -34 -8 -8 -15 -22 -15 -32 0
-16 1 -16 20 1 11 10 33 38 48 62 27 43 52 56 52 28 0 -22 -28 -86 -46 -107
-9 -9 -13 -22 -9 -27 12 -21 35 -10 61 29 25 38 54 53 54 29 0 -6 -13 -28 -29
-48 -16 -20 -30 -45 -32 -56 -3 -11 -16 -26 -31 -33 -37 -17 -213 -28 -222
-13 -10 16 -46 14 -46 -4 0 -25 46 -47 92 -44 24 2 54 0 67 -5 14 -5 27 -4 34
3 6 6 25 11 43 11 20 0 45 11 69 30 80 64 108 50 39 -19 -53 -53 -43 -50 -234
-64 -25 -1 -36 -7 -38 -21 -4 -17 2 -18 95 -13 54 3 112 9 128 12 37 7 76 -18
57 -37 -19 -19 -337 -15 -384 5 -38 16 -38 16 -38 -8 0 -19 7 -26 28 -31 15
-3 38 -10 52 -15 42 -15 299 -15 348 1 45 14 65 8 41 -14 -31 -29 -147 -49
-250 -43 -99 5 -121 0 -94 -23 17 -14 273 -7 304 9 27 15 41 14 41 -3 0 -20
-16 -29 -75 -39 -139 -25 -350 -16 -416 18 -29 15 -53 6 -44 -17 7 -17 47 -30
142 -49 56 -10 371 -9 412 2 8 2 16 -3 18 -12 7 -32 -124 -52 -317 -49 -113 1
-166 12 -232 46 -29 15 -29 15 -26 -8 2 -19 17 -28 84 -50 86 -29 188 -35 391
-24 62 3 85 1 94 -10 9 -11 8 -15 -2 -18 -22 -8 -131 -23 -164 -23 -16 0 -73
-1 -125 -2 -63 -2 -110 3 -139 12 -37 13 -43 13 -48 0 -14 -35 51 -52 217 -54
74 -1 156 2 181 6 56 9 64 0 43 -50 -14 -35 -17 -37 -49 -31 -20 4 -44 2 -56
-4 -68 -37 -209 -52 -289 -30 -23 6 -44 9 -47 6 -3 -2 -23 2 -45 10 -30 10
-44 11 -54 3 -8 -6 -11 -15 -9 -20 15 -24 252 -63 293 -47 13 4 27 6 32 3 5
-3 48 2 97 10 48 9 103 19 122 22 28 5 33 3 30 -12 -7 -36 -239 -83 -369 -76
-94 5 -123 10 -138 24 -9 8 -37 18 -60 22 -39 6 -43 5 -40 -11 2 -14 22 -23
81 -36 43 -10 87 -23 99 -29 37 -20 254 -18 338 2 93 23 90 23 90 -1 0 -12 -7
-20 -17 -20 -32 0 -106 -31 -135 -56 -37 -31 -66 -31 -70 -1 -3 19 -8 22 -43
20 -22 -2 -50 -8 -62 -14 -16 -8 -26 -9 -35 -2 -7 6 -33 14 -58 18 -42 6 -99
25 -192 63 -21 8 -45 26 -54 40 -16 25 -16 27 4 40 12 8 22 25 22 38 0 17 6
24 20 24 24 0 25 17 4 45 -9 12 -12 30 -9 45 3 15 -2 43 -11 65 -28 65 -28
149 -1 209 13 28 34 77 46 108 13 31 34 64 47 73 13 8 24 24 24 35 0 11 12 27
28 37 15 9 42 30 60 46 29 24 39 27 76 22 32 -5 45 -3 56 9 11 14 9 24 -13 69
-35 69 -39 117 -11 131 11 6 35 28 53 48 33 38 51 41 51 10z m-4290 14 c0 -9
-30 -14 -35 -6 -4 6 3 10 14 10 12 0 21 -2 21 -4z m1838 -51 c-27 -29 -43 -32
-52 -9 -11 28 -6 34 23 28 21 -5 30 -2 36 13 5 12 9 14 12 5 3 -7 -6 -23 -19
-37z m-2888 19 c0 -9 -5 -14 -12 -12 -18 6 -21 28 -4 28 9 0 16 -7 16 -16z
m4520 -2 c0 -25 -20 -42 -50 -42 -14 0 -43 -9 -65 -20 -22 -11 -52 -20 -67
-20 -15 0 -30 -4 -33 -10 -8 -13 -55 -13 -55 -1 0 13 63 51 84 51 17 0 95 31
126 50 27 16 60 12 60 -8z m-2276 -11 c27 -29 16 -62 -31 -96 -76 -55 -70 -84
8 -36 28 17 54 29 58 25 6 -6 -89 -96 -125 -117 -12 -6 -37 -21 -55 -31 -19
-11 -81 -36 -139 -55 -58 -20 -105 -40 -105 -46 0 -16 62 -17 92 -1 16 8 45
17 66 21 32 6 36 5 31 -9 -7 -18 -47 -38 -116 -57 -55 -15 -65 -39 -17 -39 26
0 31 -3 26 -20 -7 -28 8 -34 36 -15 24 15 57 12 57 -6 0 -5 -8 -12 -17 -16
-10 -3 -26 -14 -36 -25 -10 -10 -31 -18 -47 -18 -15 0 -49 -9 -75 -20 -26 -11
-71 -23 -101 -26 -57 -7 -86 -26 -66 -46 8 -8 24 -8 59 2 65 17 220 68 260 86
37 17 50 18 58 4 9 -15 -14 -40 -36 -40 -10 0 -26 -11 -34 -24 -13 -19 -27
-24 -74 -29 -32 -2 -69 -12 -82 -20 -13 -9 -49 -19 -79 -22 -91 -10 -100 -14
-100 -36 0 -20 4 -21 43 -15 23 4 62 9 87 12 25 3 60 13 78 21 40 18 67 14 67
-11 0 -25 -83 -55 -166 -59 -71 -4 -119 -25 -119 -54 0 -23 66 -10 97 18 23
22 23 22 37 4 14 -19 15 -19 78 4 77 28 124 36 132 23 7 -11 -8 -24 -94 -78
-40 -25 -62 -33 -81 -29 -17 4 -30 0 -39 -10 -7 -8 -27 -15 -44 -15 -22 0 -40
-8 -56 -25 -40 -43 -27 -43 105 -1 32 10 53 12 59 6 15 -15 -8 -32 -72 -55
-69 -25 -84 -55 -28 -55 19 0 37 -4 40 -9 9 -14 -27 -39 -69 -46 -22 -4 -52
-15 -67 -26 -15 -10 -31 -19 -36 -19 -4 0 -13 -5 -20 -12 -6 -6 -22 -13 -34
-14 -79 -10 -73 -13 -70 31 5 82 8 110 13 125 33 86 42 126 44 190 1 41 7 95
13 120 6 25 11 88 12 140 0 75 4 104 20 135 14 27 17 42 9 51 -15 18 26 58 49
49 46 -20 109 -16 182 10 41 15 93 30 115 35 22 4 59 17 82 29 23 11 47 21 53
21 20 0 70 34 70 47 0 26 -96 5 -125 -27 -10 -11 -27 -20 -38 -20 -20 0 -57
-10 -127 -35 -49 -18 -126 -35 -154 -35 -28 0 -61 34 -53 55 5 11 21 15 60 15
30 0 71 7 90 15 20 8 50 15 67 15 56 0 190 48 277 100 39 23 42 27 37 56 -4
25 -2 34 13 43 25 14 27 14 47 -8z m544 -37 c-10 -10 -28 6 -28 24 0 15 1 15
17 -1 9 -9 14 -19 11 -23z m2267 22 c19 -14 19 -15 0 -36 -11 -13 -34 -29 -52
-36 -17 -8 -34 -18 -38 -24 -3 -5 -15 -10 -26 -10 -11 0 -38 -12 -60 -27 l-41
-27 -18 22 c-10 12 -25 22 -33 22 -23 0 -76 -30 -92 -53 -22 -32 -1 -46 28
-19 23 22 47 29 47 14 0 -16 -32 -52 -46 -52 -42 0 -100 -57 -80 -77 3 -3 50
24 104 60 55 37 106 67 114 67 9 0 37 12 63 26 40 23 49 25 60 13 19 -19 8
-32 -45 -53 -25 -9 -74 -35 -110 -56 -128 -75 -143 -82 -172 -78 -21 4 -28 0
-28 -13 0 -9 -7 -22 -15 -29 -17 -14 -95 -171 -95 -189 0 -17 15 -13 35 9 10
11 22 20 27 20 5 0 32 17 61 38 29 21 75 50 102 64 28 14 64 33 80 42 35 19
65 21 65 4 0 -21 -53 -68 -78 -68 -13 0 -54 -18 -92 -40 -38 -22 -73 -40 -78
-40 -4 0 -19 -11 -32 -25 -13 -14 -30 -25 -38 -25 -15 0 -72 -37 -84 -55 -28
-40 42 -25 98 21 23 19 44 34 48 34 3 0 35 18 69 39 74 47 112 59 120 37 5
-13 -30 -46 -50 -46 -5 0 -49 -25 -98 -55 -50 -30 -95 -55 -101 -55 -6 0 -19
-9 -29 -20 -10 -11 -23 -20 -30 -20 -14 0 -59 -48 -71 -75 -4 -11 -9 -31 -10
-45 0 -14 -4 -33 -9 -42 -15 -36 24 -19 178 77 85 53 120 65 132 46 5 -9 -43
-51 -75 -64 -8 -4 -22 -11 -30 -16 -8 -4 -41 -21 -73 -37 -71 -35 -91 -46
-110 -62 -8 -7 -19 -12 -23 -11 -34 6 -46 -18 -20 -40 10 -8 23 -4 54 19 23
17 47 30 54 30 7 0 39 18 72 41 55 38 86 45 86 17 0 -16 -40 -58 -56 -58 -6 0
-17 -6 -23 -14 -10 -12 -8 -15 10 -18 12 -2 27 -11 33 -20 8 -14 6 -21 -9 -33
-26 -19 -138 -75 -152 -75 -6 0 -27 -13 -48 -30 -44 -35 -55 -37 -55 -12 0 19
60 67 140 113 44 25 65 59 37 59 -8 0 -30 -10 -48 -22 -73 -49 -114 -67 -129
-58 -20 12 -22 99 -4 118 8 7 14 26 14 41 0 16 7 45 15 64 8 20 15 48 15 62 0
14 9 43 20 65 11 22 20 51 20 66 0 14 11 49 25 76 14 27 23 54 20 59 -3 5 3
21 14 36 11 16 32 66 47 113 15 47 35 97 46 112 10 14 18 36 18 49 0 33 28 59
64 59 17 0 48 11 68 25 20 14 44 25 53 25 9 0 31 11 49 25 32 25 66 33 66 17
0 -12 -30 -36 -62 -50 -31 -13 -36 -29 -13 -38 18 -7 74 27 131 80 43 40 52
42 79 22z m-3845 -56 c16 -33 30 -66 30 -74 0 -7 8 -24 18 -36 14 -18 18 -35
14 -72 -3 -30 0 -53 8 -63 10 -12 13 -58 11 -177 -1 -89 -4 -165 -7 -170 -3
-4 1 -21 9 -36 10 -20 11 -34 4 -50 -7 -15 -6 -35 1 -61 18 -59 14 -102 -13
-158 -35 -70 -55 -86 -89 -73 -15 5 -51 10 -80 10 -46 0 -57 4 -87 33 -19 18
-47 41 -62 52 -20 14 -26 26 -21 38 9 24 16 22 74 -25 29 -24 61 -47 71 -53
11 -5 19 -13 19 -17 0 -5 7 -8 15 -8 27 0 16 27 -22 56 -21 16 -49 39 -63 51
-14 13 -28 23 -31 23 -4 0 -19 19 -34 41 -30 46 -22 76 11 41 11 -10 26 -23
35 -28 36 -20 162 -140 170 -162 10 -26 32 -25 37 3 3 11 -23 44 -75 95 -133
131 -201 224 -189 256 10 27 33 14 64 -36 17 -27 36 -50 41 -50 5 0 20 -17 33
-38 40 -66 107 -137 119 -125 13 13 -3 47 -40 84 -14 14 -48 56 -76 93 -27 37
-65 85 -82 108 -25 30 -33 50 -33 79 0 21 3 39 8 39 4 0 19 -19 34 -43 39 -62
97 -127 114 -127 20 0 17 23 -7 54 -115 146 -166 246 -126 246 9 0 24 -15 33
-32 9 -18 29 -46 44 -63 16 -16 43 -57 60 -90 43 -80 57 -95 66 -71 10 26 -35
107 -101 186 -30 36 -55 70 -55 77 0 7 -15 24 -34 38 -32 24 -86 128 -74 141
10 9 34 -7 50 -34 10 -16 42 -56 72 -90 30 -34 67 -82 81 -107 17 -27 34 -45
45 -45 33 0 31 18 -7 63 -112 133 -182 242 -165 259 11 11 54 -27 79 -68 44
-76 96 -145 107 -141 19 7 7 51 -21 76 -28 24 -93 129 -119 190 -18 42 -18 41
6 41 14 0 29 -18 53 -68 19 -37 37 -80 41 -95 8 -34 36 -36 36 -3 0 13 -14 51
-31 84 -30 57 -33 92 -9 92 5 0 23 -27 40 -60z m1324 51 c6 -9 -28 -43 -61
-60 -23 -12 -30 -35 -14 -45 5 -3 29 3 52 14 24 11 59 20 77 20 18 0 50 11 72
25 41 26 70 32 70 16 0 -16 -49 -49 -136 -92 -48 -23 -84 -48 -84 -56 0 -10 6
-12 23 -8 46 15 147 65 188 94 47 35 72 40 67 14 -5 -25 -83 -80 -158 -112
-73 -31 -88 -51 -38 -51 29 0 111 40 205 100 28 18 39 7 25 -24 -7 -16 -25
-29 -51 -37 -22 -6 -52 -25 -67 -40 -15 -16 -35 -29 -43 -29 -24 0 -115 -36
-119 -48 -6 -18 47 -23 78 -7 34 17 40 18 60 5 22 -14 -15 -50 -52 -50 -15 0
-36 -4 -46 -9 -9 -6 -29 -12 -44 -16 -19 -4 -28 -12 -28 -25 0 -21 19 -27 36
-11 14 14 87 18 91 5 7 -22 -75 -44 -165 -44 -63 0 -94 -4 -110 -16 -12 -8
-20 -19 -17 -24 8 -13 193 -5 243 11 31 9 46 9 54 1 17 -17 1 -42 -26 -42 -14
0 -37 -5 -53 -11 -15 -6 -67 -11 -115 -10 -79 1 -112 -8 -94 -26 13 -13 157
-18 217 -8 47 9 58 -8 23 -32 -21 -13 -50 -18 -121 -19 -52 -1 -96 -4 -99 -6
-2 -3 -2 -12 1 -20 8 -20 165 -32 218 -16 51 15 71 -2 36 -30 -19 -16 -44 -21
-149 -24 -142 -6 -176 2 -173 43 1 18 -8 31 -34 48 -27 17 -34 28 -31 46 3 13
2 29 -2 36 -10 15 16 73 52 119 27 35 28 35 98 32 56 -2 72 0 76 13 8 19 -38
81 -66 90 -12 4 -24 21 -30 46 -11 39 -7 62 21 137 5 13 9 36 9 51 0 33 25 58
77 77 46 16 50 16 57 5z m-1514 -67 c0 -17 -22 -14 -28 4 -2 7 3 12 12 12 9 0
16 -7 16 -16z m538 -67 c4 -18 -14 -22 -37 -8 -7 5 -10 14 -6 20 10 17 39 9
43 -12z m-788 -28 c0 -5 -9 -9 -20 -9 -19 0 -26 11 -14 23 8 8 34 -3 34 -14z
m42 -11 c-6 -6 -16 -7 -22 -3 -9 6 -9 9 1 16 17 10 34 0 21 -13z m528 2 c0
-11 -7 -20 -15 -20 -15 0 -21 21 -8 33 12 13 23 7 23 -13z m150 -17 c0 -38
-51 -143 -69 -143 -14 0 -22 30 -12 48 5 10 7 30 4 45 -3 16 -1 27 6 27 6 0
17 14 26 30 22 43 45 39 45 -7z m850 7 c0 -5 -4 -10 -10 -10 -5 0 -10 5 -10
10 0 6 5 10 10 10 6 0 10 -4 10 -10z m1835 -30 c-3 -6 -10 -10 -16 -10 -10 0
-12 33 -2 44 9 9 26 -22 18 -34z m-4237 21 c18 -11 12 -41 -10 -55 -26 -16
-41 4 -29 37 11 29 18 32 39 18z m1430 -41 c-7 -11 -16 -20 -20 -20 -5 0 -8
-7 -8 -15 0 -8 -4 -15 -10 -15 -15 0 -12 9 11 41 23 32 46 40 27 9z m2934 -15
c30 -8 71 -12 91 -8 51 8 53 -12 2 -31 -54 -21 -168 -17 -192 6 -20 21 -1 62
25 54 10 -3 43 -13 74 -21z m212 16 c7 -11 -12 -26 -41 -34 -27 -6 -29 0 -6
25 17 19 38 24 47 9z m456 -6 c0 -18 -52 -52 -180 -118 -52 -27 -106 -58 -119
-68 -25 -20 -51 -25 -51 -10 0 14 72 73 117 96 21 11 54 29 73 41 114 72 160
89 160 59z m-2766 -14 c10 -16 -63 -71 -94 -71 -44 0 -45 17 -1 39 22 12 42
25 46 31 8 12 42 13 49 1z m1946 -27 c0 -8 -7 -14 -15 -14 -15 0 -21 21 -9 33
10 9 24 -2 24 -19z m-3209 -7 c-1 -4 -1 -14 -1 -22 0 -8 -9 -15 -20 -15 -22 0
-26 20 -8 38 13 13 30 12 29 -1z m1814 -13 c0 -13 -8 -20 -27 -22 -32 -4 -39
21 -10 37 23 14 37 8 37 -15z m199 -15 c-8 -14 -34 -11 -34 4 0 8 3 17 7 20 9
9 34 -13 27 -24z m1239 -31 c24 -9 98 -8 207 4 17 2 25 -3 28 -14 3 -13 -3
-18 -21 -18 -14 0 -41 -7 -61 -15 -27 -12 -65 -15 -144 -13 -105 3 -107 3
-122 31 -13 24 -13 29 0 37 16 10 68 5 113 -12z m-2825 -16 c2 -7 -2 -10 -12
-6 -9 3 -16 11 -16 16 0 13 23 5 28 -10z m1751 -21 c19 -6 51 -11 73 -11 45 0
59 -21 34 -49 -9 -10 -16 -30 -16 -45 0 -21 -4 -27 -15 -22 -8 3 -25 2 -38 -3
-16 -6 -37 -3 -74 13 -59 24 -89 49 -96 77 -7 25 3 24 58 -6 25 -14 45 -23 45
-20 0 3 13 -2 30 -12 22 -13 33 -14 41 -6 15 15 3 33 -24 33 -24 0 -117 55
-117 68 0 18 14 21 39 7 14 -7 41 -18 60 -24z m2447 8 c8 -13 -3 -24 -33 -34
-28 -8 -32 19 -5 34 22 13 29 13 38 0z m-5296 -23 c0 -14 -4 -28 -10 -31 -5
-3 -10 -16 -10 -27 0 -12 -12 -46 -26 -76 -14 -30 -27 -76 -28 -102 -1 -27 -8
-56 -15 -64 -7 -9 -11 -26 -8 -38 4 -13 2 -30 -3 -38 -8 -13 -11 -13 -26 2
-16 16 -16 19 -2 35 11 13 14 35 12 77 -2 40 2 69 13 90 27 52 30 61 38 95 8
39 43 101 56 101 5 0 9 -11 9 -24z m1195 -35 c0 -50 -45 -111 -82 -111 -23 0
-25 3 -19 33 4 17 8 43 10 56 1 13 11 28 22 34 10 6 25 19 33 30 19 26 36 7
36 -42z m605 50 c0 -10 -50 -25 -57 -17 -3 2 -2 9 2 15 8 13 55 15 55 2z m701
-12 c16 -11 29 -24 29 -29 0 -10 -29 -40 -38 -40 -7 1 -42 70 -42 83 0 13 22
7 51 -14z m1104 -99 c3 -5 1 -10 -4 -10 -6 0 -11 5 -11 10 0 6 2 10 4 10 3 0
8 -4 11 -10z m-995 -25 c0 -8 6 -15 14 -15 22 0 30 -19 16 -35 -17 -20 -27
-19 -33 5 -3 12 -14 20 -26 20 -20 0 -28 19 -14 33 12 13 43 7 43 -8z m-135
-35 c3 -5 1 -10 -4 -10 -6 0 -11 5 -11 10 0 6 2 10 4 10 3 0 8 -4 11 -10z
m1453 -11 c-2 -6 -8 -10 -13 -10 -5 0 -11 4 -13 10 -2 6 4 11 13 11 9 0 15 -5
13 -11z m-2018 -45 c0 -8 -4 -12 -10 -9 -5 3 -10 13 -10 21 0 8 5 12 10 9 6
-3 10 -13 10 -21z m870 -3 c0 -21 -26 -36 -36 -20 -9 15 3 39 21 39 8 0 15 -9
15 -19z m220 9 c0 -5 -5 -10 -11 -10 -5 0 -7 5 -4 10 3 6 8 10 11 10 2 0 4 -4
4 -10z m1525 -7 c8 -22 -29 -53 -84 -70 -40 -13 -111 -55 -180 -107 -39 -29
-93 -37 -71 -11 17 21 157 118 205 143 22 11 49 29 59 41 23 25 61 27 71 4z
m-2735 -21 c0 -14 -11 -21 -26 -15 -8 3 -11 9 -8 14 7 11 34 12 34 1z m-596
-24 c8 -13 5 -24 -12 -47 -12 -17 -22 -37 -22 -46 0 -8 -9 -15 -20 -15 -17 0
-19 6 -18 48 2 71 43 105 72 60z m2936 -4 c0 -8 -7 -14 -15 -14 -15 0 -21 21
-9 33 10 9 24 -2 24 -19z m-1490 7 c0 -5 -4 -21 -10 -36 -8 -22 -13 -24 -30
-15 -19 10 -27 40 -13 53 10 10 53 8 53 -2z m-2660 -25 c0 -32 -16 -42 -29
-18 -7 13 -7 22 1 30 19 19 28 14 28 -12z m-152 -4 c2 -7 -6 -12 -17 -12 -21
0 -27 11 -14 24 9 9 26 2 31 -12z m4747 -17 c0 -28 -29 -25 -33 3 -3 19 0 23
15 20 10 -2 18 -12 18 -23z m-2745 -9 c0 -16 -54 -41 -69 -31 -19 11 -12 26
21 40 35 14 48 12 48 -9z m738 -19 c2 -10 -3 -17 -12 -17 -18 0 -29 16 -21 31
9 14 29 6 33 -14z m340 13 c-9 -6 -14 -18 -11 -29 6 -23 -15 -39 -23 -17 -8
21 13 56 34 56 16 -1 16 -1 0 -10z m-80 -12 c18 -18 15 -28 -8 -28 -13 0 -20
7 -20 20 0 23 10 26 28 8z m955 -2 c3 -12 -30 -32 -39 -24 -11 12 5 40 21 36
9 -2 17 -7 18 -12z m-3805 -76 c3 -66 -13 -124 -32 -117 -11 4 -13 145 -2 174
13 34 31 4 34 -57z m670 43 c-4 -22 -22 -20 -26 1 -2 10 3 16 13 16 10 0 15
-7 13 -17z m1391 -12 c32 -17 55 -19 164 -17 122 3 126 3 146 -20 24 -27 22
-29 -12 -13 -19 8 -31 8 -53 -4 -57 -28 -291 -8 -316 28 -4 5 -8 18 -8 28 0
23 31 22 79 -2z m-2259 -11 c0 -5 -4 -10 -10 -10 -5 0 -10 5 -10 10 0 6 5 10
10 10 6 0 10 -4 10 -10z m860 -27 c0 -10 -5 -25 -10 -33 -8 -13 -13 -11 -35
12 l-25 27 33 4 c17 2 33 5 35 5 1 1 2 -6 2 -15z m2110 -13 c0 -11 -6 -20 -14
-20 -18 0 -29 16 -21 30 11 18 35 11 35 -10z m-73 -35 c3 -9 -2 -22 -13 -29
-16 -12 -16 -16 -4 -31 12 -15 12 -18 -3 -26 -12 -7 -15 -17 -11 -35 5 -19 2
-24 -14 -24 -11 0 -22 -8 -25 -20 -7 -26 -33 -26 -47 1 -10 17 -8 21 9 26 26
7 27 19 4 33 -17 10 -17 10 0 20 9 6 17 20 17 30 0 14 7 20 21 20 18 0 20 4
15 25 -6 22 -3 25 19 25 14 0 28 -7 32 -15z m1823 5 c0 -5 -4 -10 -10 -10 -5
0 -10 5 -10 10 0 6 5 10 10 10 6 0 10 -4 10 -10z m-2020 -12 c0 -16 -31 -48
-45 -48 -7 0 -15 12 -17 28 -3 24 -1 27 29 29 18 1 33 -3 33 -9z m66 -17 c-10
-16 -36 -13 -36 3 0 17 21 27 34 16 4 -5 5 -13 2 -19z m-2738 -9 c2 -12 -1
-22 -7 -22 -13 0 -32 35 -24 44 12 12 28 0 31 -22z m3970 11 c2 -8 -5 -13 -17
-13 -21 0 -35 13 -24 24 10 10 36 3 41 -11z m-1008 -1 c0 -19 -40 -44 -57 -37
-16 6 -16 8 6 26 24 20 51 25 51 11z m70 -8 c0 -9 -7 -14 -17 -12 -25 5 -28
28 -4 28 12 0 21 -6 21 -16z m190 -57 c0 -20 -25 1 -28 24 -2 23 -2 23 13 5 8
-11 15 -24 15 -29z m-1874 18 c8 -19 -44 -107 -59 -102 -7 2 -11 13 -9 23 13
92 14 94 39 94 13 0 26 -7 29 -15z m1748 0 c-6 -16 -34 -21 -34 -7 0 13 11 22
26 22 8 0 11 -6 8 -15z m-394 -4 c0 -14 -18 -23 -30 -16 -6 4 -8 11 -5 16 8
12 35 12 35 0z m-2680 -21 c0 -5 -4 -10 -10 -10 -5 0 -10 5 -10 10 0 6 5 10
10 10 6 0 10 -4 10 -10z m2600 -18 c0 -10 -5 -23 -12 -30 -9 -9 -9 -15 0 -24
16 -16 15 -38 -2 -38 -17 0 -28 79 -13 98 14 18 27 15 27 -6z m-2290 -7 c0 -9
-6 -12 -15 -9 -8 4 -12 10 -9 15 8 14 24 10 24 -6z m2628 -7 c-2 -15 -11 -24
-25 -26 -25 -4 -31 16 -11 36 20 20 40 14 36 -10z m332 1 c0 -5 -7 -9 -15 -9
-15 0 -20 12 -9 23 8 8 24 -1 24 -14z m825 1 c-3 -5 -11 -10 -16 -10 -6 0 -7
5 -4 10 3 6 11 10 16 10 6 0 7 -4 4 -10z m569 -5 c11 -8 30 -15 42 -15 13 0
31 -12 42 -28 21 -28 96 -72 126 -72 9 0 42 -9 73 -19 32 -11 83 -23 114 -26
63 -8 89 -19 74 -34 -26 -24 -270 -30 -314 -6 -14 7 -48 23 -76 35 -99 43
-100 44 -101 76 -1 16 -6 39 -12 51 -26 47 -7 68 32 38z m-4099 -14 c3 -5 1
-12 -5 -16 -5 -3 -10 1 -10 9 0 18 6 21 15 7z m189 -10 c17 -18 16 -19 -18
-18 -38 1 -43 6 -24 25 16 16 22 15 42 -7z m-754 -9 c0 -13 -12 -22 -22 -16
-10 6 -1 24 13 24 5 0 9 -4 9 -8z m1234 -27 c-7 -16 -49 -21 -59 -6 -3 5 2 16
11 25 19 20 57 4 48 -19z m2348 20 c0 -5 -5 -11 -11 -13 -6 -2 -11 4 -11 13 0
9 5 15 11 13 6 -2 11 -8 11 -13z m-3528 -1 c22 -8 20 -27 -4 -42 -18 -11 -20
-10 -20 18 0 32 1 33 24 24z m3206 -7 c0 -8 -9 -22 -20 -32 -18 -16 -20 -16
-26 -1 -7 19 12 46 32 46 8 0 14 -6 14 -13z m1315 -15 c-8 -8 -25 10 -19 20 4
6 9 5 15 -3 4 -7 6 -15 4 -17z m-1200 -2 c3 -5 3 -15 0 -20 -7 -12 -45 5 -45
20 0 13 37 13 45 0z m1235 -66 c0 -3 -12 -21 -27 -40 -30 -36 -53 -43 -73 -19
-17 21 -5 32 30 27 28 -4 32 -2 30 19 -1 13 -2 28 -1 32 1 8 41 -10 41 -19z
m-4530 -5 c0 -5 -7 -9 -15 -9 -15 0 -20 12 -9 23 8 8 24 -1 24 -14z m5120 -28
c0 -13 -26 -32 -33 -24 -14 13 -6 33 13 33 11 0 20 -4 20 -9z m-1399 -24 c-13
-13 -26 -3 -16 12 3 6 11 8 17 5 6 -4 6 -10 -1 -17z m869 -24 c0 -25 -10 -29
-28 -11 -8 8 -14 5 -23 -15 -7 -15 -18 -27 -26 -27 -25 0 -13 35 24 67 39 35
53 31 53 -14z m-381 28 c16 -10 6 -31 -14 -31 -14 0 -27 24 -18 34 8 8 15 7
32 -3z m115 -32 c-3 -5 -10 -7 -15 -3 -5 3 -7 10 -3 15 3 5 10 7 15 3 5 -3 7
-10 3 -15z m56 -25 c0 -9 -7 -14 -17 -12 -25 5 -28 28 -4 28 12 0 21 -6 21
-16z"/>
<path d="M4073 8910 c-13 -10 -23 -23 -23 -29 0 -16 103 -14 126 3 25 19 11
32 -41 39 -30 5 -45 1 -62 -13z"/>
<path d="M3980 8851 c0 -15 6 -21 21 -21 14 0 19 5 17 17 -5 26 -38 29 -38 4z"/>
<path d="M3916 8826 c7 -19 38 -22 32 -3 -3 6 -12 13 -21 15 -12 2 -15 -1 -11
-12z"/>
<path d="M3434 8809 c-8 -14 11 -33 25 -25 16 10 13 36 -3 36 -8 0 -18 -5 -22
-11z"/>
<path d="M3382 8798 c-7 -7 -12 -16 -12 -20 0 -12 28 -10 36 3 10 17 -10 31
-24 17z"/>
<path d="M5919 8177 c-40 -56 -48 -73 -40 -86 14 -23 51 5 51 38 0 16 7 31 15
35 18 7 20 36 3 36 -7 0 -20 -11 -29 -23z"/>
<path d="M5628 7825 c-9 -19 -9 -28 0 -37 15 -15 52 17 52 44 0 28 -38 23 -52
-7z"/>
<path d="M8175 7932 c-62 -32 -64 -32 -100 -15 -29 14 -40 15 -55 5 -28 -17
-96 -15 -137 5 -35 16 -36 16 -54 -6 -22 -26 -17 -41 13 -41 11 0 38 -5 60
-12 47 -14 47 -34 -1 -61 -32 -17 -36 -17 -47 -3 -9 13 -22 15 -68 10 -50 -6
-57 -9 -54 -28 2 -15 11 -21 31 -23 16 -1 44 -11 63 -22 48 -29 69 -26 124 14
26 19 55 35 63 35 9 0 22 9 30 21 23 32 85 61 117 54 23 -5 31 -1 50 25 12 17
19 37 16 45 -7 18 -12 18 -51 -3z"/>
<path d="M8133 7774 c-3 -8 -1 -20 6 -27 14 -14 47 15 37 32 -10 16 -36 13
-43 -5z"/>
<path d="M6375 4330 c3 -5 8 -10 11 -10 2 0 4 5 4 10 0 6 -5 10 -11 10 -5 0
-7 -4 -4 -10z"/>
<path d="M5352 6448 c-7 -7 -12 -18 -12 -25 0 -18 29 -16 37 3 8 21 -10 37
-25 22z"/>
<path d="M8424 5337 c-3 -10 -1 -30 6 -45 29 -63 70 -187 70 -214 0 -15 4 -28
9 -28 13 0 27 23 26 40 -3 46 -58 206 -76 220 -3 3 -11 14 -17 25 -10 19 -11
19 -18 2z"/>
<path d="M5405 5615 c34 -27 41 -29 50 -15 3 6 -2 13 -12 16 -10 3 -26 10 -35
15 -32 17 -33 9 -3 -16z"/>
<path d="M5527 5520 c46 -43 71 -53 54 -21 -10 17 -74 61 -89 61 -4 0 12 -18
35 -40z"/>
<path d="M4750 5443 c-8 -3 -34 -13 -57 -24 -51 -23 -106 -27 -127 -10 -13 11
-17 11 -20 0 -8 -26 -13 -129 -6 -129 4 0 18 8 31 19 24 18 76 33 114 31 59
-3 91 -6 100 -11 6 -3 35 -5 66 -4 78 2 104 21 113 81 3 26 4 49 1 52 -5 5
-22 -2 -47 -20 -14 -10 -23 -9 -47 5 -28 16 -88 21 -121 10z"/>
<path d="M5134 5385 c-4 -10 -20 -15 -45 -15 -34 0 -41 -4 -50 -27 -6 -15 -7
-43 -4 -62 4 -21 2 -37 -5 -41 -6 -4 -14 -25 -17 -46 -7 -56 21 -89 84 -98
108 -13 98 -20 101 58 2 38 -1 73 -6 78 -14 14 -95 14 -100 0 -4 -14 -28 -16
-36 -3 -12 19 7 41 34 41 16 0 40 4 55 10 20 8 34 6 58 -7 18 -9 48 -20 67
-24 49 -10 101 -31 129 -51 30 -21 41 -15 41 24 0 16 8 43 17 59 22 37 8 55
-30 38 -23 -10 -30 -9 -45 4 -10 10 -28 17 -39 17 -11 0 -26 7 -33 15 -7 8
-21 15 -32 15 -11 0 -27 4 -36 9 -9 4 -36 11 -60 15 -33 5 -44 3 -48 -9z"/>
<path d="M4413 5383 c-8 -3 -13 -25 -13 -59 0 -62 15 -73 23 -16 3 20 8 47 12
60 7 22 2 25 -22 15z"/>
<path d="M4965 5308 c-8 -24 0 -81 13 -86 8 -2 12 10 12 42 0 43 -15 71 -25
44z"/>
<path d="M4657 5279 c-10 -6 -25 -8 -33 -5 -9 3 -24 1 -35 -4 -16 -9 -19 -22
-19 -86 l0 -76 28 8 c15 4 40 7 56 6 48 -2 86 24 86 59 0 16 7 40 15 53 13 20
14 25 1 35 -21 17 -78 23 -99 10z"/>
<path d="M4492 5249 c2 -6 8 -10 13 -10 5 0 11 4 13 10 2 6 -4 11 -13 11 -9 0
-15 -5 -13 -11z"/>
<path d="M4375 5208 c-9 -35 -2 -103 10 -101 13 4 19 103 6 116 -7 7 -12 2
-16 -15z"/>
<path d="M4765 5016 l-40 -13 3 -49 c4 -75 3 -74 85 -74 42 0 78 -5 85 -12 8
-8 29 -8 84 2 67 11 76 15 111 56 27 30 34 46 25 49 -12 4 -108 14 -152 15
-11 1 -29 6 -40 13 -12 6 -34 12 -51 13 -16 1 -39 4 -50 7 -11 3 -38 0 -60 -7z"/>
<path d="M5384 4922 c-28 -17 -85 -104 -79 -121 4 -12 -8 -31 -35 -60 -40 -41
-51 -71 -27 -71 25 0 84 82 106 145 7 22 25 52 39 68 25 26 22 55 -4 39z"/>
<path d="M4730 4785 c-8 -9 -13 -44 -14 -88 l0 -72 129 -1 c72 0 138 -4 148
-8 13 -7 20 -1 31 25 7 19 16 54 20 79 l6 45 -97 2 c-90 1 -154 10 -194 27 -9
4 -21 0 -29 -9z"/>
<path d="M4650 4696 c0 -9 7 -16 16 -16 9 0 14 5 12 12 -6 18 -28 21 -28 4z"/>
<path d="M7807 5373 c-4 -3 -35 -5 -69 -4 -75 2 -102 -11 -131 -62 -16 -29
-18 -40 -9 -49 9 -9 15 -9 24 0 7 7 40 12 80 12 55 0 74 -4 104 -25 20 -14 42
-25 49 -25 7 0 18 -7 25 -15 7 -8 23 -15 36 -15 17 0 28 -8 35 -27 5 -14 23
-41 39 -60 32 -36 36 -48 19 -58 -5 -4 -34 16 -63 43 -51 48 -139 99 -221 128
-76 26 -195 -5 -195 -52 0 -6 -7 -14 -15 -18 -22 -8 -18 -25 10 -48 17 -13 25
-28 23 -45 -2 -19 4 -29 27 -42 17 -9 44 -25 60 -37 17 -12 50 -24 75 -27 l45
-6 2 61 c0 33 6 65 11 70 20 20 73 -4 120 -53 51 -54 60 -57 100 -31 15 10 36
23 47 29 11 6 19 19 18 28 -1 10 3 28 7 41 7 18 -1 41 -36 108 -24 48 -44 92
-44 100 0 18 -41 45 -80 52 -16 4 -35 13 -41 20 -12 15 -41 19 -52 7z"/>
<path d="M3342 4658 c-16 -16 -15 -33 1 -47 20 -16 62 30 45 47 -15 15 -31 15
-46 0z"/>
<path d="M3270 4491 c0 -5 7 -11 15 -15 9 -3 15 0 15 9 0 8 -7 15 -15 15 -8 0
-15 -4 -15 -9z"/>
<path d="M5023 4283 c-15 -6 -17 -29 -4 -38 11 -6 61 15 61 26 0 14 -34 22
-57 12z"/>
<path d="M4947 4134 c-11 -11 3 -24 24 -24 12 0 19 5 17 13 -5 14 -31 21 -41
11z"/>
<path d="M5074 4095 c-4 -9 -3 -19 0 -23 9 -8 42 12 39 24 -4 16 -33 16 -39
-1z"/>
<path d="M4996 4081 c-4 -5 -2 -12 3 -15 5 -4 12 -2 15 3 4 5 2 12 -3 15 -5 4
-12 2 -15 -3z"/>
<path d="M3510 3990 c0 -11 5 -20 10 -20 6 0 10 9 10 20 0 11 -4 20 -10 20 -5
0 -10 -9 -10 -20z"/>
<path d="M3484 3845 c-4 -8 -3 -23 0 -32 6 -15 8 -15 23 -1 16 17 12 48 -7 48
-6 0 -13 -7 -16 -15z"/>
<path d="M3780 3636 c-5 -13 -14 -27 -19 -31 -14 -8 -15 -75 -1 -75 12 0 30
34 30 58 0 11 7 25 15 32 8 7 15 19 15 26 0 23 -30 16 -40 -10z"/>
<path d="M4536 4213 c-6 -15 8 -33 28 -33 5 0 14 -7 20 -16 7 -9 22 -14 36
-12 23 3 24 4 6 18 -10 8 -28 25 -41 38 -27 26 -41 28 -49 5z"/>
<path d="M8380 3750 c0 -5 9 -10 20 -10 11 0 20 5 20 10 0 6 -9 10 -20 10 -11
0 -20 -4 -20 -10z"/>
<path d="M8262 3628 c2 -6 11 -15 19 -18 8 -4 28 -14 45 -23 17 -9 34 -14 38
-10 15 15 3 34 -30 48 -44 18 -77 20 -72 3z"/>
<path d="M8180 3425 c0 -9 5 -15 11 -13 6 2 11 8 11 13 0 5 -5 11 -11 13 -6 2
-11 -4 -11 -13z"/>
<path d="M8250 3375 c0 -8 7 -15 15 -15 8 0 15 7 15 15 0 8 -7 15 -15 15 -8 0
-15 -7 -15 -15z"/>
<path d="M8204 3297 c-9 -24 4 -37 34 -37 15 0 49 -7 76 -15 63 -19 78 -19 74
1 -3 16 -88 52 -145 61 -24 4 -34 1 -39 -10z"/>
<path d="M8578 3259 c-25 -14 -22 -29 5 -29 23 0 47 17 47 32 0 11 -31 9 -52
-3z"/>
<path d="M8485 3250 c-8 -12 20 -24 35 -15 6 3 8 11 5 16 -8 12 -32 12 -40 -1z"/>
<path d="M5006 3765 c-3 -9 1 -18 9 -21 18 -7 47 14 39 27 -9 15 -41 10 -48
-6z"/>
<path d="M4970 3696 c-46 -8 -65 -15 -65 -26 0 -17 24 -18 113 -5 41 6 52 12
52 26 0 21 -6 22 -100 5z"/>
<path d="M5011 3630 c-90 -20 -105 -28 -92 -49 7 -11 15 -11 41 -2 18 6 43 11
56 11 30 0 106 39 98 51 -3 5 -8 9 -12 8 -4 -1 -45 -9 -91 -19z"/>
<path d="M4395 3438 c-9 -24 1 -48 19 -48 24 0 27 17 7 41 -18 22 -20 22 -26
7z"/>
<path d="M7227 8864 c-25 -25 -56 -61 -69 -80 -27 -39 -55 -52 -73 -33 -11 12
-10 21 6 54 25 50 22 90 -6 90 -40 0 -91 -141 -100 -275 -9 -146 -10 -152 -30
-166 -26 -19 -30 -18 -49 12 -13 19 -16 40 -13 81 3 31 3 63 0 70 -8 20 -33
15 -33 -6 0 -11 -4 -23 -10 -26 -5 -3 -10 -20 -10 -37 0 -16 -8 -43 -17 -58
-16 -28 -16 -30 12 -69 25 -37 27 -46 21 -96 -5 -45 -3 -55 9 -55 14 0 61 -78
52 -87 -3 -2 -1 -19 4 -36 5 -18 11 -83 13 -145 3 -63 7 -116 10 -119 3 -3 12
-3 21 0 11 5 15 21 15 59 0 66 28 118 64 118 15 0 32 10 44 27 24 33 38 25 45
-29 7 -51 -15 -123 -49 -159 -13 -14 -24 -30 -24 -35 0 -6 -11 -21 -25 -34
-14 -13 -25 -32 -25 -42 0 -34 29 -18 63 35 19 28 57 81 86 116 28 35 51 67
51 71 0 4 -9 19 -20 33 -19 23 -20 32 -11 87 11 69 16 80 37 80 8 0 14 7 14
15 0 19 -14 19 -29 1 -12 -15 -81 -18 -81 -4 0 4 5 8 10 8 20 0 10 29 -17 50
-16 12 -28 25 -29 28 0 4 -4 15 -8 25 -5 9 -5 30 -1 45 3 15 9 43 12 62 3 19
17 52 30 73 13 21 22 41 19 46 -3 4 1 19 8 32 7 14 16 40 19 58 4 18 25 54 48
79 45 51 71 105 63 126 -3 8 -1 24 6 35 18 35 -5 24 -53 -25z m-214 -430 c9
-10 -4 -34 -19 -34 -8 0 -14 6 -14 13 0 22 19 35 33 21z"/>
<path d="M5217 8762 c-11 -17 -11 -96 0 -99 14 -5 38 69 30 91 -7 17 -23 21
-30 8z"/>
<path d="M6307 8732 c-16 -17 -16 -20 7 -41 13 -12 27 -21 32 -20 31 5 34 -2
15 -30 -12 -17 -18 -36 -15 -46 4 -10 -2 -26 -16 -41 -13 -13 -18 -24 -12 -24
6 0 20 -10 32 -22 l20 -22 27 20 c16 11 53 33 84 49 l55 28 31 -22 c17 -13 38
-21 48 -19 14 2 13 8 -13 41 -19 24 -28 44 -25 57 11 40 -12 50 -98 43 -75 -6
-80 -5 -85 14 -3 11 -18 27 -32 34 -15 7 -30 15 -33 16 -3 2 -13 -5 -22 -15z"/>
<path d="M7172 8430 c0 -14 2 -19 5 -12 2 6 2 18 0 25 -3 6 -5 1 -5 -13z"/>
<path d="M7185 8358 c8 -50 10 -52 28 -45 12 4 13 13 4 46 -16 57 -41 56 -32
-1z"/>
<path d="M8055 8390 c-7 -12 2 -30 16 -30 12 0 12 27 0 35 -5 3 -12 1 -16 -5z"/>
<path d="M2474 8180 c-22 -9 -65 -59 -108 -127 -34 -56 -38 -159 -6 -188 17
-15 24 -16 49 -6 47 20 72 49 65 75 -4 16 3 37 20 65 14 22 26 51 26 65 0 13
7 29 15 36 20 16 19 54 -1 74 -17 18 -29 19 -60 6z"/>
<path d="M2706 8126 c-63 -24 -102 -60 -112 -104 -9 -35 -23 -52 -52 -63 -22
-8 -23 -13 -16 -42 4 -17 7 -60 5 -94 -2 -61 10 -103 29 -103 23 0 118 70 174
128 45 46 68 62 88 62 35 0 44 16 23 40 -14 16 -15 23 -4 62 8 23 19 49 26 56
21 22 15 42 -12 42 -18 0 -37 -15 -70 -57 -25 -32 -45 -62 -45 -66 0 -4 -25
-46 -56 -93 -59 -89 -65 -92 -107 -47 -24 28 -13 73 29 114 19 18 34 38 34 44
0 17 62 70 109 94 22 12 41 28 41 36 0 20 -14 18 -84 -9z"/>
<path d="M7285 8125 c-28 -27 -33 -65 -10 -65 13 0 65 65 65 82 0 17 -32 7
-55 -17z"/>
<path d="M9580 7878 c0 -7 5 -20 10 -28 8 -12 10 -9 10 13 0 15 -4 27 -10 27
-5 0 -10 -6 -10 -12z"/>
<path d="M9590 7810 c0 -5 5 -10 11 -10 5 0 7 5 4 10 -3 6 -8 10 -11 10 -2 0
-4 -4 -4 -10z"/>
<path d="M4711 7280 c-17 -22 -37 -40 -43 -40 -7 0 -30 -12 -51 -27 -21 -15
-62 -36 -91 -48 -49 -19 -51 -22 -54 -63 -3 -35 0 -42 16 -42 10 0 41 23 68
51 27 27 73 61 102 74 28 13 52 28 52 34 0 6 14 26 31 45 27 32 32 56 10 56
-4 0 -22 -18 -40 -40z"/>
<path d="M4720 7171 c-11 -22 -14 -131 -2 -131 18 1 102 90 102 109 0 40 -80
57 -100 22z"/>
<path d="M4416 7018 c-15 -18 -31 -38 -36 -45 -12 -15 -13 -33 -1 -33 15 0 61
41 61 55 0 7 7 18 15 25 19 16 19 30 1 30 -8 0 -26 -15 -40 -32z"/>
<path d="M4655 7020 c-4 -6 -1 -17 5 -26 14 -16 40 -2 40 22 0 16 -36 19 -45
4z"/>
<path d="M5146 7014 c-4 -9 -4 -19 -1 -22 3 -3 11 0 17 6 9 9 9 15 1 23 -7 7
-12 5 -17 -7z"/>
<path d="M4610 6965 c-9 -11 -10 -19 -2 -27 14 -14 32 -1 32 23 0 23 -13 25
-30 4z"/>
<path d="M7951 6604 c0 -11 3 -14 6 -6 3 7 2 16 -1 19 -3 4 -6 -2 -5 -13z"/>
<path d="M5740 4770 c0 -5 5 -10 11 -10 5 0 7 5 4 10 -3 6 -8 10 -11 10 -2 0
-4 -4 -4 -10z"/>
<path d="M3672 4638 c6 -18 28 -21 28 -4 0 9 -7 16 -16 16 -9 0 -14 -5 -12
-12z"/>
<path d="M5810 4636 c0 -19 80 -157 129 -223 14 -18 31 -33 38 -33 17 0 16 12
-2 36 -8 10 -15 25 -15 31 0 20 -150 208 -150 189z"/>
<path d="M3780 4101 c0 -5 6 -11 13 -13 17 -7 38 2 31 13 -7 12 -44 12 -44 0z"/>
<path d="M3782 4039 c2 -7 10 -15 17 -17 8 -3 12 1 9 9 -2 7 -10 15 -17 17 -8
3 -12 -1 -9 -9z"/>
<path d="M6860 3205 c0 -10 7 -15 18 -13 21 4 19 22 -2 26 -10 2 -16 -3 -16
-13z"/>
<path d="M3118 3162 c-5 -61 4 -97 27 -97 17 0 20 6 17 39 -3 35 -26 96 -36
96 -2 0 -6 -17 -8 -38z"/>
<path d="M5435 3124 c11 -8 29 -14 40 -12 11 1 34 -3 51 -11 35 -14 90 -12 87
4 -2 10 -121 33 -173 34 -24 0 -25 0 -5 -15z"/>
<path d="M5470 3056 c0 -18 30 -30 43 -17 5 5 6 14 3 20 -10 16 -46 13 -46 -3z"/>
<path d="M5607 3044 c-11 -11 3 -24 24 -24 12 0 19 5 17 13 -5 14 -31 21 -41
11z"/>
<path d="M7306 2881 c-20 -22 -16 -26 42 -36 49 -8 55 4 16 34 -33 26 -37 26
-58 2z"/>
</g>
</svg>
