<?xml version="1.0" standalone="no"?>
<!DOCTYPE svg PUBLIC "-//W3C//DTD SVG 20010904//EN"
 "http://www.w3.org/TR/2001/REC-SVG-20010904/DTD/svg10.dtd">
<svg version="1.0" xmlns="http://www.w3.org/2000/svg"
 width="1200.000000pt" height="1200.000000pt" viewBox="0 0 1200.000000 1200.000000"
 preserveAspectRatio="xMidYMid meet">

<g transform="translate(0.000000,1200.000000) scale(0.100000,-0.100000)"
fill="#4a4a4a" stroke="none">
<path d="M6459 9822 c-100 -120 -118 -163 -119 -284 0 -56 3 -68 16 -68 13 0
14 -3 5 -14 -12 -15 -6 -61 12 -84 12 -15 14 -364 3 -469 -6 -52 -12 -73 -22
-73 -8 0 -14 3 -14 8 0 4 -4 13 -9 21 -8 12 -12 12 -24 2 -13 -10 -21 -3 -51
42 -41 61 -104 111 -129 101 -9 -3 -26 1 -39 10 -12 9 -30 16 -40 16 -21 0
-64 41 -73 70 -17 53 -54 4 -55 -72 0 -114 32 -229 82 -288 34 -42 38 -52 39
-110 1 -38 10 -83 21 -108 11 -25 16 -52 12 -66 -4 -18 0 -27 15 -36 26 -13
27 -30 3 -30 -19 0 -52 -29 -52 -45 0 -20 -51 -72 -89 -90 -22 -11 -41 -25
-41 -31 0 -17 112 -97 151 -107 44 -12 51 -22 44 -59 -7 -35 -45 -80 -125
-148 -39 -33 -58 -44 -154 -94 -20 -10 -36 -24 -36 -30 0 -25 85 -40 208 -38
38 1 42 -1 42 -23 0 -13 -4 -26 -9 -30 -6 -3 -20 -26 -33 -52 -40 -80 -58 -84
-180 -37 l-47 18 -60 -62 c-33 -34 -65 -62 -70 -62 -6 0 -17 -10 -26 -23 -23
-36 -2 -80 49 -102 23 -10 55 -29 72 -42 17 -12 37 -23 44 -23 7 0 21 -7 31
-16 13 -12 22 -13 38 -5 17 10 20 8 23 -17 3 -23 8 -27 33 -27 26 0 30 4 33
30 5 40 16 50 35 31 10 -11 14 -29 12 -54 -3 -33 0 -39 26 -54 16 -9 29 -24
29 -33 0 -20 -39 -20 -46 0 -10 24 -43 17 -100 -20 -47 -31 -59 -35 -91 -29
-35 6 -37 6 -24 -9 16 -20 7 -67 -13 -67 -16 0 -46 32 -46 51 -1 43 -73 89
-139 89 -40 0 -52 4 -61 20 -6 12 -21 20 -36 20 -13 0 -27 7 -30 15 -4 9 -19
15 -35 15 -16 0 -29 4 -29 8 0 14 -89 72 -95 62 -4 -6 -24 -10 -46 -10 -28 0
-42 6 -51 20 -13 21 -78 29 -78 10 0 -5 -7 -10 -15 -10 -16 0 -16 18 1 98 3
13 -1 22 -8 23 -7 1 -51 3 -98 5 -47 2 -91 6 -97 9 -21 8 -15 24 17 40 20 11
30 23 30 39 0 13 7 29 16 36 27 23 35 48 23 68 -11 18 -1 32 98 133 18 20 23
32 18 49 -10 32 21 63 57 55 24 -6 28 -3 28 14 0 13 -6 21 -16 21 -12 0 -15 6
-11 22 8 29 -20 74 -58 93 -16 9 -37 19 -45 24 -28 16 -85 31 -163 41 -64 9
-83 9 -107 -4 -28 -13 -30 -13 -30 5 0 19 -18 20 -310 10 -8 0 -67 2 -131 5
-110 4 -117 3 -122 -16 -7 -26 -23 -26 -37 0 -9 17 -21 20 -88 20 -52 0 -85
-5 -97 -14 -14 -10 -25 -11 -38 -5 -9 6 -22 7 -27 4 -5 -3 -29 -9 -52 -14 -25
-4 -42 -12 -40 -19 1 -8 -6 -10 -21 -7 -35 9 -77 -49 -77 -108 0 -57 75 -206
150 -297 79 -96 132 -164 172 -220 55 -78 168 -200 186 -200 8 0 12 -15 12
-43 0 -53 52 -132 79 -122 29 12 34 10 46 -13 7 -12 20 -29 30 -36 10 -7 15
-18 11 -24 -10 -17 -36 -15 -43 3 -5 15 -72 49 -80 42 -1 -2 0 -26 4 -52 8
-58 56 -118 110 -136 41 -13 103 -7 161 16 31 13 39 20 35 36 -3 12 0 19 8 19
8 0 27 14 43 30 35 36 46 37 69 5 19 -27 15 -45 -9 -45 -21 0 -17 -18 7 -31
17 -8 31 -8 58 1 32 10 41 9 84 -15 26 -15 47 -33 47 -41 0 -8 7 -17 15 -20 9
-4 15 -19 15 -40 0 -31 22 -80 42 -94 4 -3 14 -22 22 -42 9 -20 27 -49 41 -64
14 -15 25 -30 25 -33 0 -4 15 -23 33 -43 17 -20 44 -54 58 -75 15 -22 53 -60
85 -84 53 -40 59 -49 61 -84 3 -53 -4 -72 -19 -57 -15 15 -45 15 -54 0 -4 -6
0 -16 9 -23 10 -7 17 -18 17 -24 0 -20 -34 -8 -45 17 -6 13 -19 22 -32 22 -32
0 -30 -33 2 -54 14 -9 25 -23 25 -31 0 -18 -31 -20 -48 -3 -8 8 -18 9 -35 1
-20 -9 -23 -17 -19 -39 4 -25 3 -26 -19 -20 -13 4 -34 10 -47 13 -26 6 -140
-16 -148 -28 -3 -5 -14 -9 -24 -9 -40 0 -149 -74 -149 -102 -1 -9 14 -43 33
-76 32 -57 47 -96 60 -153 4 -19 16 -29 45 -39 21 -7 43 -10 49 -6 5 3 27 -1
47 -10 21 -8 46 -13 57 -11 10 3 18 0 18 -7 0 -14 -42 -36 -69 -36 -26 0 -31
-10 -18 -31 18 -29 -6 -48 -31 -26 -23 21 -39 20 -77 -2 -23 -14 -29 -24 -27
-45 3 -24 0 -27 -17 -21 -28 9 -37 -17 -44 -127 -7 -96 -17 -117 -75 -159 -61
-43 -104 -87 -100 -104 2 -14 7 -13 31 9 31 29 55 33 63 12 8 -22 -54 -127
-97 -164 -21 -19 -39 -40 -39 -47 0 -7 -18 -36 -40 -64 -54 -69 -67 -107 -78
-241 -13 -153 4 -272 63 -430 9 -25 25 -92 35 -150 10 -58 24 -123 30 -145 6
-22 13 -50 15 -62 1 -11 6 -32 11 -45 4 -12 8 -39 9 -58 3 -48 42 -191 55
-204 8 -8 16 -6 27 9 15 19 15 19 8 -5 -3 -14 -11 -35 -17 -47 -8 -16 -8 -30
-1 -45 6 -13 15 -41 19 -63 10 -44 23 -49 40 -15 7 12 15 17 18 12 3 -6 2 -13
-3 -16 -5 -4 -12 -24 -16 -47 -6 -33 -3 -47 19 -80 30 -45 41 -50 32 -14 -5
18 -1 27 14 35 30 16 40 4 40 -45 0 -90 -45 -196 -111 -263 -15 -15 -29 -36
-33 -48 -6 -21 -71 -89 -104 -108 -64 -37 -105 -71 -116 -94 -12 -28 -68 -91
-174 -199 -35 -35 -79 -85 -99 -111 -20 -26 -40 -52 -45 -59 -21 -27 92 -59
167 -48 33 5 62 22 124 72 45 35 81 70 81 77 0 8 7 19 15 26 11 9 13 16 5 24
-7 7 -16 3 -31 -13 -24 -26 -36 -19 -41 24 -3 26 -8 31 -38 35 -54 8 -47 35
10 35 37 0 45 -4 49 -20 4 -26 19 -35 59 -35 22 0 32 -5 32 -15 0 -8 -4 -15
-10 -15 -5 0 -10 -9 -10 -20 0 -24 4 -25 35 -4 14 9 33 13 45 9 14 -5 20 -2
20 9 0 18 25 21 36 4 4 -6 -1 -17 -12 -24 -36 -25 -44 -35 -44 -55 0 -16 4
-19 21 -14 16 5 20 3 17 -6 -3 -8 -16 -13 -32 -11 -17 2 -26 -2 -26 -11 0 -8
-11 -35 -25 -61 -24 -45 -33 -95 -17 -97 117 -10 131 -8 157 22 14 17 25 35
25 40 0 6 13 15 29 20 22 8 31 19 39 49 l10 39 -29 -29 c-16 -15 -29 -33 -29
-39 0 -6 -3 -11 -7 -11 -5 0 -8 18 -7 41 0 32 7 45 30 64 34 28 50 31 58 10 3
-8 9 -15 14 -15 9 0 92 160 92 178 0 16 -13 15 -29 0 -10 -11 -15 -9 -26 7
-21 29 -32 42 -52 57 -38 28 -63 65 -57 81 6 17 34 24 34 10 1 -5 10 -19 21
-32 15 -18 23 -21 31 -13 17 17 48 15 48 -2 0 -8 -4 -18 -10 -21 -5 -3 -10
-13 -10 -20 0 -11 10 -13 38 -11 57 6 70 14 94 64 12 26 28 54 36 64 12 14 11
17 -7 23 -12 3 -22 12 -22 18 -1 7 -4 -1 -8 -18 -5 -24 -12 -29 -29 -28 -16 2
-26 -5 -34 -22 -12 -26 -38 -30 -45 -8 -3 7 6 23 19 36 38 38 51 71 43 108 -4
19 -12 39 -17 46 -12 14 -2 33 17 33 15 0 28 41 19 63 -3 8 0 18 6 22 16 10
40 -14 40 -42 0 -13 7 -34 15 -47 8 -13 14 -34 13 -47 -3 -20 2 -24 22 -24 18
0 29 9 40 32 19 41 38 42 51 3 7 -19 18 -30 30 -30 25 0 24 22 0 44 -11 10
-23 31 -26 47 -4 15 -17 50 -29 76 -21 45 -36 115 -42 205 -1 21 -9 45 -18 53
-9 9 -14 21 -11 26 4 5 8 30 10 56 7 84 15 127 25 137 6 6 10 24 10 41 0 17 5
36 11 42 11 11 2 63 -12 63 -5 0 -9 12 -8 28 1 41 -17 101 -37 123 -15 16 -18
40 -20 132 -1 71 4 126 12 152 8 22 14 50 14 61 0 12 7 35 15 50 8 16 15 39
15 50 0 12 9 33 20 47 11 14 20 34 20 44 0 11 16 36 35 57 19 21 35 44 35 51
0 11 30 48 135 170 14 17 29 35 33 41 4 6 18 17 30 23 18 10 23 19 19 38 -4
24 -3 24 32 18 20 -4 40 -10 44 -15 13 -12 -18 -63 -72 -119 -52 -54 -144
-165 -202 -246 -34 -47 -70 -127 -99 -219 -14 -44 -7 -249 9 -254 4 -1 6 -36
3 -78 -4 -57 -1 -79 10 -92 9 -9 23 -38 33 -65 16 -43 16 -49 2 -65 -8 -9 -18
-30 -22 -47 -4 -16 -9 -37 -12 -45 -3 -8 -7 -33 -9 -55 -2 -22 -4 -47 -6 -55
-2 -15 8 -109 18 -162 6 -30 61 -118 75 -118 5 0 16 11 24 24 13 19 14 32 7
60 -9 30 -7 40 10 61 20 26 18 60 -4 53 -6 -2 -16 -17 -21 -34 -13 -38 -16
-41 -27 -24 -15 24 -11 56 9 74 28 25 32 52 10 72 -10 9 -19 29 -19 44 0 16
-7 30 -15 34 -20 7 -19 50 1 70 19 20 34 21 34 2 0 -19 61 -134 99 -186 17
-24 31 -48 31 -54 0 -20 88 -226 103 -241 8 -8 15 -30 15 -50 0 -40 16 -65 42
-65 20 0 30 19 30 56 0 19 -5 24 -25 24 -16 0 -25 6 -25 15 0 26 28 28 56 6
15 -12 35 -21 45 -21 10 0 27 -9 38 -21 11 -12 24 -18 30 -14 20 12 24 -25 5
-40 -26 -20 -34 -18 -34 6 0 26 -37 23 -54 -4 -9 -14 -7 -21 7 -31 20 -16 22
-49 3 -65 -11 -9 -17 -6 -30 14 -9 14 -21 25 -27 25 -13 0 -39 -62 -31 -75 4
-5 9 -38 12 -73 5 -63 24 -83 26 -27 1 17 2 47 3 68 1 25 5 37 13 35 16 -6 27
-48 18 -73 -9 -25 18 -85 38 -85 12 0 11 -5 -3 -26 -9 -14 -14 -33 -11 -41 6
-14 8 -14 24 1 46 41 57 4 12 -39 -29 -27 -30 -28 -49 -11 -11 10 -21 28 -23
40 -2 16 -11 22 -38 24 -48 5 -63 20 -57 57 9 56 -20 222 -61 350 -47 147
-135 281 -116 178 3 -21 10 -42 15 -47 5 -6 9 -16 9 -24 0 -8 7 -20 17 -27 21
-16 10 -45 -17 -45 -11 0 -23 8 -26 18 -17 53 -40 65 -54 28 -10 -28 -20 -32
-37 -15 -6 6 -16 8 -22 5 -16 -10 27 -86 50 -86 10 0 22 -8 28 -17 5 -10 13
-14 17 -10 4 4 -3 18 -16 32 -16 17 -20 29 -14 35 22 22 87 -61 77 -98 -2 -11
7 -35 21 -57 31 -45 35 -98 9 -93 -10 2 -19 -4 -21 -14 -3 -15 2 -17 25 -12
24 5 31 1 40 -19 7 -14 9 -41 6 -60 -4 -28 -1 -39 15 -53 16 -13 19 -22 11
-36 -21 -39 -69 -11 -69 41 0 11 -7 26 -15 35 -8 8 -15 21 -15 28 0 8 -5 19
-11 25 -6 6 -14 42 -17 79 l-5 68 -23 -27 c-22 -25 -22 -29 -8 -62 8 -19 22
-49 33 -68 15 -26 18 -50 16 -116 -3 -62 0 -84 10 -88 20 -7 75 -96 75 -120 0
-12 -6 -23 -14 -26 -17 -7 -36 11 -36 35 0 25 -14 23 -33 -4 -11 -16 -18 -20
-26 -13 -8 8 -5 21 9 47 13 24 16 39 9 44 -6 3 -11 4 -12 3 -1 -2 -12 -19 -25
-36 -12 -18 -25 -46 -28 -62 -4 -16 -12 -32 -19 -35 -16 -6 -45 -62 -45 -86 0
-10 7 -20 15 -24 8 -3 15 -12 15 -21 0 -19 -29 -20 -36 -1 -5 12 -11 13 -30 4
-27 -12 -38 -39 -29 -67 4 -12 0 -23 -10 -29 -15 -8 -30 -48 -42 -117 -3 -16
-12 -37 -19 -46 -23 -26 -28 -74 -10 -92 21 -20 20 -29 -1 -25 -12 2 -19 -4
-21 -20 -2 -13 2 -22 10 -22 16 0 103 53 112 69 4 6 16 11 27 11 27 0 35 28
15 48 -16 16 -18 15 -35 -7 -11 -14 -24 -22 -34 -18 -8 3 -20 0 -26 -6 -8 -8
-14 -8 -22 0 -13 13 -4 33 15 33 8 0 19 7 26 15 7 9 21 13 31 10 13 -4 19 -1
19 9 0 9 7 16 15 16 8 0 15 -4 15 -9 0 -5 10 -11 23 -13 13 -2 23 -11 25 -24
2 -12 14 -26 28 -32 16 -8 24 -20 24 -37 0 -14 5 -25 10 -25 6 0 10 9 10 20 0
10 6 34 14 52 20 49 36 102 36 122 0 10 9 29 20 43 23 30 26 66 7 82 -8 6 -31
14 -53 19 -29 6 -39 13 -39 27 0 28 30 30 64 6 38 -27 45 -26 60 5 13 29 37
27 34 -2 -9 -66 -17 -100 -26 -106 -7 -4 -7 -11 1 -21 10 -12 9 -23 -5 -53
-10 -22 -21 -41 -25 -44 -17 -13 -30 -71 -32 -138 -2 -61 -6 -76 -27 -100 -14
-15 -24 -35 -22 -45 5 -18 23 -24 23 -7 0 6 6 10 13 10 7 0 23 14 35 30 13 17
28 30 35 30 15 0 127 98 127 111 0 5 -12 8 -27 7 -22 -2 -29 2 -37 25 -8 22
-6 31 8 45 11 9 16 12 12 5 -8 -14 36 -63 56 -63 9 0 21 7 28 15 7 8 20 15 30
15 9 0 33 13 51 30 19 16 37 30 42 30 4 0 7 9 7 20 0 13 10 24 25 30 30 11 33
36 5 43 -16 4 -19 11 -14 35 6 28 4 31 -22 34 -25 2 -29 8 -29 32 0 39 19 43
47 11 13 -15 33 -31 46 -36 27 -11 29 -29 2 -29 -21 0 -27 -24 -9 -35 16 -10
71 57 128 158 53 92 57 120 21 130 -11 3 -20 12 -20 21 0 23 15 20 32 -6 13
-20 18 -21 32 -9 10 9 14 21 10 37 -4 14 -2 24 5 24 13 0 41 52 41 78 0 19
-71 136 -90 147 -8 5 -6 15 4 31 9 13 16 36 16 53 0 26 -3 29 -45 35 -45 7
-63 26 -25 26 28 0 34 22 17 57 -14 25 -13 33 4 78 22 58 22 58 8 50 -5 -4
-14 -18 -19 -31 -5 -13 -16 -24 -25 -24 -19 0 -20 52 -1 88 27 54 38 100 27
121 -14 26 -14 57 1 81 9 14 9 25 1 42 -6 13 -15 45 -22 71 -15 63 -52 142
-80 170 -16 16 -13 64 5 92 12 18 25 25 50 25 30 0 34 3 44 41 10 35 9 43 -5
53 -15 11 -15 13 -1 25 8 7 13 18 10 26 -9 22 16 28 36 10 14 -13 23 -15 32
-8 7 6 31 14 52 17 21 4 48 13 60 21 44 28 155 83 178 88 14 4 42 20 63 37 21
16 48 30 61 30 17 0 29 10 41 34 10 19 37 49 61 65 23 17 42 37 42 45 0 7 9
21 21 32 12 10 32 42 46 69 14 28 32 58 41 67 12 15 12 20 2 33 -11 13 -8 21
20 50 30 31 34 40 31 84 -3 54 6 64 52 63 17 0 42 8 55 19 21 16 34 18 71 13
45 -7 99 -39 100 -59 1 -5 22 -41 48 -80 42 -61 48 -66 51 -45 4 36 -22 92
-59 129 -25 26 -29 34 -19 46 15 19 34 19 52 2 26 -26 61 -27 133 -3 38 13 82
27 98 30 49 11 132 54 145 75 7 12 22 21 34 21 12 0 30 8 40 17 12 10 42 18
78 21 62 5 70 12 51 50 -17 33 -31 67 -46 111 -9 25 -26 58 -39 75 -41 55
-127 228 -138 280 -10 47 -19 72 -79 204 -10 23 -19 49 -19 58 0 8 -9 32 -20
54 -11 22 -20 51 -20 65 0 14 -14 50 -31 80 -17 30 -27 60 -24 66 8 12 -7 70
-31 127 -11 26 -12 41 -3 75 18 67 23 175 8 193 -10 12 -10 17 0 23 7 5 14 19
16 32 1 13 6 31 9 40 4 9 -1 22 -12 33 -18 15 -21 16 -35 1 -9 -8 -14 -22 -11
-30 4 -9 -3 -16 -19 -20 -35 -9 -42 -33 -15 -54 13 -11 19 -24 15 -34 -9 -23
-24 -21 -32 2 -6 21 -60 34 -87 20 -9 -5 -85 -11 -169 -14 -84 -2 -157 -9
-162 -14 -24 -24 8 -32 116 -31 62 1 120 -1 129 -5 9 -4 33 1 53 11 40 19 52
15 36 -13 -6 -10 -11 -15 -11 -10 0 4 -10 1 -22 -7 -20 -12 -201 -40 -248 -38
-58 3 -156 22 -217 44 -40 14 -77 22 -84 18 -21 -13 44 -46 129 -64 42 -9 91
-21 108 -27 18 -5 66 -9 109 -8 87 2 109 -9 70 -35 -20 -13 -44 -16 -118 -13
-51 2 -98 6 -105 10 -6 5 -21 3 -32 -3 -16 -9 -22 -8 -26 4 -3 9 -22 18 -42
22 -21 3 -61 19 -91 35 -30 16 -62 29 -71 29 -8 0 -26 7 -39 16 -34 24 -52 2
-20 -25 13 -11 27 -20 31 -21 4 0 42 -17 85 -37 43 -20 95 -38 116 -39 21 -1
41 -4 44 -8 4 -3 17 -6 30 -6 13 0 32 -5 42 -12 15 -9 25 -9 46 0 48 22 72 15
125 -38 28 -27 62 -53 75 -56 23 -6 38 -44 17 -44 -13 0 -102 59 -102 68 0 4
-14 18 -31 31 -29 21 -32 22 -55 6 -15 -9 -33 -13 -45 -10 -15 5 -22 2 -26
-14 -7 -26 -17 -27 -34 -2 -9 13 -31 21 -64 24 -53 6 -144 36 -167 54 -7 6
-25 14 -41 18 -21 6 -27 4 -27 -9 0 -9 5 -16 10 -16 6 0 10 -4 10 -9 0 -11
-43 1 -105 29 -22 10 -54 23 -71 30 -18 6 -43 24 -57 38 -28 31 -52 95 -43
119 6 14 8 14 26 -2 18 -16 20 -16 20 -2 0 9 -4 19 -10 22 -12 8 -13 85 -1 85
4 0 20 -9 34 -21 23 -17 30 -18 49 -7 13 7 60 12 108 13 63 0 95 5 123 20 20
10 37 23 37 28 0 5 9 7 21 4 30 -8 135 74 144 112 4 20 16 33 36 41 17 7 46
33 66 57 30 36 34 46 22 54 -8 5 -21 9 -29 9 -11 0 -10 5 5 20 18 18 27 18
114 10 57 -5 103 -5 118 1 13 5 34 9 46 9 12 0 33 7 47 15 14 7 40 21 59 29
28 13 31 18 21 31 -9 11 -17 12 -31 4 -10 -5 -19 -14 -19 -18 0 -5 -15 -12
-32 -15 -139 -28 -225 -27 -236 3 -3 9 -17 27 -30 40 -21 19 -23 27 -14 41 13
22 6 30 -25 30 -12 0 -23 4 -23 8 0 13 23 32 40 32 33 0 123 114 134 170 20
97 19 111 -3 117 -11 3 -21 9 -21 13 0 13 36 40 54 40 43 0 173 90 196 136 22
44 41 64 62 64 36 0 17 -35 -67 -117 -47 -46 -83 -88 -80 -94 9 -13 32 2 94
60 74 70 89 69 48 -4 -13 -24 -37 -47 -58 -57 -20 -9 -48 -33 -63 -52 -15 -20
-40 -43 -57 -51 -16 -9 -29 -20 -29 -25 0 -21 43 -8 87 25 26 20 57 38 69 41
13 3 30 17 39 30 19 30 72 57 93 49 13 -5 6 -16 -36 -56 -51 -49 -189 -142
-244 -167 -30 -13 -36 -29 -14 -38 17 -7 84 21 111 45 11 10 34 26 52 35 17 8
37 21 45 28 20 21 97 52 106 44 4 -4 -16 -28 -43 -53 -28 -25 -71 -65 -97 -89
-33 -31 -55 -44 -76 -44 -16 0 -37 -9 -46 -19 -10 -11 -44 -29 -76 -41 -59
-22 -89 -44 -76 -57 3 -4 12 -1 18 5 7 7 24 12 39 12 32 0 179 73 192 95 4 8
17 15 27 15 11 0 27 8 37 19 25 26 85 61 106 61 33 0 17 -38 -37 -85 -97 -85
-167 -120 -286 -144 -66 -13 -86 -21 -88 -35 -3 -13 1 -17 15 -13 10 3 49 8
88 12 82 8 176 54 291 141 39 30 74 54 78 54 4 0 4 -10 0 -22 -9 -29 -90 -106
-130 -123 -33 -15 -60 -42 -51 -51 3 -4 22 4 42 16 31 19 40 21 62 11 l26 -12
-21 -15 c-12 -8 -36 -20 -54 -26 -18 -6 -42 -18 -53 -28 -40 -34 -148 -68
-243 -75 -51 -4 -92 -11 -92 -16 0 -23 42 -29 136 -19 81 9 100 8 112 -4 8 -8
12 -18 8 -24 -6 -11 -139 -25 -241 -26 -55 -1 -70 -4 -70 -16 0 -12 16 -15 75
-17 84 -2 220 15 220 28 0 5 14 9 30 9 17 0 50 9 72 20 23 11 45 20 50 20 16
0 8 -31 -9 -36 -10 -3 -26 -10 -37 -16 -21 -11 -86 -30 -191 -54 -38 -9 -74
-20 -79 -24 -18 -18 62 -22 108 -6 26 9 58 16 71 16 13 0 27 5 30 10 3 6 19
10 34 10 15 0 32 5 39 12 9 9 12 8 12 -5 0 -9 -5 -17 -11 -17 -6 0 -22 -9 -36
-20 -14 -11 -38 -20 -52 -20 -15 0 -31 -4 -37 -9 -28 -26 -206 -44 -271 -27
-26 6 -33 5 -33 -8 0 -21 14 -27 73 -33 68 -7 115 -7 152 1 17 4 55 12 85 18
30 6 62 17 70 23 55 44 90 40 90 -11 0 -67 25 -36 86 104 19 44 18 59 -6 67
-11 3 -20 13 -20 21 0 12 7 14 29 9 25 -5 29 -3 35 21 4 14 15 45 25 68 36 79
41 110 41 250 0 113 -3 146 -16 164 -10 14 -13 33 -9 50 4 20 -4 47 -28 97
-43 89 -51 114 -73 205 -10 41 -24 82 -31 91 -7 8 -13 23 -13 32 0 9 -9 21
-20 27 -11 6 -27 26 -35 45 -7 19 -19 35 -25 35 -6 0 -14 9 -18 20 -4 10 -27
30 -51 42 -51 27 -75 58 -51 66 13 5 188 179 231 230 9 11 22 21 30 24 9 3 14
27 15 72 2 55 7 73 25 92 12 13 31 24 41 24 10 0 58 26 106 57 48 32 92 60 97
62 41 17 148 94 186 133 25 27 54 48 65 48 12 0 29 9 38 19 10 11 27 21 39 23
11 2 22 8 24 15 7 20 -29 29 -99 25 -50 -3 -65 -7 -62 -17 10 -24 -15 -26 -38
-3 -19 19 -33 22 -103 23 -45 1 -87 5 -93 9 -7 4 -18 3 -25 -3 -9 -7 -25 -7
-52 0 -22 6 -71 15 -110 20 -131 19 -135 20 -135 35 0 8 8 17 18 21 37 13 51
34 41 60 -8 21 -6 30 13 50 27 29 70 53 94 53 10 0 29 11 43 24 18 16 47 27
91 34 122 20 169 31 190 42 27 14 83 5 101 -16 8 -10 22 -14 38 -11 15 3 35
-1 45 -9 11 -8 28 -11 38 -8 18 5 101 -20 126 -39 7 -6 19 -25 26 -42 10 -23
22 -34 44 -38 24 -5 40 -21 71 -67 23 -34 41 -67 41 -74 0 -6 5 -17 12 -24 9
-9 16 -8 30 5 15 14 18 33 18 125 0 108 0 109 -32 143 -17 19 -37 35 -43 35
-36 0 -93 44 -158 121 l-28 33 -12 -24 c-14 -29 -46 -38 -58 -18 -8 12 -5 45
7 91 5 15 -2 17 -46 17 -57 0 -115 23 -133 52 -14 22 -44 23 -97 2 -23 -9 -43
-14 -46 -11 -3 3 -26 -4 -51 -15 -25 -11 -86 -27 -136 -35 -50 -8 -105 -21
-121 -30 -60 -31 -66 -33 -91 -33 -14 0 -43 -11 -65 -25 -22 -14 -46 -25 -54
-25 -8 0 -17 -4 -20 -9 -3 -5 -18 -12 -33 -16 -15 -3 -30 -10 -33 -13 -10 -14
-76 -58 -103 -70 -15 -7 -50 -12 -77 -12 -31 0 -54 -6 -65 -16 -23 -23 -29
-12 -32 62 -2 57 1 70 28 109 17 25 35 45 40 45 18 0 9 50 -16 86 -14 20 -25
46 -26 58 -1 22 -2 32 -19 136 -5 36 -12 108 -14 160 -7 164 -26 242 -62 258
-19 9 -23 17 -19 39 3 16 -1 36 -10 47 -12 16 -17 17 -30 6 -13 -11 -18 -11
-28 0 -9 9 -9 14 -1 17 17 6 -14 64 -37 70 -11 3 -19 9 -19 14 0 5 -10 9 -22
9 -16 0 -41 -21 -79 -68z m37 -73 c10 -17 -13 -36 -27 -22 -12 12 -4 33 11 33
5 0 12 -5 16 -11z m104 -69 c0 -5 -2 -10 -4 -10 -3 0 -8 5 -11 10 -3 6 -1 10
4 10 6 0 11 -4 11 -10z m-130 -27 c0 -31 -16 -46 -39 -38 -27 8 -27 20 1 39
29 21 38 20 38 -1z m-56 -52 c3 -5 -1 -14 -8 -20 -16 -13 -32 2 -21 19 8 12
22 13 29 1z m76 -9 c0 -9 9 -34 20 -55 11 -20 20 -45 20 -56 0 -10 6 -24 14
-30 7 -6 11 -22 8 -36 -2 -14 0 -31 6 -38 6 -7 9 -22 6 -34 -3 -11 -1 -24 5
-27 17 -11 14 -181 -3 -219 -13 -30 -17 -47 -33 -135 -5 -31 -52 -82 -75 -82
-13 0 -3 102 12 130 6 10 10 34 10 53 0 19 6 40 14 46 20 17 27 96 16 176 -23
168 -32 216 -45 242 -16 30 -19 65 -8 76 13 13 33 7 33 -11z m140 -11 c7 -14
7 -22 -1 -27 -13 -8 -41 24 -33 37 9 15 23 10 34 -10z m87 -63 c-3 -8 -6 -5
-6 6 -1 11 2 17 5 13 3 -3 4 -12 1 -19z m-67 2 c0 -5 -5 -10 -11 -10 -5 0 -7
5 -4 10 3 6 8 10 11 10 2 0 4 -4 4 -10z m-240 -31 c0 -5 -7 -9 -15 -9 -15 0
-20 12 -9 23 8 8 24 -1 24 -14z m240 -49 c0 -5 -7 -10 -15 -10 -8 0 -15 5 -15
10 0 6 7 10 15 10 8 0 15 -4 15 -10z m65 -10 c7 -12 -12 -40 -26 -40 -5 0 -9
11 -9 25 0 25 23 35 35 15z m13 -82 c-6 -18 -28 -21 -28 -4 0 9 7 16 16 16 9
0 14 -5 12 -12z m-8 -82 c0 -2 3 -11 6 -20 5 -12 -1 -16 -23 -16 -16 0 -34 -5
-40 -11 -6 -6 -19 -9 -29 -6 -18 4 -18 4 1 12 11 5 28 16 38 27 16 16 47 25
47 14z m-290 -62 c0 -8 -4 -12 -10 -9 -5 3 -10 10 -10 16 0 5 5 9 10 9 6 0 10
-7 10 -16z m200 -80 c0 -8 -4 -14 -9 -14 -11 0 -22 26 -14 34 9 9 23 -3 23
-20z m91 -47 c-1 -12 -15 -9 -19 4 -3 6 1 10 8 8 6 -3 11 -8 11 -12z m-41 -21
c0 -26 -21 -47 -28 -28 -2 7 -13 12 -25 12 -21 0 -21 1 3 20 34 26 50 25 50
-4z m10 -86 c0 -5 -5 -12 -11 -16 -14 -8 -33 11 -25 25 7 11 36 4 36 -9z
m-603 -17 c2 -6 -5 -14 -16 -18 -27 -8 -16 -35 15 -35 13 0 24 -4 24 -10 0
-15 -49 -24 -64 -11 -21 18 -26 70 -7 81 20 12 43 9 48 -7z m573 -33 c0 -11
-6 -20 -14 -20 -18 0 -29 16 -21 30 11 18 35 11 35 -10z m-80 -20 c0 -5 -4
-10 -10 -10 -5 0 -10 5 -10 10 0 6 5 10 10 10 6 0 10 -4 10 -10z m660 -4 c0
-8 -5 -18 -11 -22 -8 -5 -7 -9 4 -15 9 -6 13 -17 10 -29 -7 -27 8 -25 69 5 54
27 73 31 83 15 3 -5 -15 -22 -41 -37 -90 -54 -148 -108 -177 -166 -15 -31 -30
-58 -35 -60 -11 -7 -92 31 -92 43 0 6 16 20 35 31 19 12 35 29 35 38 0 10 25
38 55 62 56 45 61 54 46 77 -7 11 -16 9 -48 -12 -22 -15 -45 -38 -51 -51 -14
-31 -38 -32 -45 -3 -6 21 12 42 95 110 36 30 68 36 68 14z m211 -29 c-13 -13
-26 -3 -16 12 3 6 11 8 17 5 6 -4 6 -10 -1 -17z m-783 -14 c-4 -22 -48 -31
-48 -10 0 19 10 27 32 27 13 0 18 -6 16 -17z m-597 -15 c10 -13 18 -27 19 -32
0 -5 7 -14 17 -21 9 -7 14 -19 10 -29 -10 -26 -26 -19 -41 19 -8 19 -22 35
-30 35 -21 0 -30 19 -16 35 16 19 18 19 41 -7z m459 -18 c0 -10 -4 -22 -10
-25 -6 -4 -10 7 -10 25 0 18 4 29 10 25 6 -3 10 -15 10 -25z m170 10 c0 -5 -4
-10 -10 -10 -5 0 -10 5 -10 10 0 6 5 10 10 10 6 0 10 -4 10 -10z m1358 -7 c2
-8 -5 -13 -17 -13 -12 0 -21 6 -21 16 0 18 31 15 38 -3z m82 -12 c0 -29 -26
-47 -46 -30 -15 12 -14 15 6 31 28 23 40 23 40 -1z m-1631 -73 c-5 -10 -14
-18 -19 -18 -15 0 -12 48 3 53 18 6 27 -14 16 -35z m191 12 c0 -5 -4 -10 -10
-10 -5 0 -10 5 -10 10 0 6 5 10 10 10 6 0 10 -4 10 -10z m342 -5 c0 -5 -5 -11
-11 -13 -6 -2 -11 4 -11 13 0 9 5 15 11 13 6 -2 11 -8 11 -13z m-382 -35 c30
-29 47 -31 78 -7 8 7 18 5 30 -5 9 -7 35 -22 56 -31 42 -19 58 -12 49 23 -3
11 3 22 15 29 23 12 32 6 32 -24 0 -14 13 -28 40 -44 25 -14 40 -29 40 -42 0
-28 -36 -24 -56 6 -14 21 -54 36 -54 20 0 -3 28 -33 62 -67 54 -54 62 -59 73
-45 7 10 16 17 21 17 14 -1 46 -31 80 -75 33 -43 39 -99 14 -129 -8 -11 -11
-35 -8 -72 4 -48 2 -56 -16 -66 -12 -6 -31 -19 -43 -30 -22 -21 -43 -17 -43 7
0 8 -11 17 -24 21 -16 4 -23 13 -23 28 0 48 -68 108 -87 77 -8 -12 -136 -5
-149 8 -6 6 -16 11 -22 11 -6 0 -26 16 -45 35 -19 19 -44 35 -54 35 -28 0 -96
-76 -96 -107 0 -22 -3 -24 -25 -19 -25 6 -75 47 -75 61 0 11 31 45 42 45 4 0
8 -12 8 -26 0 -45 32 -19 44 36 7 30 62 70 98 70 14 0 44 -15 68 -32 85 -65
87 -66 154 -61 63 4 63 3 108 -39 25 -24 53 -55 63 -70 11 -18 26 -28 41 -28
28 0 42 24 25 44 -6 7 -8 27 -5 45 6 28 4 31 -17 31 -20 1 -31 15 -67 90 -46
96 -89 144 -162 183 -70 38 -97 42 -106 15 -7 -23 -7 -23 -16 4 -8 22 -16 27
-46 30 -33 3 -37 6 -34 28 2 19 0 22 -10 12 -18 -18 -38 -15 -38 6 0 42 38 43
80 2z m-41 -81 c30 -11 44 -39 19 -39 -14 1 -58 34 -58 44 0 8 2 8 39 -5z
m-211 -36 c-2 -19 -12 -32 -31 -41 -40 -19 -43 -9 -10 32 34 43 45 45 41 9z
m-68 13 c0 -3 -4 -8 -10 -11 -5 -3 -10 -1 -10 4 0 6 5 11 10 11 6 0 10 -2 10
-4z m405 -26 c10 -16 -15 -40 -41 -40 -26 0 -31 13 -11 35 14 17 43 19 52 5z
m-161 -26 c4 -9 4 -19 2 -22 -10 -9 -36 8 -36 23 0 20 26 19 34 -1z m-114 2
c0 -2 -8 -10 -17 -17 -16 -13 -17 -12 -4 4 13 16 21 21 21 13z m-160 -41 c0
-8 -7 -15 -15 -15 -8 0 -15 7 -15 15 0 8 7 15 15 15 8 0 15 -7 15 -15z m488 3
c19 -19 14 -30 -10 -26 -13 2 -24 11 -26 21 -4 20 18 23 36 5z m-393 -7 c3 -5
1 -12 -5 -16 -5 -3 -10 1 -10 9 0 18 6 21 15 7z m165 -10 c0 -10 -7 -22 -15
-25 -20 -7 -32 23 -14 35 21 13 29 11 29 -10z m141 -24 c-1 -12 -15 -9 -19 4
-3 6 1 10 8 8 6 -3 11 -8 11 -12z m223 -9 c19 -26 7 -43 -23 -33 -20 6 -28 34
-14 48 11 12 21 8 37 -15z m-426 -10 c13 -16 3 -70 -12 -65 -13 4 -21 77 -8
77 5 0 14 -6 20 -12z m307 -8 c3 -5 1 -10 -4 -10 -6 0 -11 5 -11 10 0 6 2 10
4 10 3 0 8 -4 11 -10z m683 -27 c4 -25 -16 -31 -36 -11 -20 20 -14 40 11 36
14 -2 23 -11 25 -25z m-1170 -2 c28 -24 28 -42 -2 -70 -20 -19 -28 -21 -46
-11 -17 9 -25 9 -39 -4 -10 -9 -24 -16 -32 -16 -8 0 -23 -18 -33 -40 -23 -52
-40 -52 -33 -1 6 50 27 91 52 105 11 6 33 21 50 33 36 28 53 28 83 4z m983
-22 c7 -15 6 -21 -5 -25 -22 -8 -36 4 -36 31 0 28 24 25 41 -6z m265 -55 c7
-28 -8 -50 -26 -39 -7 4 -33 9 -58 11 -50 4 -57 8 -47 24 4 6 25 10 48 8 25
-1 42 2 45 10 7 21 31 13 38 -14z m-351 -16 c24 -11 35 -38 16 -38 -5 0 -16
-3 -24 -6 -17 -6 -42 30 -32 46 8 13 9 12 40 -2z m-565 -23 c10 -12 10 -21 0
-44 -15 -36 -6 -55 19 -41 18 9 41 -4 41 -24 0 -15 42 -56 58 -56 25 0 6 -25
-21 -28 -16 -2 -27 -10 -27 -19 0 -8 -9 -17 -20 -20 -15 -4 -18 -11 -14 -29
11 -42 -28 -28 -89 32 -50 49 -57 62 -57 95 0 35 4 41 40 59 27 14 40 27 40
41 0 18 -4 20 -25 15 -20 -5 -25 -3 -25 14 0 16 7 20 34 20 18 0 39 -7 46 -15z
m770 6 c0 -14 -63 -71 -79 -71 -8 0 -25 -9 -37 -21 -22 -21 -23 -21 -63 -3
-26 11 -41 24 -41 36 0 23 19 23 35 1 11 -15 15 -14 47 10 19 15 44 27 55 27
10 0 28 7 39 15 21 16 44 19 44 6z m-1077 -33 c20 1 67 -43 67 -63 0 -8 -9
-15 -19 -15 -11 0 -26 -9 -33 -19 -11 -16 -20 -18 -48 -12 -32 7 -35 10 -32
39 3 26 -1 32 -22 38 -22 5 -24 9 -15 25 8 16 16 18 47 13 20 -4 45 -7 55 -6z
m1157 -22 c0 -3 -4 -8 -10 -11 -5 -3 -10 -1 -10 4 0 6 5 11 10 11 6 0 10 -2
10 -4z m-628 -23 c21 -19 25 -73 5 -73 -16 0 -37 41 -37 70 0 24 8 25 32 3z
m-806 -30 c-10 -10 -19 5 -10 18 6 11 8 11 12 0 2 -7 1 -15 -2 -18z m1364 -3
c0 -5 -5 -10 -11 -10 -5 0 -7 5 -4 10 3 6 8 10 11 10 2 0 4 -4 4 -10z m-224
-75 c6 -22 14 -48 18 -58 8 -17 -16 -67 -32 -67 -4 0 -17 19 -30 43 -18 35
-21 52 -16 86 6 35 10 42 28 39 15 -2 24 -14 32 -43z m-186 10 c0 -16 5 -23
13 -19 15 5 60 -42 55 -58 -2 -6 -33 -12 -70 -12 -54 -1 -71 -6 -91 -24 -23
-22 -24 -22 -40 -4 -40 44 -6 69 79 59 54 -6 67 9 31 38 -21 16 -24 24 -15 33
20 20 38 14 38 -13z m-652 -7 c-2 -15 -11 -24 -27 -26 -19 -3 -22 0 -17 13 3
9 6 21 6 26 0 5 9 9 21 9 15 0 20 -5 17 -22z m492 2 c0 -21 -15 -27 -25 -10
-7 12 2 30 16 30 5 0 9 -9 9 -20z m85 -10 c0 -27 -22 -39 -31 -16 -8 22 3 49
19 43 6 -2 12 -14 12 -27z m-800 2 c0 -18 -20 -15 -23 4 -3 10 1 15 10 12 7
-3 13 -10 13 -16z m-1799 -58 c-5 -13 -10 -14 -18 -6 -6 6 -8 18 -4 28 5 13
10 14 18 6 6 -6 8 -18 4 -28z m2494 11 c0 -8 -4 -15 -10 -15 -5 0 -10 7 -10
15 0 8 5 15 10 15 6 0 10 -7 10 -15z m-2320 -5 c0 -5 -5 -10 -11 -10 -5 0 -7
5 -4 10 3 6 8 10 11 10 2 0 4 -4 4 -10z m1988 -8 c2 -7 -6 -12 -17 -12 -21 0
-27 11 -14 24 9 9 26 2 31 -12z m-2340 -8 c14 -15 17 -15 27 0 16 22 32 20 38
-3 7 -27 0 -31 -44 -31 -27 0 -41 5 -48 19 -6 10 -7 21 -4 25 9 9 13 8 31 -10z
m257 6 c3 -5 1 -10 -4 -10 -6 0 -11 5 -11 10 0 6 2 10 4 10 3 0 8 -4 11 -10z
m307 -58 c26 -5 59 -7 72 -5 20 4 29 -1 45 -27 11 -18 17 -38 15 -45 -7 -16
-89 -34 -153 -33 -40 1 -57 -2 -66 -15 -12 -16 -13 -16 -26 3 -12 19 -25 21
-114 23 -55 1 -165 0 -244 -2 -132 -3 -146 -5 -179 -27 -23 -16 -49 -24 -79
-24 -37 0 -45 4 -55 25 -21 46 5 57 209 90 51 9 103 13 117 9 13 -3 27 -1 30
5 4 6 39 11 81 11 42 0 77 5 80 11 5 7 25 8 55 4 26 -4 50 -3 53 2 7 11 93 8
159 -5z m238 -1 c8 -16 6 -21 -11 -26 -25 -8 -44 7 -36 29 9 22 34 20 47 -3z
m1457 4 c11 -29 -26 -55 -78 -55 -26 0 -51 5 -55 11 -3 6 -19 9 -35 7 -19 -3
-29 0 -29 8 0 22 30 32 72 22 29 -6 47 -5 66 6 36 19 51 19 59 1z m318 -15
c30 -11 25 -30 -8 -30 -29 0 -51 15 -43 29 9 14 17 14 51 1z m119 -5 c3 -8 17
-20 31 -27 29 -13 33 -38 6 -38 -20 0 -75 63 -64 74 10 10 21 7 27 -9z m-634
-126 c0 -19 -20 -16 -53 7 -40 26 -43 37 -26 81 l10 28 35 -55 c19 -30 34 -57
34 -61z m440 96 c0 -15 -26 -32 -36 -23 -2 3 -2 13 2 22 8 20 34 21 34 1z
m540 -5 c0 -5 -4 -10 -10 -10 -5 0 -10 5 -10 10 0 6 5 10 10 10 6 0 10 -4 10
-10z m-86 -25 c11 -45 -14 -147 -43 -172 -14 -13 -29 -23 -33 -23 -10 0 -10
37 0 44 12 7 7 88 -7 114 -11 20 -9 25 11 42 33 28 64 26 72 -5z m-620 -11
c28 -11 17 -20 -19 -16 -19 2 -32 8 -29 13 6 10 26 12 48 3z m702 -26 c4 -6
-1 -17 -12 -25 -15 -11 -19 -11 -27 2 -15 28 22 51 39 23z m-3302 -56 c-21 -5
-59 32 -49 48 5 8 16 3 37 -17 24 -23 27 -29 12 -31z m3009 40 c18 -19 14 -32
-10 -32 -7 0 -13 7 -13 15 0 7 -8 19 -17 24 -16 9 -16 10 3 11 11 0 28 -8 37
-18z m-455 -11 c9 -5 39 -20 66 -33 78 -37 86 -42 86 -56 0 -7 -7 -15 -15 -18
-8 -3 -17 -14 -20 -25 -9 -27 -24 -24 -36 8 -7 20 -13 23 -21 15 -17 -17 -48
-15 -48 3 0 7 8 19 18 24 15 9 13 13 -20 41 -47 39 -53 63 -10 41z m432 -38
c0 -6 -9 -14 -19 -18 -13 -4 -21 -17 -23 -37 -3 -31 -28 -53 -28 -25 0 9 -14
26 -31 38 l-32 22 36 33 c36 33 36 33 67 16 16 -9 30 -22 30 -29z m-2571 24
c6 -8 8 -17 4 -20 -7 -8 -33 11 -33 24 0 13 16 11 29 -4z m2347 -33 c-5 -13
-10 -14 -18 -6 -6 6 -8 18 -4 28 5 13 10 14 18 6 6 -6 8 -18 4 -28z m-1780 11
c17 -13 17 -16 3 -27 -20 -17 -80 -138 -74 -149 3 -4 -5 -15 -17 -23 -13 -8
-34 -37 -48 -63 -14 -26 -35 -56 -48 -67 -13 -10 -27 -28 -32 -40 -10 -27 -88
-56 -155 -57 -48 0 -67 1 -180 16 -42 5 -54 3 -58 -9 -4 -9 -13 -16 -22 -16
-12 0 -15 9 -13 41 3 58 -34 85 -84 58 -23 -12 -35 -5 -21 13 6 7 13 26 15 41
5 23 1 30 -19 38 -20 7 -24 15 -21 34 4 17 -2 33 -16 48 -27 29 -53 124 -38
139 8 8 15 8 24 0 7 -6 39 -20 71 -32 49 -19 63 -20 87 -10 16 7 33 9 39 6 24
-15 110 -23 161 -15 30 6 69 11 85 13 17 1 39 8 51 16 16 10 28 10 53 2 26 -9
39 -8 74 8 48 21 124 47 148 49 8 0 24 -6 35 -14z m1452 6 c22 -2 12 -27 -25
-62 -34 -32 -44 -36 -98 -38 -63 -2 -115 13 -115 34 0 20 11 24 37 14 34 -13
87 5 107 35 12 19 22 23 48 21 18 -2 39 -4 46 -4z m662 -41 c0 -5 -7 -13 -16
-18 -13 -7 -14 -13 -5 -30 8 -15 8 -27 -3 -49 -7 -15 -20 -41 -27 -58 -11 -22
-23 -31 -44 -33 -28 -4 -29 -3 -13 15 12 13 16 33 15 73 -3 49 0 57 28 82 29
27 65 37 65 18z m-2060 -50 c0 -11 -4 -20 -10 -20 -5 0 -10 9 -10 20 0 11 5
20 10 20 6 0 10 -9 10 -20z m1430 11 c0 -12 -20 -25 -27 -18 -7 7 6 27 18 27
5 0 9 -4 9 -9z m-2355 -91 c-12 -19 -35 -10 -35 13 0 13 3 27 7 30 9 10 35
-31 28 -43z m2415 28 c17 -12 30 -28 30 -35 0 -18 -35 -16 -50 2 -7 8 -28 15
-46 15 -42 0 -47 27 -6 33 15 2 31 5 35 6 4 0 21 -9 37 -21z m250 18 c0 -3 -4
-8 -10 -11 -5 -3 -10 -1 -10 4 0 6 5 11 10 11 6 0 10 -2 10 -4z m-390 -16 c0
-5 -4 -10 -10 -10 -5 0 -10 5 -10 10 0 6 5 10 10 10 6 0 10 -4 10 -10z m-90
-25 c0 -8 -7 -15 -15 -15 -8 0 -15 7 -15 15 0 8 7 15 15 15 8 0 15 -7 15 -15z
m137 -15 c14 -11 39 -20 54 -20 22 0 29 -5 29 -20 0 -24 -33 -27 -77 -8 -33
15 -43 26 -43 51 0 22 6 22 37 -3z m240 14 c-3 -3 -12 -4 -19 -1 -8 3 -5 6 6
6 11 1 17 -2 13 -5z m140 -21 c5 -13 -25 -26 -38 -17 -6 3 -5 11 2 20 13 16
31 14 36 -3z m118 -13 c-4 -12 -2 -27 5 -34 8 -11 5 -18 -12 -32 -13 -11 -29
-31 -35 -46 -7 -16 -17 -28 -23 -28 -17 0 -23 29 -10 45 7 8 9 26 5 44 -5 23
-1 34 16 50 30 28 63 28 54 1z m-635 -15 c0 -8 -7 -15 -15 -15 -8 0 -15 7 -15
15 0 8 7 15 15 15 8 0 15 -7 15 -15z m448 -48 c4 -32 37 -38 45 -7 7 26 27 26
27 1 0 -30 -36 -107 -53 -114 -8 -3 -23 0 -32 7 -15 11 -15 14 2 45 12 22 14
35 7 38 -29 10 -47 31 -41 47 10 27 42 15 45 -17z m377 23 c3 -6 -1 -13 -10
-16 -19 -8 -30 0 -20 15 8 14 22 14 30 1z m-760 -20 c-3 -5 -13 -10 -21 -10
-8 0 -12 5 -9 10 3 6 13 10 21 10 8 0 12 -4 9 -10z m185 1 c0 -6 -4 -13 -10
-16 -5 -3 -10 1 -10 9 0 9 5 16 10 16 6 0 10 -4 10 -9z m490 -41 c0 -10 5 -22
10 -25 17 -10 11 -25 -9 -25 -18 0 -32 41 -23 68 6 18 22 4 22 -18z m-1110 -5
c0 -16 -27 -32 -37 -21 -7 7 16 36 28 36 5 0 9 -7 9 -15z m75 -15 c3 -5 17
-10 31 -10 17 0 24 -5 24 -19 0 -11 5 -23 10 -26 6 -4 8 -10 5 -15 -4 -6 -14
-4 -25 3 -17 10 -24 8 -45 -16 -30 -31 -43 -34 -52 -11 -4 11 1 22 13 31 13 9
18 23 16 43 -3 29 10 41 23 20z m945 1 c0 -5 3 -17 7 -26 5 -15 3 -16 -15 -6
-25 13 -29 41 -7 41 8 0 15 -4 15 -9z m-727 -27 c9 -9 -4 -35 -14 -28 -5 3 -9
12 -9 20 0 14 12 19 23 8z m472 -24 c-5 -8 -11 -8 -17 -2 -6 6 -7 16 -3 22 5
8 11 8 17 2 6 -6 7 -16 3 -22z m-275 -15 c0 -8 -4 -15 -10 -15 -5 0 -10 7 -10
15 0 8 5 15 10 15 6 0 10 -7 10 -15z m217 0 c5 -16 -53 -78 -66 -71 -12 8 -5
53 12 74 11 15 49 12 54 -3z m373 -1 c0 -8 -4 -12 -10 -9 -5 3 -10 10 -10 16
0 5 5 9 10 9 6 0 10 -7 10 -16z m-830 -18 c0 -6 -15 -27 -34 -45 -28 -27 -40
-32 -71 -29 -56 4 -52 20 10 47 30 13 60 29 66 37 12 15 29 10 29 -10z m120
-7 c0 -35 -18 -55 -65 -73 -46 -18 -52 -25 -35 -42 12 -12 -19 -84 -36 -84
-17 0 -28 40 -15 53 6 6 11 21 11 34 0 25 115 147 131 138 5 -4 9 -15 9 -26z
m-1340 1 c0 -13 -7 -20 -20 -20 -13 0 -20 7 -20 20 0 13 7 20 20 20 13 0 20
-7 20 -20z m1560 -20 c0 -30 -42 -70 -74 -70 -24 0 -19 26 9 44 14 9 25 22 25
29 0 17 21 38 32 31 4 -3 8 -18 8 -34z m-1620 5 c0 -28 -25 -44 -42 -27 -7 7
-6 17 1 31 16 30 41 27 41 -4z m1498 -19 c2 -10 0 -22 -5 -27 -16 -16 -43 2
-43 28 0 20 4 24 22 21 13 -2 24 -11 26 -22z m302 3 c11 -19 10 -20 -9 -9 -12
6 -21 15 -21 20 0 18 19 11 30 -11z m548 9 c22 -22 13 -33 -28 -34 -31 -1 -40
2 -40 16 0 9 3 20 7 23 11 11 48 8 61 -5z m-143 -28 c3 -4 -3 -18 -13 -31 -20
-27 -54 -110 -48 -117 8 -8 38 15 49 39 17 33 62 58 78 42 9 -9 7 -20 -10 -48
-11 -20 -21 -43 -21 -50 0 -26 -59 -60 -106 -61 -46 -2 -57 12 -29 36 22 18
18 30 -10 30 -16 0 -25 6 -25 15 0 8 4 15 10 15 5 0 17 14 26 32 9 18 23 38
30 46 8 7 14 26 14 41 0 25 3 28 25 23 14 -2 27 -8 30 -12z m-2275 -5 c0 -8
-7 -15 -15 -15 -8 0 -15 7 -15 15 0 8 7 15 15 15 8 0 15 -7 15 -15z m1178 3
c-3 -7 -11 -13 -18 -13 -7 0 -15 6 -17 13 -3 7 4 12 17 12 13 0 20 -5 18 -12z
m-1281 -14 c9 -23 -10 -36 -84 -55 -109 -28 -193 -23 -193 13 0 5 24 8 53 7
66 -2 150 15 179 35 28 20 37 20 45 0z m226 -1 c11 -10 -13 -33 -34 -33 -24 0
-25 27 -1 33 27 7 28 7 35 0z m1815 -11 c3 -9 -2 -13 -14 -10 -9 1 -19 9 -22
16 -3 9 2 13 14 10 9 -1 19 -9 22 -16z m242 -5 c0 -14 -20 -37 -32 -37 -4 0
-8 11 -8 25 0 18 5 25 20 25 11 0 20 -6 20 -13z m320 -22 c0 -9 -6 -12 -15 -9
-8 4 -15 10 -15 15 0 5 7 9 15 9 8 0 15 -7 15 -15z m-990 -15 c0 -5 -4 -12
-10 -15 -5 -3 -10 -15 -10 -26 0 -21 -19 -27 -21 -6 -2 16 1 39 6 54 5 13 35
7 35 -7z m80 0 c0 -23 -26 -38 -41 -23 -14 14 0 43 22 43 12 0 19 -7 19 -20z
m226 9 c8 -13 -54 -79 -75 -79 -8 0 -25 -12 -37 -27 -18 -23 -25 -26 -35 -15
-7 6 -37 12 -66 12 -39 0 -53 4 -53 14 0 19 31 29 63 21 17 -5 26 -2 30 9 4 9
15 16 27 16 11 0 34 13 52 30 33 30 81 40 94 19z m-1866 -8 c0 -12 -29 -35
-36 -28 -11 10 5 37 21 37 8 0 15 -4 15 -9z m230 -11 c0 -5 -7 -10 -15 -10 -8
0 -15 5 -15 10 0 6 7 10 15 10 8 0 15 -4 15 -10z m165 -30 c8 0 15 -3 15 -8 0
-4 14 -24 31 -45 l31 -37 28 17 c16 9 33 13 37 9 10 -10 -25 -36 -48 -36 -10
0 -19 -6 -22 -12 -3 -9 -13 -7 -35 10 -17 12 -40 22 -51 22 -24 0 -66 40 -76
71 -10 30 12 41 46 23 16 -8 35 -14 44 -14z m-485 -6 c0 -7 -26 -25 -57 -40
-53 -24 -65 -26 -145 -20 -82 5 -86 5 -81 -14 4 -14 0 -20 -11 -20 -12 0 -16
10 -16 39 0 47 21 59 76 41 20 -7 47 -9 62 -4 15 4 38 8 52 9 14 2 41 9 60 17
38 16 60 13 60 -8z m2060 12 c0 -7 -7 -19 -15 -26 -8 -7 -15 -21 -15 -30 0
-22 -63 -74 -114 -95 -39 -17 -161 -11 -172 7 -12 19 19 33 74 33 77 0 121 20
129 57 4 19 17 37 37 49 36 22 76 25 76 5z m-2380 -6 c0 -5 -4 -10 -10 -10 -5
0 -10 5 -10 10 0 6 5 10 10 10 6 0 10 -4 10 -10z m511 -35 c24 -25 50 -45 57
-45 7 0 10 -5 7 -11 -5 -7 -13 -5 -24 5 -10 9 -21 16 -25 16 -4 0 -19 9 -33
20 -14 11 -34 20 -44 20 -12 0 -19 7 -19 20 0 34 34 23 81 -25z m2049 25 c0
-5 -4 -10 -10 -10 -5 0 -10 5 -10 10 0 6 5 10 10 10 6 0 10 -4 10 -10z m-1866
-63 c17 -13 48 -29 68 -36 53 -17 62 -32 47 -76 -23 -61 -60 -45 -145 63 -19
24 -34 50 -34 58 0 21 29 17 64 -9z m396 8 c0 -8 -4 -15 -9 -15 -13 0 -22 16
-14 24 11 11 23 6 23 -9z m-765 -5 c3 -5 15 -10 26 -10 10 0 19 -7 19 -15 0
-12 -7 -14 -27 -9 -38 9 -43 13 -43 30 0 16 16 19 25 4z m1565 -4 c0 -16 -14
-36 -26 -36 -16 0 -16 2 -8 24 5 14 34 24 34 12z m-75 -16 c3 -5 1 -10 -4 -10
-16 0 -13 -36 4 -50 21 -17 20 -52 -1 -48 -9 2 -20 10 -24 18 -4 8 -12 26 -19
38 -10 20 -10 27 5 43 19 21 30 24 39 9z m-647 -17 c2 -8 -6 -13 -21 -13 -19
0 -26 -6 -29 -22 -4 -28 -22 -27 -26 2 -2 13 2 20 12 20 9 0 16 7 16 16 0 19
41 16 48 -3z m-890 -13 c2 -11 -15 -24 -49 -39 -59 -25 -112 -25 -117 1 -3 14
6 19 37 24 22 4 49 13 58 20 23 18 67 14 71 -6z m761 -7 c8 -18 9 -29 2 -36
-14 -14 -51 19 -51 45 0 28 35 22 49 -9z m-629 -14 c0 -5 -9 -9 -20 -9 -19 0
-27 20 -13 33 7 8 33 -11 33 -24z m800 17 c0 -16 -18 -31 -27 -22 -8 8 5 36
17 36 5 0 10 -6 10 -14z m-710 -22 c0 -15 15 -43 35 -67 33 -38 34 -43 19 -54
-14 -10 -15 -15 -4 -28 17 -21 4 -32 -20 -17 -12 7 -21 8 -25 2 -13 -21 -23
-11 -53 54 -3 4 10 5 27 1 38 -8 39 2 6 41 -24 27 -33 73 -18 87 15 16 33 5
33 -19z m63 5 c23 -27 17 -33 -17 -18 -26 12 -31 20 -19 32 10 11 17 8 36 -14z
m1917 4 c2 -2 -1 -12 -8 -21 -7 -9 -16 -27 -22 -39 -5 -13 -18 -23 -30 -23
-11 0 -20 -4 -20 -10 0 -18 -39 -10 -50 10 -12 22 -46 27 -53 8 -2 -7 -2 -27
0 -44 4 -24 0 -35 -18 -50 -13 -10 -33 -38 -44 -62 -24 -50 -138 -182 -178
-205 -34 -20 -77 -22 -77 -4 0 7 30 38 67 68 76 62 81 67 146 142 46 52 77 99
77 117 0 5 -18 6 -40 3 -47 -7 -50 1 -13 35 17 16 43 27 70 30 24 2 46 9 49
13 9 15 34 10 34 -7 0 -9 7 -14 16 -12 17 3 28 18 38 51 4 14 12 17 28 11 13
-3 25 -8 28 -11z m-1180 -2 c0 -6 -4 -13 -10 -16 -5 -3 -7 -19 -4 -34 6 -31
-7 -46 -32 -37 -13 5 -13 9 1 30 10 15 14 33 10 46 -5 16 -2 20 14 20 12 0 21
-4 21 -9z m-371 -46 c14 -4 30 -24 44 -53 30 -70 92 -130 136 -134 32 -3 36
-6 39 -35 5 -49 -14 -76 -46 -68 -37 9 -40 14 -18 30 21 16 15 45 -8 45 -20 0
-30 -19 -32 -60 0 -19 -5 -46 -10 -60 -4 -14 -8 -53 -8 -87 0 -76 -18 -91 -42
-35 -11 24 -18 75 -20 151 -4 104 -13 141 -34 141 -4 0 -10 -39 -14 -87 -10
-117 18 -283 47 -283 24 0 19 -33 -6 -38 -11 -2 -17 3 -17 16 0 10 -10 27 -21
38 -29 26 -64 101 -66 144 -8 164 -9 257 -1 266 5 7 2 16 -7 24 -8 7 -16 9
-17 4 -15 -86 -25 -230 -17 -252 5 -13 9 -40 9 -60 l-1 -37 -23 29 c-17 21
-30 27 -45 23 -24 -6 -29 8 -6 16 19 8 16 114 -4 126 -11 7 -10 15 8 39 12 17
23 48 25 70 4 48 8 55 65 114 35 35 48 43 56 33 6 -6 21 -15 34 -20z m976 25
c3 -5 1 -10 -4 -10 -6 0 -11 5 -11 10 0 6 2 10 4 10 3 0 8 -4 11 -10z m-198
-17 c-8 -9 -20 -12 -26 -9 -19 12 -12 21 15 23 24 1 25 -1 11 -14z m-312 -3
c3 -5 -1 -10 -9 -10 -9 0 -16 5 -16 10 0 6 4 10 9 10 6 0 13 -4 16 -10z
m-1097 -50 c-2 -9 -19 -17 -43 -20 -22 -3 -45 -9 -51 -13 -7 -4 -23 2 -35 13
l-24 19 32 7 c18 3 40 15 49 25 16 18 18 18 46 1 16 -9 27 -23 26 -32z m32 41
c0 -6 -4 -13 -10 -16 -5 -3 -10 1 -10 9 0 9 5 16 10 16 6 0 10 -4 10 -9z m358
-28 c35 -22 52 -43 52 -65 0 -15 -8 -17 -57 -15 -53 2 -58 4 -55 23 1 12 -4
27 -13 34 -44 36 19 56 73 23z m1402 7 c0 -5 -5 -10 -11 -10 -5 0 -7 5 -4 10
3 6 8 10 11 10 2 0 4 -4 4 -10z m455 0 c3 -6 -1 -13 -10 -16 -19 -8 -30 0 -20
15 8 14 22 14 30 1z m495 -6 c0 -17 -22 -14 -28 4 -2 7 3 12 12 12 9 0 16 -7
16 -16z m-1079 -20 c-16 -20 -18 -30 -10 -40 6 -8 8 -22 4 -31 -6 -17 -7 -17
-20 0 -11 15 -17 16 -34 7 -12 -6 -21 -17 -21 -24 0 -14 -21 -26 -46 -26 -13
0 -38 48 -50 97 -9 33 19 30 44 -4 l21 -28 33 32 c28 27 43 34 91 42 5 0 -1
-11 -12 -25z m-721 -36 c0 -4 -9 -8 -20 -8 -15 0 -20 7 -20 27 0 25 0 26 20 8
11 -10 20 -22 20 -27z m172 2 c-5 -50 -19 -60 -32 -24 -13 33 -4 64 18 64 14
0 17 -7 14 -40z m1038 9 c0 -11 -20 -45 -45 -76 -25 -30 -45 -58 -45 -61 0 -4
-27 -35 -60 -70 -32 -35 -62 -71 -65 -80 -6 -19 -118 -102 -138 -102 -21 -1
-69 -47 -65 -63 2 -14 7 -15 25 -4 12 6 48 25 78 42 33 17 63 41 71 57 8 15
33 44 55 65 23 21 77 83 121 138 44 55 85 101 89 103 14 6 23 -28 10 -41 -6
-6 -11 -18 -11 -27 0 -8 -18 -34 -40 -58 -22 -23 -40 -49 -40 -58 0 -26 -39
-72 -63 -76 -14 -2 -28 -16 -39 -39 -17 -36 -68 -83 -118 -109 -14 -7 -31 -21
-38 -32 -7 -10 -19 -18 -26 -18 -7 0 -20 -8 -29 -18 -8 -9 -39 -26 -67 -37
-60 -23 -99 -60 -83 -76 8 -8 19 -6 40 8 15 11 67 38 115 60 47 23 119 69 160
102 41 34 82 61 91 61 22 0 22 16 0 29 -16 9 -17 12 -3 37 21 38 37 40 45 6 4
-22 11 -29 23 -25 19 5 65 -33 59 -50 -6 -20 -28 -19 -34 2 -7 26 -29 27 -36
2 -2 -11 -14 -21 -26 -23 -14 -2 -32 -20 -49 -51 -26 -48 -26 -49 -9 -79 19
-34 11 -53 -19 -46 -19 4 -21 10 -9 41 10 24 -24 23 -50 -3 -65 -66 -228 -160
-275 -160 -16 0 -32 -4 -35 -10 -3 -5 -13 -10 -21 -10 -11 0 -14 13 -12 56 3
54 1 58 -26 73 -16 9 -31 22 -33 28 -5 13 109 92 147 103 36 9 27 25 -17 28
-57 4 -73 12 -48 23 11 5 34 18 50 29 17 11 46 28 65 37 19 10 62 40 95 68 87
73 265 255 265 270 0 14 46 55 61 55 5 0 9 -9 9 -21z m-1272 -13 c12 -13 22
-34 22 -46 0 -28 -24 -21 -28 9 -3 19 -8 22 -29 16 -27 -6 -53 9 -53 31 0 24
62 17 88 -10z m1000 7 c-2 -10 -10 -18 -18 -18 -8 0 -16 8 -18 18 -2 12 3 17
18 17 15 0 20 -5 18 -17z m-688 -8 c6 -8 9 -19 5 -25 -8 -13 3 -50 16 -50 5 0
26 16 48 35 21 19 41 35 44 35 4 0 19 -25 33 -55 28 -56 26 -87 -2 -47 -20 28
-42 28 -46 0 -2 -13 -15 -29 -30 -36 -35 -16 -36 -40 -2 -52 40 -16 18 -30
-47 -30 -44 0 -60 -3 -57 -12 7 -19 49 -38 85 -38 41 0 49 -14 21 -39 -26 -25
-46 -27 -54 -6 -7 18 -44 20 -44 2 0 -7 -6 -21 -13 -31 -12 -16 -16 -17 -35
-5 -14 9 -22 24 -22 40 0 15 -7 32 -15 39 -8 7 -15 21 -15 31 0 25 -5 24 -51
-8 -40 -29 -47 -45 -29 -66 11 -13 45 -61 85 -119 26 -39 58 -50 69 -23 7 19
30 19 45 2 8 -10 6 -27 -7 -67 -10 -30 -23 -55 -29 -57 -6 -2 -21 12 -33 32
-23 38 -45 42 -63 14 -8 -13 -6 -21 6 -33 17 -18 13 -46 -8 -46 -32 0 -105 44
-144 86 -32 36 -43 56 -43 80 0 40 -24 66 -34 39 -4 -10 -2 -26 5 -37 6 -10 9
-23 6 -27 -2 -5 2 -14 10 -21 8 -7 15 -26 15 -42 0 -60 69 -148 117 -148 19
-1 83 -54 83 -69 0 -21 -20 -20 -40 1 -20 20 -23 21 -32 7 -25 -38 -161 66
-191 146 -21 56 -47 144 -47 160 0 11 6 30 14 41 17 24 22 53 11 77 -9 21 10
47 36 47 18 0 18 -2 5 -28 -10 -19 -11 -33 -5 -45 13 -23 39 -22 39 2 0 21 23
45 33 34 4 -3 7 -16 7 -28 0 -31 38 -105 74 -142 36 -39 46 -41 46 -9 0 23
-41 76 -59 76 -13 0 -41 94 -43 143 -1 31 7 45 48 89 83 90 114 105 164 78 13
-7 27 -6 44 2 31 14 33 24 5 33 -16 5 -18 10 -8 21 6 8 9 25 7 39 -6 28 3 32
22 10z m634 -5 c32 -12 33 -32 3 -73 -12 -18 -27 -41 -33 -51 -18 -34 -62 -62
-75 -49 -16 16 13 75 49 102 22 16 25 22 15 32 -18 18 -16 49 1 49 8 0 26 -4
40 -10z m-2044 -25 c0 -14 -4 -25 -9 -25 -10 0 -21 36 -13 44 12 13 22 5 22
-19z m180 12 c0 -7 -7 -22 -15 -33 -14 -18 -14 -17 -15 14 0 22 5 32 15 32 8
0 15 -6 15 -13z m40 -12 c0 -8 -4 -15 -10 -15 -5 0 -10 7 -10 15 0 8 5 15 10
15 6 0 10 -7 10 -15z m1436 3 c20 -33 -11 -128 -42 -128 -21 0 -28 22 -11 35
19 14 22 36 6 52 -8 8 -6 17 7 32 21 24 30 26 40 9z m-1585 -41 c-13 -13 -26
-3 -16 12 3 6 11 8 17 5 6 -4 6 -10 -1 -17z m1159 8 c0 -8 -4 -15 -10 -15 -5
0 -10 7 -10 15 0 8 5 15 10 15 6 0 10 -7 10 -15z m1250 -10 c0 -18 -5 -25 -20
-25 -15 0 -20 7 -20 25 0 18 5 25 20 25 15 0 20 -7 20 -25z m-1940 -5 c0 -5
-2 -10 -4 -10 -3 0 -8 5 -11 10 -3 6 -1 10 4 10 6 0 11 -4 11 -10z m1313 4 c4
-4 -4 -20 -16 -35 -12 -16 -42 -55 -67 -88 -50 -66 -99 -91 -125 -64 -11 10
-12 20 -6 32 11 20 87 91 99 91 4 0 25 16 46 35 39 34 56 41 69 29z m-685 -25
c12 -18 11 -20 -5 -17 -10 2 -19 11 -21 21 -5 23 10 21 26 -4z m432 -100 c0
-24 -23 -21 -28 4 -2 10 3 17 12 17 10 0 16 -9 16 -21z m258 -91 c-6 -18 -28
-21 -28 -4 0 9 7 16 16 16 9 0 14 -5 12 -12z m-258 -18 c11 -7 5 -10 -22 -10
-21 0 -38 5 -38 10 0 13 40 13 60 0z m1380 -9 c0 -10 -7 -22 -16 -25 -23 -9
-24 -8 -24 19 0 18 5 25 20 25 13 0 20 -7 20 -19z m-1270 -17 c0 -15 -13 -41
-30 -61 -16 -18 -30 -37 -30 -42 0 -10 -80 -32 -92 -25 -28 18 22 85 101 136
37 24 51 22 51 -8z m-312 -68 c3 -13 -1 -17 -14 -14 -11 2 -20 11 -22 22 -3
13 1 17 14 14 11 -2 20 -11 22 -22z m1536 -33 c8 -20 -24 -50 -64 -59 -14 -4
-42 -17 -62 -31 -39 -26 -58 -24 -58 6 0 24 26 45 83 66 26 10 50 22 53 26 9
15 42 10 48 -8z m-1466 -42 c22 -19 30 -51 13 -51 -5 0 -11 -12 -13 -27 -4
-32 -17 -38 -43 -18 -20 15 -20 15 3 34 26 23 28 37 6 49 -9 5 -14 14 -10 21
10 15 17 14 44 -8z m282 -25 c-15 -15 -34 9 -26 31 7 17 8 17 22 -1 9 -13 11
-23 4 -30z m-90 7 c-1 -10 -12 -36 -25 -58 -33 -53 -46 -83 -52 -122 -3 -19
-12 -33 -19 -33 -8 0 -14 -7 -14 -15 0 -9 -8 -19 -17 -22 -10 -4 -22 -12 -28
-19 -8 -10 -15 -9 -33 6 -20 16 -22 25 -17 52 4 18 14 43 22 55 9 13 13 29 10
37 -8 21 49 84 101 111 56 29 72 31 72 8z m655 -3 c8 -24 -11 -60 -30 -60 -8
0 -17 11 -21 25 -11 44 37 78 51 35z m-143 -168 c-19 -6 -44 6 -37 18 4 7 14
6 28 -2 14 -7 17 -13 9 -16z m-802 8 c0 -5 -4 -10 -10 -10 -5 0 -10 5 -10 10
0 6 5 10 10 10 6 0 10 -4 10 -10z m395 -51 c-1 -53 -1 -54 -30 -54 -23 -1 -31
-6 -33 -23 -5 -30 -22 -28 -22 3 0 16 11 35 27 49 16 14 28 35 29 52 3 38 2
36 17 31 7 -2 12 -23 12 -58z m-748 43 c6 -4 14 -19 18 -35 5 -20 3 -28 -9
-33 -9 -3 -16 -17 -16 -30 0 -15 -6 -24 -16 -24 -13 0 -15 7 -10 31 3 17 6 47
6 65 0 34 5 40 27 26z m635 -92 c-5 -33 -22 -39 -43 -14 -11 14 -10 19 10 35
29 24 39 18 33 -21z m345 14 c9 -23 -11 -38 -26 -20 -13 16 -7 36 10 36 5 0
12 -7 16 -16z m-557 -4 c0 -5 -7 -10 -15 -10 -8 0 -15 5 -15 10 0 6 7 10 15
10 8 0 15 -4 15 -10z m187 -75 c24 -17 47 -72 33 -80 -12 -7 -80 61 -80 80 0
19 20 19 47 0z m-430 -36 c7 -6 13 -18 13 -25 0 -8 10 -24 22 -36 22 -22 22
-23 3 -26 -11 -2 -30 -8 -42 -14 -18 -9 -27 -8 -40 4 -30 27 -60 30 -98 12
-34 -16 -37 -16 -78 6 -46 25 -83 23 -111 -5 -8 -8 -22 -15 -32 -15 -14 0 -13
4 7 23 38 34 83 62 97 59 7 -2 22 4 34 13 26 18 79 20 96 3 8 -8 17 -7 34 5
24 18 71 16 95 -4z m363 -5 c0 -16 17 -41 74 -110 29 -35 29 -36 12 -65 -16
-26 -16 -32 -1 -75 17 -49 14 -64 -14 -64 -22 0 -41 19 -41 42 0 10 -4 18 -9
18 -19 0 -32 -31 -29 -72 3 -45 7 -47 56 -32 27 8 31 -16 6 -37 -13 -11 -23
-10 -57 2 -39 13 -42 17 -45 53 -2 21 1 43 7 49 20 20 11 46 -19 62 -36 19
-39 29 -6 21 31 -8 43 10 22 32 -9 11 -13 27 -10 39 4 14 -2 32 -15 49 -23 29
-27 59 -9 70 6 4 16 0 23 -9 18 -25 25 -21 25 13 0 20 5 30 15 30 8 0 15 -7
15 -16z m-148 -29 c0 -5 -5 -11 -11 -13 -6 -2 -11 4 -11 13 0 9 5 15 11 13 6
-2 11 -8 11 -13z m1324 -46 c10 -17 -13 -36 -27 -22 -12 12 -4 33 11 33 5 0
12 -5 16 -11z m-1426 -8 c0 -5 -6 -11 -12 -14 -18 -6 -39 3 -32 14 7 12 44 12
44 0z m356 -18 c-10 -10 -19 5 -10 18 6 11 8 11 12 0 2 -7 1 -15 -2 -18z
m-256 -28 c0 -8 -4 -15 -10 -15 -5 0 -10 7 -10 15 0 8 5 15 10 15 6 0 10 -7
10 -15z m-492 -13 c55 -31 -6 -82 -100 -84 -48 -1 -68 -6 -85 -21 -18 -16 -27
-18 -45 -10 -16 7 -49 6 -108 -3 -112 -17 -130 -17 -136 1 -9 23 63 107 86
100 10 -3 36 2 59 11 23 9 51 14 63 11 13 -3 38 -3 56 1 54 11 185 7 210 -6z
m420 -4 c-4 -30 -48 -39 -48 -10 0 10 3 22 7 25 3 4 15 7 25 7 14 0 19 -6 16
-22z m135 16 c10 -10 -12 -44 -27 -44 -8 0 -16 6 -19 14 -9 23 28 48 46 30z
m1207 -4 c0 -5 -4 -10 -9 -10 -6 0 -13 5 -16 10 -3 6 1 10 9 10 9 0 16 -4 16
-10z m-2210 -28 c0 -13 -23 -32 -37 -32 -11 0 -11 5 -3 20 10 19 40 28 40 12z
m730 -11 c0 -13 -26 -32 -33 -24 -8 7 11 33 24 33 5 0 9 -4 9 -9z m55 -21 c-5
-8 -11 -8 -17 -2 -6 6 -7 16 -3 22 5 8 11 8 17 2 6 -6 7 -16 3 -22z m1335 -11
c0 -13 -7 -19 -24 -19 -31 0 -43 30 -20 47 21 15 44 1 44 -28z m126 26 c3 -8
-6 -29 -20 -46 -25 -30 -26 -32 -10 -50 26 -29 10 -34 -25 -8 -18 13 -29 29
-26 37 3 7 5 18 5 23 0 5 11 14 25 19 14 5 25 16 25 25 0 19 19 20 26 0z m-68
-13 c3 -9 -2 -13 -14 -10 -9 1 -19 9 -22 16 -3 9 2 13 14 10 9 -1 19 -9 22
-16z m-1448 -73 c-30 -31 -32 -41 -16 -80 5 -11 1 -19 -9 -23 -24 -9 -37 2
-30 25 8 23 -17 26 -35 4 -7 -8 -16 -12 -21 -9 -6 3 -33 -1 -62 -10 -29 -8
-81 -18 -117 -21 -36 -3 -78 -8 -95 -11 -16 -3 -57 -7 -90 -10 -33 -2 -66 -6
-73 -9 -20 -8 -145 16 -161 31 -15 14 -7 34 15 34 8 0 28 10 44 21 26 19 36
21 97 15 37 -4 109 -8 158 -8 85 0 116 6 246 47 26 8 67 15 91 15 33 0 50 6
64 21 10 11 20 16 22 10 2 -6 -11 -25 -28 -42z m528 15 c-5 -28 -28 -29 -28
-1 0 13 3 27 7 30 10 11 25 -9 21 -29z m-818 -4 c0 -5 -4 -10 -10 -10 -5 0
-10 5 -10 10 0 6 5 10 10 10 6 0 10 -4 10 -10z m396 -25 c8 -20 -13 -45 -32
-38 -17 6 -19 39 -1 46 21 9 27 7 33 -8z m154 -18 c0 -19 -10 -27 -26 -20 -21
8 -17 33 6 33 11 0 20 -6 20 -13z m280 -7 c0 -5 -7 -10 -16 -10 -8 0 -12 5 -9
10 3 6 10 10 16 10 5 0 9 -4 9 -10z m108 -24 c3 -12 -1 -17 -10 -14 -7 3 -15
13 -16 22 -3 12 1 17 10 14 7 -3 15 -13 16 -22z m262 20 c0 -3 -4 -8 -10 -11
-5 -3 -10 -1 -10 4 0 6 5 11 10 11 6 0 10 -2 10 -4z m265 -63 c-9 -17 -22 -37
-31 -44 -14 -11 -15 -8 -9 27 7 40 33 70 47 56 5 -5 1 -22 -7 -39z m-1055 22
c18 -22 -2 -65 -31 -65 -13 0 -19 -5 -16 -12 22 -59 22 -58 -25 -62 -9 -1 -12
10 -10 30 2 19 -3 36 -12 44 -9 7 -16 19 -16 26 0 19 30 18 52 -3 17 -15 18
-15 18 14 0 44 17 56 40 28z m923 0 c7 -16 -8 -29 -23 -20 -15 9 -12 35 4 35
8 0 16 -7 19 -15z m-776 -27 c-3 -7 -5 -2 -5 12 0 14 2 19 5 13 2 -7 2 -19 0
-25z m610 13 c7 -10 9 -22 6 -25 -7 -7 -43 23 -43 36 0 15 25 8 37 -11z m123
9 c0 -5 -7 -10 -16 -10 -8 0 -12 5 -9 10 3 6 10 10 16 10 5 0 9 -4 9 -10z
m258 -35 c2 -11 10 -27 17 -35 20 -24 27 -83 12 -105 -18 -23 -36 -12 -36 23
0 44 -13 102 -22 102 -5 0 -9 9 -9 21 0 27 33 22 38 -6z m-1362 -9 c19 -14 19
-15 -1 -21 -38 -12 -50 -22 -55 -46 -4 -17 -13 -24 -30 -24 -36 0 -34 16 9 63
43 46 48 48 77 28z m714 -16 c13 -23 48 -27 56 -5 7 16 34 21 34 6 0 -5 12
-11 27 -13 38 -4 43 -35 7 -44 -19 -5 -30 -2 -39 10 -18 24 -29 20 -42 -14
-14 -37 -53 -43 -53 -8 0 12 -7 29 -16 39 -17 18 -13 49 5 49 6 0 15 -9 21
-20z m-360 4 c0 -5 -19 -45 -25 -52 -1 -1 -10 0 -19 4 -23 9 -20 29 7 42 26
12 37 14 37 6z m606 -21 c-10 -10 -19 5 -10 18 6 11 8 11 12 0 2 -7 1 -15 -2
-18z m-881 6 c10 -15 -1 -23 -20 -15 -9 3 -13 10 -10 16 8 13 22 13 30 -1z
m535 -10 c0 -24 -23 -21 -28 4 -2 10 3 17 12 17 10 0 16 -9 16 -21z m980 -5
c0 -9 -8 -23 -17 -29 -17 -13 -17 -14 0 -32 9 -11 17 -29 17 -41 0 -11 4 -23
9 -26 15 -10 51 -95 51 -121 0 -18 -5 -25 -20 -25 -11 0 -20 6 -20 14 0 7 -7
27 -15 42 -8 16 -15 36 -15 45 0 9 -12 38 -26 64 -25 48 -25 49 -8 87 17 38
44 52 44 22z m-2004 -41 c-7 -17 -8 -17 -17 0 -12 21 -2 44 13 29 6 -6 8 -19
4 -29z m128 20 c4 -9 3 -20 -2 -25 -11 -11 -36 17 -27 32 9 15 22 12 29 -7z
m1286 8 c0 -5 9 -13 20 -16 11 -3 23 -18 26 -33 17 -71 62 -110 92 -80 16 16
37 -4 28 -27 -5 -13 -13 -15 -37 -10 -27 6 -35 3 -54 -21 l-22 -28 -15 25 c-9
13 -19 50 -23 81 -5 44 -12 62 -31 77 -29 23 -31 41 -4 41 11 0 20 -4 20 -9z
m-934 -26 c4 -8 14 -15 24 -15 22 0 35 -16 20 -25 -12 -8 -80 21 -80 34 0 23
28 28 36 6z m1148 9 c33 -13 11 -44 -30 -44 -8 0 -14 10 -14 25 0 25 13 31 44
19z m463 -59 c8 -22 25 -67 37 -101 12 -34 31 -72 42 -86 11 -14 29 -51 39
-83 11 -31 28 -61 37 -66 10 -5 18 -18 18 -28 0 -10 10 -26 21 -37 20 -18 79
-131 79 -152 0 -5 7 -16 17 -23 9 -8 22 -29 30 -46 7 -18 17 -33 22 -33 4 0
14 -18 21 -40 15 -44 3 -90 -24 -90 -15 0 -26 -21 -26 -51 0 -33 -30 -21 -46
19 -38 87 -119 240 -149 277 -18 22 -50 75 -73 119 -23 43 -45 83 -50 90 -16
21 -35 94 -29 110 12 31 36 17 47 -26 7 -24 24 -63 40 -88 15 -25 40 -70 56
-100 40 -80 70 -134 128 -234 49 -86 76 -115 76 -82 0 19 -63 141 -112 218
-20 31 -42 74 -47 96 -6 22 -18 45 -26 52 -8 7 -15 18 -15 25 0 7 -6 18 -13
24 -8 6 -24 32 -36 58 -13 27 -36 74 -52 107 -22 45 -26 63 -18 78 8 15 4 26
-20 54 -33 36 -47 76 -36 94 12 19 45 -11 62 -55z m-1867 45 c0 -5 -4 -10 -10
-10 -5 0 -10 5 -10 10 0 6 5 10 10 10 6 0 10 -4 10 -10z m-150 -25 c0 -31 -14
-37 -60 -26 -23 6 -27 9 -13 10 12 1 24 10 28 21 10 30 45 26 45 -5z m878 -4
c4 -25 -35 -155 -55 -186 -7 -11 -13 -26 -13 -34 0 -8 -8 -23 -17 -33 -12 -14
-14 -21 -5 -30 22 -22 43 14 120 207 20 50 31 65 47 65 23 0 26 -32 5 -75 -11
-23 -20 -51 -20 -63 0 -22 -2 -28 -33 -90 -9 -19 -17 -41 -17 -49 0 -9 -11
-30 -24 -47 -13 -17 -26 -42 -31 -54 -6 -20 -4 -23 11 -20 17 3 65 88 90 158
6 19 21 40 33 45 16 7 20 16 16 33 -3 12 2 39 11 58 9 19 14 37 11 41 -4 3 -2
14 4 24 7 14 17 17 33 13 17 -4 30 1 45 17 17 19 25 21 39 13 9 -6 18 -19 20
-28 3 -14 -1 -15 -24 -6 -15 6 -28 9 -29 8 -9 -11 -27 -54 -46 -108 -18 -53
-20 -67 -9 -84 7 -11 9 -21 4 -23 -28 -10 -36 -24 -36 -62 1 -57 -63 -183
-130 -257 -87 -96 -90 -102 -41 -74 54 30 147 135 172 193 24 55 41 68 41 31
0 -25 -35 -95 -52 -102 -14 -6 -9 -30 7 -36 13 -5 15 -19 9 -93 -4 -49 -8
-101 -8 -117 -1 -28 -11 -38 -48 -50 -21 -6 -24 -46 -5 -46 7 0 23 11 35 25
25 29 48 34 37 8 -4 -10 -10 -26 -12 -35 -3 -10 -10 -18 -15 -18 -5 0 -8 -5
-6 -11 4 -13 88 -23 88 -11 0 4 -6 17 -14 28 -11 16 -15 65 -18 204 -3 163 -1
184 14 194 26 16 33 0 15 -36 -13 -27 -14 -35 -3 -48 7 -8 19 -37 25 -65 7
-27 17 -59 21 -70 20 -48 36 -210 24 -247 -6 -20 -58 -26 -69 -8 -10 16 -23
12 -36 -11 -9 -17 -8 -23 2 -30 17 -11 176 -4 192 9 21 16 63 19 75 5 7 -7 25
-13 40 -13 16 0 32 -4 38 -9 15 -15 140 -32 183 -25 53 9 67 25 41 49 -11 10
-20 24 -20 30 0 7 -6 18 -14 24 -8 7 -27 38 -42 69 -15 31 -38 73 -51 92 -13
19 -23 45 -23 57 0 12 -4 25 -10 28 -5 3 -10 14 -10 24 0 10 -11 28 -25 41
-21 19 -25 32 -23 69 4 59 28 62 46 6 7 -22 19 -46 27 -55 12 -14 47 -75 83
-145 14 -27 79 -123 92 -135 30 -29 32 -40 9 -76 -20 -33 -21 -37 -6 -46 30
-16 19 -42 -23 -61 -33 -14 -63 -16 -163 -13 -68 2 -133 9 -145 15 -29 15 -52
14 -74 -6 -15 -13 -23 -14 -43 -5 -21 10 -30 7 -65 -15 -24 -16 -43 -38 -47
-52 -3 -15 -10 -32 -16 -39 -5 -6 -7 -25 -4 -42 4 -16 2 -32 -4 -36 -15 -9
-30 16 -23 38 2 9 0 19 -6 23 -5 3 -10 17 -10 31 0 27 -21 32 -40 9 -11 -13
-40 -21 -40 -11 0 2 -3 11 -6 20 -4 10 -1 16 9 16 18 0 64 36 56 44 -3 3 -32
8 -65 12 -52 6 -63 11 -96 46 -40 42 -46 58 -25 58 6 0 28 3 48 6 32 5 38 3
44 -15 5 -16 15 -21 40 -21 19 0 37 -4 40 -10 10 -15 35 -12 35 5 0 8 -4 15
-9 15 -20 0 -69 51 -74 79 -4 17 -14 30 -26 34 -22 5 -29 41 -11 52 21 13 10
27 -16 21 -40 -10 -64 2 -64 31 0 22 -3 24 -24 19 -31 -8 -39 5 -26 38 5 14 5
28 1 31 -14 8 -75 10 -98 2 -17 -6 -29 0 -56 26 -26 27 -40 34 -60 30 -19 -4
-29 0 -33 11 -4 10 -18 16 -35 16 -18 0 -32 7 -39 21 -10 17 -17 19 -54 14
-34 -6 -44 -4 -49 9 -4 10 -18 16 -36 16 -41 0 -49 19 -20 44 30 25 89 100 89
113 0 14 41 96 57 115 12 13 12 21 3 38 -10 19 -8 26 19 54 31 32 42 78 21 91
-15 9 -2 25 15 18 10 -3 15 1 15 14 0 11 11 29 25 41 28 25 75 30 75 8 0 -9
-7 -12 -20 -9 -16 4 -23 -2 -35 -31 -8 -19 -15 -51 -15 -70 0 -78 -67 -264
-107 -297 -14 -12 -18 -49 -5 -49 17 0 86 102 121 181 42 92 50 121 58 192 4
38 9 47 22 45 14 -3 16 -17 14 -98 -1 -52 -6 -103 -12 -114 -5 -12 -12 -33
-15 -48 -4 -15 -19 -42 -34 -60 -81 -96 -132 -167 -122 -173 17 -11 206 193
235 253 14 29 25 57 25 63 0 6 18 29 40 50 25 24 40 48 40 63 0 13 6 26 14 29
7 3 17 23 21 44 4 21 9 41 12 46 9 14 28 1 31 -22z m392 14 c0 -8 -7 -15 -15
-15 -16 0 -20 12 -8 23 11 12 23 8 23 -8z m-942 -6 c-2 -6 -8 -10 -13 -10 -5
0 -11 4 -13 10 -2 6 4 11 13 11 9 0 15 -5 13 -11z m1328 -58 c3 -20 14 -48 25
-63 23 -33 24 -61 3 -79 -14 -11 -19 -10 -34 11 -19 25 -46 163 -35 180 11 18
34 -9 41 -49z m-931 39 c3 -5 -1 -10 -10 -10 -9 0 -13 5 -10 10 3 6 8 10 10
10 2 0 7 -4 10 -10z m1125 0 c0 -5 -4 -10 -10 -10 -5 0 -10 5 -10 10 0 6 5 10
10 10 6 0 10 -4 10 -10z m-1790 -20 c0 -27 -35 -91 -61 -111 -38 -29 -111
-136 -107 -156 2 -12 8 -11 30 6 32 26 146 175 159 208 5 13 15 23 24 23 17 0
20 -21 6 -48 -5 -9 -15 -29 -22 -45 -7 -15 -31 -49 -53 -76 -23 -27 -52 -63
-66 -81 -14 -17 -35 -36 -47 -41 -13 -5 -23 -15 -23 -23 0 -27 19 -27 36 -1 9
14 22 25 30 25 7 0 35 27 61 59 26 32 58 64 70 70 12 5 25 23 29 38 15 68 37
113 55 113 20 0 26 -24 9 -35 -5 -3 -10 -14 -10 -24 0 -63 -92 -188 -195 -267
-36 -27 -46 -54 -20 -54 18 0 154 116 162 139 4 9 21 37 40 62 18 26 33 50 33
55 0 4 17 32 37 62 59 84 108 99 65 19 -12 -23 -22 -50 -22 -59 0 -9 -11 -30
-25 -46 -14 -17 -25 -37 -25 -46 0 -20 -111 -166 -126 -166 -7 0 -34 -24 -61
-54 -37 -40 -54 -52 -64 -45 -8 5 -24 9 -36 9 -13 0 -37 9 -55 20 -18 11 -41
20 -50 20 -9 0 -24 10 -32 22 -14 20 -18 20 -53 9 -21 -7 -44 -15 -50 -17 -31
-13 -9 28 27 52 22 14 42 34 45 44 3 9 19 29 35 44 19 16 30 36 30 52 0 34 77
143 106 150 22 6 84 74 84 93 0 6 7 11 15 11 8 0 15 -4 15 -10z m350 -16 c0
-20 -30 -30 -40 -13 -11 17 7 40 26 32 8 -3 14 -12 14 -19z m906 -28 c-3 -11
4 -45 14 -76 10 -31 17 -66 14 -77 -3 -11 -1 -24 5 -27 19 -12 12 -56 -14 -80
-17 -16 -25 -34 -25 -56 0 -27 -3 -32 -19 -27 -20 5 -31 -10 -31 -39 0 -16 36
-19 45 -4 3 6 15 10 26 10 10 0 19 7 19 15 0 8 9 15 20 15 11 0 20 -7 20 -15
0 -8 -9 -15 -20 -15 -10 0 -24 -9 -30 -20 -6 -11 -18 -20 -26 -20 -8 0 -27
-13 -41 -30 -28 -34 -58 -39 -72 -12 -10 18 -22 143 -25 258 -1 49 -7 80 -20
99 -13 20 -15 30 -7 38 6 6 11 19 11 28 0 9 8 27 18 39 16 20 21 21 40 9 20
-12 25 -11 49 14 26 26 29 26 41 10 7 -10 11 -27 8 -37z m276 -17 c15 -80 20
-95 37 -114 10 -11 27 -38 36 -60 10 -22 34 -62 53 -89 34 -46 35 -49 19 -75
-8 -14 -23 -30 -32 -36 -21 -13 -30 2 -71 123 -18 52 -40 102 -49 112 -21 23
-32 184 -13 178 7 -3 16 -20 20 -39z m-1681 6 c0 -5 -9 -11 -21 -13 -20 -3
-27 8 -13 22 10 9 34 3 34 -9z m1891 -22 c22 -20 24 -63 3 -63 -8 0 -15 7 -15
16 0 9 -9 18 -20 21 -20 5 -26 23 -13 36 11 11 25 8 45 -10z m-302 -65 c24
-50 25 -68 5 -68 -10 0 -15 10 -15 27 0 14 -7 34 -16 44 -9 10 -13 23 -9 28
10 17 13 14 35 -31z m446 -74 c0 -35 33 -120 70 -184 8 -14 24 -44 35 -66 11
-23 36 -60 55 -82 19 -22 48 -69 64 -104 17 -34 37 -74 44 -88 33 -58 74 -155
70 -162 -3 -4 -14 -8 -25 -8 -16 0 -19 4 -14 21 5 14 -1 28 -20 47 -15 15 -36
45 -46 67 -11 22 -32 63 -48 90 -16 28 -42 75 -58 105 -15 30 -40 71 -56 90
-16 19 -42 66 -58 105 -17 38 -36 77 -43 85 -6 8 -13 37 -14 64 -2 26 -10 59
-19 72 -8 13 -12 31 -9 40 5 12 12 9 39 -19 25 -27 33 -44 33 -73z m-496 5 c0
-7 -12 -23 -26 -36 -34 -32 -52 -16 -24 20 22 27 50 36 50 16z m378 -52 c4
-20 -25 -34 -40 -19 -15 15 -1 44 19 40 10 -2 19 -11 21 -21z m-258 -47 c4
-20 10 -42 15 -50 16 -27 70 -95 84 -106 8 -6 11 -17 9 -25 -3 -8 3 -23 12
-34 10 -11 34 -51 54 -88 35 -66 35 -69 21 -104 -15 -35 -16 -35 -35 -18 -19
17 -104 177 -130 245 -8 19 -24 49 -37 66 -13 17 -23 40 -23 52 0 11 -5 33
-10 48 -13 34 -6 57 17 52 11 -2 20 -16 23 -38z m-1860 12 c0 -4 -11 -20 -26
-35 -14 -15 -23 -31 -20 -36 3 -4 -6 -19 -19 -31 -14 -13 -25 -29 -25 -37 0
-7 -4 -13 -10 -13 -14 0 -13 15 4 55 8 19 20 35 26 35 7 0 10 6 7 13 -5 15 31
57 50 57 7 0 13 -3 13 -8z m2199 -54 c7 -18 31 -71 52 -116 22 -46 39 -89 39
-95 0 -6 11 -27 24 -46 25 -37 93 -142 111 -170 6 -9 22 -32 36 -51 15 -19 30
-49 33 -66 8 -36 -7 -44 -59 -34 -22 4 -31 11 -33 29 -2 14 -14 39 -27 55 -23
31 -56 100 -70 146 -4 14 -18 38 -31 53 -29 35 -64 112 -64 143 0 12 -4 26
-10 29 -5 3 -10 17 -10 31 0 14 -4 33 -9 42 -16 32 -21 82 -8 82 7 0 18 -15
26 -32z m-94 2 c8 -13 -14 -42 -26 -34 -5 3 -9 14 -9 25 0 20 24 26 35 9z
m-681 -32 c3 -13 10 -47 15 -76 6 -28 22 -70 36 -92 14 -22 25 -49 25 -59 0
-11 9 -25 20 -31 11 -6 18 -16 14 -21 -3 -6 2 -41 11 -78 16 -61 16 -70 2
-102 -8 -18 -17 -42 -21 -51 -3 -10 -12 -18 -20 -18 -15 0 -29 27 -21 41 3 5
-3 38 -14 74 -19 62 -20 68 -4 91 15 23 15 26 -6 48 -27 28 -40 75 -50 172 -4
38 -11 76 -15 83 -9 14 -1 41 13 41 6 0 13 -10 15 -22z m379 -19 c21 -37 22
-69 3 -69 -20 0 -46 28 -46 49 0 9 -6 23 -12 29 -10 10 -10 15 1 21 20 13 33
5 54 -30z m280 -37 c11 -12 13 -22 6 -32 -8 -13 -13 -11 -29 9 -11 13 -20 27
-20 32 0 15 26 10 43 -9z m-2028 -31 c7 -12 -12 -24 -25 -16 -11 7 -4 25 10
25 5 0 11 -4 15 -9z m353 -2 c-2 -6 -8 -10 -13 -10 -5 0 -11 4 -13 10 -2 6 4
11 13 11 9 0 15 -5 13 -11z m1440 -32 c6 -6 20 -37 32 -67 29 -73 101 -181
142 -213 l32 -26 -24 -25 c-13 -15 -29 -26 -35 -26 -17 0 -104 130 -144 215
-18 39 -40 83 -49 99 -14 27 -14 30 3 43 23 16 30 16 43 0z m-201 -23 c-9 -9
-28 6 -21 18 4 6 10 6 17 -1 6 -6 8 -13 4 -17z m-1629 -6 c23 -22 30 -23 232
-23 l207 0 44 -38 c138 -121 209 -150 403 -164 70 -5 112 -23 171 -75 28 -25
31 -43 11 -64 -21 -21 -42 -17 -60 11 -9 14 -21 25 -27 25 -6 0 -22 9 -36 20
-16 12 -34 18 -45 14 -10 -3 -24 -1 -31 4 -7 5 -39 8 -72 7 -67 -3 -150 19
-159 41 -3 8 -18 14 -34 14 -16 0 -41 9 -55 20 -14 11 -29 20 -35 20 -5 0 -31
17 -58 38 -66 51 -88 60 -166 66 -51 4 -69 2 -78 -9 -7 -8 -18 -15 -26 -15 -7
0 -18 -8 -24 -17 -10 -17 -10 -17 -20 0 -8 12 -24 17 -52 17 -28 0 -51 8 -74
25 -18 14 -46 25 -63 25 -30 0 -71 29 -71 50 0 13 37 29 69 29 14 1 35 -9 49
-21z m2092 2 c0 -5 -9 -10 -20 -10 -11 0 -20 5 -20 10 0 6 9 10 20 10 11 0 20
-4 20 -10z m-483 -55 c5 -15 -22 -55 -38 -55 -4 0 -11 9 -14 20 -12 37 38 70
52 35z m-943 -30 c8 -42 -5 -73 -14 -35 -4 19 -14 26 -40 30 -42 6 -51 27 -13
33 59 9 61 8 67 -28z m71 5 c0 -22 -29 -18 -33 3 -3 14 1 18 15 15 10 -2 18
-10 18 -18z m1465 -21 c43 -59 137 -264 138 -297 1 -32 -1 -33 -26 -27 -64 15
-80 43 -73 119 1 11 -7 29 -17 40 -10 12 -19 31 -20 43 -1 34 -40 110 -59 118
-17 6 -17 7 1 21 27 19 32 18 56 -17z m-494 -92 c27 -45 56 -94 64 -109 7 -16
17 -28 21 -28 5 0 8 -20 7 -45 -2 -48 -20 -64 -46 -43 -8 7 -31 13 -51 13 -33
0 -36 2 -39 33 -4 36 7 42 26 12 13 -22 32 -27 32 -9 0 6 -10 25 -22 42 -13
18 -21 40 -20 49 2 10 -4 25 -12 34 -9 8 -16 26 -16 39 0 13 -10 33 -22 44
-17 17 -19 23 -8 36 7 8 18 15 24 15 6 0 34 -37 62 -83z m-916 43 c0 -5 -4
-10 -10 -10 -5 0 -10 5 -10 10 0 6 5 10 10 10 6 0 10 -4 10 -10z m-940 -61 c0
-11 -4 -18 -10 -14 -5 3 -7 12 -3 20 7 21 13 19 13 -6z m325 2 c7 -12 -12 -24
-25 -16 -11 7 -4 25 10 25 5 0 11 -4 15 -9z m1947 -16 c0 -5 -5 -11 -11 -13
-6 -2 -11 4 -11 13 0 9 5 15 11 13 6 -2 11 -8 11 -13z m-1776 -75 c2 -19 -2
-46 -7 -60 -27 -62 -45 -97 -61 -119 -10 -13 -18 -30 -18 -37 0 -7 -18 -39
-41 -72 -46 -67 -57 -124 -62 -317 -1 -67 -6 -110 -13 -112 -6 -2 -20 30 -31
74 -17 61 -19 90 -13 133 4 30 6 85 4 121 -3 49 0 70 11 79 7 6 17 26 21 43 3
18 11 41 17 52 6 11 16 34 22 50 17 48 85 132 122 152 24 13 33 23 29 36 -2
10 0 17 6 15 6 -2 12 -19 14 -38z m174 21 c0 -20 -17 -31 -38 -23 -10 3 -9 8
4 23 22 24 34 24 34 0z m1095 9 c3 -5 -3 -10 -14 -10 -12 0 -21 5 -21 10 0 6
6 10 14 10 8 0 18 -4 21 -10z m-1438 -27 c2 -6 -4 -18 -13 -27 -15 -16 -18
-16 -35 0 -11 9 -19 25 -19 34 0 14 6 16 32 11 17 -4 33 -12 35 -18z m-277 -9
c0 -8 -4 -14 -10 -14 -5 0 -10 9 -10 21 0 11 5 17 10 14 6 -3 10 -13 10 -21z
m710 6 c0 -5 -4 -10 -9 -10 -6 0 -13 5 -16 10 -3 6 1 10 9 10 9 0 16 -4 16
-10z m-510 -40 c0 -11 5 -29 12 -39 14 -22 4 -51 -17 -51 -9 0 -15 9 -15 22 0
12 -7 29 -16 39 -20 22 -12 49 16 49 13 0 20 -7 20 -20z m-446 -7 c4 -9 3 -20
-2 -25 -11 -11 -36 17 -27 32 9 15 22 12 29 -7z m757 -6 c-13 -13 -26 -3 -16
12 3 6 11 8 17 5 6 -4 6 -10 -1 -17z m2244 2 c5 -6 5 -13 -3 -21 -9 -9 -16 -7
-32 7 -11 10 -20 22 -20 27 0 10 40 1 55 -13z m-2105 -21 c0 -29 -17 -41 -39
-29 -24 13 -27 27 -8 34 23 10 47 7 47 -5z m1570 -22 c0 -13 -51 -66 -64 -66
-12 0 -46 30 -46 41 0 4 10 9 23 11 12 2 23 10 23 18 1 8 2 18 3 22 2 10 61
-15 61 -26z m-2190 4 c0 -21 -24 -28 -35 -10 -8 14 3 30 21 30 8 0 14 -9 14
-20z m2260 5 c0 -8 -9 -15 -20 -15 -22 0 -27 15 -7 23 21 9 27 7 27 -8z
m-1340 -47 c0 -14 -6 -19 -22 -16 -26 3 -37 36 -17 49 17 10 39 -8 39 -33z
m-966 6 c9 -3 16 -15 16 -25 0 -17 -3 -18 -20 -7 -11 7 -20 18 -20 25 0 15 2
15 24 7z m2626 -23 c0 -17 -26 -30 -48 -24 -22 5 -27 14 -15 26 10 10 63 8 63
-2z m-265 -60 c11 -9 13 -17 7 -23 -12 -12 -52 -1 -52 14 0 6 -7 19 -16 29
-25 27 -7 41 20 16 13 -12 32 -28 41 -36z m-1485 39 c0 -5 -6 -10 -14 -10 -8
0 -16 -10 -18 -22 -2 -13 -11 -24 -20 -26 -26 -5 -23 32 5 51 25 18 47 21 47
7z m309 -13 c13 -16 5 -27 -21 -27 -18 0 -25 20 -11 33 10 10 19 8 32 -6z
m-1264 -17 c17 -19 17 -20 0 -26 -19 -8 -49 22 -39 37 8 14 19 11 39 -11z
m2613 8 c-3 -7 -13 -13 -23 -13 -10 0 -20 6 -22 13 -3 7 5 12 22 12 17 0 25
-5 23 -12z m-1544 -59 c-13 -14 -20 -16 -31 -8 -16 14 -17 41 0 58 10 10 16 8
30 -10 16 -20 16 -23 1 -40z m1076 42 c0 -12 -20 -25 -27 -18 -7 7 6 27 18 27
5 0 9 -4 9 -9z m-934 -26 c-3 -9 -11 -13 -16 -10 -8 5 -7 11 1 21 14 18 24 11
15 -11z m-372 -18 c-3 -9 -10 -17 -15 -17 -11 0 -12 34 -2 44 11 11 24 -9 17
-27z m446 7 c0 -17 -6 -28 -19 -31 -11 -3 -21 -13 -24 -24 -3 -10 -10 -19 -16
-19 -16 0 -13 26 4 40 8 7 13 16 10 20 -9 15 7 40 26 40 14 0 19 -7 19 -26z
m656 -2 c-9 -9 -37 8 -31 18 5 8 11 7 21 -1 8 -6 12 -14 10 -17z m-1876 8 c0
-5 -4 -10 -9 -10 -6 0 -13 5 -16 10 -3 6 1 10 9 10 9 0 16 -4 16 -10z m-170
-25 c0 -8 -7 -15 -15 -15 -8 0 -15 7 -15 15 0 8 7 15 15 15 8 0 15 -7 15 -15z
m1097 -14 c10 -16 8 -22 -8 -37 -18 -17 -19 -16 -19 19 0 41 9 47 27 18z m821
13 c12 -4 22 -13 22 -20 0 -16 -26 -19 -35 -3 -4 6 -13 8 -21 5 -8 -3 -11 0
-7 10 6 16 9 16 41 8z m-658 -14 c0 -5 -5 -10 -11 -10 -5 0 -7 5 -4 10 3 6 8
10 11 10 2 0 4 -4 4 -10z m-1130 -10 c0 -5 -4 -10 -10 -10 -5 0 -10 5 -10 10
0 6 5 10 10 10 6 0 10 -4 10 -10z m837 -24 c-4 -9 -16 -16 -27 -16 -24 0 -25
8 -3 32 19 21 40 9 30 -16z m453 24 c0 -5 -4 -10 -10 -10 -5 0 -10 5 -10 10 0
6 5 10 10 10 6 0 10 -4 10 -10z m275 -17 c-11 -7 -22 -13 -27 -13 -14 0 -8 19
9 29 25 13 40 1 18 -16z m305 14 c0 -14 -20 -37 -32 -37 -10 0 -11 34 -1 43
11 12 33 8 33 -6z m-500 -47 c0 -12 -29 -20 -35 -10 -9 15 4 30 20 23 8 -3 15
-9 15 -13z m63 14 c8 -8 -3 -34 -14 -34 -5 0 -9 9 -9 20 0 19 11 26 23 14z
m-1603 -20 c0 -9 -7 -14 -17 -12 -25 5 -28 28 -4 28 12 0 21 -6 21 -16z m1840
1 c0 -8 -5 -24 -12 -35 -10 -15 -9 -23 7 -40 10 -11 15 -23 11 -28 -4 -4 -14
1 -21 12 -17 23 -35 13 -35 -20 0 -13 -4 -24 -9 -24 -5 0 -34 -24 -63 -54 -35
-35 -66 -56 -89 -61 -19 -4 -38 -11 -44 -15 -5 -4 -25 -12 -42 -18 -29 -10
-33 -9 -33 6 1 18 25 37 128 102 64 41 124 112 127 151 2 24 21 39 53 39 13 0
22 -6 22 -15z m260 -16 c0 -5 -11 -9 -25 -9 -24 0 -32 10 -19 22 8 8 44 -3 44
-13z m-1114 -45 c-8 -31 -23 -22 -26 16 -3 41 -1 45 16 28 12 -11 15 -25 10
-44z m1014 31 c0 -14 5 -25 10 -25 6 0 10 -9 10 -20 0 -11 -4 -20 -10 -20 -12
0 -42 69 -34 81 10 18 24 9 24 -16z m-810 -9 c0 -2 -3 -11 -6 -20 -9 -23 -34
-20 -34 4 0 13 7 20 20 20 11 0 20 -2 20 -4z m167 -40 c17 5 25 0 34 -19 10
-23 8 -29 -19 -56 -37 -37 -42 -38 -42 -6 0 20 -5 25 -25 25 -14 0 -28 7 -32
16 -4 11 -13 13 -34 9 -24 -6 -29 -3 -29 13 0 23 29 37 44 22 15 -15 23 -12
29 12 l6 22 23 -22 c16 -14 31 -19 45 -16z m121 -13 c2 -8 -6 -13 -22 -13 -25
0 -33 10 -19 24 10 10 36 3 41 -11z m142 2 c0 -9 -9 -15 -25 -15 -24 0 -32 10
-18 23 12 13 43 7 43 -8z m-450 -26 c0 -12 -27 -11 -35 1 -11 17 5 32 21 19 8
-6 14 -15 14 -20z m872 -4 c0 -5 -5 -11 -11 -13 -6 -2 -11 4 -11 13 0 9 5 15
11 13 6 -2 11 -8 11 -13z m-495 -26 c11 -11 6 -49 -7 -49 -15 0 -32 30 -26 45
6 18 18 19 33 4z m273 -28 c0 -31 -23 -57 -40 -46 -16 10 -12 33 10 45 12 7
17 16 13 27 -4 11 -3 14 5 9 7 -4 12 -20 12 -35z m-850 14 c11 -13 10 -21 -1
-42 -14 -26 -35 -40 -46 -29 -3 3 -1 12 6 20 7 8 9 25 5 40 -7 30 15 37 36 11z
m135 -40 c0 -46 -27 -58 -33 -15 -2 14 -8 30 -13 36 -12 15 1 25 26 22 16 -2
20 -10 20 -43z m889 4 c7 -46 4 -54 -17 -46 -20 8 -31 56 -16 73 19 23 26 17
33 -27z m-701 17 c19 -15 22 -32 7 -41 -15 -9 -40 14 -40 36 0 22 8 23 33 5z
m87 -46 c0 -11 -4 -20 -10 -20 -5 0 -10 9 -10 20 0 11 5 20 10 20 6 0 10 -9
10 -20z m70 0 c0 -11 -4 -20 -9 -20 -13 0 -32 26 -24 33 13 14 33 6 33 -13z
m430 -10 c0 -5 -5 -10 -11 -10 -5 0 -7 5 -4 10 3 6 8 10 11 10 2 0 4 -4 4 -10z
m-1016 -46 c4 -9 4 -19 2 -21 -8 -8 -26 8 -26 23 0 19 16 18 24 -2z m427 0
c10 -12 10 -20 1 -35 -7 -10 -12 -28 -12 -39 0 -11 -4 -20 -9 -20 -13 0 -21
27 -21 71 0 42 17 52 41 23z m-943 -16 c-2 -13 -7 -23 -13 -23 -5 0 -11 10
-13 23 -2 15 2 22 13 22 11 0 15 -7 13 -22z m1099 6 c8 -21 -13 -42 -28 -27
-13 13 -5 43 11 43 6 0 13 -7 17 -16z m-492 -12 c0 -18 -20 -15 -23 4 -3 10 1
15 10 12 7 -3 13 -10 13 -16z m723 -16 c2 -10 0 -22 -5 -27 -14 -14 -53 2 -53
21 0 33 52 38 58 6z m-590 -8 c-7 -19 -34 -32 -54 -24 -19 7 -19 8 0 22 24 17
59 19 54 2z m-988 -36 c0 -15 5 -33 12 -40 18 -18 -13 -16 -37 2 -17 12 -18
18 -7 40 15 34 32 33 32 -2z m292 -10 c25 -56 32 -92 18 -92 -7 0 -10 7 -7 14
4 9 -2 17 -14 21 -10 4 -19 15 -19 25 0 10 -4 22 -10 25 -14 9 -12 45 3 45 6
0 20 -17 29 -38z m763 28 c-3 -5 -10 -10 -16 -10 -5 0 -9 5 -9 10 0 6 7 10 16
10 8 0 12 -4 9 -10z m616 -64 c0 -30 5 -58 10 -61 16 -11 10 -25 -12 -25 -11
0 -29 -5 -40 -10 -13 -8 -19 -7 -19 0 0 6 11 16 25 22 14 6 25 14 25 18 0 4
-11 12 -25 18 -28 13 -33 37 -10 46 8 3 15 16 15 29 0 13 3 27 7 31 14 14 24
-14 24 -68z m-1621 49 c0 -8 -7 -15 -15 -15 -8 0 -15 7 -15 15 0 8 7 15 15 15
8 0 15 -7 15 -15z m1090 6 c0 -20 -13 -41 -25 -41 -21 0 -28 19 -15 35 14 17
40 20 40 6z m140 -7 c0 -8 -4 -12 -10 -9 -5 3 -10 10 -10 16 0 5 5 9 10 9 6 0
10 -7 10 -16z m-1065 -4 c3 -5 -1 -10 -9 -10 -9 0 -16 5 -16 10 0 6 4 10 9 10
6 0 13 -4 16 -10z m645 -56 c0 -16 -16 -19 -25 -4 -8 13 4 32 16 25 5 -4 9
-13 9 -21z m380 1 c0 -16 -27 -32 -37 -22 -3 4 -3 13 0 22 8 20 37 20 37 0z
m-310 -10 c0 -26 -65 -98 -83 -92 -24 8 -19 36 7 43 15 3 26 13 26 23 0 20 19
41 37 41 7 0 13 -7 13 -15z m70 -1 c0 -8 -4 -12 -10 -9 -5 3 -10 10 -10 16 0
5 5 9 10 9 6 0 10 -7 10 -16z m190 -50 c0 -6 -11 -21 -24 -33 -26 -24 -42 -15
-31 18 3 11 1 22 -5 26 -14 9 -13 42 3 48 13 5 56 -40 57 -59z m-987 39 c25
-29 17 -102 -15 -126 -31 -23 -58 -14 -35 11 19 21 23 48 13 84 -13 45 8 62
37 31z m881 8 c3 -5 -1 -14 -8 -20 -16 -13 -32 2 -21 19 8 12 22 13 29 1z
m281 -21 c3 -5 -1 -10 -9 -10 -9 0 -16 5 -16 10 0 6 4 10 9 10 6 0 13 -4 16
-10z m-101 -25 c-4 -8 -12 -15 -20 -15 -8 0 -11 6 -8 15 4 8 12 15 20 15 8 0
11 -6 8 -15z m280 5 c21 -8 24 -13 17 -32 -11 -30 -28 -34 -36 -9 -7 22 -29
28 -40 11 -3 -5 -15 -15 -26 -20 -16 -9 -19 -7 -19 9 0 43 48 63 104 41z
m-572 -42 c-15 -15 -26 -4 -18 18 5 13 9 15 18 6 9 -9 9 -15 0 -24z m103 12
c3 -5 1 -10 -4 -10 -6 0 -11 5 -11 10 0 6 2 10 4 10 3 0 8 -4 11 -10z m-45
-30 c0 -11 7 -20 15 -20 8 0 15 -9 15 -19 0 -11 5 -23 10 -26 15 -9 12 -17
-20 -55 -36 -42 -48 -33 -32 25 7 25 12 52 12 60 0 22 -38 18 -45 -5 -8 -24
-21 -26 -29 -4 -10 26 -7 34 13 34 10 0 24 7 31 15 17 21 30 19 30 -5z m319
-33 c12 -15 12 -17 -3 -11 -9 3 -16 13 -16 22 0 8 1 13 3 11 1 -2 9 -12 16
-22z m125 -18 c-10 -16 -24 -9 -24 12 0 18 2 19 15 9 8 -7 12 -16 9 -21z
m-1354 9 c-1 -21 -26 -48 -44 -48 -21 0 -21 18 1 42 19 21 43 24 43 6z m266
-25 c-11 -11 -19 6 -11 24 8 17 8 17 12 0 3 -10 2 -21 -1 -24z m534 -3 c0 -5
-4 -10 -10 -10 -5 0 -10 5 -10 10 0 6 5 10 10 10 6 0 10 -4 10 -10z m-722 -22
c-6 -18 -28 -21 -28 -4 0 9 7 16 16 16 9 0 14 -5 12 -12z m-59 -15 c-2 -10 7
-34 19 -53 25 -40 27 -61 10 -78 -9 -9 -7 -19 10 -42 l23 -30 -31 0 c-21 0
-30 -5 -30 -16 0 -12 -7 -14 -32 -9 -41 9 -58 22 -58 45 0 10 -7 23 -16 30 -8
8 -14 25 -12 39 2 20 9 26 28 26 21 0 25 5 25 30 0 17 7 40 15 53 18 27 52 30
49 5z m1111 7 c0 -5 -4 -10 -10 -10 -5 0 -10 5 -10 10 0 6 5 10 10 10 6 0 10
-4 10 -10z m-500 -25 c0 -8 -4 -15 -9 -15 -13 0 -22 16 -14 24 11 11 23 6 23
-9z m370 -29 c0 -16 -18 -31 -27 -22 -8 8 5 36 17 36 5 0 10 -6 10 -14z m138
-18 c27 -27 7 -74 -27 -63 -28 9 -31 75 -3 75 10 0 23 -5 30 -12z m-438 -34
c14 -35 12 -54 -3 -54 -11 0 -37 51 -37 73 0 19 32 4 40 -19z m244 1 c18 -27
21 -80 6 -90 -5 -3 -10 -13 -10 -21 0 -12 4 -12 20 -2 26 17 32 8 18 -30 -10
-26 -10 -37 1 -53 11 -18 10 -24 -2 -37 -14 -13 -18 -10 -36 26 -12 23 -21 49
-21 59 0 10 -9 29 -20 43 -11 14 -20 35 -20 47 0 12 -5 25 -12 29 -7 5 -2 15
18 31 36 29 38 29 58 -2z m-158 -32 c4 -15 13 -34 20 -41 11 -10 11 -17 1 -32
-15 -25 -25 -25 -57 0 -23 17 -23 19 -6 26 11 4 21 2 27 -7 5 -8 9 -10 9 -6 0
4 -10 21 -21 36 -22 30 -19 51 6 51 8 0 18 -12 21 -27z m-589 0 c2 -6 -5 -13
-17 -16 -12 -3 -20 0 -20 7 0 26 29 33 37 9z m71 -16 c11 -23 16 -26 33 -16
30 15 49 4 49 -29 0 -30 -21 -58 -34 -45 -4 4 -15 -3 -25 -16 l-17 -23 -31 26
c-25 21 -29 31 -27 63 2 21 3 46 3 56 1 27 33 17 49 -16z m772 13 c0 -11 -7
-20 -15 -20 -8 0 -15 9 -15 20 0 11 7 20 15 20 8 0 15 -9 15 -20z m-495 -28
c0 -18 -20 -15 -23 4 -3 10 1 15 10 12 7 -3 13 -10 13 -16z m155 -50 c0 -19
-50 -82 -66 -82 -12 0 -49 78 -41 86 12 12 37 -5 31 -21 -4 -10 0 -15 10 -15
9 0 21 11 26 25 11 29 40 34 40 7z m-532 -34 c-3 -7 -11 -13 -18 -13 -7 0 -15
6 -17 13 -3 7 4 12 17 12 13 0 20 -5 18 -12z m672 -12 c0 -8 -4 -18 -10 -21
-5 -3 -10 -19 -10 -36 0 -19 -5 -29 -15 -29 -10 0 -15 10 -15 30 0 17 4 30 9
30 5 0 11 9 14 20 6 23 27 27 27 6z m-770 -17 c0 -14 -5 -19 -17 -17 -26 5
-29 38 -4 38 15 0 21 -6 21 -21z m690 1 c0 -5 -2 -10 -4 -10 -3 0 -8 5 -11 10
-3 6 -1 10 4 10 6 0 11 -4 11 -10z m138 -2 c-6 -18 -28 -21 -28 -4 0 9 7 16
16 16 9 0 14 -5 12 -12z m-670 -27 c13 -18 33 -31 49 -33 20 -2 29 -9 31 -25
4 -27 0 -27 -51 -9 -38 13 -86 59 -87 84 0 23 36 12 58 -17z m-102 -2 c10 -17
-13 -36 -27 -22 -12 12 -4 33 11 33 5 0 12 -5 16 -11z m645 -64 c7 -41 -3 -67
-20 -49 -5 5 -11 28 -15 52 -6 38 -4 43 11 40 12 -2 20 -16 24 -43z m-811 14
c0 -5 -4 -9 -10 -9 -5 0 -10 7 -10 16 0 8 5 12 10 9 6 -3 10 -10 10 -16z m910
1 c-12 -22 -40 -27 -40 -7 0 19 10 27 32 27 16 0 17 -3 8 -20z m-820 -4 c0 -8
-4 -18 -10 -21 -5 -3 -10 3 -10 14 0 12 5 21 10 21 6 0 10 -6 10 -14z m898
-38 c12 -48 9 -57 -13 -38 -28 23 -38 50 -24 66 18 22 26 17 37 -28z m-740 5
c2 -7 -8 -18 -22 -24 -33 -15 -33 -23 2 -36 22 -8 24 -11 10 -17 -47 -21 -102
52 -61 81 21 16 65 13 71 -4z m-133 -23 c4 -6 -3 -25 -14 -43 -17 -26 -21 -29
-27 -14 -15 40 21 90 41 57z m975 -14 c0 -16 -18 -31 -27 -22 -8 8 5 36 17 36
5 0 10 -6 10 -14z m-360 -17 c0 -24 -23 -21 -28 4 -2 10 3 17 12 17 10 0 16
-9 16 -21z m190 7 c0 -17 -24 -28 -45 -20 -29 12 -14 34 22 34 13 0 23 -6 23
-14z m-132 -18 c14 -14 16 -38 4 -38 -18 0 -45 28 -38 38 9 15 19 15 34 0z
m-438 -32 c-8 -8 -13 -7 -20 4 -12 20 -1 33 16 19 11 -9 12 -15 4 -23z m620
-11 c0 -8 -9 -20 -20 -27 -25 -16 -25 -29 -1 -68 16 -27 19 -29 25 -13 5 11 1
22 -10 30 -16 12 -16 14 1 33 19 21 35 18 35 -7 0 -8 9 -26 20 -40 29 -37 25
-49 -15 -47 -23 1 -35 -3 -35 -11 0 -22 -33 -28 -47 -8 -7 10 -20 26 -29 35
-10 10 -18 26 -19 35 -2 36 -40 31 -60 -7 -10 -19 -23 -30 -36 -30 -28 0 -21
34 9 38 24 4 29 21 10 40 -8 8 -8 15 0 25 10 11 22 12 63 4 46 -9 51 -8 65 12
17 24 44 28 44 6z m-695 -15 c3 -5 15 -10 26 -10 10 0 19 -4 19 -9 0 -6 -18
-9 -40 -9 -22 0 -40 2 -40 3 0 2 3 10 6 19 7 18 20 21 29 6z m-85 -78 c0 -9
13 -34 29 -55 31 -41 31 -58 0 -97 -18 -23 -20 -24 -33 -7 -7 9 -18 17 -24 17
-11 0 -23 25 -15 34 3 3 19 2 36 -1 23 -5 29 -3 25 8 -2 8 -19 15 -37 17 -30
3 -32 6 -27 30 11 48 28 82 37 76 5 -3 9 -13 9 -22z m160 -25 c0 -14 -19 -37
-31 -37 -10 0 -20 30 -13 41 8 14 44 11 44 -4z m533 -31 c49 -45 60 -76 29
-76 -23 0 -62 36 -62 57 0 9 -7 21 -17 28 -9 7 -13 17 -9 23 10 16 6 18 59
-32z m267 -14 c0 -25 -19 -42 -47 -42 -29 0 -29 16 0 41 28 23 47 24 47 1z m8
-79 c-4 -22 -22 -20 -26 1 -2 10 3 16 13 16 10 0 15 -7 13 -17z m-158 -33 c0
-5 -5 -10 -11 -10 -5 0 -7 5 -4 10 3 6 8 10 11 10 2 0 4 -4 4 -10z m90 -5 c7
-8 19 -15 26 -15 16 0 19 -16 4 -25 -6 -3 -13 1 -16 9 -3 9 -14 16 -24 16 -20
0 -33 13 -23 24 10 10 20 7 33 -9z m-950 -5 c0 -5 -4 -10 -10 -10 -5 0 -10 5
-10 10 0 6 5 10 10 10 6 0 10 -4 10 -10z m70 -50 c0 -13 -7 -20 -18 -20 -10 0
-23 -5 -30 -12 -9 -9 -15 -9 -24 1 -11 10 -8 16 11 32 31 25 61 25 61 -1z
m205 -25 c0 -10 -5 -20 -11 -22 -13 -4 -27 24 -18 38 9 15 29 4 29 -16z m732
-61 c8 -20 -13 -42 -27 -28 -12 12 -3 44 11 44 5 0 12 -7 16 -16z m-1067 -29
c7 -9 10 -18 7 -21 -10 -11 -37 5 -37 21 0 19 14 19 30 0z m129 -11 c33 -41
27 -76 -16 -107 -28 -20 -40 -24 -50 -15 -17 14 -17 35 1 45 24 14 38 51 26
72 -13 26 -13 31 4 31 8 0 24 -12 35 -26z m846 -44 c5 -46 11 -61 26 -65 10
-4 19 -15 19 -26 0 -26 -4 -25 -45 19 -19 20 -42 43 -50 51 -12 12 -11 19 8
52 12 20 25 36 28 33 4 -2 10 -31 14 -64z m-1085 -20 c0 -5 -4 -10 -10 -10 -5
0 -10 5 -10 10 0 6 5 10 10 10 6 0 10 -4 10 -10z m1230 -47 c0 -14 -34 -43
-52 -43 -18 0 -26 29 -11 43 8 9 63 9 63 0z m-1304 -14 c10 -17 -13 -36 -27
-22 -12 12 -4 33 11 33 5 0 12 -5 16 -11z m1144 -15 c0 -8 -5 -24 -10 -34 -13
-23 4 -35 42 -31 19 2 28 -2 28 -12 0 -8 7 -20 15 -27 13 -10 19 -10 35 5 11
10 26 15 36 11 16 -6 16 -8 -2 -25 -27 -26 -69 -34 -84 -16 -7 8 -18 15 -25
15 -7 0 -18 6 -24 14 -7 8 -20 12 -31 9 -16 -4 -18 1 -18 43 0 27 2 52 4 56 9
14 34 8 34 -8z m-1142 -56 c-6 -18 -28 -21 -28 -4 0 9 7 16 16 16 9 0 14 -5
12 -12z m-48 -50 c23 -42 27 -44 45 -32 16 10 29 10 64 1 35 -10 45 -9 48 1 3
6 11 12 19 12 10 0 14 -12 14 -39 0 -22 5 -43 10 -46 15 -9 12 -25 -4 -25 -8
0 -16 7 -20 15 -3 9 -18 15 -35 15 -20 0 -30 6 -34 20 -3 11 -10 20 -16 20 -6
0 -15 -9 -21 -20 -14 -26 -40 -26 -40 -1 0 13 -8 21 -22 23 -14 2 -29 15 -37
33 -8 17 -19 33 -24 36 -14 9 0 42 16 37 6 -3 23 -25 37 -50z m160 37 c-7 -9
-15 -13 -17 -11 -7 7 7 26 19 26 6 0 6 -6 -2 -15z m98 -61 c28 -19 28 -28 -2
-42 -29 -13 -36 -7 -36 30 0 32 7 34 38 12z m1122 -9 c0 -8 -9 -19 -20 -25
-28 -15 -25 -32 10 -52 31 -17 41 -48 16 -48 -16 0 -37 23 -52 59 -9 20 -8 32
3 54 14 29 43 37 43 12z m-400 -7 c0 -6 -10 -23 -22 -36 l-23 -24 23 -15 c25
-17 30 -53 8 -53 -8 0 -18 5 -21 10 -3 6 -19 10 -34 10 -26 0 -28 2 -22 28 8
37 51 91 74 91 9 1 17 -4 17 -11z m210 -38 c0 -17 -49 -62 -59 -55 -17 10 -13
22 15 50 23 24 44 26 44 5z m263 14 c8 -8 -11 -44 -23 -44 -14 0 -41 31 -35
41 7 10 48 12 58 3z m-153 -71 c0 -13 6 -23 14 -23 24 0 27 -16 11 -53 -13
-31 -20 -36 -79 -51 -36 -9 -83 -16 -104 -16 -21 0 -53 -5 -70 -11 -25 -8 -34
-7 -49 6 -10 9 -29 24 -42 34 -26 19 -22 41 7 41 9 0 28 -9 42 -20 30 -24 49
-25 56 -5 4 8 14 15 23 15 9 0 22 5 28 11 7 7 20 8 34 3 13 -4 26 -8 29 -9 3
-1 15 -5 28 -9 14 -5 28 -3 37 4 24 20 18 40 -12 40 l-28 0 25 20 c22 17 23
19 7 25 -20 8 -22 26 -5 43 16 16 48 -13 48 -45z m-225 13 c0 -24 -30 -45 -44
-31 -6 6 -8 21 -4 33 7 29 48 27 48 -2z m-785 -46 c0 -5 -4 -10 -10 -10 -5 0
-10 5 -10 10 0 6 5 10 10 10 6 0 10 -4 10 -10z m785 -20 c3 -5 -1 -10 -10 -10
-9 0 -13 5 -10 10 3 6 8 10 10 10 2 0 7 -4 10 -10z m-1307 -59 c4 -12 -15 -41
-28 -41 -6 0 -30 44 -30 55 0 9 54 -3 58 -14z m-78 -21 c0 -5 -5 -12 -11 -16
-14 -8 -33 11 -25 25 7 11 36 4 36 -9z m1290 -41 c0 -10 -4 -19 -9 -19 -12 0
-23 29 -15 41 8 14 24 0 24 -22z m392 16 c0 -5 -5 -11 -11 -13 -6 -2 -11 4
-11 13 0 9 5 15 11 13 6 -2 11 -8 11 -13z m-1222 -19 c0 -17 -27 -29 -35 -16
-4 6 -3 15 0 20 9 15 35 12 35 -4z m586 -11 c10 -25 -7 -40 -23 -20 -7 11 -13
22 -13 27 0 14 30 9 36 -7z m534 6 c0 -11 -26 -22 -34 -14 -12 12 -5 23 14 23
11 0 20 -4 20 -9z m-135 -21 c0 -8 -10 -16 -22 -18 -22 -3 -32 16 -16 32 12
11 38 2 38 -14z m-95 0 c0 -5 -7 -10 -15 -10 -8 0 -15 5 -15 10 0 6 7 10 15
10 8 0 15 -4 15 -10z m268 -33 c18 -14 15 -47 -5 -47 -21 1 -57 46 -48 60 6
10 31 4 53 -13z m-293 -15 c6 -17 -18 -42 -42 -42 -16 0 -16 10 -3 44 10 28
34 27 45 -2z m121 -78 c4 -19 13 -38 21 -41 8 -3 12 -12 8 -21 -3 -8 0 -21 6
-28 7 -9 8 -14 1 -14 -25 0 -42 14 -42 35 0 30 -21 46 -65 50 -20 2 -39 6 -42
8 -10 11 8 27 40 36 57 17 66 14 73 -25z m-426 -9 c0 -8 -5 -17 -11 -21 -16
-9 -30 18 -17 33 12 15 28 8 28 -12z m395 -78 c24 -18 12 -36 -20 -29 -28 5
-39 17 -30 32 9 14 28 12 50 -3z m-489 -34 c-11 -11 -19 6 -11 24 8 17 8 17
12 0 3 -10 2 -21 -1 -24z m374 -7 c-6 -6 -16 -3 -30 9 -15 14 -17 20 -8 26 17
11 52 -21 38 -35z m-250 -15 c0 -12 7 -18 17 -17 24 2 28 -32 8 -55 -22 -24
-35 -16 -35 22 0 19 -5 29 -15 29 -18 0 -19 12 -3 28 17 17 28 15 28 -7z m203
-147 c7 -8 -36 -44 -52 -44 -15 0 -14 37 2 43 18 8 43 8 50 1z"/>
<path d="M7025 8469 c-8 -12 23 -49 42 -49 16 0 17 14 3 41 -12 21 -35 25 -45
8z"/>
<path d="M7101 8364 c0 -11 3 -14 6 -6 3 7 2 16 -1 19 -3 4 -6 -2 -5 -13z"/>
<path d="M6634 8185 c-7 -18 12 -45 32 -45 17 0 18 32 2 48 -16 16 -27 15 -34
-3z"/>
<path d="M5867 5262 c-26 -27 -35 -52 -19 -52 7 0 62 65 62 74 0 14 -18 4 -43
-22z"/>
<path d="M5895 5170 c-10 -11 -26 -22 -36 -25 -11 -4 -19 -11 -19 -17 0 -6
-19 -28 -42 -50 -23 -21 -39 -40 -36 -43 9 -10 78 25 78 40 0 8 18 24 39 35
37 18 71 54 71 72 0 16 -37 8 -55 -12z"/>
<path d="M6070 5010 c0 -5 7 -10 15 -10 8 0 15 5 15 10 0 6 -7 10 -15 10 -8 0
-15 -4 -15 -10z"/>
<path d="M6320 5495 c0 -8 7 -15 15 -15 8 0 15 7 15 15 0 8 -7 15 -15 15 -8 0
-15 -7 -15 -15z"/>
<path d="M6360 5459 c0 -7 -8 -17 -17 -24 -16 -12 -16 -17 -4 -57 8 -23 15
-63 16 -88 2 -25 3 -51 4 -57 2 -23 31 -14 41 12 12 30 1 123 -17 151 -8 13
-11 32 -7 48 4 16 2 26 -5 26 -6 0 -11 -5 -11 -11z"/>
<path d="M4710 3665 c0 -15 6 -25 14 -25 19 0 30 32 14 42 -21 13 -28 9 -28
-17z"/>
<path d="M6718 6322 c-10 -2 -18 -7 -18 -12 0 -18 36 -27 80 -21 25 3 45 11
45 16 0 11 -78 23 -107 17z"/>
<path d="M6680 6255 c0 -16 27 -32 37 -21 7 7 -16 36 -28 36 -5 0 -9 -7 -9
-15z"/>
<path d="M6739 6171 c13 -24 58 -38 72 -24 13 13 -7 29 -49 38 -32 7 -33 6
-23 -14z"/>
<path d="M7041 6181 c-8 -5 -55 -9 -105 -10 -91 -1 -118 -9 -94 -28 9 -7 45
-8 113 -1 104 10 126 16 133 36 4 14 -27 16 -47 3z"/>
<path d="M6475 6122 c-2 -3 6 -13 18 -22 29 -23 135 -46 149 -32 15 15 2 29
-34 35 -18 3 -54 10 -80 15 -27 5 -50 7 -53 4z"/>
<path d="M6360 6071 c0 -5 5 -13 10 -16 6 -3 10 -2 10 4 0 5 -4 13 -10 16 -5
3 -10 2 -10 -4z"/>
<path d="M6184 5996 c-8 -21 12 -46 37 -46 26 0 24 12 -6 40 -22 20 -25 21
-31 6z"/>
<path d="M6262 5939 c2 -7 10 -15 17 -17 8 -3 12 1 9 9 -2 7 -10 15 -17 17 -8
3 -12 -1 -9 -9z"/>
<path d="M4347 4643 c-11 -10 -8 -63 3 -63 6 0 10 16 10 35 0 36 -2 40 -13 28z"/>
<path d="M4326 4551 c-20 -22 -14 -61 9 -61 18 0 30 43 18 65 -8 14 -11 14
-27 -4z"/>
<path d="M4335 4430 c-7 -12 2 -30 16 -30 5 0 9 9 9 20 0 21 -15 27 -25 10z"/>
<path d="M5814 3536 c-4 -10 -2 -22 4 -28 8 -8 13 -7 18 6 4 10 2 22 -4 28 -8
8 -13 7 -18 -6z"/>
<path d="M5240 2884 c0 -15 22 -44 31 -39 18 12 10 45 -11 45 -11 0 -20 -3
-20 -6z"/>
<path d="M4973 2845 c-3 -9 -2 -19 1 -23 8 -8 38 10 44 26 6 18 -38 14 -45 -3z"/>
<path d="M5092 2778 c-15 -19 -25 -58 -14 -58 12 0 52 44 52 58 0 16 -25 15
-38 0z"/>
<path d="M4838 2264 c-5 -4 -8 -16 -8 -28 0 -14 3 -17 11 -9 6 6 9 19 7 28 -1
9 -6 13 -10 9z"/>
</g>
</svg>
