<?xml version="1.0" standalone="no"?>
<!DOCTYPE svg PUBLIC "-//W3C//DTD SVG 20010904//EN"
 "http://www.w3.org/TR/2001/REC-SVG-20010904/DTD/svg10.dtd">
<svg version="1.0" xmlns="http://www.w3.org/2000/svg"
 width="600.000000pt" height="600.000000pt" viewBox="0 0 600.000000 600.000000"
 preserveAspectRatio="xMidYMid meet">

<g transform="translate(0.000000,600.000000) scale(0.100000,-0.100000)"
fill="#4a4a4a" stroke="none">
<path d="M2065 4781 c-22 -10 -51 -29 -65 -43 -14 -13 -43 -30 -65 -36 -82
-24 -118 -53 -163 -132 -23 -41 -45 -86 -48 -100 -4 -14 -21 -56 -39 -95 -18
-38 -50 -121 -71 -183 -37 -108 -40 -115 -86 -148 -27 -19 -60 -34 -74 -34
-35 0 -208 -167 -199 -192 4 -10 13 -18 21 -18 7 0 18 -8 23 -17 6 -10 11 -12
11 -5 0 17 20 15 20 -2 0 -22 86 -188 115 -220 33 -39 33 -80 -2 -103 -14 -10
-59 -49 -99 -87 -77 -72 -120 -142 -111 -177 3 -12 2 -32 -3 -44 -11 -29 14
-126 44 -170 11 -16 40 -53 65 -81 27 -30 58 -81 76 -124 44 -108 76 -147 143
-176 81 -36 160 -127 138 -162 -3 -5 3 -24 13 -43 35 -67 34 -139 -3 -139 -8
0 -41 -30 -75 -66 -34 -36 -88 -87 -121 -115 -82 -68 -125 -132 -125 -187 0
-50 13 -62 67 -62 34 0 39 -4 52 -35 16 -38 8 -36 157 -39 53 -1 66 -18 81
-104 14 -89 41 -127 81 -117 19 5 25 2 30 -14 7 -28 77 -29 116 -2 19 14 46
20 92 22 35 1 89 7 119 14 30 8 71 16 91 19 50 9 89 47 89 86 0 30 1 31 33 24
17 -4 64 -6 102 -5 l70 2 26 -44 c29 -47 81 -93 114 -99 16 -3 21 -13 25 -58
5 -51 6 -53 18 -33 7 13 19 23 27 23 18 0 29 -41 20 -69 -5 -16 -2 -21 13 -21
13 0 22 -9 26 -24 10 -39 34 -56 79 -56 33 0 46 -5 62 -27 27 -32 40 -25 66
33 11 28 28 48 44 54 14 5 25 16 25 23 0 8 9 22 20 32 11 10 20 29 20 41 0 33
55 54 139 54 37 0 72 5 79 12 8 8 15 8 28 -3 19 -15 140 -23 149 -9 3 5 -1 23
-10 40 -12 24 -22 30 -47 30 -17 0 -52 13 -78 29 -26 16 -58 31 -71 33 -16 2
-32 18 -48 47 -22 40 -25 57 -24 150 1 116 21 212 52 245 10 12 28 35 38 53
23 38 145 131 182 139 14 3 34 9 43 15 10 5 27 9 38 9 24 0 140 -67 190 -110
27 -23 45 -30 77 -30 37 0 49 -6 90 -46 59 -56 108 -94 122 -94 17 0 13 32 -9
65 -11 17 -20 37 -20 45 0 24 -120 135 -172 159 -31 15 -48 30 -52 46 -7 27
-25 32 -43 14 -22 -22 -36 2 -29 50 20 138 20 141 -1 141 -36 0 -63 -29 -63
-66 0 -42 -15 -74 -35 -74 -19 0 -19 33 0 106 17 66 11 104 -15 104 -11 0 -22
-4 -25 -10 -3 -5 -15 -10 -26 -10 -15 0 -19 7 -19 32 0 47 -31 118 -52 118
-24 0 -35 -51 -41 -189 -6 -108 -16 -147 -32 -121 -4 7 -8 39 -10 71 -1 33 -7
65 -13 71 -17 17 -42 1 -42 -27 0 -14 -5 -25 -11 -25 -8 0 -10 19 -7 56 3 31
0 67 -6 80 -28 61 -61 -11 -72 -156 -4 -47 -11 -95 -15 -107 -13 -34 -62 -30
-109 7 -36 29 -38 33 -38 88 -1 77 5 92 33 92 33 0 40 -16 20 -46 -22 -34 -16
-79 9 -79 23 0 58 82 80 186 8 37 26 91 41 121 16 29 33 62 38 73 6 11 24 45
40 75 27 52 29 59 22 138 -3 48 -2 82 3 82 5 0 22 -18 37 -40 15 -22 34 -40
41 -40 22 0 82 -43 145 -103 33 -31 77 -68 98 -82 22 -13 63 -44 93 -68 30
-25 65 -48 78 -52 13 -4 36 -21 52 -39 28 -30 41 -49 104 -146 29 -46 81 -177
93 -240 10 -45 27 -77 49 -89 15 -9 17 -26 15 -156 -1 -80 -6 -160 -12 -178
-5 -18 -12 -58 -16 -89 -4 -34 -15 -67 -26 -82 -19 -24 -22 -25 -44 -10 -31
20 -59 3 -71 -44 -5 -20 -15 -37 -21 -40 -20 -6 -15 27 8 59 26 37 24 122 -4
127 -12 2 -22 -7 -32 -30 -7 -18 -30 -58 -49 -88 -20 -30 -36 -58 -36 -62 0
-4 -5 -8 -11 -8 -7 0 -10 19 -7 53 3 59 -14 71 -41 27 -9 -14 -25 -40 -36 -58
-22 -35 -55 -43 -55 -13 0 10 6 24 14 30 8 7 17 30 21 51 4 22 16 51 27 65 25
32 21 69 -9 73 -18 3 -32 -11 -72 -73 -28 -42 -53 -85 -56 -95 -4 -11 -12 -20
-19 -20 -28 0 -104 107 -115 164 -6 27 -11 31 -43 34 -46 4 -76 -11 -84 -43
-12 -50 108 -203 211 -269 17 -11 34 -25 38 -33 4 -7 14 -13 21 -13 21 0 46
-35 53 -74 5 -34 4 -37 -33 -52 -32 -14 -190 -31 -310 -34 -12 0 -38 -11 -58
-25 -63 -43 -106 -27 -106 40 0 45 -28 42 -74 -6 -22 -24 -62 -53 -88 -64 -56
-24 -72 -60 -29 -68 14 -3 36 -1 49 4 36 14 105 11 145 -6 48 -20 161 -20 191
0 19 13 31 13 74 3 40 -9 58 -9 77 0 14 7 38 12 53 12 15 0 47 11 71 25 23 14
48 25 54 25 24 0 139 64 157 88 15 19 18 33 14 63 -6 38 -6 39 42 59 64 26 96
45 183 102 59 40 77 47 108 44 82 -8 169 -28 193 -45 51 -35 82 -42 156 -32
39 5 80 14 92 20 11 6 33 11 49 11 54 0 199 46 246 78 34 23 60 32 88 32 34 0
46 6 80 42 39 41 79 114 79 144 0 8 5 14 10 14 6 0 10 55 10 144 0 86 -4 147
-10 151 -5 3 -10 26 -10 49 0 58 -38 126 -128 231 -54 62 -86 90 -125 108
-121 57 -213 60 -346 10 -62 -23 -88 -40 -139 -90 -51 -51 -63 -68 -60 -89 4
-35 25 -42 38 -12 62 143 217 223 337 173 19 -8 51 -15 69 -15 66 0 207 -124
234 -205 6 -19 15 -35 20 -35 4 0 16 -25 26 -56 20 -66 12 -119 -36 -219 -16
-33 -44 -100 -63 -149 -34 -88 -35 -89 -83 -107 -27 -11 -61 -19 -76 -19 -24
0 -28 4 -28 27 0 14 11 41 25 58 19 26 23 40 18 67 -8 53 9 78 50 71 25 -4 43
1 73 22 46 31 52 44 53 110 2 86 -25 187 -55 213 -33 29 -54 16 -36 -23 13
-27 14 -99 3 -149 -4 -22 -14 -32 -36 -38 -23 -5 -33 -16 -40 -40 -14 -48 -36
-41 -57 17 -21 58 -15 139 13 195 14 28 16 48 10 102 -4 37 -10 70 -13 73 -3
4 -37 13 -74 21 -74 15 -72 15 -138 -40 -41 -34 -26 -49 27 -26 57 26 92 25
111 -2 20 -28 20 -49 1 -123 -27 -105 -69 -120 -119 -45 -14 22 -31 40 -36 40
-15 0 -12 -41 5 -74 21 -39 20 -46 -21 -136 -52 -114 -64 -107 -65 38 0 64 -3
124 -7 133 -12 29 -70 88 -89 91 -17 3 -18 -5 -15 -107 1 -60 0 -143 -4 -182
-5 -63 -8 -73 -25 -73 -16 0 -19 -7 -19 -54 0 -41 4 -55 16 -60 20 -8 82 3 90
15 3 5 16 9 30 9 36 0 64 18 64 40 0 10 10 26 22 34 28 20 46 6 53 -43 4 -20
8 -45 10 -57 3 -11 26 -42 52 -67 40 -39 46 -50 37 -65 -31 -48 -266 -65 -361
-26 -18 8 -43 14 -55 14 -13 0 -29 4 -37 9 -25 16 -36 129 -31 312 6 209 0
236 -67 295 l-47 42 -6 93 c-6 94 -7 94 -62 174 -70 100 -148 184 -213 229
-27 18 -61 46 -75 61 -14 15 -70 58 -126 95 -55 37 -120 89 -144 114 -24 25
-49 46 -55 46 -20 0 -108 68 -127 99 -20 31 -21 93 -3 193 8 43 -2 61 -91 154
-33 33 -63 67 -69 75 -5 8 -30 38 -53 67 -40 47 -48 52 -84 52 -22 0 -52 7
-66 15 -15 8 -39 19 -54 25 -25 9 -28 14 -28 58 0 27 -7 57 -16 70 -14 20 -14
29 0 98 15 71 15 78 -3 117 -10 23 -21 55 -25 70 -4 15 -31 53 -61 84 -49 51
-57 55 -88 50 -18 -3 -62 -24 -98 -46 -35 -22 -77 -41 -92 -41 -15 0 -58 14
-95 31 -37 18 -87 34 -111 37 -24 3 -52 13 -62 23 -14 14 -34 19 -78 19 -84 0
-104 18 -109 102 -3 55 0 72 22 116 33 64 32 72 -2 105 -33 32 -35 32 -87 8z
m-47 -224 c6 -7 14 -38 18 -69 l6 -55 -46 -31 c-26 -18 -55 -32 -64 -32 -9 0
-30 -7 -46 -15 -15 -8 -44 -15 -62 -15 -29 0 -34 3 -34 24 0 29 105 144 165
181 47 29 49 29 63 12z m115 -191 c18 -7 50 -28 71 -45 21 -17 57 -36 80 -43
23 -6 48 -19 56 -28 8 -9 31 -23 50 -30 19 -8 38 -19 42 -24 18 -26 -26 -139
-74 -193 -23 -25 -64 -23 -133 7 -22 9 -60 24 -85 32 -40 13 -45 18 -45 44 0
27 2 29 40 28 22 -1 60 -3 84 -5 26 -2 45 0 48 7 8 23 -44 61 -110 79 l-67 18
-53 -35 c-59 -39 -70 -64 -83 -175 -6 -60 -6 -62 27 -96 19 -19 53 -58 77 -86
54 -64 84 -67 130 -17 42 46 68 53 96 27 12 -12 27 -21 33 -21 14 0 48 46 58
80 4 14 21 41 37 60 37 45 40 48 66 90 25 41 56 71 109 107 122 84 122 84 160
81 l38 -3 8 -92 c7 -73 5 -103 -9 -150 -9 -32 -24 -89 -35 -126 -23 -83 -25
-87 -52 -87 -35 0 -116 -35 -131 -56 -23 -34 -25 -51 -10 -80 12 -22 13 -34 5
-52 -6 -12 -11 -58 -11 -100 -1 -42 -8 -104 -16 -137 -9 -33 -19 -89 -24 -125
-4 -36 -14 -90 -22 -120 -12 -51 -16 -55 -44 -58 -26 -3 -33 1 -38 20 -11 42
-6 143 8 163 24 36 63 265 52 309 -7 28 -44 45 -56 26 -4 -7 -5 -30 -2 -52 2
-21 0 -49 -6 -61 -6 -12 -13 -31 -16 -42 -2 -11 -12 -38 -20 -60 -8 -22 -15
-58 -16 -80 0 -22 -6 -50 -14 -61 -8 -11 -16 -33 -18 -49 -2 -25 -8 -31 -33
-33 -38 -4 -55 -26 -55 -72 0 -23 -9 -49 -25 -70 -14 -19 -25 -40 -25 -47 0
-7 -6 -13 -14 -13 -26 0 -40 70 -38 194 2 120 2 120 40 179 46 75 64 87 90 64
22 -20 52 -22 52 -4 0 8 8 24 19 35 12 15 19 39 20 74 1 52 13 103 33 145 8
16 8 26 -1 37 -25 30 -51 26 -94 -15 -106 -100 -449 -209 -529 -168 -13 7 -30
15 -38 19 -8 4 -15 15 -15 25 0 27 66 47 119 35 73 -17 98 -12 136 23 19 19
54 46 78 60 43 28 54 53 27 63 -8 4 -59 -4 -112 -16 -152 -34 -175 -40 -215
-61 -65 -34 -117 -17 -105 33 5 18 0 27 -23 40 -21 12 -29 25 -32 50 -3 32 -4
33 -48 31 -64 -4 -75 6 -60 51 12 37 25 45 85 49 26 2 30 -2 35 -33 3 -20 10
-41 14 -48 14 -23 55 -12 95 26 32 30 40 47 46 87 4 29 32 100 66 170 45 92
59 131 59 165 0 25 4 50 8 56 13 19 92 54 122 54 16 0 44 9 62 20 39 24 32 23
71 6z m42 -408 c24 -11 33 -32 18 -41 -25 -15 -70 -16 -88 -3 -19 14 -19 15
-1 35 22 24 35 26 71 9z m35 -88 c0 -5 -4 -10 -10 -10 -5 0 -10 5 -10 10 0 6
5 10 10 10 6 0 10 -4 10 -10z m693 -117 c43 -49 84 -191 58 -207 -8 -5 -82 69
-128 128 -23 30 -21 47 13 80 20 21 37 20 57 -1z m259 -114 c60 -61 63 -95 10
-92 -40 1 -64 21 -87 73 -37 82 6 93 77 19z m-417 -28 c28 -6 58 -14 68 -17
28 -9 99 -162 92 -196 -8 -34 -20 -43 -34 -26 -19 23 -75 112 -95 150 -25 49
-51 72 -72 64 -13 -5 -15 -14 -9 -44 9 -48 6 -111 -5 -132 -5 -9 -16 -61 -25
-116 -18 -110 -30 -147 -52 -166 -12 -10 -18 -9 -28 5 -18 25 -10 256 12 321
14 43 14 57 3 99 -12 46 -11 51 6 64 20 15 49 14 139 -6z m414 -135 c59 -37
102 -95 99 -131 -4 -36 -31 -45 -59 -19 -23 21 -89 139 -89 159 0 20 4 19 49
-9z m-1511 -135 c-5 -61 -10 -75 -42 -118 -20 -26 -47 -62 -59 -80 -12 -18
-35 -48 -51 -67 -15 -20 -34 -53 -41 -73 -18 -51 -29 -51 -50 -1 -23 57 -22
151 2 205 22 48 141 169 186 188 57 25 60 22 55 -54z m1125 -4 c10 -110 -32
-232 -49 -142 -11 61 14 205 36 205 4 0 10 -28 13 -63z m-686 16 c-3 -21 -10
-56 -15 -78 -6 -22 -16 -68 -23 -102 -7 -35 -16 -63 -20 -63 -14 0 -22 113
-11 160 12 52 48 120 64 120 6 0 8 -16 5 -37z m-289 5 c24 -24 4 -184 -24
-195 -15 -6 -53 34 -54 56 0 7 -9 28 -20 46 -26 41 -19 57 33 82 53 26 51 25
65 11z m1304 -11 c14 -12 41 -54 58 -94 35 -79 35 -117 -1 -128 -20 -7 -49 9
-49 27 0 13 -41 47 -57 48 -9 0 -12 -30 -11 -112 0 -66 -5 -131 -12 -155 -11
-37 -11 -45 5 -69 36 -56 10 -223 -42 -269 -53 -46 -74 -26 -47 45 19 52 32
125 40 226 5 58 2 83 -15 131 -12 33 -21 72 -21 87 0 18 -10 37 -30 54 -28 24
-30 32 -30 92 0 36 5 71 11 77 6 6 28 9 48 6 32 -4 41 -1 57 19 33 43 58 46
96 15z m-1159 -112 c8 -40 -4 -108 -22 -120 -5 -3 -16 -2 -25 1 -12 5 -16 20
-16 66 0 33 5 68 11 79 17 32 42 19 52 -26z m-277 -100 c7 -17 -12 -71 -32
-95 -7 -8 -17 -34 -23 -57 -7 -23 -15 -45 -20 -47 -5 -3 -11 -19 -14 -36 -9
-41 -23 -38 -32 6 -7 41 3 160 17 186 8 16 72 56 91 58 4 0 10 -7 13 -15z
m1224 -129 c-1 -93 -21 -181 -41 -181 -20 0 -57 74 -58 115 0 23 10 50 29 79
17 24 30 54 30 66 0 31 12 39 27 19 8 -11 13 -48 13 -98z m431 41 c12 -45 5
-115 -15 -142 -12 -16 -15 -16 -44 -1 -41 21 -47 46 -22 93 11 21 20 46 20 56
0 10 5 27 11 38 14 28 35 9 50 -44z m-1504 -22 c51 -25 64 -46 53 -85 -5 -18
-20 -45 -34 -59 -13 -14 -26 -39 -30 -54 -4 -15 -32 -55 -63 -87 -54 -57 -59
-60 -104 -60 -53 0 -71 14 -43 34 9 7 36 46 58 87 23 41 51 90 63 109 13 19
26 51 29 70 11 68 17 72 71 45z m894 -40 c4 -16 7 -59 8 -95 1 -36 7 -77 15
-91 7 -14 16 -42 20 -62 5 -26 16 -41 41 -56 44 -25 45 -57 6 -121 -31 -51
-49 -58 -85 -34 -29 18 -32 41 -15 110 14 56 2 87 -40 102 -41 15 -50 1 -55
-89 -2 -41 -9 -87 -15 -103 -6 -16 -14 -49 -16 -74 -5 -52 -9 -58 -49 -68
l-28 -7 5 81 c3 55 10 86 21 97 17 17 12 43 -12 62 -15 13 -25 26 -80 111 -43
67 -70 67 -85 2 -6 -25 -65 -153 -90 -195 -7 -11 -29 -37 -51 -58 -30 -30 -45
-38 -70 -36 -17 1 -40 -1 -52 -4 -26 -9 -94 18 -94 38 0 20 37 37 63 29 45
-15 117 3 117 30 0 7 9 24 21 37 20 22 21 32 15 129 l-6 105 41 25 c23 14 48
39 55 55 22 49 41 67 66 63 19 -2 24 -10 26 -40 4 -42 11 -46 91 -49 44 -2 56
1 66 17 7 10 34 42 61 70 59 62 95 68 105 19z m-666 -62 c18 2 20 -5 23 -61 3
-57 -1 -70 -34 -130 -42 -77 -133 -171 -184 -189 -51 -19 -115 -7 -135 24 -24
36 -14 48 52 68 92 27 117 41 152 85 30 38 32 45 26 88 -15 99 -15 101 6 116
15 10 29 12 47 5 15 -4 36 -7 47 -6z m1127 -35 c17 -32 28 -168 15 -195 -12
-27 -33 -30 -45 -5 -5 9 -15 56 -22 105 -10 69 -10 90 0 102 18 21 37 18 52
-7z m-1054 -267 c4 -28 -23 -50 -60 -51 -38 0 -36 22 5 54 37 30 51 29 55 -3z
m295 -112 c-3 -47 -49 -127 -87 -150 -54 -33 -116 -17 -100 25 3 9 38 44 78
77 39 34 75 68 79 76 15 24 32 7 30 -28z m687 13 c0 -34 -23 -54 -60 -50 -49
4 -49 38 0 55 49 17 60 16 60 -5z m508 -64 c-3 -45 -6 -53 -23 -53 -18 0 -20
5 -16 45 4 53 7 60 27 60 12 0 14 -11 12 -52z m-1652 -9 c3 -6 22 -17 40 -25
26 -11 34 -20 34 -39 0 -30 3 -29 -51 -10 -52 19 -79 41 -79 67 0 20 44 26 56
7z m-33 -149 c29 -28 61 -53 72 -56 69 -21 72 -103 8 -176 -9 -10 -30 -45 -47
-79 -38 -77 -60 -93 -84 -63 -9 12 -22 30 -28 40 -11 18 -14 18 -40 4 -15 -8
-39 -37 -53 -64 -28 -54 -61 -74 -132 -78 -39 -3 -44 0 -47 20 -2 12 2 22 8
22 6 0 18 16 26 35 8 19 18 35 23 35 5 0 20 17 32 38 13 20 38 57 56 81 18 24
33 55 33 68 0 13 9 31 21 41 28 23 59 85 59 117 0 31 16 65 31 65 5 0 33 -23
62 -50z m871 34 c24 -9 19 -30 -12 -53 -36 -25 -78 -36 -86 -22 -12 18 17 65
44 72 35 10 36 10 54 3z m-560 -31 c11 -12 80 -33 107 -33 42 0 44 -27 5 -66
-38 -38 -66 -42 -114 -18 -18 8 -37 12 -43 9 -15 -10 -59 34 -59 58 0 31 29
57 65 57 17 0 35 -3 39 -7z m840 -2 c4 -5 31 -17 61 -26 73 -23 84 -38 57 -74
-49 -67 -104 -328 -88 -417 7 -36 -1 -64 -18 -64 -31 0 -95 42 -115 75 -19 33
-21 53 -24 241 -3 201 -2 206 20 240 20 29 29 34 63 34 21 0 41 -4 44 -9z
m-534 -163 c0 -46 -5 -101 -10 -123 -16 -72 -103 -240 -133 -259 -10 -7 -28
-5 -54 3 -63 21 -104 12 -128 -28 -30 -51 -154 -171 -176 -171 -14 0 -19 7
-19 29 0 33 -14 48 -50 53 -50 7 -26 85 33 104 34 11 107 65 107 80 0 8 14 28
30 46 17 17 30 36 30 43 0 7 6 18 14 24 8 7 18 38 22 69 8 71 17 82 64 82 21
0 43 7 50 15 8 9 21 13 36 9 18 -5 36 4 76 38 29 23 57 49 61 56 4 6 17 12 27
12 18 0 20 -7 20 -82z m190 22 c0 -5 -2 -10 -4 -10 -3 0 -8 5 -11 10 -3 6 -1
10 4 10 6 0 11 -4 11 -10z m90 -63 c0 -36 -120 -101 -143 -78 -21 22 68 83
131 90 6 0 12 -5 12 -12z m1996 -22 c19 -29 11 -73 -11 -55 -23 19 -30 80 -10
80 3 0 12 -11 21 -25z m-3221 -39 c17 -13 18 -17 5 -55 -7 -23 -19 -46 -27
-52 -7 -6 -13 -17 -13 -25 0 -20 -31 -32 -70 -27 -35 5 -60 26 -60 50 0 20 60
82 99 103 44 23 43 23 66 6z m525 -30 c0 -16 -18 -31 -27 -22 -8 8 5 36 17 36
5 0 10 -6 10 -14z m690 -40 c0 -17 -46 -56 -66 -56 -22 0 -16 36 9 53 28 20
57 21 57 3z m39 -257 c95 -31 217 -81 242 -100 15 -11 20 -22 15 -34 -5 -15
-15 -16 -64 -11 -98 12 -160 10 -184 -6 -13 -8 -38 -20 -55 -27 -31 -13 -35
-12 -68 18 -20 17 -42 31 -49 31 -18 0 -53 41 -61 70 -9 37 15 62 66 70 73 12
89 11 158 -11z m218 -237 c8 -5 0 -20 -26 -47 -21 -22 -43 -50 -50 -63 -19
-36 -44 -24 -53 27 -9 54 0 67 55 80 55 12 60 12 74 3z"/>
<path d="M2607 4035 c-20 -19 -41 -35 -48 -35 -6 0 -35 -24 -64 -54 l-52 -53
-13 -100 c-10 -76 -10 -104 -1 -121 17 -31 35 -27 62 13 13 19 27 35 31 35 4
0 18 17 32 38 13 21 46 62 74 92 113 124 94 296 -21 185z"/>
<path d="M2550 2820 c0 -5 5 -10 11 -10 5 0 7 5 4 10 -3 6 -8 10 -11 10 -2 0
-4 -4 -4 -10z"/>
</g>
</svg>
