<?xml version="1.0" standalone="no"?>
<!DOCTYPE svg PUBLIC "-//W3C//DTD SVG 20010904//EN"
 "http://www.w3.org/TR/2001/REC-SVG-20010904/DTD/svg10.dtd">
<svg version="1.0" xmlns="http://www.w3.org/2000/svg"
 width="1200.000000pt" height="800.000000pt" viewBox="0 0 1200.000000 800.000000"
 preserveAspectRatio="xMidYMid meet">

<g transform="translate(0.000000,800.000000) scale(0.100000,-0.100000)"
fill="#4a4a4a" stroke="none">
<path d="M7160 6248 c-109 -49 -163 -79 -198 -111 -21 -20 -24 -20 -75 -4 -28
9 -129 28 -223 43 l-170 26 -42 -26 c-60 -38 -72 -62 -79 -157 -5 -82 -5 -85
25 -122 17 -21 43 -48 59 -59 15 -12 56 -48 91 -82 l62 -60 0 -61 c-1 -33 -7
-87 -15 -120 -8 -33 -15 -86 -15 -117 0 -52 4 -62 34 -95 43 -48 49 -69 52
-178 2 -49 4 -97 4 -105 1 -8 -25 -60 -58 -115 -56 -92 -65 -102 -119 -130
-47 -24 -73 -30 -140 -33 -46 -2 -96 1 -113 6 -18 7 -41 7 -60 2 -24 -7 -34
-5 -48 10 -44 48 -179 62 -299 31 -45 -12 -92 -21 -105 -21 -16 0 -35 -13 -54
-37 -54 -68 -92 -103 -113 -103 -11 0 -44 -9 -73 -21 -65 -26 -162 -20 -203
13 -45 35 -71 107 -44 124 7 4 39 13 73 20 163 34 179 41 262 114 31 28 63 50
71 50 8 0 23 21 35 47 25 57 20 141 -13 206 -21 40 -21 46 -9 133 11 84 11 95
-6 122 -24 42 -100 98 -150 111 -51 14 -57 20 -83 96 -13 36 -35 74 -56 95
-35 35 -35 35 -128 35 -78 0 -97 -3 -128 -22 -49 -31 -85 -29 -139 8 -43 29
-48 30 -115 24 -57 -5 -79 -12 -121 -41 -67 -45 -91 -72 -107 -119 -14 -42
-59 -74 -104 -75 -33 0 -124 -62 -172 -116 -57 -65 -56 -93 9 -174 54 -68 57
-76 36 -105 -9 -14 -12 -38 -8 -79 5 -57 6 -59 43 -74 42 -16 59 -46 37 -68
-11 -11 -19 -11 -53 0 -50 17 -65 44 -65 119 l0 57 -38 -19 c-51 -26 -59 -37
-70 -101 -9 -46 -7 -60 8 -90 34 -66 84 -90 192 -90 100 0 152 -16 186 -59 41
-50 116 -87 149 -72 56 26 93 -1 93 -67 0 -48 -7 -53 -145 -127 -49 -27 -130
-78 -180 -115 -49 -37 -124 -84 -165 -105 -156 -78 -280 -176 -280 -223 0 -14
3 -13 -74 -17 -84 -4 -177 -26 -183 -42 -3 -8 -1 -24 4 -36 9 -19 4 -29 -33
-70 -35 -39 -48 -47 -65 -42 -21 7 -23 34 -5 77 5 11 1 20 -14 28 -33 18 -64
5 -96 -41 -33 -48 -66 -64 -97 -48 -39 20 -56 41 -63 75 -4 24 -14 36 -36 45
-21 8 -36 26 -49 56 -23 54 -24 77 -3 97 29 29 59 22 209 -49 39 -18 81 -38
95 -44 14 -6 38 -21 53 -33 l29 -23 19 24 c10 13 19 32 19 42 0 18 -44 51
-101 76 -14 6 -66 37 -116 70 -50 32 -99 63 -109 69 -17 10 -17 16 -6 74 12
65 39 114 103 186 47 53 59 123 35 203 -17 57 -13 76 15 92 23 12 24 31 2 72
-14 26 -16 58 -15 181 3 165 11 191 72 231 43 28 82 81 78 107 -4 31 -63 46
-89 22 -10 -9 -19 -21 -19 -26 0 -8 -69 -98 -90 -118 -23 -21 -79 -100 -95
-134 -21 -43 -93 -93 -120 -82 -21 8 -19 35 10 122 31 90 27 153 -12 192 -28
28 -49 24 -45 -9 11 -88 -2 -139 -36 -139 -12 0 -14 10 -9 59 7 65 25 148 37
171 5 8 14 13 22 11 45 -11 129 -23 167 -22 l43 0 -6 -44 c-5 -27 -3 -46 4
-50 6 -4 36 15 67 41 l55 48 -5 49 c-4 27 -12 55 -18 63 -13 16 -60 19 -87 5
-94 -49 -138 -47 -167 8 -22 44 -117 66 -168 40 -35 -18 -67 -51 -67 -69 0
-29 -36 -53 -67 -46 -15 4 -45 11 -65 15 -21 5 -44 13 -51 20 -8 6 -38 9 -73
7 -53 -4 -59 -7 -67 -31 -7 -20 -2 -38 23 -88 47 -90 69 -184 80 -337 9 -135
9 -135 -17 -180 -57 -99 -71 -131 -77 -184 -8 -58 -7 -59 57 -195 7 -13 18
-26 27 -29 28 -10 80 -66 80 -87 0 -21 -37 -65 -56 -65 -13 -1 -92 -41 -139
-72 -49 -31 -261 -248 -298 -303 -46 -69 -60 -89 -97 -135 -20 -25 -41 -57
-48 -73 -6 -15 -22 -31 -35 -36 -13 -5 -38 -30 -55 -56 -33 -50 -46 -105 -40
-170 3 -32 5 -36 12 -20 57 139 77 156 154 131 61 -20 72 -33 79 -85 5 -39 3
-42 -63 -106 -37 -36 -75 -65 -85 -65 -9 0 -33 19 -52 42 -20 23 -39 39 -43
36 -11 -12 5 -92 25 -125 23 -38 71 -48 119 -26 48 23 126 117 173 211 33 65
62 102 132 173 89 88 118 104 145 77 7 -7 12 -29 12 -50 0 -21 7 -55 15 -76
19 -43 14 -66 -19 -107 -20 -25 -26 -28 -40 -16 -14 11 -16 11 -16 -3 0 -9 7
-16 15 -16 37 0 -10 -126 -51 -136 -28 -7 -54 -50 -54 -88 0 -23 3 -25 31 -19
27 5 31 4 26 -13 -15 -55 -29 -153 -24 -168 4 -9 15 -16 26 -16 34 0 51 27 51
83 0 33 10 74 26 112 14 33 31 79 37 103 11 44 72 112 102 112 15 0 38 -34 29
-43 -3 -3 1 -31 10 -61 15 -52 14 -91 -4 -181 -11 -53 27 -61 62 -12 20 27 23
42 21 102 -2 39 -5 87 -9 107 -5 32 -2 39 20 53 40 26 52 8 61 -88 4 -45 13
-100 21 -122 7 -22 14 -51 14 -65 1 -38 23 -115 39 -134 48 -57 82 40 41 119
-29 57 -50 137 -50 190 0 48 -17 92 -44 114 -23 19 -21 23 29 73 36 37 45 53
44 79 -1 71 -18 80 -52 27 -19 -30 -54 -37 -63 -14 -5 14 36 88 55 101 6 3 19
-3 31 -15 13 -13 31 -19 53 -18 l32 3 0 -80 c0 -44 4 -87 10 -95 5 -8 10 -55
10 -105 2 -108 15 -159 61 -244 19 -35 46 -96 59 -136 13 -41 31 -87 40 -105
45 -87 65 -173 64 -271 -2 -94 -1 -97 31 -144 24 -35 34 -61 34 -89 1 -37 -2
-41 -25 -44 -35 -4 -73 29 -109 96 -20 38 -45 67 -74 87 -25 17 -54 46 -65 65
-11 20 -43 56 -70 82 -52 46 -59 67 -51 142 4 37 -11 65 -45 86 -39 24 -72 15
-79 -23 -8 -40 -19 -160 -22 -247 -2 -47 -4 -89 -4 -93 0 -13 -60 -34 -128
-47 -53 -9 -71 -9 -112 5 -82 27 -100 47 -100 113 0 31 5 83 11 116 7 34 18
92 25 130 14 75 6 110 -24 104 -19 -4 -21 -12 -58 -255 -36 -244 -36 -245 105
-261 48 -5 67 -12 77 -27 19 -30 -5 -76 -64 -122 -49 -36 -72 -74 -72 -115 0
-17 5 -19 32 -13 18 4 38 11 43 15 6 4 24 10 40 13 53 10 109 25 150 40 53 20
73 63 54 120 l-13 38 58 52 c54 49 59 56 70 116 6 35 16 66 22 68 6 2 21 -12
32 -31 11 -19 39 -46 61 -60 22 -14 47 -39 55 -55 9 -16 34 -43 56 -61 l40
-32 -6 -97 c-8 -112 -7 -115 74 -210 90 -107 149 -140 166 -95 10 25 38 207
42 269 17 276 17 271 -2 306 -11 22 -18 57 -18 96 -1 51 -5 66 -23 83 -24 22
-30 59 -13 90 14 26 2 50 -25 50 -35 0 -50 27 -50 90 0 31 -5 63 -11 71 -22
28 -54 106 -54 131 0 16 -15 40 -40 66 -47 47 -49 61 -15 90 31 27 23 52 -16
52 -50 0 -60 29 -49 150 4 57 6 125 3 150 -7 69 10 85 89 84 80 -1 278 -27
298 -38 8 -5 24 -17 35 -26 29 -25 60 -30 103 -17 41 12 117 66 140 98 14 21
14 21 -19 14 -19 -4 -46 -14 -61 -21 -37 -19 -51 -18 -76 9 -31 32 -27 53 11
67 46 17 106 45 149 71 31 19 40 20 52 9 9 -7 16 -20 16 -30 0 -10 8 -28 18
-40 17 -20 21 -21 87 -10 210 33 282 62 431 173 51 37 53 38 98 26 46 -11 48
-14 87 -94 l40 -83 -6 -149 c-3 -81 -13 -192 -21 -245 -18 -110 -12 -132 37
-143 17 -4 33 -13 35 -20 3 -7 -8 -45 -25 -83 -17 -39 -31 -76 -31 -83 0 -7
-9 -31 -19 -53 -41 -86 -53 -124 -71 -219 -11 -55 -31 -123 -45 -152 -14 -30
-25 -59 -25 -65 0 -6 -9 -28 -20 -50 -25 -50 -25 -60 2 -105 l23 -36 68 5
c136 10 270 72 238 110 -10 11 -6 21 19 49 36 42 79 132 87 184 6 39 36 107
58 133 7 8 21 44 30 80 19 72 31 100 45 100 15 0 90 -99 96 -128 3 -15 21 -58
39 -97 32 -68 75 -114 170 -183 45 -32 193 -49 260 -30 45 14 50 18 55 49 4
24 11 35 25 37 31 6 45 22 45 51 0 38 -17 51 -70 51 -86 0 -121 52 -68 100
l31 28 -22 30 c-21 29 -58 47 -111 54 -23 3 -25 7 -25 49 0 38 -5 51 -25 68
-14 11 -32 23 -41 26 -9 3 -33 30 -54 61 l-38 55 16 35 c10 19 17 53 17 76 0
37 6 46 65 104 61 60 77 84 56 84 -5 0 -11 -7 -15 -15 -3 -8 -10 -15 -16 -15
-13 0 -12 56 3 100 10 27 17 35 37 35 18 0 25 5 25 20 0 15 -6 19 -22 17 -21
-3 -23 1 -23 43 0 31 -8 60 -24 88 -32 55 -50 120 -42 149 4 16 27 33 79 57
39 19 95 51 122 71 28 21 69 47 91 58 63 32 105 72 125 119 24 56 50 57 112 1
26 -23 56 -46 66 -52 10 -6 31 -20 47 -31 25 -18 44 -20 179 -20 119 0 156 -4
180 -17 44 -23 105 -11 125 24 14 26 13 31 -8 70 -21 40 -23 52 -19 168 2 74
9 135 16 149 9 17 11 45 6 97 -6 67 -5 73 15 84 28 15 52 -4 50 -39 -4 -63 1
-84 30 -113 29 -29 33 -30 88 -23 78 10 95 20 59 36 -35 16 -34 32 3 46 32 12
39 33 16 52 -11 9 -20 9 -35 2 -25 -14 -68 -14 -76 0 -11 17 -1 20 85 31 77 9
83 8 104 -12 51 -47 52 -156 2 -210 -13 -14 -29 -35 -35 -47 -6 -13 -21 -23
-32 -23 -12 0 -38 -13 -58 -29 -20 -16 -53 -36 -73 -44 -40 -17 -50 -42 -20
-51 23 -8 124 43 154 78 l24 28 37 -41 c51 -56 50 -92 -3 -162 -42 -57 -49
-90 -29 -147 13 -39 -2 -72 -34 -72 -34 0 -148 40 -181 63 -21 15 -46 21 -82
22 -61 0 -72 -10 -98 -90 -8 -28 -29 -77 -46 -110 -16 -32 -30 -66 -30 -75 0
-10 -13 -34 -30 -55 -17 -21 -30 -50 -30 -65 0 -33 -28 -120 -46 -141 -8 -8
-18 -40 -24 -69 -6 -30 -21 -70 -35 -90 -17 -24 -29 -63 -39 -125 -16 -102
-15 -105 48 -176 55 -61 66 -109 66 -279 0 -89 4 -141 11 -146 20 -12 204 -34
237 -28 40 8 40 22 1 63 l-31 33 43 41 c57 55 100 68 191 56 39 -5 77 -14 85
-21 19 -15 43 -74 43 -104 0 -19 16 -31 107 -74 58 -28 116 -50 127 -48 34 5
32 52 -4 124 -38 73 -35 106 10 132 19 11 30 27 33 47 7 42 -5 51 -51 37 -22
-7 -53 -9 -69 -6 -22 4 -43 -1 -77 -20 -55 -31 -115 -34 -251 -11 -49 8 -107
15 -128 15 -43 0 -136 24 -181 47 -28 14 -28 16 -21 71 4 32 8 98 10 147 6
217 56 443 117 529 15 22 28 48 28 57 0 9 9 27 19 40 15 19 22 21 32 12 12
-12 7 -67 -21 -218 -16 -88 -25 -441 -11 -449 28 -18 41 15 41 103 0 47 7 127
15 176 8 50 15 113 15 140 0 28 7 73 16 100 39 119 46 121 79 20 19 -58 26
-118 40 -345 15 -238 19 -278 35 -294 11 -12 25 -16 35 -12 14 5 16 13 10 44
-4 20 -9 91 -11 157 -1 67 -7 181 -13 255 -15 181 -14 230 2 230 14 0 47 -61
47 -87 0 -9 7 -39 15 -67 41 -141 59 -233 70 -354 8 -99 15 -137 28 -149 34
-34 40 -5 29 139 -14 166 -23 218 -56 296 -14 34 -26 72 -26 85 0 28 -16 81
-34 117 -17 32 -30 120 -18 120 4 0 19 -19 32 -42 13 -24 31 -53 41 -66 20
-26 35 -73 86 -272 19 -74 41 -154 48 -177 8 -23 17 -78 21 -123 7 -87 23
-115 50 -89 14 15 17 54 13 224 -1 39 1 82 5 97 6 20 3 31 -14 48 -17 17 -21
31 -18 58 4 30 -1 41 -28 69 -20 20 -36 47 -40 70 -3 21 -12 47 -18 58 -20 32
-46 116 -46 147 0 17 -7 31 -15 35 -27 10 -45 59 -45 120 0 58 57 250 83 282
7 8 36 25 65 38 43 19 70 23 150 23 111 0 136 9 101 34 -13 9 -27 16 -32 16
-5 0 -25 14 -44 30 -25 22 -44 30 -72 30 -23 0 -48 8 -62 19 -40 33 -14 44
106 47 58 1 109 5 112 8 14 14 -26 36 -105 59 -87 25 -109 38 -98 56 12 19 69
22 271 14 l200 -8 3 -32 c2 -24 -3 -39 -22 -58 -28 -28 -54 -31 -118 -14 -32
8 -51 8 -72 0 -27 -11 -28 -13 -14 -27 9 -9 42 -21 74 -27 48 -10 60 -16 62
-33 2 -11 -4 -27 -13 -34 -21 -17 -19 -47 4 -59 19 -11 87 9 121 34 8 6 29 17
45 25 17 8 45 25 64 38 19 12 46 22 60 22 46 0 136 -34 286 -105 66 -32 146
-55 188 -55 55 0 63 -19 44 -98 -28 -118 -30 -153 -12 -222 9 -36 20 -87 25
-115 14 -79 39 -165 55 -188 8 -12 15 -41 15 -64 0 -53 -36 -187 -60 -228 -10
-16 -25 -48 -33 -70 -53 -145 -122 -314 -137 -335 -9 -14 -20 -38 -24 -55 -4
-16 -17 -40 -29 -53 -15 -16 -22 -39 -25 -80 -4 -51 -1 -62 22 -89 33 -40 84
-57 141 -49 62 10 119 70 145 155 11 35 20 71 20 80 0 25 27 121 44 161 16 33
47 89 91 158 21 33 42 41 50 20 8 -22 37 -340 36 -393 -2 -56 17 -181 30 -207
5 -10 19 -22 30 -28 25 -14 179 -39 196 -33 17 7 19 19 38 208 9 94 20 196 26
228 5 31 7 72 4 91 -4 21 -2 44 7 61 13 23 13 34 0 78 -11 44 -16 117 -12 212
0 11 -2 34 -6 51 -9 45 50 176 104 232 23 24 42 50 42 57 0 7 12 27 26 45 20
23 25 37 19 58 -3 15 -10 52 -14 83 -5 30 -14 71 -21 91 -10 28 -11 48 -1 96
11 54 10 65 -8 104 -37 80 -51 136 -42 161 11 28 101 77 142 77 17 0 44 7 62
16 39 20 107 83 107 100 0 7 14 23 30 36 17 13 49 40 72 60 23 21 50 41 60 44
28 9 21 31 -12 37 -30 6 -94 80 -87 101 2 5 21 16 43 23 38 14 85 13 132 -2
29 -9 30 17 2 62 -27 45 -53 57 -87 40 -16 -8 -55 -20 -88 -27 -33 -7 -87 -26
-119 -41 -33 -16 -68 -29 -78 -29 -10 0 -60 -20 -110 -45 -99 -49 -123 -54
-132 -29 -10 27 -7 32 51 74 69 49 82 70 83 130 l0 45 -18 -30 c-21 -33 -87
-95 -103 -95 -22 0 -20 33 6 88 34 72 48 165 40 267 -8 93 -20 121 -72 163
-32 26 -36 34 -27 49 12 19 101 51 145 52 15 1 37 -7 49 -17 19 -16 21 -22 11
-40 -6 -12 -30 -27 -52 -34 -23 -6 -43 -18 -46 -25 -3 -7 7 -36 21 -65 14 -28
26 -60 26 -69 0 -30 21 -33 46 -5 26 27 48 33 59 16 9 -14 -13 -47 -69 -103
-25 -25 -46 -50 -46 -55 0 -5 8 -29 19 -52 l19 -42 12 36 c6 19 38 65 71 101
53 58 59 70 59 108 0 23 -9 69 -20 101 -11 33 -20 79 -20 103 0 52 -16 87 -62
130 -28 26 -43 32 -101 38 -56 6 -71 12 -83 31 -19 28 -50 38 -180 58 -136 21
-145 21 -219 -14 -35 -16 -69 -30 -75 -30 -19 0 -10 -17 15 -28 14 -7 27 -23
30 -39 4 -15 13 -45 22 -65 36 -86 -21 -93 -102 -13 -59 58 -93 68 -129 42
-25 -19 -32 -87 -12 -126 9 -17 14 -36 11 -41 -4 -6 -1 -34 6 -64 11 -52 11
-55 -14 -88 -36 -47 -52 -121 -39 -182 13 -64 -6 -72 -56 -23 -31 31 -36 43
-36 79 1 60 18 113 49 158 32 47 29 70 -15 118 -36 39 -36 46 -10 112 11 28
20 59 20 70 0 11 12 31 27 45 26 23 26 25 7 25 -11 0 -32 -13 -47 -28 -31 -33
-43 -84 -53 -233 -3 -57 -13 -129 -20 -159 -8 -30 -14 -82 -14 -115 0 -56 3
-64 34 -96 19 -18 60 -54 91 -79 88 -70 128 -112 154 -162 22 -41 23 -48 11
-63 -12 -14 -25 -16 -77 -12 -59 6 -100 -1 -150 -25 -17 -8 -44 -7 -105 5 -46
9 -106 19 -133 22 -67 7 -147 -17 -169 -50 -33 -50 -148 -24 -164 37 -19 73
-111 97 -214 55 -35 -14 -76 -28 -93 -32 -16 -4 -42 -18 -57 -32 -21 -20 -40
-27 -80 -29 -29 -2 -74 -6 -100 -9 -46 -7 -48 -6 -104 46 -31 30 -65 66 -76
82 l-20 27 30 63 c16 34 54 90 84 123 49 55 57 70 76 147 28 109 28 123 -4
201 -22 56 -24 69 -15 104 6 22 20 51 31 65 11 14 20 29 20 34 0 4 27 35 60
68 33 33 60 63 60 67 0 3 12 20 26 37 31 37 43 120 24 176 -13 39 -54 65 -104
65 -42 0 -77 22 -97 62 -27 53 -68 68 -119 46z m-639 -127 c14 -70 85 -97 134
-51 19 18 35 22 75 21 71 -1 101 -18 120 -66 8 -22 23 -51 32 -64 11 -16 15
-34 11 -57 -3 -19 0 -55 7 -81 21 -83 19 -81 45 -49 l23 29 17 -26 c9 -14 15
-38 13 -54 -3 -27 -6 -28 -63 -31 -73 -4 -86 8 -75 71 12 70 5 160 -13 171
-29 18 -42 -9 -46 -95 -3 -85 -17 -107 -48 -76 -13 13 -14 28 -3 122 12 94 11
108 -3 122 -35 35 -57 -7 -57 -111 0 -31 -6 -60 -15 -72 -15 -18 -15 -18 -29
0 -11 13 -13 32 -9 67 8 64 -15 94 -64 84 -18 -3 -33 -2 -33 3 0 6 -16 32 -35
60 -53 78 -58 127 -12 120 15 -2 23 -13 28 -37z m649 5 c0 -8 -10 -32 -22 -52
-27 -46 -30 -166 -5 -192 14 -13 18 -11 35 18 11 17 23 53 27 78 8 52 30 102
46 102 22 0 129 -81 129 -98 0 -21 -82 -140 -146 -212 -12 -14 -24 -38 -26
-55 -5 -45 -32 -39 -36 8 -3 34 -6 37 -32 37 -36 0 -50 23 -50 79 0 27 -13 66
-37 115 -20 40 -33 80 -30 89 9 23 106 97 128 97 10 0 19 -6 19 -14z m1843
-285 c25 -24 15 -56 -23 -76 -42 -22 -67 -18 -86 11 -16 24 -16 27 0 61 16 33
19 35 53 30 20 -4 45 -15 56 -26z m-4126 -152 c24 -15 43 -20 65 -15 48 9 58
-5 43 -62 -7 -26 -16 -59 -19 -74 -4 -16 -12 -28 -20 -28 -19 0 -40 54 -32 85
8 33 -30 60 -74 50 -59 -13 -66 -84 -10 -103 35 -13 41 -46 10 -62 -17 -9 -28
-7 -54 9 -80 50 -75 164 9 202 22 10 42 18 44 18 2 1 19 -9 38 -20z m402 -14
c40 -20 47 -46 21 -67 -21 -17 -23 -17 -50 4 -39 28 -75 18 -97 -27 -16 -33
-16 -36 3 -56 10 -12 34 -28 52 -36 40 -17 66 -5 80 37 19 53 72 27 72 -35 0
-28 -7 -39 -42 -64 -53 -39 -75 -39 -124 0 -26 20 -46 29 -62 26 -35 -7 -66
24 -66 65 0 49 48 121 98 146 49 25 78 27 115 7z m3758 -62 c19 -21 51 -63 71
-93 36 -55 36 -55 40 -188 l4 -134 -38 -76 c-21 -43 -47 -88 -56 -100 -13 -18
-16 -35 -12 -66 10 -67 -23 -125 -86 -154 -55 -25 -71 -55 -51 -98 14 -31 14
-119 1 -145 -7 -13 -21 -19 -45 -19 -57 0 -64 -31 -67 -290 -1 -120 2 -193 12
-233 12 -54 12 -62 -5 -94 -22 -41 -35 -49 -96 -58 -60 -9 -67 1 -86 121 -12
78 -13 111 -4 165 6 37 11 103 12 146 1 102 13 205 38 327 12 55 19 107 15
118 -3 11 0 20 11 24 29 11 35 -9 23 -78 -8 -53 -8 -71 2 -83 20 -24 49 -18
60 11 19 48 24 170 10 205 -12 29 -12 33 7 48 11 9 50 23 86 30 70 14 110 42
89 63 -9 9 -21 8 -51 -2 -23 -7 -63 -11 -95 -8 -74 6 -114 44 -166 153 -69
146 -74 193 -30 272 17 29 30 61 30 72 0 37 118 126 207 156 25 9 57 22 72 30
41 22 61 18 98 -22z m-1947 -43 c29 -46 -5 -100 -62 -100 -27 0 -68 -30 -68
-50 0 -12 75 -60 95 -60 24 0 77 54 89 91 13 41 36 44 54 7 11 -23 11 -42 -2
-115 -15 -88 -15 -88 -70 -138 -44 -39 -68 -74 -112 -160 -66 -130 -78 -142
-131 -125 -37 12 -96 59 -113 90 -4 8 -16 73 -25 144 -12 98 -22 140 -41 171
-15 26 -24 57 -24 82 0 54 43 148 74 165 38 20 323 18 336 -2z m-2455 -142
c18 -16 -15 -26 -57 -15 -27 7 -46 6 -64 -2 -31 -14 -44 -14 -44 -1 0 6 15 17
33 25 33 15 113 11 132 -7z m-1542 -74 c57 -62 71 -91 81 -177 6 -49 5 -58
-10 -64 -22 -8 -46 21 -63 78 -7 24 -19 55 -27 69 -8 14 -20 37 -26 53 -9 19
-24 31 -50 38 -26 7 -38 15 -38 28 0 25 9 31 47 31 28 0 42 -9 86 -56z m2405
50 c32 -9 24 -38 -12 -41 -39 -3 -65 -29 -64 -65 1 -32 -24 -64 -41 -54 -6 4
-11 34 -11 66 0 48 4 63 22 80 22 20 62 25 106 14z m-444 -30 c3 -8 -1 -28 -9
-44 -8 -16 -15 -51 -15 -78 0 -75 -26 -102 -96 -102 -47 0 -54 -3 -54 -19 0
-26 8 -30 80 -42 48 -7 66 -6 89 5 25 13 29 22 34 73 4 43 12 63 28 76 26 21
82 22 99 2 21 -25 23 -90 6 -143 -10 -29 -16 -75 -15 -113 2 -61 1 -64 -31
-88 -19 -15 -53 -43 -77 -63 -23 -20 -53 -39 -65 -43 -13 -3 -40 -11 -61 -17
-30 -9 -52 -8 -110 5 -40 10 -80 17 -89 17 -27 0 -96 67 -103 100 -3 16 -13
34 -21 41 -31 26 -33 44 -13 108 10 35 19 74 19 87 0 29 49 123 71 134 19 11
30 3 49 -35 31 -60 111 -71 131 -17 6 15 9 50 6 79 -6 60 -1 67 63 81 65 14
77 14 84 -4z m-504 -89 c0 -8 -7 -15 -15 -15 -16 0 -20 12 -8 23 11 12 23 8
23 -8z m-1540 -152 c0 -70 -12 -106 -28 -88 -15 17 -2 155 14 155 11 0 14 -17
14 -67z m2586 52 c11 -27 -6 -64 -35 -79 -36 -19 -42 -36 -31 -77 12 -40 -3
-69 -35 -69 -18 0 -24 6 -27 28 -4 38 -28 34 -57 -10 -26 -41 -41 -47 -61 -24
-9 12 -7 24 8 58 22 50 35 62 77 72 18 5 49 29 78 62 49 55 73 66 83 39z
m-1076 -64 c0 -30 -23 -43 -46 -26 -19 15 -19 15 0 30 27 20 46 19 46 -4z
m-1145 -150 c27 -27 73 -62 100 -78 44 -25 52 -36 69 -84 19 -54 19 -58 1
-165 -18 -106 -20 -110 -60 -149 -131 -126 -185 -164 -232 -165 -12 0 -61 16
-110 35 -85 35 -89 38 -121 93 -18 31 -40 69 -49 83 -15 24 -14 33 20 153 21
71 37 140 37 155 0 50 50 80 158 96 42 6 61 16 91 49 14 14 29 26 35 26 6 0
33 -22 61 -49z m6179 0 c6 -9 -20 -81 -30 -81 -39 0 -59 60 -26 79 21 13 49
14 56 2z m-161 -97 l28 -41 -13 -73 c-14 -81 -6 -72 -118 -124 -52 -24 -150
-47 -215 -50 l-30 -1 0 86 c0 77 3 90 27 127 23 33 38 44 80 57 29 9 76 27
103 40 71 34 103 29 138 -21z m-1633 -4 c44 -44 18 -58 -118 -65 -62 -3 -112
-1 -112 3 0 29 113 81 178 82 19 0 40 -8 52 -20z m805 -60 c18 -20 17 -21 -12
-63 -17 -24 -39 -67 -49 -96 -22 -68 -40 -84 -126 -112 -61 -20 -73 -21 -101
-10 -18 8 -50 16 -72 18 -52 7 -65 18 -65 60 0 19 -12 64 -26 99 -14 36 -23
71 -20 79 9 24 81 40 124 27 20 -6 71 -14 112 -17 64 -4 79 -2 105 15 40 27
106 27 130 0z m-589 -39 c17 -2 34 -48 34 -92 0 -57 -34 -90 -87 -83 -62 9
-66 12 -60 41 3 15 -1 47 -9 72 -8 26 -10 49 -4 55 7 9 75 13 126 7z m-1928
-27 c38 -15 39 -26 11 -91 -30 -70 -45 -83 -95 -83 -24 0 -54 -5 -67 -11 -15
-7 -31 -8 -40 -3 -26 15 -87 95 -87 114 0 21 47 52 100 68 19 6 49 15 65 20
33 10 62 7 113 -14z m506 -60 c22 -8 20 -57 -2 -77 -10 -9 -36 -23 -59 -31
-22 -8 -79 -39 -127 -70 -68 -44 -86 -60 -86 -79 0 -16 9 -28 25 -35 57 -26
129 -7 179 47 35 36 54 39 65 9 25 -68 -52 -117 -196 -126 l-81 -4 -44 40
c-24 23 -69 62 -100 88 -32 25 -58 50 -58 54 0 25 59 44 94 30 24 -9 25 -12
14 -30 -11 -17 -10 -22 2 -30 8 -5 20 -8 25 -6 10 3 10 12 -1 59 -5 20 -3 27
9 27 45 0 185 57 257 104 58 39 60 39 84 30z m-1514 -39 c6 -8 10 -22 8 -32
-5 -25 -51 -25 -56 0 -8 42 23 63 48 32z m707 -97 c32 -29 29 -59 -10 -110
-27 -35 -44 -46 -92 -61 -33 -10 -78 -26 -100 -36 -22 -11 -71 -24 -109 -31
-97 -18 -117 -39 -109 -116 3 -33 17 -86 31 -119 21 -50 25 -80 28 -180 2 -66
12 -155 21 -198 13 -62 14 -83 4 -104 -11 -24 -15 -25 -62 -20 -36 4 -75 0
-132 -15 -45 -11 -98 -22 -117 -23 -19 -2 -58 -12 -86 -24 -60 -23 -71 -19
-98 46 -18 41 -18 46 4 187 21 138 21 147 5 195 -9 27 -25 61 -36 75 -14 18
-19 39 -18 83 1 62 -5 115 -16 134 -5 7 -22 9 -45 5 -43 -7 -57 4 -62 49 -2
22 -9 31 -25 33 -27 4 -46 -28 -37 -63 11 -43 -4 -75 -41 -91 -48 -20 -52 -18
-59 21 -8 38 -17 48 -40 39 -22 -8 -28 -37 -16 -69 23 -61 -28 -102 -80 -65
-15 11 -33 20 -39 20 -15 0 -31 -34 -31 -69 0 -21 -7 -35 -25 -47 -53 -35
-145 -26 -145 13 0 24 66 117 103 144 17 12 56 35 87 50 30 15 80 49 110 77
103 93 125 109 219 156 97 47 118 50 153 19 12 -10 15 -24 11 -48 -6 -40 23
-65 79 -65 28 0 38 -5 43 -20 8 -25 -1 -87 -20 -150 -8 -25 -15 -58 -15 -75
-2 -72 34 -481 43 -492 16 -21 43 -15 55 12 19 42 17 99 -18 370 -7 53 -5 96
7 178 14 87 15 116 5 151 -21 80 40 210 91 193 13 -4 15 -30 20 -202 1 -60 6
-120 11 -133 5 -14 2 -33 -9 -55 -26 -50 -30 -127 -11 -178 9 -24 18 -78 21
-119 9 -126 18 -175 35 -175 11 0 14 11 12 45 -1 25 5 89 14 143 9 54 14 103
11 110 -3 7 -12 28 -21 48 -14 34 -14 38 9 85 13 27 22 56 20 64 -10 33 -35
237 -35 282 0 76 12 90 68 83 102 -13 107 -18 75 -73 -31 -53 4 -79 65 -48 16
8 40 36 54 63 15 26 37 58 50 70 57 53 155 69 195 31z m3334 -70 c39 -31 40
-35 34 -75 -8 -54 16 -177 54 -283 17 -46 31 -96 31 -111 0 -68 -179 -201
-246 -185 -34 9 -55 63 -55 140 1 33 -2 148 -5 254 -3 106 -3 205 1 219 5 23
9 25 46 20 35 -5 41 -2 60 24 11 16 25 29 30 29 6 0 28 -15 50 -32z m-5808
-217 c21 -21 1 -66 -41 -94 -35 -23 -41 -32 -31 -43 6 -8 23 -14 38 -14 36 0
51 -17 51 -57 0 -24 8 -40 27 -56 60 -51 63 -55 53 -83 -13 -32 -44 -76 -89
-121 -43 -44 -75 -42 -79 5 -2 23 -8 32 -22 32 -19 0 -74 -67 -120 -145 -39
-66 -50 -75 -87 -75 -70 0 -93 36 -93 146 0 60 2 66 51 131 29 37 62 79 75 94
13 14 24 37 24 52 0 20 10 33 40 52 60 38 76 67 61 114 -13 44 -7 68 17 75 23
6 115 -3 125 -13z m-328 -67 c38 -55 39 -57 22 -83 -9 -14 -33 -59 -52 -98
-20 -40 -43 -73 -51 -73 -7 0 -21 14 -29 31 -9 16 -22 28 -28 26 -7 -2 -19
-32 -28 -66 -9 -35 -24 -70 -32 -78 -14 -14 -17 -12 -31 16 -29 54 -84 32 -71
-29 5 -21 2 -39 -9 -55 -22 -33 -35 -31 -47 5 -12 34 -17 36 -44 16 -16 -11
-19 -25 -17 -70 2 -45 -2 -60 -18 -76 -11 -11 -24 -20 -30 -20 -18 0 -90 77
-90 97 0 29 44 85 152 193 52 52 125 130 163 174 68 76 154 144 186 145 9 1
33 -24 54 -55z m2519 -131 c25 -50 68 -205 62 -228 -6 -25 -47 -47 -65 -35 -8
4 -17 45 -22 96 -5 49 -12 106 -15 126 -11 67 14 91 40 41z m3537 -333 c10 -6
19 -19 19 -30 0 -10 11 -41 25 -68 14 -28 26 -68 27 -89 1 -45 -30 -445 -37
-465 -2 -7 -6 -58 -8 -113 -8 -184 -73 -242 -132 -118 -14 29 -19 86 -25 307
-7 213 -13 291 -29 365 -35 160 -29 178 69 204 69 19 68 19 91 7z m-290 -76
c10 -12 10 -31 1 -92 -13 -94 -39 -210 -52 -237 -6 -11 -28 -69 -49 -130 -84
-240 -142 -355 -176 -355 -19 0 -45 51 -45 87 0 15 14 46 30 67 17 22 30 48
30 57 0 22 25 98 51 155 10 22 25 70 34 105 9 35 27 98 40 139 13 41 27 93 30
115 14 85 70 132 106 89z m-3547 -262 c21 -34 -8 -242 -44 -312 -12 -23 -30
-72 -39 -109 -10 -36 -30 -88 -45 -115 -14 -27 -26 -54 -26 -61 0 -19 -95
-103 -126 -111 -15 -4 -34 -2 -43 3 -19 13 -17 64 4 102 19 34 73 191 90 261
7 30 22 84 34 120 11 36 21 75 21 87 0 56 150 173 174 135z m271 -112 c8 -16
15 -35 15 -42 0 -7 30 -53 66 -102 36 -49 84 -118 105 -152 21 -35 47 -72 58
-83 21 -21 47 -120 38 -145 -6 -16 -18 -16 -77 0 -17 4 -36 28 -187 234 -102
138 -133 199 -133 258 0 37 27 62 66 62 27 0 36 -6 49 -30z"/>
<path d="M8787 5450 c-62 -8 -86 -27 -87 -67 0 -12 8 -26 18 -31 9 -5 83 -8
164 -8 128 1 149 4 167 20 12 11 21 23 21 28 0 5 -30 22 -66 38 -69 31 -103
35 -217 20z"/>
<path d="M8822 5239 c-16 -6 -22 -15 -20 -30 5 -34 32 -46 63 -29 49 26 11 79
-43 59z"/>
<path d="M8785 5129 c-12 -19 4 -55 30 -67 51 -23 95 -10 95 30 0 34 -108 66
-125 37z"/>
<path d="M6780 5470 c-22 -41 33 -85 65 -53 16 15 13 25 -13 56 -20 23 -39 22
-52 -3z"/>
<path d="M6917 5278 c-21 -11 -22 -54 -2 -62 9 -3 24 3 35 14 31 31 5 70 -33
48z"/>
<path d="M6840 5110 c-13 -8 -13 -13 0 -37 34 -61 184 -29 163 35 -6 15 -140
17 -163 2z"/>
<path d="M4934 5014 c-97 -15 -111 -20 -120 -47 -9 -28 28 -57 74 -57 20 0 71
10 114 21 59 16 83 28 95 46 9 14 12 28 7 32 -15 15 -87 17 -170 5z"/>
<path d="M3156 4820 c-52 -7 -79 -30 -74 -64 2 -10 11 -24 20 -30 13 -8 22 -6
40 12 13 12 39 27 56 33 25 9 32 16 30 32 -4 25 -9 26 -72 17z"/>
<path d="M3384 4820 c-21 -8 -54 -46 -54 -62 0 -35 87 -51 128 -22 27 19 28
44 2 72 -22 23 -41 26 -76 12z"/>
<path d="M3163 4645 c-28 -20 -30 -51 -4 -65 44 -23 140 -2 154 34 9 22 -12
33 -73 41 -42 5 -60 2 -77 -10z"/>
<path d="M3117 4523 c-27 -27 13 -72 74 -83 51 -10 174 26 174 50 0 30 -51 43
-121 31 -44 -8 -70 -8 -83 -1 -23 12 -35 13 -44 3z"/>
<path d="M5903 4695 c-63 -27 -32 -62 41 -45 53 12 67 27 42 46 -24 17 -42 17
-83 -1z"/>
<path d="M3087 4012 c-12 -13 -15 -28 -11 -53 8 -47 -15 -91 -77 -147 -52 -46
-62 -79 -33 -103 14 -12 20 -9 45 21 16 19 29 39 29 46 0 6 25 42 55 79 80 97
104 150 73 159 -48 15 -66 15 -81 -2z"/>
<path d="M4945 2860 c-31 -44 -29 -78 4 -61 27 15 55 101 32 101 -4 0 -21 -18
-36 -40z"/>
<path d="M8510 5850 c0 -13 11 -13 30 0 12 8 11 10 -7 10 -13 0 -23 -4 -23
-10z"/>
<path d="M9782 4938 c-6 -6 -12 -19 -12 -27 0 -13 2 -13 16 1 9 9 15 21 13 27
-3 9 -8 8 -17 -1z"/>
<path d="M6846 4576 c7 -19 48 -22 42 -3 -3 6 -14 13 -26 15 -16 3 -20 -1 -16
-12z"/>
<path d="M3464 4056 c-9 -22 2 -46 21 -46 12 0 15 8 13 27 -3 30 -25 42 -34
19z"/>
<path d="M3437 3494 c-8 -8 1 -24 14 -24 5 0 9 7 9 15 0 15 -12 20 -23 9z"/>
<path d="M3310 2752 c0 -21 115 -112 141 -112 33 0 21 27 -24 53 -23 14 -51
34 -61 46 -19 20 -56 29 -56 13z"/>
</g>
</svg>
