<?xml version="1.0" standalone="no"?>
<!DOCTYPE svg PUBLIC "-//W3C//DTD SVG 20010904//EN"
 "http://www.w3.org/TR/2001/REC-SVG-20010904/DTD/svg10.dtd">
<svg version="1.0" xmlns="http://www.w3.org/2000/svg"
 width="800.000000pt" height="1200.000000pt" viewBox="0 0 800.000000 1200.000000"
 preserveAspectRatio="xMidYMid meet">

<g transform="translate(0.000000,1200.000000) scale(0.100000,-0.100000)"
fill="#4a4a4a" stroke="none">
<path d="M1969 10661 c-31 -32 -37 -51 -16 -51 36 0 67 -97 37 -115 -5 -3 -10
-21 -10 -40 0 -19 5 -37 10 -40 6 -3 10 -18 10 -33 0 -15 7 -36 15 -46 8 -11
15 -30 15 -42 0 -13 5 -26 10 -29 6 -3 10 -30 10 -60 0 -30 5 -66 12 -82 6
-15 12 -41 13 -56 3 -32 10 -42 24 -33 13 8 8 91 -9 143 -13 43 -8 79 10 68 5
-3 10 -17 10 -30 0 -13 5 -27 10 -30 6 -3 10 -28 10 -55 0 -27 5 -61 11 -77 7
-15 13 -50 15 -77 4 -56 13 -70 37 -60 12 4 17 18 17 43 0 20 5 42 11 48 5 5
12 39 15 74 3 35 9 68 14 73 6 6 10 24 10 42 0 18 7 45 15 61 8 15 17 49 20
76 4 32 11 47 21 47 21 0 29 -29 16 -51 -7 -10 -12 -32 -12 -48 0 -16 -7 -45
-15 -64 -8 -20 -15 -49 -15 -65 0 -15 -4 -32 -10 -38 -5 -5 -12 -56 -16 -114
-6 -91 -4 -107 10 -119 9 -7 16 -22 16 -32 0 -10 7 -22 16 -27 23 -13 13 -45
-16 -52 -16 -4 -26 -14 -28 -28 -2 -12 -11 -22 -20 -22 -25 -1 -55 -27 -49
-43 9 -24 66 -9 73 19 3 13 14 24 23 24 24 0 81 55 81 78 0 11 7 25 15 32 9 8
13 21 9 32 -4 13 5 31 28 57 18 20 42 50 54 66 14 20 25 27 38 22 16 -6 15
-10 -7 -39 -31 -42 -57 -96 -57 -118 0 -10 -7 -23 -15 -30 -8 -7 -15 -18 -15
-25 0 -7 -7 -18 -15 -25 -11 -9 -15 -34 -15 -100 0 -75 -4 -94 -26 -134 -25
-44 -54 -60 -69 -36 -3 6 -17 10 -30 10 -13 0 -27 -4 -30 -10 -7 -12 -45 -14
-45 -2 0 4 14 16 30 27 48 32 42 38 -39 39 -46 1 -67 20 -31 29 26 7 27 43 0
50 -11 3 -20 14 -20 25 0 24 -30 52 -57 52 -19 0 -36 17 -85 80 -6 8 -20 25
-31 37 -12 14 -17 28 -12 42 7 22 39 29 50 11 3 -5 13 -10 21 -10 20 0 19 69
-1 76 -8 4 -15 15 -15 26 0 16 5 19 24 14 30 -8 43 19 17 36 -14 9 -17 20 -14
52 4 30 1 45 -11 55 -9 7 -16 21 -17 30 0 9 -9 30 -20 46 -10 17 -22 37 -25
45 -4 8 -14 32 -22 53 -9 20 -19 37 -24 37 -4 0 -8 6 -8 13 0 8 -11 34 -25 58
-13 24 -32 59 -41 77 -17 34 -32 40 -52 20 -14 -14 -16 -124 -2 -133 6 -3 10
-20 10 -37 0 -17 6 -39 14 -47 19 -22 31 -97 16 -106 -14 -8 -45 22 -54 53 -9
27 -37 28 -59 4 -21 -23 -22 -46 -2 -62 9 -7 15 -29 15 -54 0 -32 6 -48 25
-66 14 -13 25 -32 25 -42 0 -18 77 -139 93 -146 4 -2 7 -12 7 -22 0 -11 18
-38 40 -62 32 -35 40 -51 40 -83 0 -22 7 -49 15 -59 8 -11 15 -30 15 -43 0
-13 5 -23 10 -23 6 0 10 -9 10 -19 0 -11 -4 -23 -10 -26 -6 -4 -10 -71 -10
-169 0 -127 -3 -166 -15 -182 -8 -10 -15 -39 -15 -64 0 -34 -6 -52 -25 -72
-17 -19 -25 -39 -25 -64 0 -26 -8 -46 -30 -71 -16 -18 -30 -40 -30 -48 0 -8
-4 -15 -10 -15 -5 0 -10 -12 -10 -27 0 -31 -30 -103 -43 -103 -5 0 -6 -11 -3
-24 4 -16 -1 -32 -14 -49 -11 -14 -20 -39 -20 -56 0 -17 -5 -31 -11 -31 -8 0
-10 -15 -6 -46 3 -33 1 -47 -9 -51 -7 -3 -24 -21 -36 -41 -12 -21 -24 -39 -27
-42 -15 -13 -41 -74 -41 -95 0 -12 7 -28 15 -35 8 -7 15 -21 15 -31 0 -10 5
-21 10 -24 6 -3 10 -13 10 -21 0 -23 41 -53 71 -54 15 0 32 -7 39 -15 9 -10
32 -15 75 -15 44 0 66 -5 75 -15 9 -11 22 -14 40 -10 18 4 31 1 40 -10 7 -8
19 -15 27 -15 7 0 38 -18 68 -40 30 -22 65 -40 79 -40 14 0 28 -4 31 -10 3 -5
13 -10 22 -10 15 0 74 -23 103 -41 8 -5 35 -18 60 -30 25 -12 57 -30 72 -40
14 -11 42 -19 61 -19 42 0 77 -29 77 -63 0 -19 11 -34 43 -56 63 -43 70 -54
56 -85 -10 -20 -10 -29 -1 -38 7 -7 12 -18 12 -25 0 -8 9 -24 20 -35 12 -14
18 -29 14 -41 -6 -20 20 -57 41 -57 20 0 55 -45 55 -72 0 -15 7 -29 16 -32 12
-5 14 -13 9 -33 -5 -23 1 -33 45 -74 65 -60 92 -108 84 -149 -5 -20 -2 -36 8
-48 8 -9 17 -24 21 -32 3 -8 33 -48 67 -88 68 -80 78 -120 29 -114 -35 4 -43
-20 -18 -51 27 -35 24 -48 -10 -41 -16 4 -32 1 -35 -5 -4 -6 -18 -11 -32 -11
-30 0 -42 -26 -21 -47 12 -12 13 -20 4 -34 -16 -26 16 -48 69 -49 26 0 44 -5
47 -13 8 -20 109 -67 145 -67 37 0 47 -12 30 -39 -9 -15 -9 -23 1 -35 16 -20
5 -56 -18 -56 -21 0 -42 -23 -59 -63 -16 -37 -15 -47 3 -47 8 0 25 -10 36 -21
18 -18 29 -20 69 -15 55 7 71 -5 46 -33 -19 -21 -12 -48 14 -56 16 -5 19 -19
22 -88 2 -57 0 -85 -9 -93 -8 -6 -13 -34 -13 -64 l0 -52 35 6 c40 8 49 -11 15
-32 -21 -13 -27 -56 -10 -67 6 -4 10 -62 10 -141 0 -106 3 -140 16 -159 14
-22 14 -26 -2 -55 -17 -27 -17 -33 -4 -53 11 -16 15 -53 15 -142 0 -66 -3
-129 -6 -140 -4 -11 -3 -29 1 -40 4 -11 4 -30 -1 -43 -5 -13 -4 -42 3 -72 10
-43 9 -52 -5 -68 -21 -23 -21 -36 -1 -53 12 -10 15 -25 11 -56 -2 -24 -1 -46
4 -49 16 -9 10 -40 -11 -59 -26 -24 -25 -62 2 -85 19 -15 21 -21 10 -44 -8
-18 -10 -76 -7 -192 3 -106 1 -173 -6 -186 -7 -13 -7 -33 1 -66 7 -26 13 -59
13 -74 1 -14 5 -30 10 -34 4 -4 0 -15 -9 -25 -13 -15 -14 -24 -5 -50 15 -43
14 -49 -8 -49 -10 0 -26 -11 -35 -25 -18 -28 -60 -34 -70 -10 -8 21 -26 19
-26 -2 0 -10 14 -26 30 -35 33 -19 37 -35 15 -64 -19 -25 -19 -58 0 -74 8 -7
15 -19 15 -27 0 -8 11 -29 25 -47 14 -18 25 -36 25 -40 0 -11 -43 -45 -56 -46
-6 0 -25 -7 -41 -15 -58 -29 -110 -167 -72 -191 5 -3 9 -20 9 -38 0 -24 12
-48 42 -86 40 -50 41 -54 23 -64 -26 -15 -84 -79 -101 -112 -8 -14 -14 -52
-14 -84 0 -48 5 -64 27 -92 49 -60 117 -128 130 -128 21 0 32 -34 24 -72 -10
-41 2 -121 18 -126 5 -2 21 -12 35 -23 25 -20 26 -23 26 -144 0 -79 4 -126 11
-131 7 -4 9 -22 5 -48 -3 -26 -1 -47 7 -56 17 -22 64 -50 82 -50 9 0 26 -7 39
-16 19 -12 45 -14 118 -11 51 2 98 6 103 8 6 1 20 -1 33 -5 36 -12 52 9 52 70
0 29 5 87 11 129 9 58 9 83 0 102 -8 18 -9 29 -1 38 8 10 8 19 1 33 -8 15 -7
27 4 48 13 25 19 28 60 25 25 -1 58 -9 73 -17 15 -8 56 -14 92 -14 36 -1 76
-7 90 -15 27 -15 157 -10 175 6 5 5 18 9 28 9 10 0 31 6 45 14 59 30 81 34
167 31 191 -8 264 -16 276 -31 14 -17 43 -18 68 -2 15 9 22 8 35 -5 12 -12 16
-36 16 -106 0 -74 4 -96 22 -128 24 -42 89 -126 101 -131 4 -2 7 -13 7 -24 0
-26 244 -268 269 -268 9 0 26 -7 37 -15 10 -8 29 -15 42 -15 12 0 22 -4 22
-10 0 -5 26 -10 58 -10 31 -1 68 -7 82 -15 14 -8 51 -14 83 -15 52 0 63 -4
100 -35 39 -33 49 -37 107 -40 33 -1 109 -25 141 -44 64 -38 124 -79 166 -115
26 -21 62 -45 81 -54 67 -32 70 -9 73 493 2 582 1 1028 -4 1204 -4 149 -7 165
-26 184 -16 17 -23 19 -33 9 -7 -7 -41 -12 -83 -12 -39 0 -75 -4 -81 -10 -5
-5 -38 -10 -72 -11 -40 -1 -66 -7 -74 -16 -9 -11 -38 -14 -132 -12 -67 1 -152
-3 -191 -10 -38 -6 -95 -11 -126 -11 -38 0 -61 -5 -69 -15 -14 -17 -50 -20
-50 -5 0 6 -8 14 -17 17 -10 4 -36 21 -57 40 -24 19 -51 33 -67 33 -14 0 -32
7 -39 15 -16 20 -74 19 -127 -1 -30 -12 -46 -26 -58 -50 -10 -22 -23 -34 -35
-34 -11 0 -20 4 -20 9 0 5 -9 12 -19 16 -11 3 -39 21 -63 40 -25 20 -54 35
-70 35 -28 0 -39 9 -73 55 -16 22 -25 26 -52 22 -23 -4 -33 -2 -33 7 0 22 -33
44 -70 48 -27 2 -36 8 -38 25 -2 13 -13 31 -25 40 -12 10 -31 36 -42 58 -28
57 -55 85 -81 85 -12 0 -27 7 -34 15 -7 8 -18 15 -26 15 -7 0 -30 16 -51 36
-39 38 -140 94 -168 94 -19 0 -56 20 -71 39 -6 8 -27 14 -47 13 -20 -1 -39 3
-42 8 -8 13 -112 13 -120 0 -4 -6 -11 -8 -16 -4 -12 7 -6 114 12 214 8 46 8
88 1 140 -5 41 -6 85 -1 97 7 19 5 198 -5 408 -2 39 1 80 7 92 8 18 6 27 -6
40 -13 16 -15 68 -16 402 -1 285 -5 388 -14 399 -13 16 -11 136 4 163 5 10 3
23 -5 35 -18 24 -7 46 39 74 19 12 35 27 35 34 0 7 -16 30 -35 50 -40 43 -42
54 -15 86 11 13 20 33 20 45 0 12 9 30 21 41 12 10 27 31 35 46 11 21 22 28
43 28 16 0 38 10 52 23 13 13 32 26 42 30 22 8 22 18 -4 51 -13 17 -30 26 -49
26 -15 0 -33 7 -40 15 -7 8 -20 15 -30 15 -32 0 -33 32 -3 56 15 13 32 23 37
24 5 0 23 10 40 23 40 29 75 45 106 49 21 3 25 9 28 41 3 31 7 37 27 37 22 0
85 64 85 88 0 17 -48 42 -79 42 -48 0 -49 11 -9 110 6 14 14 32 19 40 10 17
11 19 28 72 10 31 9 41 -9 73 l-20 36 20 29 c15 21 20 44 20 89 0 34 4 69 9
79 21 39 43 144 32 155 -20 20 -14 56 21 117 4 8 11 22 14 30 3 8 10 24 17 35
6 11 14 40 19 65 4 25 11 65 15 90 l8 45 80 5 c54 3 89 11 106 23 32 22 79 76
79 92 0 22 37 45 72 45 20 0 49 7 64 15 16 8 43 15 61 15 17 0 35 5 38 10 3 6
42 10 86 10 44 0 88 5 99 12 15 10 24 9 44 -2 22 -11 30 -11 51 0 19 10 30 11
50 2 14 -7 46 -12 70 -12 24 0 47 -4 50 -10 3 -5 17 -10 29 -10 13 0 29 -7 36
-15 16 -20 107 -20 147 0 35 18 113 107 113 129 0 9 5 24 11 34 9 14 7 27 -9
60 -18 37 -20 62 -21 220 0 137 -3 185 -15 214 -9 21 -16 59 -16 85 0 26 -7
57 -15 67 -8 11 -15 30 -15 42 0 13 -4 26 -10 29 -5 3 -10 23 -10 44 0 22 -6
44 -15 51 -8 7 -15 24 -15 39 0 14 -7 34 -14 44 -7 9 -11 27 -9 40 3 14 -2 29
-11 36 -9 8 -16 26 -16 41 0 15 -7 33 -15 40 -8 7 -15 27 -15 44 0 18 -4 36
-9 42 -9 9 -18 66 -24 148 -1 21 -10 43 -19 50 -13 10 -17 29 -17 89 0 43 -3
82 -6 87 -4 6 3 26 15 46 16 25 21 44 16 66 -3 17 -2 36 4 43 5 6 13 45 16 86
4 41 11 82 15 91 5 9 10 47 11 85 1 57 6 74 30 107 15 21 28 47 28 57 0 10 5
21 10 24 6 3 10 13 10 22 0 9 6 24 14 32 7 9 16 41 20 72 5 49 3 59 -15 75
-21 19 -21 19 -45 -11 -13 -17 -24 -33 -24 -38 0 -4 -18 -23 -40 -43 -22 -20
-40 -41 -40 -47 0 -18 -33 -87 -42 -87 -4 0 -8 -6 -8 -13 0 -21 -60 -87 -80
-87 -21 0 -34 -28 -20 -45 14 -17 70 -7 70 13 0 8 7 22 15 31 25 26 65 91 65
105 0 8 7 19 15 26 8 7 15 19 15 26 0 18 31 54 42 48 16 -10 8 -41 -17 -64
-14 -13 -25 -31 -25 -39 0 -9 -7 -25 -15 -35 -8 -11 -15 -29 -15 -39 0 -11
-11 -30 -25 -43 -23 -21 -25 -31 -25 -102 0 -69 -3 -81 -22 -99 -13 -11 -31
-23 -40 -26 -20 -7 -23 -22 -8 -32 18 -11 10 -33 -25 -66 -20 -19 -35 -43 -35
-56 0 -18 -6 -23 -25 -23 -14 0 -25 3 -25 8 0 4 -4 13 -9 20 -7 12 -12 12 -29
1 -17 -11 -24 -11 -33 -2 -10 10 -6 17 14 33 15 12 27 26 27 31 0 13 -37 11
-60 -3 -29 -19 -36 -1 -12 32 12 16 22 36 22 45 0 17 -25 21 -35 5 -3 -5 -23
-10 -44 -10 -30 0 -42 6 -59 30 -12 16 -22 35 -22 42 -1 15 -56 78 -68 78 -10
0 -42 33 -42 44 0 9 57 -21 62 -33 6 -16 151 -24 171 -9 26 19 12 48 -24 49
-16 1 -33 3 -39 4 -5 1 -14 3 -20 4 -13 1 -13 118 0 126 6 3 10 19 10 36 0 29
34 74 49 65 10 -6 2 -64 -10 -72 -17 -10 -10 -100 9 -117 40 -36 82 -5 82 60
0 24 6 46 15 53 8 7 15 25 15 41 0 15 5 31 10 34 6 3 10 24 10 46 0 48 37 126
52 111 10 -10 -14 -136 -33 -174 -5 -10 -9 -35 -9 -57 0 -22 -6 -44 -15 -51
-8 -7 -15 -21 -15 -31 0 -11 -7 -19 -15 -19 -21 0 -19 -13 9 -39 l23 -22 27
31 c14 17 26 42 26 55 0 12 7 25 15 29 8 3 15 12 15 19 0 8 7 20 15 27 16 13
21 70 6 70 -5 0 -11 -9 -14 -20 -8 -32 -30 -25 -24 8 24 113 30 139 38 154 5
10 9 35 9 57 0 25 5 41 15 45 10 3 15 19 15 45 0 51 19 63 69 45 41 -15 161
-19 161 -5 0 10 -44 41 -84 58 -18 8 -75 13 -152 13 -158 0 -263 -25 -264 -64
0 -6 -12 -33 -25 -61 -14 -27 -25 -55 -25 -62 0 -7 -11 -32 -25 -57 -14 -25
-25 -56 -25 -70 0 -14 -4 -27 -10 -31 -6 -3 -5 -15 2 -31 9 -20 9 -30 -5 -53
-9 -15 -14 -36 -11 -47 3 -11 1 -32 -5 -47 -14 -36 -42 -35 -116 3 -32 17 -65
30 -72 30 -7 0 -13 5 -13 10 0 6 -18 10 -40 10 -39 0 -40 -1 -40 -33 0 -45 27
-97 50 -97 10 0 21 -9 25 -20 3 -11 32 -38 63 -60 58 -40 122 -123 122 -158 0
-11 7 -23 16 -26 11 -4 14 -14 9 -35 -6 -26 -3 -31 29 -46 19 -9 40 -23 47
-31 6 -8 20 -14 31 -14 26 0 33 -26 14 -55 -27 -42 -20 -73 37 -146 15 -20 27
-42 27 -49 0 -7 11 -28 25 -46 16 -21 25 -46 25 -71 0 -21 7 -58 15 -82 9 -24
16 -60 17 -80 0 -20 3 -40 7 -46 7 -12 7 -19 11 -220 2 -109 7 -169 16 -187 8
-15 14 -40 14 -56 0 -16 3 -32 6 -35 4 -4 8 -21 10 -39 1 -18 6 -48 10 -67 5
-27 3 -37 -11 -47 -11 -9 -15 -19 -10 -34 8 -24 -27 -70 -52 -70 -8 0 -29 -11
-47 -25 -18 -14 -46 -25 -63 -25 -16 0 -38 -7 -49 -15 -28 -21 -400 -21 -428
0 -11 8 -32 15 -47 15 -36 0 -67 17 -112 63 -40 39 -76 48 -97 22 -7 -9 -29
-15 -51 -15 -21 0 -41 -4 -44 -10 -3 -5 -21 -10 -39 -10 -19 0 -39 -7 -46 -15
-17 -21 -148 -21 -176 0 -10 8 -30 15 -43 15 -13 0 -39 11 -57 25 -18 14 -37
25 -42 25 -4 0 -19 11 -32 25 -13 14 -28 25 -32 25 -17 0 -88 65 -88 80 0 9
19 35 43 58 36 36 49 42 84 42 38 0 79 22 71 39 -2 3 -15 29 -30 58 l-28 52
27 13 c14 7 29 20 33 28 11 22 27 62 34 83 3 9 13 17 23 17 25 0 163 148 163
175 0 12 11 34 25 49 29 31 33 73 8 92 -15 11 -16 16 -5 31 6 10 15 25 18 33
3 8 11 25 16 37 15 31 15 93 1 105 -8 6 -13 35 -13 74 0 42 -5 67 -15 78 -8 8
-15 31 -15 50 0 20 -4 36 -10 36 -5 0 -10 8 -10 19 0 10 -7 24 -15 31 -8 7
-15 19 -15 26 0 8 -11 32 -25 54 -14 22 -25 47 -25 55 0 9 -9 19 -20 23 -10 4
-31 23 -45 42 -27 37 -56 57 -170 115 -102 53 -113 60 -139 84 -12 11 -33 21
-47 21 -13 0 -33 7 -43 15 -15 11 -50 15 -141 15 -91 0 -126 -4 -141 -15 -10
-8 -27 -15 -37 -15 -9 0 -35 -11 -57 -25 -22 -14 -44 -25 -50 -25 -5 0 -18 -8
-28 -17 -11 -10 -28 -25 -38 -34 -47 -39 -114 -119 -114 -136 0 -11 -7 -28
-15 -39 -8 -10 -15 -28 -15 -39 0 -12 -4 -25 -9 -30 -6 -6 -12 -22 -15 -38 -2
-15 -12 -34 -20 -43 -26 -26 -35 -84 -31 -193 4 -92 8 -108 28 -130 13 -14 24
-36 25 -47 0 -12 17 -46 36 -77 20 -31 36 -62 36 -70 0 -8 18 -33 40 -56 22
-22 40 -43 40 -46 0 -2 11 -21 25 -41 14 -20 25 -46 25 -58 0 -12 11 -31 25
-44 13 -13 24 -31 24 -40 2 -46 14 -102 22 -102 5 0 9 -11 9 -24 0 -13 7 -26
15 -30 8 -3 15 -14 15 -24 0 -11 -7 -25 -15 -32 -10 -8 -15 -30 -15 -64 0 -43
-5 -57 -25 -76 -14 -13 -25 -31 -25 -40 0 -18 -55 -74 -82 -83 -10 -4 -18 -12
-18 -20 0 -24 -68 -72 -112 -78 -33 -5 -51 -2 -74 12 -39 23 -136 26 -178 4
-15 -8 -33 -15 -39 -15 -6 0 -27 -17 -46 -38 -69 -73 -98 -88 -183 -90 -49 -2
-78 1 -78 8 0 5 -13 10 -29 10 -16 0 -36 7 -45 15 -8 8 -24 15 -35 15 -12 0
-21 4 -21 10 0 5 -16 17 -35 26 -37 17 -75 58 -75 80 0 7 -3 14 -7 16 -26 11
-63 73 -63 104 0 19 -7 45 -16 59 -20 31 -21 132 -1 148 8 7 18 30 22 52 3 22
15 60 26 84 10 24 19 53 19 65 1 11 9 37 20 56 10 19 23 45 29 57 5 11 15 24
20 28 6 3 11 19 11 34 0 16 11 40 25 55 14 15 25 31 25 35 0 5 18 29 40 54 22
25 40 54 40 65 0 12 4 24 10 27 5 3 9 23 9 43 0 83 4 112 17 123 8 6 14 20 14
30 0 10 5 21 10 24 6 3 17 20 26 36 12 25 13 33 3 45 -8 9 -9 18 -3 22 27 20
36 42 24 57 -10 12 -10 21 -2 40 6 14 9 31 6 39 -7 18 31 84 67 118 16 15 29
34 29 42 0 8 5 18 10 21 13 8 13 50 -2 78 -6 12 -14 29 -18 37 -16 34 -47 21
-123 -50 -43 -40 -77 -78 -77 -86 0 -18 -34 -36 -46 -24 -9 9 -1 166 11 230 4
19 13 42 20 50 18 21 26 69 33 194 5 79 4 113 -5 125 -7 9 -13 28 -13 43 0 15
-4 30 -10 33 -27 16 -3 25 70 25 59 0 80 3 80 13 0 40 -59 47 -184 21 -98 -20
-127 -16 -144 19 -13 26 -15 27 -98 27 -81 0 -87 -1 -115 -29z m344 -58 c15
-9 6 -44 -21 -75 -36 -42 -54 -86 -55 -135 0 -21 -6 -47 -14 -58 -16 -24 -17
-61 -2 -71 8 -4 8 -9 0 -17 -6 -6 -11 -21 -11 -32 0 -12 -9 -30 -20 -40 -24
-21 -27 -15 -33 65 -3 30 -8 69 -12 85 -3 17 -9 50 -12 75 -3 25 -9 49 -14 55
-5 5 -9 18 -9 30 0 11 -13 40 -30 65 -16 24 -26 48 -22 52 14 14 229 15 255 1z
m3004 -8 c3 -9 -1 -23 -8 -33 -25 -30 -39 -61 -39 -83 0 -11 -6 -33 -14 -47
-27 -53 -35 -78 -41 -134 -4 -39 -11 -58 -20 -58 -11 0 -12 28 -8 146 5 129 3
147 -13 165 -16 18 -16 20 1 39 23 26 132 29 142 5z m25 -80 c0 -5 -5 -11 -11
-13 -6 -2 -11 4 -11 13 0 9 5 15 11 13 6 -2 11 -8 11 -13z m-3284 -32 c-5 -25
-28 -28 -28 -4 0 12 6 21 16 21 9 0 14 -7 12 -17z m3080 -103 c2 -41 -2 -78
-7 -83 -16 -16 -23 -3 -23 50 -2 92 2 115 15 111 8 -3 13 -30 15 -78z m-3056
23 c0 -21 0 -50 -1 -65 -1 -16 3 -28 8 -28 6 0 11 -7 11 -15 0 -40 -30 5 -46
68 -7 32 2 77 16 77 6 0 11 -17 12 -37z m-242 7 c0 -5 -4 -10 -10 -10 -5 0
-10 5 -10 10 0 6 5 10 10 10 6 0 10 -4 10 -10z m63 -121 c9 -17 17 -39 17 -49
0 -10 7 -20 15 -24 9 -3 15 -19 15 -41 0 -19 4 -35 10 -35 11 0 54 -89 46 -97
-11 -11 -37 8 -47 34 -6 15 -17 42 -24 58 -8 17 -17 45 -20 63 -4 18 -15 38
-26 45 -10 6 -19 19 -19 29 0 9 -4 20 -10 23 -16 10 -12 25 8 25 9 0 25 -14
35 -31z m-5 -183 c36 -70 39 -86 17 -86 -8 0 -15 5 -15 11 0 6 -11 25 -25 43
-30 40 -44 96 -24 96 8 0 29 -29 47 -64z m300 -4 c2 -7 -6 -12 -17 -12 -21 0
-27 11 -14 24 9 9 26 2 31 -12z m1407 -12 c16 -18 15 -19 -39 -25 -30 -4 -61
-13 -67 -21 -8 -10 -23 -12 -49 -8 -30 5 -42 2 -59 -15 -41 -41 8 -57 66 -21
19 11 67 24 115 30 102 12 98 13 98 -2 0 -17 -77 -48 -118 -48 -18 0 -40 -4
-50 -9 -37 -18 -89 -34 -127 -38 -35 -4 -67 -15 -127 -44 -10 -5 -28 -9 -40
-9 -13 0 -32 -7 -42 -15 -25 -19 -56 -19 -56 -1 0 8 16 28 36 46 29 25 42 30
64 25 30 -7 90 17 90 35 0 6 -16 10 -35 10 -28 0 -35 4 -35 20 0 13 10 24 27
31 16 6 43 22 62 36 26 20 44 26 77 24 24 0 44 3 44 8 0 5 33 10 74 10 60 0
77 -3 91 -19z m185 -95 c7 -8 21 -15 32 -15 10 0 45 -17 76 -37 31 -21 66 -42
76 -48 10 -5 24 -19 30 -30 6 -11 28 -40 49 -64 20 -24 37 -49 37 -56 0 -7 7
-18 15 -25 8 -7 15 -25 15 -41 0 -15 5 -31 10 -34 6 -3 10 -20 10 -36 0 -16 7
-46 15 -66 20 -48 21 -250 1 -290 -20 -39 -36 -95 -36 -124 -1 -13 -13 -42
-28 -64 -25 -35 -49 -57 -136 -119 -14 -10 -26 -25 -26 -33 0 -7 -4 -21 -9
-31 -5 -9 -12 -25 -15 -36 -6 -18 -27 -18 -121 -3 -55 9 -74 36 -50 70 20 28
19 44 -3 56 -22 12 -65 -15 -44 -28 10 -6 11 -19 7 -45 -6 -31 -10 -36 -29
-30 -22 6 -56 40 -56 55 0 6 8 5 19 -1 11 -5 24 -10 30 -10 15 0 14 37 -1 42
-21 7 53 138 78 138 8 0 24 -21 37 -47 20 -43 26 -48 60 -51 29 -3 42 2 61 22
24 26 60 34 71 16 4 -6 12 -6 23 -1 9 5 25 12 35 15 23 7 22 39 -3 61 -11 10
-31 42 -45 72 -14 29 -30 53 -35 53 -16 0 -11 40 5 47 9 3 24 -2 34 -11 24
-22 63 -20 105 5 40 24 49 62 19 85 -17 13 -17 15 0 25 23 13 22 34 -3 59 -15
15 -33 20 -72 20 -45 0 -57 -4 -85 -32 -36 -35 -39 -48 -20 -79 10 -18 9 -23
-15 -40 -16 -12 -28 -26 -28 -32 -1 -15 -57 -77 -70 -77 -15 0 -12 16 5 30 8
7 15 18 15 25 0 7 6 18 14 24 8 7 17 31 20 54 3 23 8 61 12 83 6 45 -13 74
-23 35 -7 -28 -15 -27 -65 9 -22 17 -49 30 -60 30 -10 0 -18 5 -18 10 0 6 -9
10 -20 10 -11 0 -20 -4 -20 -10 0 -5 -9 -10 -19 -10 -11 0 -23 -5 -27 -11 -3
-6 -16 -8 -29 -5 -15 4 -28 -1 -40 -14 -20 -22 -45 -27 -45 -9 0 6 16 29 35
50 41 46 44 59 11 59 -45 0 -37 19 16 43 38 18 64 23 91 20 35 -5 37 -3 37 21
0 21 -5 26 -25 26 -14 0 -28 -6 -31 -14 -4 -10 -22 -15 -60 -15 -52 0 -57 -2
-110 -53 -30 -29 -69 -61 -86 -70 -17 -9 -40 -26 -52 -37 -12 -12 -27 -21 -33
-21 -5 0 -18 -10 -29 -21 -10 -12 -28 -25 -39 -31 -30 -13 -58 -30 -104 -62
-33 -23 -44 -27 -54 -17 -9 9 -7 16 13 31 14 11 30 20 35 20 6 0 29 18 50 40
21 22 45 40 53 40 8 0 28 11 46 25 53 44 135 105 140 105 3 0 17 11 32 25 15
14 35 25 46 25 10 0 21 7 24 15 4 9 19 15 40 15 53 0 136 46 92 51 -7 1 -24 2
-38 3 -16 1 -29 9 -35 24 -7 16 -18 22 -42 22 -25 0 -35 6 -47 32 -24 47 -19
55 14 23 24 -23 33 -26 39 -17 6 9 19 11 45 7 27 -5 36 -4 38 6 0 8 2 19 2 24
3 25 20 35 57 35 45 0 50 11 13 35 -24 15 -28 15 -59 1 -18 -9 -40 -16 -49
-16 -9 0 -16 -7 -16 -15 0 -8 -7 -15 -15 -15 -8 0 -15 4 -15 10 0 12 -55 2
-92 -16 -15 -8 -38 -14 -51 -14 -12 0 -28 -5 -34 -11 -10 -10 -30 -16 -128
-40 -22 -5 -50 -14 -62 -19 -58 -25 -69 -29 -89 -32 -25 -4 -27 0 -19 27 4 11
8 25 10 32 2 6 20 11 40 11 19 0 46 7 60 16 15 10 46 16 78 16 31 0 61 6 73
15 10 8 29 15 41 15 12 0 24 4 27 9 3 5 26 12 51 15 24 4 47 11 50 17 4 5 16
9 29 9 13 0 49 9 80 20 57 19 96 15 96 -10 0 -6 23 -10 51 -10 41 0 50 3 47
16 -3 19 -21 30 -61 39 -15 3 -25 10 -22 15 10 15 61 12 75 -5z m-1862 -38 c2
-10 1 -25 -2 -34 -6 -14 -10 -13 -31 7 -34 32 -33 52 2 48 17 -2 29 -10 31
-21z m1491 -136 c10 -6 5 -13 -19 -25 -43 -21 -44 -20 -23 9 20 27 22 28 42
16z m-92 -56 c8 -21 3 -24 -29 -18 -32 6 -37 19 -10 26 30 8 32 7 39 -8z m113
-1 c0 -17 -23 -44 -37 -44 -9 0 -40 -18 -69 -40 -29 -22 -63 -40 -74 -40 -11
0 -31 -9 -43 -21 -44 -41 -156 -111 -174 -107 -10 2 -18 11 -18 21 0 17 16 28
110 75 17 8 42 26 56 39 14 13 70 46 125 73 93 46 124 57 124 44z m-210 -45
c0 -10 -7 -19 -15 -19 -15 0 -21 31 -9 43 11 10 24 -3 24 -24z m2220 13 c0 -5
-7 -17 -15 -28 -8 -10 -15 -35 -15 -54 0 -20 -5 -41 -11 -47 -15 -15 -15 -123
-1 -150 7 -12 12 -37 12 -56 0 -19 7 -40 15 -47 8 -7 15 -25 15 -40 0 -15 7
-44 16 -65 8 -21 13 -48 10 -60 -3 -12 1 -30 9 -41 8 -10 15 -30 15 -44 0 -14
7 -34 15 -44 8 -11 15 -31 15 -45 0 -14 11 -48 25 -76 13 -27 25 -67 25 -87 0
-20 4 -39 9 -42 4 -3 11 -28 13 -56 3 -28 12 -58 20 -68 11 -12 14 -35 12 -81
-1 -36 3 -74 9 -85 14 -26 28 -128 30 -231 l2 -80 -39 2 c-48 3 -106 53 -106
92 0 13 -7 32 -15 41 -14 15 -14 18 0 30 24 20 18 32 -40 85 -30 27 -55 53
-55 57 0 14 33 9 52 -8 16 -16 18 -16 24 0 9 24 -3 46 -24 46 -10 0 -27 9 -37
20 -16 18 -16 20 -1 26 9 3 30 4 46 0 40 -7 39 13 0 39 -37 25 -39 45 -4 45
31 0 30 27 -1 44 -11 6 -24 17 -28 24 -4 6 -14 12 -21 12 -19 0 -40 50 -27 63
8 8 18 4 34 -11 13 -12 29 -22 35 -22 22 0 12 26 -23 60 -33 32 -36 33 -48 15
-10 -13 -16 -15 -21 -6 -10 16 20 49 48 53 29 4 29 42 -1 46 -28 4 -30 28 -3
42 25 13 26 40 3 40 -22 1 -63 34 -63 50 0 8 10 9 30 5 38 -8 41 15 5 43 -28
22 -33 50 -10 58 22 9 18 23 -10 34 -27 10 -32 29 -13 48 10 10 5 20 -25 47
-41 38 -47 55 -17 55 11 0 20 7 20 15 0 8 -4 15 -9 15 -6 0 -11 15 -13 32 -2
24 -10 36 -30 46 -33 15 -90 80 -83 93 4 5 24 9 45 9 21 0 42 5 45 10 3 6 13
10 21 10 18 0 53 38 54 58 0 30 80 94 80 64z m-2270 -20 c0 -17 -42 -42 -69
-42 -20 0 -36 -9 -49 -25 -20 -25 -52 -34 -52 -15 0 5 16 28 36 50 33 36 41
40 85 40 27 0 49 -3 49 -8z m180 -106 c0 -7 -17 -22 -37 -31 -21 -10 -48 -29
-60 -42 -12 -12 -26 -23 -32 -23 -14 0 -131 -82 -131 -92 0 -15 -51 -8 -57 8
-6 17 40 64 62 64 7 0 19 7 26 17 8 9 28 22 44 30 43 20 98 52 115 69 19 18
70 19 70 0z m130 -105 c0 -5 -7 -14 -15 -21 -21 -18 -19 -38 6 -45 19 -6 14
-14 -50 -75 -43 -42 -71 -77 -71 -89 0 -12 3 -21 8 -21 4 0 41 34 82 76 41 41
83 80 94 86 17 9 18 7 12 -26 -7 -34 -4 -40 39 -81 45 -45 68 -54 80 -35 3 6
20 10 38 10 20 0 41 9 59 27 l28 27 0 -36 c0 -27 -9 -44 -35 -72 -19 -21 -35
-43 -35 -50 0 -8 -7 -19 -15 -26 -8 -7 -15 -21 -15 -30 0 -10 -11 -27 -24 -37
-13 -10 -26 -29 -30 -41 -4 -12 -13 -22 -19 -22 -7 -1 -23 -10 -36 -20 -20
-17 -23 -27 -19 -65 5 -42 4 -45 -18 -45 -16 0 -28 8 -36 25 -6 14 -15 25 -20
25 -18 0 -6 39 17 54 31 20 34 51 5 43 -15 -4 -20 0 -20 14 0 24 28 25 46 2
11 -17 13 -15 24 12 23 59 -26 117 -51 61 -7 -14 -20 -26 -31 -26 -24 0 -23 9
8 41 18 19 24 34 20 45 -6 15 -17 8 -65 -40 -45 -44 -63 -57 -78 -52 -12 4
-25 0 -33 -9 -18 -22 -50 -19 -50 4 0 21 66 61 103 61 33 1 64 30 75 73 8 28
8 35 -1 30 -7 -5 -44 -29 -84 -56 -64 -42 -123 -61 -123 -39 0 12 30 37 54 46
14 5 17 13 13 39 -5 35 5 62 34 90 22 21 25 37 6 37 -15 0 -57 -31 -105 -77
-18 -18 -43 -35 -55 -39 -11 -4 -27 -13 -35 -20 -14 -15 -52 -3 -52 16 0 17
103 110 122 110 10 0 25 11 34 25 9 15 26 25 39 25 13 0 29 10 38 23 8 12 31
31 51 42 20 11 36 23 36 27 0 5 11 8 25 8 14 0 25 -4 25 -9z m-1353 -60 c11
-18 89 -61 110 -61 6 0 14 7 17 16 3 9 15 14 28 12 20 -3 23 -10 26 -49 3 -40
0 -48 -28 -69 -16 -12 -30 -29 -30 -37 0 -16 -25 -58 -52 -89 -10 -11 -20 -31
-23 -43 -8 -42 -30 -96 -42 -104 -7 -4 -13 -24 -13 -42 0 -19 -4 -35 -10 -35
-5 0 -12 -11 -16 -24 -3 -14 -14 -32 -25 -42 -10 -9 -19 -25 -19 -34 0 -9 -7
-25 -15 -36 -8 -10 -15 -35 -15 -55 0 -20 -7 -42 -15 -49 -8 -7 -15 -23 -15
-37 0 -13 -7 -31 -15 -40 -21 -21 -15 -47 13 -51 25 -4 26 -6 12 -33 -7 -13
-21 -19 -44 -19 -19 0 -39 -7 -46 -15 -7 -8 -15 -13 -19 -10 -4 2 -20 -3 -35
-11 -41 -20 -66 -18 -66 6 0 13 10 24 25 30 21 8 25 16 25 49 0 29 6 42 23 54
l22 15 -27 11 c-16 6 -28 14 -28 18 0 16 16 31 35 34 16 3 21 13 23 49 2 32
11 53 29 72 17 18 23 32 18 47 -4 15 2 27 24 47 23 20 31 36 31 61 0 26 6 36
25 45 24 11 36 48 15 48 -5 0 -10 10 -10 23 0 14 12 30 36 45 34 22 38 42 8
42 -30 0 -10 43 29 63 36 19 47 40 27 52 -6 4 -17 1 -25 -5 -26 -21 -38 -1
-31 52 6 40 3 54 -10 69 -24 26 -11 49 28 49 22 0 37 -7 45 -19z m1693 -66 c0
-26 -14 -33 -25 -15 -9 14 1 40 15 40 5 0 10 -11 10 -25z m-552 -142 c-2 -10
-14 -23 -28 -30 -13 -6 -32 -22 -42 -35 -15 -20 -19 -21 -28 -8 -13 20 -11 25
35 59 45 34 68 39 63 14z m587 -163 c10 -11 15 -20 11 -20 -14 0 -46 21 -46
30 0 16 16 11 35 -10z m-405 -10 c0 -11 -4 -20 -10 -20 -5 0 -10 -7 -10 -15 0
-8 -7 -15 -15 -15 -20 0 -19 29 2 52 21 24 33 23 33 -2z m-72 -128 c3 -17 -2
-22 -21 -22 -33 0 -40 10 -19 31 21 22 36 19 40 -9z m58 -44 c-3 -13 -6 -29
-6 -35 0 -7 -7 -13 -15 -13 -8 0 -15 5 -15 10 0 6 -13 10 -30 10 -16 0 -30 3
-30 6 0 15 48 43 74 44 25 0 28 -3 22 -22z m94 -42 c0 -3 -4 -8 -10 -11 -5 -3
-10 -1 -10 4 0 6 5 11 10 11 6 0 10 -2 10 -4z m-52 -32 c18 -8 32 -20 32 -25
0 -5 13 -9 29 -9 17 0 33 -4 36 -10 3 -5 23 -10 43 -10 28 0 33 3 24 12 -16
16 -15 38 2 38 9 0 16 -12 18 -32 3 -29 6 -33 30 -30 14 1 29 -2 33 -8 3 -5
17 -10 29 -10 13 0 29 -7 36 -16 8 -9 25 -14 44 -12 22 2 31 -1 31 -12 0 -15
-55 -18 -175 -10 -25 2 -52 1 -60 -1 -10 -3 -15 4 -15 20 -1 34 -19 37 -43 6
-25 -32 -42 -32 -42 0 0 25 -23 35 -35 15 -11 -17 -37 -11 -42 10 -4 16 -8 18
-20 9 -11 -10 -19 -7 -39 12 -29 29 -24 64 7 54 12 -4 21 -1 25 9 8 20 13 20
52 0z m312 -23 c0 -27 -19 -36 -37 -18 -18 18 -9 37 18 37 12 0 19 -7 19 -19z
m1620 -72 c0 -5 -4 -9 -10 -9 -5 0 -10 7 -10 16 0 8 5 12 10 9 6 -3 10 -10 10
-16z m-2010 -54 c7 -8 28 -15 46 -15 19 0 34 -4 34 -9 0 -6 17 -11 37 -13 20
-2 38 -9 41 -15 5 -16 -94 -18 -103 -3 -3 6 -23 10 -43 10 -41 0 -82 23 -82
46 0 19 54 19 70 -1z m340 -24 c0 -6 -4 -13 -10 -16 -5 -3 -10 1 -10 9 0 9 5
16 10 16 6 0 10 -4 10 -9z m-215 -82 c5 -5 48 -9 96 -9 89 0 104 -6 93 -34 -5
-12 -11 -13 -24 -6 -10 6 -72 10 -137 10 -121 0 -233 22 -233 46 0 13 190 7
205 -7z m-188 -54 c19 -8 50 -15 67 -15 35 0 80 -26 71 -41 -9 -14 -87 -10
-115 6 -14 8 -36 14 -50 15 -28 0 -50 16 -50 37 0 17 32 16 77 -2z m455 -75
c34 -33 67 -60 74 -60 7 0 21 -11 30 -24 8 -14 29 -28 45 -31 35 -8 86 -33 94
-46 4 -5 27 -9 53 -9 26 -1 58 -7 72 -14 19 -11 30 -12 45 -3 11 6 30 10 42 8
12 -1 37 4 55 13 58 26 76 28 101 11 22 -14 25 -14 37 0 12 14 16 13 37 -6 12
-13 23 -28 23 -36 0 -7 -25 -37 -55 -66 l-55 -53 0 -73 c0 -42 6 -84 14 -99
15 -31 36 -87 43 -119 3 -13 -2 -34 -11 -48 -9 -13 -16 -30 -16 -36 0 -7 -11
-27 -25 -45 -14 -18 -25 -44 -25 -57 0 -14 -7 -27 -15 -31 -8 -3 -15 -16 -15
-28 -1 -63 -152 -187 -205 -168 -11 4 -33 3 -50 -2 -33 -9 -75 6 -75 29 0 9
17 13 63 13 39 1 69 6 81 15 11 8 26 15 33 15 8 0 34 19 59 42 40 38 44 45 44
90 0 35 -4 48 -12 46 -7 -3 -14 -14 -16 -26 -2 -12 -24 -40 -49 -62 -44 -38
-49 -40 -114 -40 -37 0 -70 4 -73 9 -3 5 -20 11 -38 14 -18 2 -47 10 -65 18
-28 11 -34 11 -51 -4 -24 -22 -34 -21 -66 4 -32 25 -21 39 30 39 16 0 35 5 41
11 9 9 20 9 44 0 42 -14 62 -14 56 2 -2 6 -13 11 -24 9 -11 -2 -23 4 -26 13
-8 19 -47 20 -73 0 -26 -20 -80 -19 -88 1 -9 23 -24 8 -36 -36 -12 -43 5 -92
35 -103 21 -9 19 -23 -6 -48 -24 -24 -13 -45 19 -35 23 8 38 54 23 69 -13 13
-14 37 -2 37 4 0 26 -18 47 -40 22 -22 45 -40 52 -40 28 0 71 -31 91 -66 17
-28 25 -34 34 -25 14 14 64 15 72 1 3 -5 19 -10 36 -10 16 0 29 5 29 10 0 6
14 10 30 10 17 0 30 -3 30 -7 -1 -17 -88 -70 -132 -81 -59 -15 -153 -15 -180
-1 -15 8 -27 8 -44 -2 -31 -16 -42 -4 -19 21 11 13 31 20 52 20 23 0 33 4 30
13 -3 8 -30 12 -88 12 -113 1 -139 3 -139 15 0 5 26 10 57 12 71 4 88 28 19
28 -49 0 -70 20 -47 43 20 20 12 54 -16 72 -22 15 -32 16 -58 6 -17 -6 -38
-11 -47 -11 -9 0 -18 -7 -22 -15 -3 -8 -15 -15 -26 -15 -23 0 -25 -17 -5 -44
19 -26 19 -32 -2 -40 -10 -3 -24 -9 -32 -12 -10 -5 -12 -2 -8 9 8 21 -14 39
-33 27 -25 -16 -30 -11 -23 20 4 23 2 30 -11 30 -9 0 -16 7 -16 16 0 14 8 16
53 11 30 -3 60 -2 67 3 17 10 4 30 -20 30 -25 0 -46 36 -26 43 7 3 18 1 23 -4
13 -13 93 11 93 27 0 6 -7 17 -16 25 -13 10 -19 10 -36 0 -11 -7 -51 -14 -90
-16 -79 -3 -99 -15 -80 -45 17 -28 16 -30 -16 -30 -37 0 -74 -36 -52 -51 8 -5
32 -7 53 -3 28 4 37 2 37 -9 0 -14 -31 -25 -98 -33 -31 -4 -33 -3 -26 18 4 13
6 40 5 61 -2 32 1 37 21 37 13 0 30 4 38 10 15 9 13 10 -39 26 -18 6 4 33 38
45 19 8 22 12 12 22 -9 9 -19 8 -44 -2 -17 -7 -42 -15 -54 -18 -13 -3 -23 -9
-23 -13 0 -10 -75 -22 -132 -20 -25 0 -49 -4 -53 -10 -10 -16 -102 -13 -109 5
-5 14 -36 11 -36 -4 1 -33 43 -43 167 -42 60 0 84 -3 93 -15 7 -8 9 -18 5 -22
-4 -4 -10 -1 -12 6 -7 19 -26 14 -52 -13 l-23 -25 53 0 c66 0 92 -13 60 -29
-29 -16 -27 -49 4 -61 28 -11 33 -37 9 -47 -19 -7 -54 29 -54 56 0 11 -9 22
-20 26 -23 7 -60 -2 -60 -16 0 -5 -32 -9 -71 -9 -64 0 -74 3 -95 25 -12 14
-29 22 -37 19 -28 -11 -121 110 -110 143 2 6 -4 16 -14 22 -29 15 -19 89 12
97 30 7 34 26 28 128 -5 75 -3 87 16 114 l21 30 42 -39 c44 -40 79 -56 97 -44
20 12 11 22 -51 55 -64 33 -81 48 -72 62 10 16 41 8 64 -17 20 -21 33 -25 82
-25 43 0 58 4 58 14 0 7 -12 16 -27 19 -67 13 -102 26 -142 53 l-44 28 -48
-52 c-44 -48 -49 -58 -50 -100 0 -26 -9 -67 -19 -92 -17 -40 -20 -43 -26 -22
-9 30 -34 28 -34 -3 0 -18 -5 -25 -19 -25 -24 0 -37 36 -20 56 9 11 9 20 0 41
-6 14 -10 26 -9 27 23 9 63 37 66 45 2 5 -8 17 -22 27 -34 22 -58 5 -50 -35 4
-20 1 -30 -10 -34 -9 -4 -16 -18 -16 -32 0 -28 -3 -29 -31 -15 -15 8 -19 22
-19 61 0 36 -4 49 -12 47 -7 -3 -14 -17 -16 -31 -4 -30 -9 -32 -47 -17 -24 9
-26 14 -23 53 2 32 0 42 -12 42 -8 0 -16 -10 -18 -21 -2 -12 -12 -30 -23 -40
-20 -18 -21 -18 -32 1 -7 11 -12 34 -12 50 0 23 -4 30 -20 30 -13 0 -20 -7
-20 -19 0 -28 -21 -30 -39 -4 -20 28 -20 62 -1 78 8 7 15 21 15 31 0 26 27 24
66 -6 18 -14 44 -25 58 -25 14 0 28 -4 31 -10 3 -5 14 -10 23 -10 9 0 29 -6
44 -14 19 -10 29 -11 37 -3 8 8 14 8 23 -1 17 -17 111 -16 106 1 -3 6 -14 13
-26 15 -12 2 -22 7 -22 12 0 5 -24 10 -52 12 -45 3 -53 6 -56 24 -4 30 24 38
59 17 24 -14 33 -15 49 -5 24 15 57 16 65 2 3 -5 17 -10 30 -10 13 0 27 -4 30
-10 11 -17 65 -12 65 6 0 19 -39 53 -61 54 -9 0 -22 7 -29 15 -7 8 -25 15 -41
15 -17 0 -29 5 -29 13 0 19 21 37 45 37 11 0 29 7 39 15 11 8 29 15 41 15 12
0 26 5 32 11 17 17 57 6 68 -18 5 -13 22 -24 41 -27 17 -4 39 -15 49 -26 23
-26 41 -25 48 1 3 12 11 19 19 16 7 -2 11 -11 9 -18 -3 -8 -4 -29 -4 -46 2
-36 -10 -42 -33 -18 -9 8 -24 15 -35 15 -11 0 -30 6 -42 14 -28 18 -98 28
-116 17 -19 -12 -4 -31 25 -31 21 0 24 -5 24 -33 0 -25 6 -37 23 -46 12 -6 36
-20 52 -30 31 -20 145 -30 145 -12 0 13 -27 21 -45 15 -8 -4 -26 1 -40 10 -13
9 -32 16 -42 16 -18 1 -63 32 -63 44 0 9 38 7 42 -2 4 -12 118 -23 118 -11 0
18 29 9 35 -11 8 -24 18 -25 35 -5 7 8 21 15 32 15 28 0 86 26 120 55 34 29
50 31 71 11 8 -8 38 -16 68 -18 43 -2 56 -7 63 -23 5 -11 27 -28 48 -39 37
-17 41 -17 56 -2 16 16 15 19 -13 42 -16 13 -33 24 -37 24 -4 0 -23 15 -42 34
-37 35 -71 46 -137 46 -21 0 -40 4 -43 9 -3 5 -39 12 -78 16 -70 7 -114 27
-102 46 9 14 51 10 64 -6 16 -20 73 -19 112 1 20 10 42 14 63 10 37 -7 58 11
31 26 -38 21 -10 28 121 28 113 0 140 3 155 17 10 9 18 20 18 24 0 5 -39 10
-87 11 -58 2 -88 7 -91 16 -3 9 21 12 97 12 56 0 103 4 106 10 10 16 14 13 77
-50z m-1878 15 c3 -10 -1 -18 -12 -21 -9 -3 -25 -10 -34 -15 -24 -12 -28 -12
-28 7 0 35 62 59 74 29z m118 -2 c10 -9 18 -22 18 -30 0 -8 29 -42 65 -76 36
-34 65 -66 65 -70 0 -14 -22 -6 -48 18 -31 29 -62 33 -62 8 0 -21 38 -63 57
-63 10 0 12 -7 8 -21 -5 -14 -2 -25 6 -30 11 -6 8 -14 -14 -37 -15 -15 -27
-33 -27 -39 0 -20 -18 -24 -40 -11 -24 15 -26 34 -5 42 15 5 21 37 9 49 -12
11 -44 -13 -44 -33 0 -15 -7 -20 -25 -20 -22 0 -25 4 -25 34 0 19 5 38 10 41
6 3 10 15 10 27 0 11 8 33 17 49 9 15 14 31 10 35 -12 12 -37 -5 -47 -33 -6
-16 -15 -36 -20 -45 -6 -10 -10 -24 -10 -31 0 -8 -9 -22 -20 -32 -20 -18 -21
-18 -34 0 -10 14 -11 24 -3 36 5 9 7 24 4 33 -11 28 -41 18 -62 -19 -25 -48
-51 -42 -69 18 -3 9 -14 17 -24 17 -26 0 -41 38 -30 77 4 18 12 34 16 37 9 5
77 -16 88 -27 4 -4 34 -7 67 -7 71 0 97 17 97 65 0 51 28 69 62 38z m1333 -34
c12 -18 -27 -40 -62 -34 -20 4 -36 0 -46 -10 -19 -19 -37 -19 -37 -1 0 7 -7
19 -15 26 -8 7 -12 16 -9 21 8 13 161 11 169 -2z m2058 -39 c9 -11 17 -26 17
-34 0 -7 7 -19 15 -26 8 -7 15 -23 15 -36 0 -12 5 -26 10 -29 6 -3 10 -19 10
-34 0 -16 10 -37 24 -50 26 -25 90 -39 100 -22 5 7 14 7 31 -1 31 -14 32 -38
2 -38 -13 0 -28 -5 -35 -12 -7 -7 -12 -22 -12 -35 0 -14 -6 -23 -15 -23 -8 0
-15 5 -15 10 0 6 -7 10 -15 10 -8 0 -15 -7 -15 -15 0 -8 -4 -15 -10 -15 -5 0
-10 4 -10 10 0 19 -38 31 -60 18 -28 -18 -47 2 -29 29 16 26 5 53 -21 53 -15
0 -20 -7 -20 -25 0 -18 -5 -25 -20 -25 -13 0 -24 10 -30 25 -13 33 -23 32 -41
-7 -19 -44 -37 -47 -41 -7 -4 43 -18 46 -43 9 -21 -32 -52 -40 -61 -15 -10 24
-43 18 -54 -11 -12 -30 -30 -23 -30 12 0 36 -28 30 -67 -16 -40 -46 -63 -52
-63 -15 0 36 -14 31 -47 -15 -32 -45 -59 -54 -49 -16 10 39 -13 41 -45 5 -24
-29 -30 -32 -39 -19 -5 8 -10 23 -10 33 0 9 -4 17 -8 17 -15 0 -32 -24 -32
-45 0 -24 -18 -45 -37 -45 -7 0 -13 11 -13 24 0 25 -16 43 -28 31 -4 -3 -7
-27 -7 -53 -1 -26 -5 -56 -10 -67 -12 -28 -46 -65 -61 -65 -24 0 -24 18 1 41
16 16 25 35 25 56 0 35 -18 54 -31 31 -4 -8 -17 -25 -27 -39 -17 -21 -22 -22
-37 -9 -12 10 -15 23 -11 42 4 20 1 30 -9 34 -25 10 -20 92 8 115 12 10 27 18
34 19 14 0 60 53 68 80 9 27 37 25 69 -5 26 -24 31 -25 159 -24 77 1 137 5
145 12 7 5 52 12 100 14 48 2 91 8 96 13 6 6 17 10 26 10 33 0 140 65 181 111
24 27 46 48 49 49 3 0 13 -9 23 -20z m-2263 -103 c25 -12 49 -36 50 -49 0 -15
-31 -7 -70 17 -22 14 -49 25 -60 25 -20 0 -26 11 -14 23 8 8 62 -1 94 -16z
m-912 -33 c31 -9 27 -20 -9 -28 -28 -5 -30 -8 -18 -22 16 -20 13 -63 -7 -85
-8 -8 -14 -23 -14 -31 0 -19 -29 -33 -42 -20 -5 5 -2 21 7 38 8 16 15 36 15
45 0 8 6 21 13 28 10 10 8 14 -6 22 -17 10 -16 12 5 35 26 26 24 26 56 18z
m874 -21 c22 -20 23 -33 1 -33 -18 0 -53 28 -53 42 0 14 32 9 52 -9z m-762
-17 c6 -8 26 -16 43 -18 24 -2 33 -8 35 -25 4 -27 -13 -30 -54 -8 -16 8 -36
15 -45 15 -16 0 -29 19 -29 41 0 14 36 10 50 -5z m415 -416 c7 -12 -12 -40
-26 -40 -10 0 -12 34 -2 43 9 10 21 9 28 -3z m521 -217 c-5 -12 -10 -13 -18
-5 -8 8 -8 15 3 28 15 18 25 4 15 -23z m638 -39 c18 -7 22 -44 6 -44 -6 0 -22
7 -35 16 -37 24 -15 45 29 28z m-246 -62 c2 -7 -6 -12 -21 -12 -14 0 -31 -2
-39 -5 -7 -3 -20 0 -28 5 -12 8 -12 12 -2 18 19 13 85 8 90 -6z m-374 -68 c20
-8 9 -34 -15 -34 -18 0 -26 20 -12 33 8 8 8 8 27 1z m114 -11 c-2 -10 -16 -24
-31 -31 -15 -7 -25 -17 -22 -23 8 -12 55 -12 55 1 0 6 9 10 20 10 27 0 71 -22
67 -33 -5 -15 -86 -37 -137 -37 -26 0 -51 -5 -58 -12 -8 -8 -15 -8 -27 2 -12
10 -21 10 -42 1 -18 -8 -29 -9 -37 -1 -5 5 -25 10 -43 10 -23 0 -33 5 -33 15
0 8 -4 15 -10 15 -5 0 -10 10 -9 23 l0 22 11 -22 c13 -26 20 -28 48 -11 16 10
23 10 37 -4 16 -17 18 -17 35 -1 16 14 23 15 39 5 16 -10 24 -9 44 4 14 9 25
22 25 28 0 6 7 22 16 34 19 27 57 30 52 5z m206 -8 c13 -14 31 -25 40 -25 10
0 16 -8 16 -23 0 -28 32 -57 63 -57 13 0 34 -11 46 -24 19 -20 20 -24 7 -29
-17 -7 -86 29 -86 44 0 17 -20 9 -36 -16 -14 -21 -14 -30 -4 -55 14 -34 22
-37 40 -15 7 8 18 15 25 15 7 0 18 -7 25 -15 7 -8 25 -15 41 -15 15 0 31 -4
34 -10 3 -5 28 -12 55 -16 28 -4 50 -9 50 -13 0 -14 -16 -29 -37 -35 -25 -8
-31 -25 -10 -27 44 -4 75 6 97 30 17 18 44 31 85 40 33 7 70 18 82 24 30 14
39 3 24 -29 -8 -18 -9 -30 -2 -37 7 -7 14 -2 20 16 6 15 15 27 21 27 15 0 12
-38 -3 -47 -8 -4 -17 -16 -20 -26 -4 -11 -16 -21 -27 -24 -11 -3 -20 -9 -20
-14 0 -5 -22 -9 -49 -9 -31 0 -53 -5 -61 -15 -17 -21 -108 -20 -131 1 -24 22
-47 12 -51 -23 -2 -16 -10 -29 -20 -31 -12 -2 -15 2 -11 16 2 11 0 23 -6 26
-6 4 -11 16 -11 27 0 10 -5 19 -12 19 -6 0 -33 18 -60 41 -27 22 -56 39 -66
37 -29 -5 -25 -41 8 -73 39 -37 38 -66 -4 -112 -19 -21 -43 -48 -53 -61 -16
-20 -24 -21 -71 -16 -41 5 -52 10 -50 23 3 11 13 15 33 13 72 -6 145 73 106
114 -5 5 -11 20 -13 34 -5 38 -39 38 -60 0 -20 -35 -53 -50 -108 -50 -26 0
-40 -5 -44 -16 -5 -12 -10 -13 -19 -6 -7 6 -39 9 -72 7 -81 -5 -207 13 -221
31 -6 8 -21 14 -33 14 -15 0 -21 6 -21 21 0 11 -7 27 -15 35 -15 15 -10 44 7
44 5 0 31 -18 58 -41 62 -52 83 -49 86 11 1 24 -2 52 -7 62 -10 19 -54 25 -64
8 -11 -18 -34 -10 -37 13 -2 17 -11 23 -36 25 -21 2 -38 12 -50 29 -9 14 -34
42 -54 63 -21 20 -38 42 -38 48 0 26 23 20 63 -18 30 -27 54 -40 73 -40 18 0
39 -11 57 -29 31 -32 89 -45 138 -31 16 5 54 6 84 3 41 -4 61 -2 79 11 14 9
41 16 59 16 19 0 40 7 47 15 7 8 20 15 29 15 9 0 22 5 29 12 9 9 12 9 12 0 0
-7 -4 -12 -10 -12 -5 0 -10 -11 -10 -24 0 -28 -33 -53 -76 -58 -21 -2 -28 -8
-26 -20 4 -23 -15 -58 -32 -58 -7 0 -23 11 -36 25 -20 22 -31 24 -96 24 -65 0
-74 -3 -74 -19 0 -10 9 -22 20 -25 27 -8 25 -21 -5 -49 l-25 -24 26 -17 c22
-14 40 -16 92 -12 36 4 76 14 89 22 18 12 28 13 37 6 10 -8 17 -7 26 4 7 8 23
15 37 15 31 0 70 44 84 95 6 22 15 45 21 52 6 7 5 27 -3 55 -7 24 -12 55 -11
70 2 14 -2 29 -7 33 -14 8 -14 35 -1 35 6 0 21 -11 34 -25z m-474 -15 c0 -5
-7 -10 -16 -10 -8 0 -12 5 -9 10 3 6 10 10 16 10 5 0 9 -4 9 -10z m400 -31 c0
-5 -7 -9 -15 -9 -15 0 -20 12 -9 23 8 8 24 -1 24 -14z m734 -21 c-8 -61 -11
-68 -30 -68 -9 0 -25 -11 -36 -25 -15 -20 -29 -25 -62 -25 -23 0 -47 -5 -54
-12 -6 -6 -37 -12 -69 -13 -32 -2 -59 -7 -61 -14 -6 -18 -23 -13 -43 13 -14
18 -31 26 -62 28 -29 2 -43 8 -45 20 -5 25 30 31 82 13 51 -17 129 -14 210 8
35 10 59 25 80 50 17 21 35 37 39 37 5 0 15 7 23 15 26 26 35 17 28 -27z
m-734 -155 c0 -10 -32 -43 -42 -43 -10 0 -11 34 -1 43 8 9 43 9 43 0z m-192
-61 c3 -9 -2 -13 -14 -10 -9 1 -19 9 -22 16 -3 9 2 13 14 10 9 -1 19 -9 22
-16z m737 -162 c0 -22 -32 -37 -47 -22 -11 11 -9 16 7 28 22 16 40 14 40 -6z
m-307 -9 c70 -38 146 -70 155 -64 5 3 16 -2 23 -12 12 -16 14 -16 42 4 17 12
46 21 65 21 19 0 40 7 47 15 7 8 21 15 32 15 11 0 28 5 38 10 31 17 34 -8 6
-48 -41 -59 -53 -63 -200 -64 -122 -1 -136 0 -164 20 -16 12 -35 22 -41 22
-14 0 -61 45 -61 58 0 6 8 16 18 21 21 13 19 13 40 2z m167 -10 c-2 -5 -17 -6
-32 -3 l-28 6 25 6 c27 7 43 3 35 -9z m-740 -21 c3 -5 17 -10 30 -10 13 0 30
-7 39 -15 19 -20 70 -19 101 1 26 17 45 12 45 -11 0 -21 -33 -35 -79 -35 -34
0 -41 -3 -41 -20 0 -25 -28 -27 -37 -2 -11 30 -35 52 -58 52 -23 0 -59 32 -48
43 10 10 41 8 48 -3z m485 -40 c0 -11 -4 -20 -10 -20 -5 0 -10 9 -10 20 0 11
5 20 10 20 6 0 10 -9 10 -20z m-107 -67 c4 -2 7 -11 7 -19 0 -18 -70 -20 -88
-2 -27 27 -14 40 31 33 23 -4 45 -9 50 -12z m-153 0 c0 -4 -10 -17 -22 -30
-18 -19 -20 -26 -9 -32 17 -11 5 -31 -18 -31 -14 0 -20 9 -23 33 -6 56 0 67
38 67 19 0 34 -3 34 -7z m307 -15 c27 -25 30 -48 7 -48 -20 0 -53 40 -47 57 7
18 13 16 40 -9z m99 1 c7 -12 -15 -31 -28 -23 -4 3 -8 12 -8 20 0 17 26 19 36
3z m254 -37 c0 -13 -23 -32 -39 -32 -11 0 -10 4 4 20 19 21 35 26 35 12z m45
-2 c3 -5 -1 -10 -9 -10 -9 0 -16 5 -16 10 0 6 4 10 9 10 6 0 13 -4 16 -10z
m-506 -9 c22 -14 -2 -37 -45 -46 -27 -5 -41 -2 -55 11 -24 22 -14 37 19 30 15
-3 34 -2 42 4 18 12 21 12 39 1z m-329 -16 c0 -7 -17 -12 -45 -13 -32 0 -45 4
-45 14 0 9 13 13 45 12 28 0 45 -5 45 -13z m160 0 c0 -8 -4 -15 -9 -15 -13 0
-22 16 -14 24 11 11 23 6 23 -9z m543 0 c-2 -5 -38 -13 -80 -16 -77 -6 -119 3
-107 22 8 13 190 7 187 -6z m-285 -7 c-3 -7 -13 -15 -23 -16 -15 -4 -16 -2 -4
12 17 19 32 21 27 4z m257 -58 c44 0 108 2 142 4 45 3 65 1 74 -10 13 -16 13
-16 -75 -34 -46 -9 -63 -9 -82 1 -18 9 -26 9 -38 0 -11 -10 -19 -9 -35 0 -16
11 -25 10 -45 0 -15 -8 -32 -10 -43 -6 -10 5 -44 9 -76 10 -53 2 -59 0 -68
-21 -4 -13 -14 -24 -21 -24 -9 0 -9 -3 1 -12 11 -10 14 -10 18 0 7 17 43 15
65 -4 12 -12 21 -14 30 -7 18 14 78 4 78 -13 0 -10 -23 -13 -104 -12 -58 1
-109 4 -114 7 -6 3 -12 20 -14 36 -2 24 -8 30 -28 30 -20 0 -25 -5 -23 -21 3
-25 -30 -59 -47 -49 -7 4 -9 19 -5 35 12 54 -46 52 -80 -2 -23 -36 -45 -48
-45 -24 0 9 5 16 11 16 6 0 9 10 7 23 -3 21 -8 22 -97 25 -60 2 -98 -1 -107
-9 -11 -9 -17 -9 -28 0 -8 7 -22 11 -32 9 -23 -4 -28 13 -10 37 13 17 18 18
36 7 13 -8 26 -10 33 -4 7 5 91 10 187 11 96 2 176 3 177 4 1 1 64 1 140 0 76
-1 174 -3 218 -3z m-855 -34 c0 -3 -4 -8 -10 -11 -5 -3 -10 -1 -10 4 0 6 5 11
10 11 6 0 10 -2 10 -4z m990 -55 c0 -5 -12 -16 -26 -26 -24 -15 -27 -15 -44 0
-13 12 -27 15 -49 10 -30 -6 -45 8 -18 18 21 9 137 7 137 -2z m-751 -18 c20 1
36 -3 38 -11 4 -10 -16 -12 -88 -10 -68 2 -94 7 -97 17 -3 8 0 11 7 7 6 -4 18
-3 27 2 10 6 30 6 48 1 17 -4 46 -7 65 -6z m465 -58 c7 -18 96 -21 127 -4 16
8 25 7 40 -7 18 -16 18 -18 -10 -49 -16 -18 -31 -39 -33 -45 -5 -15 -41 -16
-118 -4 -71 11 -331 11 -392 0 -42 -8 -48 -6 -48 8 0 9 -7 19 -15 22 -8 4 -15
11 -15 17 0 18 32 47 52 47 22 0 23 -13 3 -30 -18 -15 -20 -47 -2 -53 6 -2 23
4 36 14 13 11 38 19 56 19 21 0 39 8 55 25 13 14 32 25 42 25 10 0 18 4 18 8
0 10 99 8 122 -2 10 -5 26 -2 40 8 28 20 34 20 42 1z m-284 -3 c0 -17 -38 -44
-45 -32 -4 6 1 18 11 25 22 16 34 19 34 7z m188 -150 c9 -7 7 -13 -9 -28 -17
-16 -39 -20 -123 -22 -55 -2 -105 -8 -110 -13 -15 -14 -62 -11 -75 5 -14 16
-62 16 -83 -2 -17 -14 -28 -6 -28 19 0 15 14 18 93 23 50 3 118 9 151 12 37 4
62 2 69 -5 16 -16 42 -14 57 4 14 16 38 19 58 7z m109 -22 c39 0 53 -4 51 -12
-3 -9 -26 -13 -69 -13 -55 0 -64 3 -67 19 -3 14 0 17 13 12 9 -3 41 -6 72 -6z
m188 -40 c-3 -5 -13 -10 -21 -10 -8 0 -14 5 -14 10 0 6 9 10 21 10 11 0 17 -4
14 -10z m-170 -51 c5 -5 24 -9 42 -9 26 0 33 -4 33 -20 0 -12 -10 -25 -25 -32
-14 -6 -25 -19 -25 -28 0 -10 -7 -23 -15 -30 -18 -15 -20 -73 -3 -100 10 -16
10 -22 -3 -35 -18 -18 -116 -23 -147 -6 -27 14 -57 14 -82 -1 -16 -10 -24 -10
-39 -1 -13 8 -21 9 -23 2 -2 -6 -22 -13 -44 -16 -34 -4 -45 -1 -62 18 -26 27
-23 33 10 20 60 -23 98 10 113 97 7 41 6 43 -17 38 -60 -14 -73 -12 -76 12 -3
17 2 22 18 22 25 0 37 25 20 45 -6 8 -9 19 -5 25 10 16 43 12 53 -6 9 -15 13
-15 63 -1 30 9 63 18 74 21 29 6 128 -5 140 -15z m-374 -32 c-13 -13 -26 -3
-16 12 3 6 11 8 17 5 6 -4 6 -10 -1 -17z m49 -127 c0 -5 -2 -10 -4 -10 -3 0
-8 5 -11 10 -3 6 -1 10 4 10 6 0 11 -4 11 -10z m60 -146 c0 -3 -9 -17 -20 -32
-28 -35 -14 -42 92 -42 80 0 88 2 106 24 24 31 72 46 72 23 0 -9 -9 -19 -21
-22 -18 -6 -19 -9 -7 -23 18 -22 16 -163 -2 -197 -7 -13 -9 -32 -5 -42 9 -23
9 -130 0 -167 -6 -21 -4 -31 8 -38 14 -7 16 -35 17 -201 1 -254 2 -248 -16
-275 -18 -27 -12 -52 11 -52 8 0 15 -1 16 -2 0 -2 3 -100 5 -217 3 -165 8
-220 19 -237 12 -19 12 -24 0 -34 -11 -9 -13 -70 -14 -317 -1 -189 -5 -310
-11 -318 -5 -6 -28 -20 -50 -30 -22 -10 -40 -22 -40 -27 0 -11 -34 -10 -46 2
-6 6 -31 12 -55 14 -24 2 -53 7 -64 11 -11 4 -26 9 -32 11 -7 2 -13 8 -13 14
0 6 28 10 68 10 78 0 89 6 65 32 -11 12 -30 18 -59 18 -24 0 -46 5 -49 10 -13
21 17 40 60 40 48 0 74 20 51 39 -8 7 -25 9 -38 6 -13 -3 -31 0 -43 9 -17 14
-18 17 -5 26 8 5 34 10 57 10 23 0 45 5 48 10 3 6 -3 10 -13 10 -11 0 -25 7
-32 15 -7 8 -27 15 -44 15 -34 0 -56 15 -56 38 0 12 11 13 56 7 51 -6 55 -5
52 12 -2 14 -15 19 -53 23 -61 7 -97 26 -93 48 4 21 34 27 62 12 12 -6 46 -10
76 -8 47 3 55 6 55 23 0 17 -9 21 -55 26 -60 6 -110 23 -110 38 0 15 30 22 65
15 23 -4 37 -1 49 11 22 23 14 31 -35 38 -41 5 -62 22 -56 42 2 6 26 11 53 13
37 2 53 8 62 23 13 21 12 22 -38 33 -69 14 -94 22 -97 32 -5 16 45 39 77 36
15 -2 31 2 35 8 10 16 3 20 -40 24 -20 2 -46 13 -57 24 l-21 21 34 5 c19 3 48
7 64 8 39 4 43 41 5 46 -26 4 -60 29 -60 44 0 4 19 7 43 6 32 -2 42 1 42 12 0
8 -9 16 -20 18 -28 6 -65 32 -65 48 0 19 19 27 35 14 7 -6 29 -10 47 -8 25 2
33 8 33 23 0 13 -8 21 -23 23 -13 2 -26 10 -29 18 -3 8 -13 14 -22 14 -30 0
-96 28 -99 42 -2 10 14 13 65 13 61 0 68 2 68 19 0 15 -13 24 -50 37 -59 20
-67 34 -24 43 38 7 59 23 59 43 0 10 -9 14 -28 12 -35 -4 -77 24 -69 45 5 11
20 16 50 16 26 0 49 6 56 14 10 12 4 18 -32 34 -24 11 -47 24 -51 30 -13 22 6
41 45 44 43 3 54 21 17 26 -13 2 -32 7 -43 12 -11 5 -31 10 -45 12 -17 2 -26
10 -28 26 -3 20 0 22 50 22 62 0 84 11 74 35 -4 13 -14 16 -36 13 -43 -6 -40
24 5 48 55 29 42 60 -28 66 -43 3 -54 21 -17 26 14 2 29 8 35 13 5 5 17 9 27
9 10 0 18 7 18 15 0 10 -10 15 -31 15 -46 0 -109 21 -109 37 0 9 14 13 44 13
25 0 48 5 51 10 3 6 15 10 26 10 10 0 19 6 19 14 0 16 -31 29 -70 30 -37 1
-35 40 3 44 43 5 31 35 -16 43 -20 3 -40 9 -44 13 -11 11 16 23 41 19 24 -5
73 28 63 43 -3 6 -33 7 -74 3 -73 -8 -83 -6 -83 17 0 8 10 14 25 14 15 0 29 8
36 23 17 33 40 57 56 57 7 0 13 -3 13 -6z m145 -9 c0 -11 -59 -19 -82 -11 -8
3 -11 11 -8 16 8 14 90 9 90 -5z m-255 -17 c0 -16 -3 -19 -11 -11 -6 6 -8 16
-5 22 11 17 16 13 16 -11z m26 -1275 c-10 -10 -19 5 -10 18 6 11 8 11 12 0 2
-7 1 -15 -2 -18z m595 -913 c15 0 32 -7 39 -15 7 -8 21 -15 31 -15 23 0 61
-20 72 -37 4 -7 17 -13 27 -13 11 0 24 -8 29 -19 6 -10 29 -29 53 -41 23 -12
53 -34 67 -50 14 -15 35 -31 47 -34 26 -8 84 -64 84 -81 0 -8 6 -20 13 -27 20
-21 47 -66 47 -79 0 -7 8 -21 17 -31 16 -18 16 -21 0 -47 -9 -16 -17 -45 -17
-64 0 -19 -7 -40 -15 -47 -9 -7 -13 -21 -9 -35 3 -13 -1 -28 -9 -37 -8 -7 -17
-23 -21 -35 -4 -12 -14 -27 -22 -34 -14 -11 -18 -10 -29 4 -16 23 -17 22 -66
-18 -24 -21 -51 -35 -62 -33 -27 4 -34 28 -9 28 23 0 75 57 66 71 -7 12 -61
12 -66 -1 -5 -15 -88 -16 -98 0 -12 20 0 40 25 40 35 0 85 29 85 51 0 25 -39
34 -89 22 -45 -12 -113 -3 -119 15 -2 8 11 12 45 12 48 0 93 20 93 42 0 7 -18
9 -55 4 -30 -3 -55 -3 -55 2 0 15 24 32 44 32 20 0 56 26 56 41 0 5 -37 9 -82
11 -45 2 -83 8 -85 13 -6 20 15 37 56 42 23 3 44 10 47 15 10 16 -17 37 -54
40 -24 2 -37 8 -38 18 -2 29 -4 30 -29 14 -21 -14 -31 -15 -50 -6 -35 16 -31
39 8 47 38 9 57 22 57 41 0 18 -24 17 -77 -1 -33 -11 -48 -12 -67 -3 -33 14
-56 -3 -56 -44 0 -33 -23 -47 -51 -30 -10 7 -28 12 -39 12 -11 0 -23 7 -26 15
-4 8 -12 15 -19 15 -22 0 -76 63 -64 74 7 8 21 -2 47 -32 26 -30 42 -41 53
-37 20 8 14 37 -12 61 -25 23 -24 34 5 34 15 0 26 7 29 20 3 12 14 20 26 20
22 0 30 33 11 45 -14 8 6 45 24 45 8 0 26 6 41 14 24 12 34 12 74 0 25 -7 58
-14 72 -14z m-613 -11 c-2 -6 -8 -10 -13 -10 -5 0 -11 4 -13 10 -2 6 4 11 13
11 9 0 15 -5 13 -11z m198 -35 c-3 -9 -6 -18 -6 -20 0 -2 -7 -4 -15 -4 -18 0
-19 12 -3 28 17 17 31 15 24 -4z m134 -24 c0 -5 -2 -10 -4 -10 -3 0 -8 5 -11
10 -3 6 -1 10 4 10 6 0 11 -4 11 -10z m-230 -19 c0 -17 -29 -33 -49 -26 -14 4
-30 -4 -58 -31 l-38 -37 -7 34 c-9 44 -4 49 43 49 21 0 39 5 39 10 0 6 16 10
35 10 19 0 35 -4 35 -9z m25 -71 c3 -6 -5 -14 -18 -19 -13 -5 -37 -23 -53 -40
-32 -34 -54 -40 -54 -15 0 42 106 105 125 74z m1 -85 c6 -15 -11 -71 -27 -89
-9 -10 -49 20 -49 38 0 12 50 66 62 66 5 0 11 -7 14 -15z m156 -30 c0 -5 -5
-11 -11 -13 -6 -2 -11 4 -11 13 0 9 5 15 11 13 6 -2 11 -8 11 -13z m-73 -19
c7 -8 26 -18 42 -21 16 -4 32 -11 35 -17 4 -5 22 -16 40 -24 36 -15 45 -40 18
-51 -8 -3 -20 -1 -27 6 -16 16 -54 14 -61 -5 -3 -8 -11 -12 -16 -9 -8 5 -7 11
1 21 13 16 2 34 -38 67 -23 18 -31 47 -14 47 5 0 14 -6 20 -14z m305 -24 c3
-5 -10 -24 -29 -42 -24 -23 -39 -31 -52 -25 -16 6 -13 11 21 41 41 35 51 40
60 26z m-314 -72 c0 -22 -38 -46 -51 -33 -6 6 -5 22 2 41 9 27 14 30 30 22 10
-6 19 -19 19 -30z m-284 19 c3 -6 -6 -23 -20 -38 -14 -15 -26 -32 -26 -38 0
-14 -28 -25 -35 -13 -3 5 3 26 14 46 27 50 52 66 67 43z m632 -16 c-2 -10 -12
-22 -23 -28 -11 -5 -35 -21 -53 -33 -18 -13 -40 -21 -48 -18 -25 10 71 94 109
95 12 1 17 -5 15 -16z m-454 -12 c4 -5 -11 -20 -31 -32 -21 -13 -40 -25 -43
-28 -3 -4 -18 -13 -34 -21 -15 -8 -32 -25 -37 -38 -20 -53 -59 -69 -59 -24 0
35 80 122 113 122 13 0 32 7 43 15 22 17 40 19 48 6z m476 -81 c0 -15 -80 -70
-101 -70 -10 0 -23 -10 -30 -22 -10 -19 -12 -20 -21 -4 -15 27 -2 44 52 68 27
12 50 25 50 30 0 4 11 8 25 8 14 0 25 -4 25 -10z m775 -45 c27 -14 53 -25 60
-25 7 0 24 -11 39 -25 18 -16 39 -25 60 -25 19 0 39 -7 46 -15 8 -10 31 -15
66 -15 29 0 56 -4 59 -10 3 -5 16 -10 29 -10 34 0 46 -19 46 -75 0 -29 3 -55
7 -59 10 -10 13 -139 3 -151 -4 -5 -11 -40 -15 -78 -8 -76 -32 -138 -46 -116
-13 21 -11 42 8 68 12 17 16 41 14 85 -1 34 -5 63 -7 66 -11 10 -42 -45 -34
-59 4 -8 4 -22 0 -30 -5 -9 -11 -25 -15 -35 -4 -14 -9 -16 -17 -8 -8 8 -8 15
2 27 12 14 11 18 -1 25 -17 11 -26 2 -31 -29 -6 -43 -28 -37 -28 8 0 57 18 91
52 98 15 3 28 11 28 19 0 16 -6 20 -47 29 -30 6 -33 5 -33 -18 0 -34 -28 -44
-36 -12 -3 13 -3 29 1 34 11 19 -7 12 -26 -11 -12 -13 -19 -36 -19 -60 0 -40
18 -52 27 -18 8 28 23 25 23 -5 0 -33 -23 -42 -56 -20 -24 15 -25 20 -18 73 4
31 11 59 15 60 5 2 9 14 9 28 0 17 -7 25 -24 30 -14 3 -27 12 -30 21 -3 8 -10
11 -16 8 -15 -9 -12 -36 6 -50 14 -10 15 -18 3 -80 -8 -38 -20 -70 -26 -73
-19 -6 -16 38 3 59 19 21 11 39 -17 39 -25 0 -74 56 -74 84 0 27 -29 27 -33 1
-7 -47 -13 -65 -22 -65 -10 0 -5 134 5 170 3 8 0 22 -5 30 -15 25 -32 -3 -32
-54 0 -50 -6 -60 -28 -46 -13 8 -13 13 -2 30 14 24 7 63 -11 57 -7 -2 -20 -20
-30 -40 -9 -20 -21 -37 -26 -37 -15 0 -23 18 -11 25 5 3 8 24 7 47 -2 24 2 45
10 53 7 8 13 33 13 58 0 24 3 47 8 51 14 15 120 -3 167 -29z m-1262 -15 c9
-11 17 -26 17 -34 0 -7 7 -19 15 -26 8 -7 15 -20 15 -29 0 -9 5 -22 12 -29 8
-8 8 -15 -2 -27 -14 -17 -40 -20 -40 -6 0 15 -41 24 -53 12 -6 -6 -19 -11 -29
-11 -22 0 -24 32 -3 50 8 7 15 23 15 35 0 13 -7 25 -15 29 -20 7 -19 33 3 45
26 16 46 13 65 -9z m517 -8 c0 -21 -139 -152 -161 -152 -33 0 -29 30 8 65 21
19 42 35 48 35 6 0 28 18 50 40 39 39 55 43 55 12z m-232 6 c18 -18 14 -38 -7
-38 -20 0 -35 25 -25 41 7 12 18 11 32 -3z m2552 -13 c0 -8 -4 -15 -10 -15 -5
0 -10 7 -10 15 0 8 5 15 10 15 6 0 10 -7 10 -15z m-68 -12 c46 -42 -1 -118
-60 -95 -15 7 -80 10 -149 9 -109 -2 -146 3 -131 18 2 3 17 6 32 7 15 1 32 8
38 15 6 7 30 13 54 13 23 0 46 5 49 10 3 6 30 10 59 10 35 0 58 5 66 15 16 19
19 19 42 -2z m-2882 -61 c0 -29 -24 -72 -41 -72 -14 0 -11 33 7 68 19 39 34
41 34 4z m340 3 c0 -21 -5 -25 -30 -25 -23 0 -33 -6 -40 -25 -11 -28 -20 -31
-38 -13 -18 18 -14 38 8 38 10 0 27 11 37 25 25 33 63 34 63 0z m1682 -52 c71
-74 118 -146 118 -183 0 -9 9 -25 20 -35 11 -10 22 -27 26 -39 3 -11 12 -28
19 -36 7 -8 15 -27 19 -42 5 -24 3 -28 -14 -28 -11 0 -20 5 -20 10 0 16 -66
11 -81 -6 -10 -12 -10 -20 -1 -35 7 -10 12 -28 12 -38 0 -11 4 -22 9 -25 5 -3
11 -20 14 -38 4 -33 18 -74 44 -135 7 -17 13 -38 13 -46 0 -9 5 -19 10 -22 6
-3 10 -19 10 -34 0 -16 7 -42 15 -57 8 -16 15 -37 15 -46 0 -9 5 -20 10 -23 6
-3 10 -17 10 -29 0 -13 7 -29 15 -36 8 -7 15 -25 15 -41 0 -15 5 -31 10 -34 6
-3 10 -19 10 -34 0 -16 7 -34 15 -41 8 -7 15 -24 15 -39 0 -14 7 -35 15 -45 8
-11 15 -29 15 -41 0 -25 37 -105 48 -105 5 0 22 -14 40 -31 20 -20 39 -29 54
-27 20 3 23 8 20 38 -2 19 -5 56 -6 82 -4 56 -29 114 -57 131 -24 15 -25 37
-1 37 31 0 32 11 7 45 -14 17 -25 40 -25 50 0 9 -13 33 -30 52 -16 18 -30 38
-30 44 0 5 -9 19 -20 31 -41 44 -19 48 35 7 58 -44 75 -46 55 -7 -19 35 -42
59 -67 69 -14 5 -23 17 -23 29 0 23 17 25 44 5 23 -18 56 -20 56 -4 0 6 -47
57 -105 113 -58 57 -105 106 -105 109 0 14 54 6 71 -9 19 -17 49 -13 49 6 0 6
-9 18 -20 27 -11 10 -20 25 -20 35 0 9 -4 19 -9 23 -12 7 -41 64 -41 80 0 7
-7 18 -15 25 -16 14 -21 50 -6 50 5 0 36 -25 67 -55 56 -53 89 -73 102 -61 3
4 -29 40 -71 82 -68 67 -89 94 -72 94 13 0 83 -50 109 -79 17 -17 35 -31 41
-31 6 0 34 -22 61 -50 27 -27 55 -50 62 -50 17 0 16 5 -12 48 -21 34 -59 68
-93 82 -6 3 -41 33 -77 68 -36 34 -71 62 -77 62 -7 0 -22 11 -35 25 -13 14
-26 25 -30 25 -11 0 -44 32 -44 42 0 16 27 8 51 -15 30 -29 86 -68 121 -86 15
-8 40 -26 55 -41 15 -14 44 -36 63 -48 19 -11 66 -53 105 -91 65 -66 105 -88
105 -58 0 15 -31 51 -56 65 -24 13 -7 34 19 26 12 -4 40 -19 61 -35 45 -33 74
-37 83 -12 8 20 -26 48 -113 94 -35 18 -64 36 -64 40 0 5 -16 15 -35 24 -19 9
-39 23 -46 31 -6 8 -20 14 -30 14 -11 0 -19 4 -19 8 0 5 -18 16 -40 26 -22 10
-40 21 -40 26 0 5 -17 16 -37 25 -85 37 -123 57 -128 66 -4 5 -26 9 -51 9 -24
0 -44 5 -44 10 0 6 -9 10 -20 10 -24 0 -37 27 -21 43 8 8 19 8 43 -1 21 -7 35
-8 43 -2 12 10 69 -11 80 -31 4 -5 21 -9 39 -9 21 0 40 -8 55 -24 15 -16 34
-24 56 -24 54 0 134 -13 141 -23 3 -5 17 -9 31 -9 14 0 41 -11 59 -25 18 -14
38 -25 44 -25 6 0 21 -11 34 -25 15 -16 34 -25 54 -25 17 0 32 -6 36 -15 3 -8
17 -15 32 -15 l26 0 -6 -205 c-3 -125 -9 -212 -16 -226 -10 -17 -8 -29 6 -60
15 -34 15 -41 3 -57 -29 -34 -39 -69 -41 -146 -2 -53 -7 -81 -15 -84 -10 -3
-13 14 -13 61 0 88 -27 165 -49 142 -5 -6 -11 -29 -15 -52 -5 -38 -4 -43 13
-43 22 0 33 -22 24 -46 -6 -15 -7 -15 -19 1 -25 34 -35 6 -31 -91 3 -85 -3
-117 -20 -101 -4 5 -11 105 -15 212 0 6 2 21 6 35 3 14 2 32 -4 40 -9 13 -12
13 -21 -2 -5 -10 -16 -18 -24 -18 -8 0 -18 -14 -22 -31 -11 -42 -28 -37 -28 9
0 31 3 37 20 35 27 -2 32 9 28 72 -2 43 0 57 12 61 8 4 15 17 15 30 0 18 -6
24 -22 24 -13 0 -32 7 -42 15 -18 13 -22 13 -43 -7 -24 -22 -31 -58 -12 -58 6
0 17 7 26 15 25 25 38 12 41 -43 2 -42 0 -52 -12 -52 -11 0 -16 9 -16 29 0 39
-13 46 -36 20 -16 -18 -18 -37 -16 -176 1 -101 6 -161 13 -170 9 -10 9 -19 -1
-37 -10 -20 -10 -28 3 -46 11 -16 13 -29 7 -46 -6 -15 -4 -50 5 -99 23 -118
23 -116 -32 -108 -53 6 -123 37 -123 54 0 9 -76 116 -91 129 -3 3 -26 45 -50
94 -24 48 -49 91 -56 93 -7 3 -13 18 -13 34 0 15 -11 49 -25 75 -14 26 -25 55
-25 65 0 17 -18 66 -41 111 -5 10 -9 27 -9 38 0 21 -36 97 -51 106 -5 3 -9 20
-9 39 0 19 -4 37 -10 40 -5 3 -10 19 -10 35 0 28 -22 60 -42 60 -6 0 -8 -11
-5 -27 4 -16 9 -44 13 -63 4 -19 13 -44 20 -55 8 -11 14 -32 14 -47 0 -15 5
-30 10 -33 12 -7 14 -45 3 -45 -12 0 -43 59 -43 80 0 9 -7 23 -15 30 -8 7 -15
21 -15 32 0 10 -4 16 -10 13 -26 -16 -1 -120 47 -197 13 -21 23 -46 23 -57 0
-10 7 -24 15 -31 8 -7 15 -19 15 -27 0 -7 5 -19 10 -26 25 -30 60 -89 60 -102
0 -8 8 -18 18 -24 14 -8 15 -12 4 -23 -11 -11 -16 -9 -32 12 -11 14 -27 39
-35 55 -9 17 -19 37 -24 45 -24 45 -31 61 -31 75 0 9 -7 18 -15 21 -8 4 -15
15 -15 26 0 19 -25 47 -42 48 -5 0 -8 -13 -8 -30 0 -16 4 -30 8 -30 10 0 42
-71 42 -93 0 -10 -4 -17 -8 -17 -10 0 -42 71 -42 94 0 28 -25 12 -28 -18 -3
-26 49 -150 69 -161 5 -4 9 -13 9 -22 0 -25 72 -98 97 -98 44 -1 180 -122 169
-150 -6 -17 -22 -20 -31 -5 -3 6 -22 10 -41 10 -24 0 -34 5 -34 15 0 18 -41
20 -58 3 -10 -10 -15 -10 -23 2 -9 14 -12 24 -24 85 -4 18 -12 25 -29 25 -14
0 -27 -6 -29 -12 -9 -22 -25 10 -19 38 3 17 0 24 -12 24 -9 0 -16 -4 -16 -10
0 -5 -7 -10 -15 -10 -30 0 -48 73 -23 98 14 14 3 28 -27 34 -17 3 -19 10 -17
48 2 25 10 66 19 92 14 39 14 52 4 71 -9 17 -9 30 -2 51 17 43 14 401 -3 415
-8 7 -14 37 -15 83 -1 40 -6 77 -11 83 -5 5 -10 28 -12 50 -3 37 -1 40 22 40
20 0 26 -6 31 -35 3 -19 22 -65 42 -101 20 -37 34 -69 31 -71 -2 -3 2 -11 11
-18 8 -7 15 -23 15 -37 0 -27 25 -42 42 -25 12 12 9 21 -28 95 -8 16 -14 36
-15 45 0 9 -9 31 -19 47 -36 56 -60 104 -60 119 0 8 -6 16 -12 19 -7 2 -10 7
-7 10 7 9 79 -52 79 -67 0 -7 11 -23 25 -36 14 -13 25 -30 25 -38 0 -7 14 -27
31 -44 22 -23 33 -28 41 -20 9 9 7 16 -5 30 -9 10 -17 23 -17 29 0 6 -11 18
-25 27 -14 9 -25 25 -25 35 0 9 -25 45 -55 78 -50 55 -69 93 -47 93 5 0 42
-35 84 -77z m-1392 47 c0 -18 -31 -59 -99 -130 -73 -77 -97 -88 -88 -41 7 34
35 71 55 71 7 0 36 25 65 55 52 54 67 64 67 45z m1820 -10 c0 -5 -9 -10 -20
-10 -11 0 -20 5 -20 10 0 6 9 10 20 10 11 0 20 -4 20 -10z m-592 -38 c2 -15
-2 -22 -12 -22 -11 0 -16 9 -16 26 0 31 23 28 28 -4z m-1490 -59 c6 -18 6 -36
-1 -51 -8 -18 -6 -27 10 -45 18 -19 20 -31 16 -104 l-6 -83 -53 0 c-29 0 -55
-4 -58 -9 -3 -5 -15 -11 -26 -14 -37 -10 -21 18 33 53 55 37 68 51 78 86 8 26
-16 80 -48 110 -29 27 -29 56 0 70 35 18 44 16 55 -13z m282 17 c0 -5 -4 -10
-10 -10 -5 0 -10 5 -10 10 0 6 5 10 10 10 6 0 10 -4 10 -10z m2249 -24 c11
-13 8 -65 -5 -87 -5 -9 -84 31 -84 42 0 5 14 9 30 9 32 0 40 14 15 28 -10 5
-13 15 -9 25 7 18 30 11 53 -17z m-2194 -26 c3 -5 -17 -33 -44 -62 -27 -29
-78 -87 -113 -128 -57 -67 -108 -101 -108 -72 0 6 36 48 80 93 44 46 80 86 80
88 0 8 84 90 92 90 4 1 9 -3 13 -9z m-105 -9 c0 -19 -104 -131 -122 -131 -17
0 -7 41 11 48 11 4 33 26 50 50 28 38 61 56 61 33z m668 -19 c2 -7 -6 -12 -17
-12 -21 0 -27 11 -14 24 9 9 26 2 31 -12z m-1268 -32 c0 -23 -28 -70 -41 -70
-15 0 -10 39 7 65 20 30 34 32 34 5z m260 -15 c0 -11 -12 -15 -40 -15 -45 0
-51 10 -17 33 25 17 57 6 57 -18z m588 23 c-7 -19 -38 -22 -38 -4 0 10 9 16
21 16 12 0 19 -5 17 -12z m-118 -20 c0 -14 -30 -48 -42 -48 -13 0 -9 19 10 39
20 22 32 26 32 9z m390 -37 c0 -28 -4 -52 -9 -55 -5 -4 -16 -27 -25 -53 -23
-68 -66 -109 -66 -64 0 11 5 23 10 26 6 3 10 14 10 23 0 9 14 44 30 77 16 33
30 68 30 78 0 9 5 17 10 17 6 0 10 -22 10 -49z m110 31 c0 -10 5 -23 11 -29 6
-6 9 -19 7 -29 -4 -16 -7 -15 -16 8 -6 14 -16 29 -21 33 -16 9 -13 35 4 35 8
0 15 -8 15 -18z m-1145 -49 c-14 -26 -13 -29 15 -51 34 -27 43 -76 13 -70 -10
2 -22 13 -28 26 -10 23 -48 31 -60 12 -8 -13 -25 -3 -25 14 0 7 14 26 31 42
16 16 36 34 42 41 21 21 26 14 12 -14z m889 -20 c-3 -16 -13 -41 -20 -57 -8
-16 -14 -37 -14 -48 0 -10 -4 -18 -10 -18 -5 0 -10 -8 -10 -19 0 -10 -7 -24
-15 -31 -8 -7 -15 -21 -15 -30 0 -21 -31 -80 -42 -80 -19 0 -5 64 27 123 19
36 35 78 35 95 0 16 7 35 15 42 8 7 15 21 15 31 0 12 7 19 20 19 17 0 19 -4
14 -27z m-316 -27 c-16 -12 -28 -27 -28 -34 0 -7 -7 -12 -15 -12 -24 0 -18 23
16 59 24 26 33 31 42 22 9 -10 6 -17 -15 -35z m382 41 c0 -2 -8 -19 -17 -38
-9 -19 -18 -28 -21 -20 -5 15 17 61 30 61 4 0 8 -2 8 -3z m-230 -52 c0 -8 -4
-15 -9 -15 -13 0 -22 16 -14 24 11 11 23 6 23 -9z m493 -22 c-7 -17 -33 -17
-33 0 0 21 22 39 31 25 4 -6 5 -17 2 -25z m107 13 c0 -8 -4 -18 -10 -21 -5 -3
-10 3 -10 14 0 12 5 21 10 21 6 0 10 -6 10 -14z m-250 -43 c-1 -18 -19 -35
-29 -28 -9 5 -9 10 0 21 12 15 29 19 29 7z m297 -27 c-2 -6 -14 -13 -26 -14
-25 -4 -47 11 -38 25 8 14 69 3 64 -11z m-887 -3 c0 -10 -26 -45 -57 -77 l-57
-59 -8 28 c-8 32 -3 45 17 45 7 0 33 18 57 40 23 22 44 40 46 40 1 0 2 -8 2
-17z m936 -20 c-11 -11 -19 6 -11 24 8 17 8 17 12 0 3 -10 2 -21 -1 -24z
m-226 -24 c0 -28 -4 -39 -12 -37 -24 8 -22 78 2 78 5 0 10 -18 10 -41z m545
31 c3 -5 1 -10 -4 -10 -6 0 -11 5 -11 10 0 6 2 10 4 10 3 0 8 -4 11 -10z
m-990 -20 c0 -7 -6 -15 -12 -17 -8 -3 -13 4 -13 17 0 13 5 20 13 18 6 -3 12
-11 12 -18z m155 -6 c0 -8 -4 -14 -10 -14 -5 0 -10 -7 -10 -15 0 -8 -7 -15
-15 -15 -8 0 -15 5 -15 10 0 6 7 13 15 16 8 4 15 15 15 26 0 10 5 16 10 13 6
-3 10 -13 10 -21z m-223 -19 c-7 -14 -18 -25 -24 -25 -18 0 -16 10 5 31 24 25
32 23 19 -6z m-379 -17 c3 -16 -2 -17 -40 -12 -41 6 -46 4 -76 -30 -32 -37
-41 -69 -22 -81 20 -12 10 -41 -19 -52 -38 -14 -51 -1 -51 52 1 44 23 78 80
120 43 31 122 33 128 3z m225 -19 c-30 -31 -51 -14 -22 17 16 17 26 21 33 14
7 -7 4 -17 -11 -31z m427 15 c0 -9 -8 -28 -19 -42 -10 -15 -22 -37 -25 -49 -4
-13 -12 -23 -17 -23 -18 0 -21 31 -5 49 9 10 16 24 16 31 0 14 30 48 43 49 4
1 7 -6 7 -15z m639 -3 c11 -20 5 -31 -15 -31 -14 0 -27 28 -18 41 9 14 23 10
33 -10z m599 -15 c3 -13 -1 -17 -14 -14 -11 2 -20 11 -22 22 -3 13 1 17 14 14
11 -2 20 -11 22 -22z m-2191 -21 c-13 -27 -22 -31 -32 -15 -11 18 3 40 24 40
17 0 18 -3 8 -25z m273 -33 c0 -14 -35 -42 -52 -42 -24 0 -23 25 3 44 19 13
49 12 49 -2z m950 -3 c0 -5 -7 -9 -15 -9 -15 0 -20 12 -9 23 8 8 24 -1 24 -14z
m-1180 -49 c0 -45 -5 -48 -39 -20 l-23 20 23 20 c34 28 39 25 39 -20z m1305
10 c-5 -8 -11 -8 -17 -2 -6 6 -7 16 -3 22 5 8 11 8 17 2 6 -6 7 -16 3 -22z
m-1042 -33 c3 -7 -1 -31 -9 -52 -9 -26 -14 -87 -14 -175 0 -139 -5 -160 -40
-160 -9 0 -22 11 -28 25 -9 20 -17 24 -36 19 -39 -9 -42 23 -3 40 31 12 32 15
29 60 -3 37 -8 46 -22 46 -28 0 -34 19 -15 40 10 11 15 26 12 34 -4 9 16 37
51 74 62 65 68 68 75 49z m1217 -22 c0 -9 -9 -15 -21 -15 -18 0 -19 2 -9 15 7
8 16 15 21 15 5 0 9 -7 9 -15z m730 -85 c0 -5 -4 -10 -10 -10 -5 0 -10 5 -10
10 0 6 5 10 10 10 6 0 10 -4 10 -10z m-667 -47 c7 -42 4 -48 -18 -40 -15 6
-21 57 -8 70 13 14 21 6 26 -30z m-1493 -27 c0 -3 -4 -8 -10 -11 -5 -3 -10 -1
-10 4 0 6 5 11 10 11 6 0 10 -2 10 -4z m1549 -151 c3 -19 16 -32 67 -69 17
-12 22 -22 16 -28 -15 -15 -56 -5 -60 15 -2 9 -19 34 -38 53 -40 43 -43 57
-12 52 13 -2 24 -11 27 -23z m917 -71 c-3 -9 -6 -20 -6 -25 0 -5 -7 -9 -15 -9
-18 0 -20 21 -3 38 17 17 31 15 24 -4z m14 -111 c0 -33 -38 -31 -46 1 -3 14
-3 30 1 35 10 17 45 -11 45 -36z m130 32 c0 -8 -4 -15 -10 -15 -5 0 -10 7 -10
15 0 8 5 15 10 15 6 0 10 -7 10 -15z m-127 -155 c-3 -11 -9 -20 -14 -20 -12 0
-22 46 -13 61 11 18 33 -17 27 -41z m157 35 c0 -8 -7 -15 -15 -15 -16 0 -20
12 -8 23 11 12 23 8 23 -8z m80 -23 c0 -13 -12 -22 -22 -16 -10 6 -1 24 13 24
5 0 9 -4 9 -8z m-240 -82 c0 -11 -4 -20 -10 -20 -5 0 -10 9 -10 20 0 11 5 20
10 20 6 0 10 -9 10 -20z m117 -56 c-3 -3 -12 -4 -19 -1 -8 3 -5 6 6 6 11 1 17
-2 13 -5z m63 -210 c0 -8 -5 -12 -10 -9 -6 4 -8 11 -5 16 9 14 15 11 15 -7z
m80 6 c0 -5 -7 -10 -15 -10 -8 0 -15 5 -15 10 0 6 7 10 15 10 8 0 15 -4 15
-10z"/>
<path d="M3650 9830 c0 -17 4 -19 28 -14 34 8 36 10 27 23 -3 6 -17 11 -31 11
-17 0 -24 -5 -24 -20z"/>
<path d="M3666 9198 c-15 -18 -31 -38 -36 -45 -17 -21 -11 -33 15 -33 15 0 25
6 25 14 0 8 11 28 25 44 14 17 25 35 25 41 0 22 -29 10 -54 -21z"/>
<path d="M3767 8334 c-18 -18 -3 -25 48 -22 30 2 56 8 58 13 2 11 -95 20 -106
9z"/>
<path d="M3650 8285 c0 -29 3 -30 35 -9 29 19 24 34 -11 34 -19 0 -24 -5 -24
-25z"/>
<path d="M3770 8262 c-13 -2 -33 -10 -44 -18 -11 -8 -28 -14 -36 -14 -19 0
-70 -50 -70 -68 0 -20 27 -14 73 18 60 40 124 41 193 3 45 -25 58 -27 161 -28
101 0 114 2 127 20 8 11 12 22 9 25 -2 3 -50 6 -106 6 -88 2 -108 5 -149 27
-46 24 -108 36 -158 29z"/>
<path d="M4345 8188 c-69 -69 -75 -84 -75 -176 0 -54 5 -94 14 -110 8 -15 17
-36 21 -46 6 -19 6 -19 28 2 17 17 19 24 9 34 -8 8 -12 44 -12 100 0 77 3 93
25 128 14 22 25 43 25 48 0 5 9 17 20 27 25 22 26 35 3 34 -10 0 -36 -19 -58
-41z"/>
<path d="M3706 8153 c-11 -11 -6 -23 9 -23 8 0 15 4 15 9 0 13 -16 22 -24 14z"/>
<path d="M4055 8070 c-8 -14 30 -27 90 -31 45 -4 50 -2 50 16 0 18 -8 20 -67
23 -38 2 -69 -1 -73 -8z"/>
<path d="M3743 7984 c-3 -8 0 -21 6 -27 14 -14 44 2 49 27 5 22 -46 22 -55 0z"/>
<path d="M4017 7993 c-4 -3 -2 -12 4 -19 6 -7 8 -18 4 -24 -9 -15 -41 -12 -55
5 -19 23 -42 19 -38 -7 2 -19 10 -23 38 -24 25 0 36 -5 38 -17 3 -13 -4 -17
-31 -17 -19 0 -40 7 -47 15 -9 11 -34 15 -96 15 -45 0 -85 -4 -88 -9 -8 -12
18 -21 58 -21 18 0 36 -4 42 -10 5 -5 30 -11 55 -12 26 -2 54 -9 62 -17 23
-18 51 -10 55 17 2 14 10 22 22 22 10 0 22 9 25 21 4 11 18 24 31 29 32 13 30
25 -8 44 -33 17 -60 20 -71 9z"/>
<path d="M3364 7976 c-3 -8 -3 -20 1 -26 7 -12 61 -12 90 0 19 7 19 8 -5 17
-54 21 -80 24 -86 9z"/>
<path d="M3560 7960 c0 -5 7 -10 15 -10 8 0 15 5 15 10 0 6 -7 10 -15 10 -8 0
-15 -4 -15 -10z"/>
<path d="M3020 7900 c0 -17 7 -20 45 -20 32 0 45 4 45 14 0 17 -22 26 -61 26
-22 0 -29 -5 -29 -20z"/>
<path d="M3450 7901 c-5 -11 -6 -22 -2 -25 12 -7 88 0 84 8 -1 3 -5 13 -8 21
-9 22 -61 19 -74 -4z"/>
<path d="M3367 7894 c-14 -14 -6 -24 19 -24 16 0 24 5 22 13 -5 14 -31 21 -41
11z"/>
<path d="M2852 7868 c-18 -18 -15 -32 13 -58 22 -21 28 -22 49 -11 17 10 29
10 44 2 25 -13 139 -15 147 -2 3 5 -4 16 -16 24 -16 12 -28 13 -50 5 -21 -7
-33 -7 -43 1 -7 6 -34 14 -60 17 -29 4 -46 12 -46 20 0 17 -22 18 -38 2z"/>
<path d="M3540 7839 c-25 -11 -25 -11 -3 -19 26 -11 65 -1 60 14 -5 15 -27 17
-57 5z"/>
<path d="M3360 7817 c0 -22 27 -57 44 -57 5 0 5 11 2 24 -5 22 -2 25 26 28 17
2 33 9 36 16 3 8 -12 12 -52 12 -52 0 -56 -2 -56 -23z"/>
<path d="M3773 7828 c2 -7 12 -13 22 -13 10 0 20 6 23 13 2 7 -6 12 -23 12
-17 0 -25 -5 -22 -12z"/>
<path d="M3717 7772 c-9 -10 -17 -33 -17 -50 0 -17 -4 -34 -10 -37 -5 -3 -10
-10 -10 -16 0 -13 34 -11 49 4 7 7 37 12 69 12 44 0 57 3 57 15 0 11 -12 15
-43 16 -51 2 -56 6 -57 41 0 33 -16 39 -38 15z"/>
<path d="M2946 7763 c-11 -11 -6 -23 9 -23 8 0 15 4 15 9 0 13 -16 22 -24 14z"/>
<path d="M3887 7764 c-16 -16 -5 -24 32 -24 22 0 43 5 46 10 3 6 -2 10 -12 10
-10 0 -27 3 -38 6 -11 3 -24 2 -28 -2z"/>
<path d="M3014 7747 c-3 -9 -3 -21 1 -27 8 -12 142 -14 150 -1 9 15 -16 26
-60 27 -22 1 -50 4 -62 9 -17 5 -24 3 -29 -8z"/>
<path d="M2850 7734 c0 -15 22 -44 34 -44 8 0 19 -7 26 -15 7 -9 29 -15 54
-15 23 0 52 -7 64 -16 29 -20 127 -16 127 6 0 11 -21 19 -77 29 -43 7 -78 17
-78 22 0 5 -13 9 -29 9 -16 0 -34 7 -41 15 -12 14 -80 22 -80 9z"/>
<path d="M3927 7704 c-9 -10 2 -24 19 -24 8 0 14 7 14 15 0 15 -21 21 -33 9z"/>
<path d="M2846 7679 c-2 -8 -7 -39 -10 -70 -7 -67 8 -88 92 -131 54 -28 135
-38 147 -19 9 15 -15 25 -84 36 -61 10 -67 14 -97 55 -35 50 -35 63 2 54 32
-8 30 3 -11 50 -23 26 -36 34 -39 25z"/>
<path d="M3435 7670 c-27 -30 -6 -48 29 -25 15 10 35 15 49 12 12 -4 29 -2 37
3 13 9 13 11 0 20 -27 18 -95 12 -115 -10z"/>
<path d="M3810 7095 c0 -8 9 -15 20 -15 11 0 20 7 20 15 0 8 -9 15 -20 15 -11
0 -20 -7 -20 -15z"/>
<path d="M4120 7101 c0 -5 -9 -13 -20 -16 -35 -11 -22 -25 24 -25 35 0 45 4
49 19 3 11 2 22 -1 25 -9 10 -52 7 -52 -3z"/>
<path d="M3647 6113 c-7 -12 4 -73 12 -73 10 0 30 67 23 74 -8 8 -30 7 -35 -1z"/>
<path d="M3652 6003 c2 -12 11 -17 23 -15 25 5 29 8 20 21 -11 19 -47 13 -43
-6z"/>
<path d="M3740 4850 c0 -5 5 -10 10 -10 6 0 10 5 10 10 0 6 -4 10 -10 10 -5 0
-10 -4 -10 -10z"/>
<path d="M3960 3590 c-13 -24 3 -60 26 -60 26 0 54 20 54 38 0 42 -61 58 -80
22z"/>
<path d="M4460 3065 c0 -20 5 -25 25 -25 20 0 25 5 25 25 0 20 -5 25 -25 25
-20 0 -25 -5 -25 -25z"/>
<path d="M4974 3015 c-9 -23 14 -45 26 -25 5 8 8 19 7 24 -6 17 -27 18 -33 1z"/>
<path d="M4843 3004 c-8 -22 15 -44 26 -25 10 16 4 41 -10 41 -5 0 -12 -7 -16
-16z"/>
<path d="M5927 2513 c-8 -8 -9 -43 -2 -43 4 0 20 7 37 16 24 12 28 18 17 25
-17 10 -43 12 -52 2z"/>
<path d="M5637 1803 c-9 -9 22 -43 40 -43 14 0 16 10 7 34 -6 16 -35 22 -47 9z"/>
<path d="M5513 10512 c-18 -9 -33 -21 -33 -27 0 -6 -13 -24 -30 -40 -16 -16
-30 -34 -30 -41 0 -6 -12 -32 -26 -58 -23 -41 -24 -47 -9 -52 19 -8 32 3 37
31 4 25 22 22 26 -5 2 -11 7 -20 12 -20 17 0 58 65 70 108 6 24 20 52 31 63
24 24 25 59 2 58 -10 -1 -33 -9 -50 -17z"/>
<path d="M5427 10263 c-4 -3 -7 -14 -7 -23 0 -10 -7 -23 -15 -30 -19 -16 -19
-40 0 -40 17 0 45 50 45 80 0 20 -11 26 -23 13z"/>
<path d="M2072 9995 c-20 -9 -22 -15 -16 -55 3 -25 10 -49 15 -54 5 -6 9 -21
9 -34 0 -20 4 -23 28 -20 26 3 27 5 24 51 -2 26 -11 64 -20 85 -15 34 -19 36
-40 27z"/>
</g>
</svg>
