<?xml version="1.0" standalone="no"?>
<!DOCTYPE svg PUBLIC "-//W3C//DTD SVG 20010904//EN"
 "http://www.w3.org/TR/2001/REC-SVG-20010904/DTD/svg10.dtd">
<svg version="1.0" xmlns="http://www.w3.org/2000/svg"
 width="1200.000000pt" height="800.000000pt" viewBox="0 0 1200.000000 800.000000"
 preserveAspectRatio="xMidYMid meet">

<g transform="translate(0.000000,800.000000) scale(0.100000,-0.100000)"
fill="#4a4a4a" stroke="none">
<path d="M6218 7313 c-10 -2 -18 -9 -18 -14 0 -5 -13 -15 -30 -21 -18 -8 -74
-67 -141 -148 -61 -74 -112 -136 -114 -138 -1 -1 -15 4 -31 13 -37 19 -54 19
-84 -2 -33 -23 -124 -23 -171 -1 -19 9 -60 22 -90 27 -30 6 -74 15 -99 21 -25
6 -75 15 -113 20 -37 5 -92 17 -123 26 -78 22 -344 23 -430 0 -120 -31 -503
-52 -604 -33 -19 3 -57 9 -85 12 -27 4 -82 17 -122 31 -39 13 -77 24 -85 24
-7 0 -31 9 -52 21 -34 18 -50 20 -140 14 -55 -3 -117 -10 -136 -15 -19 -4 -86
-19 -147 -31 -62 -13 -113 -26 -113 -29 0 -3 -30 -6 -67 -7 -52 0 -77 -6 -106
-23 -22 -13 -46 -20 -59 -17 -52 14 -246 -48 -240 -76 1 -9 -6 -18 -17 -22
-13 -4 -17 -12 -14 -25 4 -14 0 -20 -12 -20 -9 0 -19 9 -22 20 -8 29 -22 25
-78 -21 -54 -44 -139 -187 -170 -284 -24 -74 -31 -293 -12 -375 35 -154 48
-198 73 -250 25 -55 26 -55 66 -52 22 3 45 -1 51 -7 7 -7 58 -11 132 -12 229
-2 239 -24 45 -89 -56 -19 -68 -20 -119 -8 -42 9 -65 21 -95 51 -21 21 -40 36
-42 34 -3 -2 7 -28 21 -58 14 -30 25 -67 25 -84 0 -16 4 -37 9 -45 7 -10 4
-18 -11 -28 -11 -8 -28 -34 -38 -58 -13 -28 -32 -52 -59 -68 -40 -25 -59 -46
-44 -46 5 0 17 -6 27 -13 17 -12 16 -15 -13 -45 -17 -17 -41 -34 -53 -38 -11
-3 -32 -18 -44 -31 -13 -14 -38 -28 -56 -32 -24 -5 -38 -16 -50 -40 -9 -18
-26 -43 -37 -55 -12 -12 -21 -31 -21 -42 0 -10 -16 -43 -35 -71 -19 -29 -35
-57 -35 -63 0 -5 -4 -10 -8 -10 -4 0 -27 -47 -51 -105 -24 -58 -47 -108 -52
-111 -5 -3 -9 -11 -9 -19 0 -8 -12 -26 -26 -40 -21 -21 -24 -29 -13 -41 20
-24 -7 -91 -42 -103 -30 -10 -40 -41 -14 -41 22 0 18 -28 -7 -53 -16 -16 -23
-36 -24 -62 -1 -22 -7 -69 -13 -105 -7 -36 -16 -105 -21 -155 -11 -103 -25
-190 -35 -221 -4 -12 -2 -25 4 -28 21 -14 12 -56 -14 -66 -15 -6 -25 -17 -25
-30 0 -15 7 -20 25 -20 37 0 35 -38 -2 -42 -17 -2 -29 -10 -31 -20 -3 -14 4
-18 31 -18 30 0 35 -4 40 -30 7 -34 0 -60 -17 -60 -6 0 -19 -7 -30 -15 -17
-13 -17 -18 -6 -45 7 -17 33 -49 58 -71 42 -36 46 -44 45 -81 -2 -33 3 -47 23
-65 20 -18 24 -30 20 -49 -5 -17 -2 -26 9 -30 8 -4 15 -13 15 -21 0 -20 32
-72 93 -153 27 -35 51 -71 54 -80 3 -8 27 -66 54 -127 27 -62 52 -126 55 -142
4 -19 19 -39 40 -53 39 -26 42 -38 14 -45 -41 -11 -19 -50 30 -55 27 -2 36 -8
38 -26 3 -19 -1 -22 -27 -22 -26 0 -31 -4 -31 -23 0 -13 2 -26 5 -29 3 -3 32
2 63 12 40 12 61 25 72 44 17 30 69 36 91 10 31 -38 204 -99 240 -85 13 4 48
12 76 16 29 4 55 11 59 16 13 22 47 5 116 -58 142 -130 212 -215 290 -355 9
-16 23 -37 31 -46 8 -9 34 -57 57 -107 24 -49 54 -102 68 -117 23 -25 32 -52
51 -153 4 -23 11 -46 15 -53 4 -7 16 -44 27 -84 57 -204 65 -363 24 -468 -14
-35 -30 -91 -37 -124 -7 -34 -15 -63 -19 -66 -3 -3 -16 -23 -27 -46 -18 -36
-28 -43 -81 -59 -56 -17 -63 -17 -125 -1 -36 9 -101 16 -145 16 -93 0 -92 -4
-29 96 21 34 41 75 44 93 4 17 11 34 15 37 5 3 9 21 9 39 0 19 6 52 14 72 65
177 79 237 79 343 -1 113 -5 156 -27 295 -25 150 -43 220 -70 271 -78 145
-240 367 -265 362 -28 -6 -23 -41 15 -103 48 -77 174 -326 174 -343 0 -7 7
-27 16 -44 27 -52 37 -455 15 -633 -18 -159 -22 -178 -42 -207 -11 -14 -19
-31 -19 -38 0 -7 -13 -29 -30 -50 -16 -21 -30 -42 -30 -47 0 -24 -49 -76 -82
-88 -21 -7 -39 -11 -41 -8 -3 2 14 37 37 76 50 89 83 169 118 287 27 93 36
316 17 400 -6 25 -15 97 -21 160 -9 116 -26 221 -39 242 -9 14 -38 3 -46 -18
-3 -9 -1 -31 6 -48 7 -17 14 -76 17 -131 9 -159 15 -326 14 -380 -1 -61 -51
-235 -80 -274 -11 -16 -20 -45 -20 -65 0 -25 -9 -45 -29 -69 -16 -18 -33 -45
-36 -59 -12 -46 -84 -102 -188 -146 -104 -44 -138 -50 -156 -29 -8 10 2 26 44
68 30 30 71 81 92 113 20 33 44 67 54 77 23 23 50 75 61 119 23 87 50 208 53
238 2 18 8 39 14 45 6 8 8 56 5 122 -4 93 -8 116 -30 154 -21 38 -24 52 -18
101 5 42 2 65 -12 95 -9 22 -18 60 -20 85 -1 25 -11 72 -23 105 -33 92 -112
242 -143 272 -15 15 -28 31 -28 36 0 15 -61 107 -71 107 -4 0 -20 -11 -35 -25
l-28 -26 22 -45 c32 -64 29 -76 -12 -69 -22 5 -36 3 -41 -5 -11 -18 15 -30 43
-19 14 5 25 8 26 7 1 -2 9 -20 19 -41 13 -29 23 -38 40 -37 41 4 41 0 4 -34
-23 -21 -35 -40 -31 -49 3 -8 0 -18 -5 -22 -18 -11 -2 -25 28 -25 34 0 45 -12
59 -62 9 -33 8 -40 -10 -52 -21 -15 -17 -36 6 -36 8 0 19 -7 27 -16 10 -12 10
-20 1 -35 -16 -25 -15 -44 3 -59 20 -17 45 -69 45 -94 0 -12 -7 -33 -14 -48
-13 -24 -12 -32 5 -67 10 -22 19 -46 19 -54 0 -8 9 -34 19 -58 25 -57 36 -125
22 -134 -6 -3 -11 -16 -11 -28 0 -13 -9 -40 -20 -62 -11 -22 -20 -49 -20 -62
0 -27 -34 -94 -59 -117 -14 -12 -34 -16 -80 -14 -85 3 -103 -18 -22 -27 118
-14 78 -44 -56 -44 -88 1 -93 0 -144 -35 -49 -33 -52 -36 -26 -36 15 0 44 7
64 15 45 19 104 19 129 0 18 -14 18 -15 -11 -39 -36 -29 -69 -36 -200 -43
-112 -5 -145 -19 -96 -39 49 -21 36 -54 -20 -54 -16 0 -20 -6 -17 -27 3 -27 6
-28 73 -34 46 -4 82 -13 105 -27 19 -12 50 -22 68 -22 22 0 32 -5 32 -15 0 -8
5 -15 10 -15 6 0 10 7 10 15 0 17 16 20 25 5 3 -5 15 -10 26 -10 11 0 32 -12
46 -26 26 -26 27 -26 78 -12 49 14 55 13 91 -5 36 -19 55 -20 284 -18 378 5
451 4 505 -8 28 -5 75 -15 105 -21 30 -6 91 -17 135 -26 176 -34 267 -44 410
-44 83 0 168 5 190 11 22 5 82 14 134 19 58 6 105 17 125 28 17 11 67 33 111
51 82 32 170 80 147 81 -6 0 -36 -11 -65 -25 -51 -25 -84 -36 -177 -56 -25 -6
-54 -14 -65 -19 -37 -16 -167 -40 -216 -40 -30 0 -51 5 -56 14 -4 7 -19 19
-33 27 l-25 13 35 7 c19 4 73 15 119 24 46 8 103 20 125 26 23 5 66 16 96 23
30 7 100 30 155 50 155 58 266 93 310 101 27 4 54 19 83 46 45 42 53 55 25 41
-10 -5 -47 -12 -82 -16 -35 -3 -69 -10 -75 -14 -6 -5 -56 -23 -111 -41 -95
-31 -102 -32 -135 -17 l-35 15 45 20 c71 32 281 81 363 85 42 3 86 10 99 17
42 22 92 68 94 86 1 10 5 26 9 36 6 13 2 17 -15 17 -19 0 -20 2 -10 15 7 8 21
15 31 15 10 0 22 7 27 16 8 13 12 13 39 -3 26 -14 35 -15 57 -5 41 18 30 29
-24 24 -56 -5 -60 0 -33 55 l16 35 68 -4 c52 -2 70 0 74 11 7 17 12 13 -57 36
-62 20 -73 39 -42 70 12 11 30 15 63 13 43 -2 46 -1 49 24 3 21 -2 28 -29 37
-18 6 -52 11 -75 11 -24 0 -44 5 -44 10 0 6 4 10 9 10 6 0 11 15 13 33 3 29 6
32 33 29 75 -7 88 -6 92 4 4 12 -39 23 -117 29 -25 2 -46 4 -48 4 -1 1 5 12
13 25 14 20 14 28 3 45 -18 29 -5 35 44 21 24 -6 56 -14 71 -17 27 -5 28 -3
25 23 -3 28 -6 29 -68 35 -86 8 -103 16 -90 39 6 11 6 21 2 24 -5 3 -8 29 -8
58 l2 53 67 -3 c70 -3 77 1 57 39 -13 23 -34 24 -88 5 -37 -13 -42 -13 -57 4
-10 11 -17 32 -17 47 0 15 -11 43 -24 63 -13 19 -24 43 -24 54 0 17 5 18 60
12 33 -4 60 -4 60 -1 0 3 -7 19 -15 35 -13 26 -21 30 -55 30 -50 0 -61 17 -15
26 36 6 39 11 29 38 -5 12 -18 14 -73 9 -48 -4 -70 -2 -76 6 -11 18 -2 22 64
28 34 3 61 9 61 12 0 20 -31 31 -89 31 -37 0 -72 4 -79 9 -22 13 8 29 61 33
68 4 58 23 -12 23 -33 0 -62 3 -66 6 -7 8 50 29 79 29 19 0 19 1 4 17 -16 15
-21 15 -75 -2 -32 -10 -64 -20 -70 -23 -8 -2 -13 5 -13 21 0 14 -7 28 -17 32
-17 6 -17 7 1 20 10 8 38 17 63 21 37 5 42 9 31 21 -10 12 -25 14 -68 9 -30
-4 -64 -8 -74 -9 -22 -2 -62 55 -51 73 3 5 20 10 36 10 20 0 29 4 26 13 -3 8
-25 11 -71 10 -58 -2 -66 0 -66 16 0 12 10 21 25 25 32 8 32 29 1 45 -19 11
-33 11 -73 1 -47 -12 -52 -12 -96 15 -52 30 -53 45 -4 46 18 0 41 4 52 8 18 7
18 8 -5 23 -21 13 -36 14 -93 5 -64 -10 -68 -9 -92 13 -31 29 -26 37 30 46 54
8 62 17 31 33 -19 11 -32 10 -70 -3 -70 -24 -106 -20 -143 14 -18 16 -33 32
-33 34 0 2 16 7 35 10 19 4 49 13 67 21 55 23 8 30 -71 10 -73 -18 -121 -14
-141 10 -18 21 -4 33 45 41 48 7 64 18 40 28 -15 5 -58 -2 -140 -23 -59 -16
-120 -14 -135 4 -19 22 12 42 77 50 57 7 75 19 43 28 -23 6 -192 0 -228 -8
-13 -3 -40 4 -65 17 l-42 23 113 3 c100 2 130 10 103 26 -5 3 -71 6 -147 7
-143 1 -234 19 -234 46 0 12 88 18 215 14 l30 0 -30 13 c-19 8 -88 15 -183 19
-97 3 -159 10 -168 18 -32 26 29 52 139 58 18 0 26 5 21 12 -5 8 -30 9 -80 5
-71 -7 -74 -6 -74 14 0 48 17 60 84 60 55 0 64 3 69 20 5 18 0 20 -52 20 -45
0 -62 4 -76 20 -10 11 -16 22 -14 24 2 3 46 7 97 10 51 3 97 8 102 11 15 9 2
25 -21 25 -10 0 -19 4 -19 9 0 13 27 21 45 15 20 -8 65 4 65 16 0 6 -12 10
-27 11 l-28 1 30 13 c17 7 58 17 93 20 47 6 65 12 73 26 13 25 29 15 29 -16 0
-27 33 -42 69 -30 15 5 23 1 28 -12 3 -10 12 -25 19 -33 26 -30 43 -97 34
-129 -12 -44 -2 -71 26 -71 26 0 49 -28 60 -75 4 -16 11 -36 16 -42 16 -20 2
-41 -29 -45 -48 -5 -25 -23 30 -23 72 0 104 -23 55 -41 -45 -15 69 -16 119 0
82 26 137 47 151 59 11 9 10 12 -7 19 -12 4 -21 11 -21 15 0 10 99 43 227 77
110 29 152 50 83 41 -91 -13 -220 -16 -220 -7 0 10 69 36 125 46 17 3 78 8
137 11 67 4 128 13 164 25 68 24 113 25 180 6 27 -8 81 -20 120 -27 48 -9 70
-17 67 -25 -6 -15 13 -21 102 -29 39 -4 113 -15 165 -26 52 -10 117 -19 143
-19 79 0 51 -21 -62 -46 -56 -13 -118 -33 -136 -44 -35 -22 -75 -65 -75 -81 0
-5 27 -8 59 -7 35 2 65 -2 71 -8 15 -15 3 -54 -16 -54 -28 0 -4 -18 88 -65 51
-26 125 -69 165 -96 40 -27 77 -49 83 -49 5 0 9 -10 7 -21 -2 -26 70 -74 128
-85 23 -4 45 -18 65 -42 17 -20 38 -35 52 -36 31 -1 110 -56 104 -72 -8 -20
18 -35 55 -32 30 3 34 0 37 -22 5 -37 29 -50 92 -50 51 0 59 -3 90 -35 l33
-34 -23 -9 -24 -9 24 -14 c14 -7 32 -18 42 -24 114 -70 126 -75 184 -75 68 0
88 -9 78 -35 -7 -17 0 -18 161 -11 93 3 171 9 174 12 4 3 8 44 11 91 5 85 5
86 -22 106 -37 27 -35 35 8 43 50 9 52 27 7 68 -25 22 -34 38 -28 44 6 5 39
15 75 22 61 11 120 34 120 46 0 3 -17 2 -37 -2 -55 -9 -29 14 39 36 60 20 238
44 265 36 10 -3 47 -8 83 -11 112 -11 271 -39 354 -63 79 -22 4 -52 -84 -33
-86 19 -99 11 -25 -15 39 -14 80 -23 92 -21 21 4 166 -16 203 -28 13 -4 22 1
30 15 15 28 29 25 27 -6 -2 -24 3 -28 48 -39 35 -9 56 -10 69 -3 15 8 23 5 42
-18 20 -26 25 -27 43 -16 27 16 28 16 34 -8 4 -16 14 -20 53 -20 l48 0 -27 28
c-15 15 -27 31 -27 34 0 6 61 -5 140 -26 30 -8 75 -15 100 -16 91 -4 151 0
145 9 -6 11 31 25 44 16 6 -3 13 1 18 8 15 26 79 38 238 43 149 5 164 8 220
34 33 15 76 31 95 35 19 4 46 17 60 30 16 15 44 25 77 30 55 7 76 21 49 31
-18 7 -22 39 -6 49 18 11 12 96 -7 111 -11 8 -13 13 -5 14 6 0 12 8 12 19 0
22 -16 36 -52 45 -35 8 -35 19 -2 35 l27 12 -27 28 -28 29 38 26 c21 14 42 26
46 26 4 0 19 5 35 11 28 11 28 11 6 20 -25 9 -31 28 -10 30 6 0 32 0 57 -1 27
-1 53 5 65 14 20 15 20 15 -1 16 -17 0 -23 8 -27 33 -7 44 21 91 56 95 l27 3
-5 161 c-5 148 -8 166 -31 212 -20 38 -28 77 -36 156 -5 58 -14 110 -20 117
-5 7 -7 26 -3 43 4 18 3 30 -4 30 -6 0 -16 10 -22 22 -9 17 -9 24 5 33 24 18
19 35 -9 35 -32 0 -55 41 -36 64 10 12 6 19 -23 41 -28 21 -34 32 -33 60 1 19
-6 42 -15 52 -8 10 -13 24 -11 30 3 7 -6 17 -20 22 -14 6 -29 23 -36 42 -14
42 -14 49 4 49 8 0 15 7 15 15 0 10 -11 15 -35 15 -28 0 -35 4 -35 19 0 12 9
21 25 25 22 6 24 9 14 27 -8 17 -17 20 -40 15 -18 -3 -34 0 -44 10 -24 24 -18
41 17 48 41 8 26 24 -26 28 -49 4 -59 26 -16 34 22 5 29 11 26 21 -4 8 -6 16
-6 18 0 1 -20 0 -44 -2 -39 -5 -45 -3 -56 18 -7 13 -30 48 -52 77 -38 51 -39
54 -21 67 10 8 23 15 28 15 27 1 37 17 25 39 -10 19 -17 21 -55 15 -51 -7 -72
1 -54 22 6 8 20 14 30 14 11 0 19 4 19 10 0 13 -45 24 -66 16 -17 -7 -54 10
-54 24 0 6 15 10 33 10 31 1 31 1 12 16 -11 8 -55 37 -98 64 -43 26 -99 67
-123 89 -25 23 -54 41 -64 41 -31 0 -50 11 -50 30 0 11 -25 39 -57 64 -101 80
-335 231 -423 273 -47 22 -151 87 -231 144 -80 57 -181 124 -225 148 -122 68
-204 122 -215 142 -11 22 -70 49 -105 49 -13 0 -24 5 -24 10 0 6 9 10 21 10
11 0 17 4 14 10 -3 5 -31 8 -61 7 -48 -3 -56 -1 -70 20 -8 14 -13 30 -11 38 7
16 -43 65 -66 65 -24 0 -53 48 -38 63 18 18 13 27 -14 27 -15 0 -28 7 -32 18
-4 9 -12 21 -20 25 -7 4 -13 13 -13 19 0 6 11 1 25 -12 30 -28 40 -22 24 14
-8 18 -25 29 -51 37 -41 11 -48 36 -9 32 24 -3 26 3 6 37 -8 14 -14 51 -15 82
0 69 -27 135 -70 171 -28 24 -266 147 -284 147 -4 0 -31 11 -60 24 -30 14 -76
29 -102 35 -27 5 -69 15 -94 21 -25 6 -88 11 -140 10 -56 -2 -151 6 -230 19
-74 11 -164 25 -200 30 -66 11 -151 12 -182 4z m562 -136 c0 -2 -7 -18 -16
-35 -24 -48 -12 -56 73 -48 47 4 82 2 95 -5 16 -8 31 -8 61 2 39 13 40 12 68
-19 16 -17 32 -44 35 -59 17 -72 113 -211 135 -197 15 9 10 41 -8 55 -26 22
-80 111 -87 147 -7 30 -6 32 18 32 14 0 45 -8 68 -19 57 -25 110 -41 135 -41
24 0 76 -76 78 -115 0 -15 8 -31 18 -36 9 -6 17 -19 17 -31 0 -12 26 -62 59
-112 32 -50 61 -101 65 -113 4 -12 34 -48 66 -80 33 -32 60 -62 60 -67 0 -9
-41 -4 -114 15 -36 10 -53 21 -67 43 -10 17 -56 69 -102 116 -46 47 -95 103
-109 125 -32 51 -53 69 -73 61 -23 -9 -12 -24 129 -175 69 -74 126 -137 126
-141 0 -3 -24 -6 -54 -7 -49 -1 -55 1 -60 22 -4 14 -25 34 -53 51 -62 35 -165
117 -223 174 -25 25 -62 58 -83 74 -20 15 -46 45 -57 67 -11 21 -27 39 -35 39
-8 0 -15 7 -15 16 0 23 -37 72 -60 79 -11 3 -25 18 -32 33 -15 30 -58 44 -58
18 0 -48 70 -149 97 -139 13 5 15 2 10 -11 -5 -12 2 -28 18 -48 14 -16 25 -33
25 -37 0 -10 110 -105 226 -196 l89 -69 -43 -8 c-36 -6 -45 -4 -66 17 -30 29
-124 78 -136 70 -13 -8 -13 -42 0 -50 21 -13 9 -25 -26 -25 -26 0 -46 9 -72
31 -20 17 -49 37 -66 45 -17 7 -52 30 -77 51 -59 50 -126 80 -141 65 -13 -13
-2 -25 67 -70 78 -50 98 -70 91 -88 -6 -15 -18 -16 -97 -11 -88 7 -92 8 -150
52 -32 26 -64 55 -70 66 -6 11 -31 44 -57 73 -90 102 -104 121 -137 186 -35
69 -58 96 -89 101 -37 7 -27 26 16 31 76 8 118 -1 136 -32 25 -39 80 -100 92
-100 25 0 4 38 -64 115 -42 47 -48 56 -44 60 2 2 28 5 58 6 55 3 100 -14 100
-37 0 -28 107 -167 192 -250 96 -94 210 -186 253 -206 36 -16 59 5 28 27 -77
54 -246 198 -306 260 -77 79 -147 168 -147 185 0 20 55 31 142 28 79 -3 89 -1
110 20 20 19 38 28 38 19z m-3012 -70 c19 -15 6 -21 -43 -18 -74 4 -51 -15 33
-29 42 -6 91 -20 107 -30 20 -12 41 -16 64 -13 26 4 32 2 29 -8 -6 -19 -113
-24 -213 -9 -44 6 -143 15 -220 19 -144 7 -146 8 -70 37 23 9 35 10 133 12 59
2 74 5 79 20 12 34 24 41 56 35 18 -3 38 -10 45 -16z m1547 -79 c39 -9 105
-19 148 -23 45 -3 97 -15 125 -27 l47 -22 -85 -8 c-86 -9 -88 -9 -300 33 -30
6 -69 15 -86 21 -41 12 -258 21 -306 13 -78 -14 -33 -22 145 -28 100 -3 198
-11 217 -18 73 -25 100 -39 100 -54 0 -12 -4 -13 -18 -6 -10 5 -81 11 -157 13
-83 3 -149 9 -162 17 -15 7 -86 12 -205 14 -274 3 -532 -35 -713 -105 -20 -8
-144 -13 -385 -15 -195 -1 -377 -7 -405 -12 -27 -6 -97 -12 -155 -15 -107 -5
-197 -21 -215 -38 -6 -6 8 -8 40 -4 173 21 348 29 545 27 124 -2 287 -4 363
-4 75 -1 137 -2 137 -4 0 -1 -10 -8 -22 -14 -39 -21 -185 -38 -386 -45 -132
-5 -191 -11 -189 -18 5 -15 419 -15 472 1 22 6 72 21 110 32 39 12 95 28 125
36 59 14 117 35 139 49 11 7 11 10 0 17 -11 6 -11 9 1 13 8 2 39 11 68 21 137
42 564 45 732 5 25 -6 113 -13 196 -15 136 -4 154 -3 175 14 22 16 77 28 169
36 177 16 230 17 264 5 39 -13 46 -24 19 -35 -20 -8 -187 -25 -276 -29 -31 -1
-63 -8 -70 -15 -10 -10 6 -12 83 -11 156 4 260 1 260 -8 0 -20 -229 -53 -473
-68 -78 -5 -116 -11 -114 -18 2 -6 16 -12 30 -14 38 -5 37 -38 -2 -45 -15 -3
-38 -3 -50 0 -11 3 -27 0 -34 -6 -16 -13 -209 -14 -243 0 -22 8 -293 34 -319
30 -5 -1 -107 -3 -227 -6 -186 -3 -223 -6 -265 -23 -26 -11 -109 -39 -183 -62
-74 -23 -146 -46 -160 -51 -14 -5 -81 -14 -148 -19 -68 -5 -128 -12 -132 -15
-5 -3 -72 -9 -148 -14 -77 -5 -149 -14 -161 -21 -12 -6 -68 -12 -124 -13 -81
-2 -110 2 -140 16 -21 10 -36 21 -33 25 13 12 143 43 221 52 81 9 248 17 501
24 96 2 151 8 175 18 138 61 248 95 349 109 30 4 81 14 113 22 63 17 247 31
394 32 57 0 92 4 90 10 -3 13 -333 11 -407 -3 -30 -6 -84 -15 -120 -22 -88
-16 -165 -36 -288 -76 -154 -51 -167 -52 -438 -58 -138 -3 -262 -10 -276 -15
-13 -5 -59 -12 -102 -16 -43 -4 -101 -16 -130 -26 -28 -11 -91 -22 -139 -26
-78 -5 -88 -4 -85 10 2 9 -6 22 -17 30 -28 21 -4 47 44 47 20 0 68 7 106 15
39 8 100 15 137 15 70 0 98 6 98 22 0 11 -249 2 -305 -12 -81 -19 -135 -9
-135 27 0 16 53 40 108 48 50 8 46 27 -7 25 -68 -3 -111 0 -111 9 0 4 39 20
88 36 48 15 97 31 109 36 12 4 79 14 150 21 124 13 227 14 653 7 195 -3 272 4
335 31 11 4 40 13 65 20 25 6 61 15 80 20 19 5 51 10 71 10 19 0 39 4 45 9 5
6 32 12 59 15 28 2 64 9 80 15 17 5 98 12 180 14 108 3 160 9 185 21 48 22
401 18 505 -6z m894 -89 c19 -39 44 -78 56 -87 11 -9 33 -38 47 -63 15 -25 59
-78 99 -118 39 -40 68 -75 64 -79 -3 -3 -38 -5 -78 -4 -53 2 -78 8 -97 22 -14
11 -45 34 -70 52 -25 17 -60 44 -78 60 -18 15 -42 28 -53 28 -11 0 -22 7 -25
15 -4 8 -15 15 -25 15 -17 0 -15 6 16 52 19 29 35 61 35 71 0 11 6 31 14 45 8
15 17 35 20 45 12 37 41 17 75 -54z m-2754 51 c72 -5 177 -12 234 -14 57 -3
108 -9 113 -14 5 -5 56 -7 113 -4 89 4 105 2 105 -11 0 -10 -21 -20 -67 -31
-57 -13 -106 -15 -293 -10 -395 10 -460 9 -590 -10 -69 -10 -136 -19 -150 -21
-14 -2 -40 -8 -59 -14 -19 -6 -37 -9 -39 -7 -2 3 -1 19 3 36 8 36 29 47 120
61 33 5 83 14 110 20 28 6 95 14 150 18 55 5 105 9 110 10 6 0 69 -3 140 -9z
m2505 -111 c0 -5 -4 -9 -10 -9 -5 0 -10 7 -10 16 0 8 5 12 10 9 6 -3 10 -10
10 -16z m-1774 -44 c-22 -16 -121 -39 -139 -32 -6 3 -3 6 9 6 11 1 24 4 28 8
8 8 81 30 106 31 11 1 10 -2 -4 -13z m1810 -70 c10 -8 27 -15 37 -15 9 0 17
-6 17 -13 0 -7 32 -39 71 -72 70 -57 71 -58 48 -70 -13 -7 -52 -16 -86 -20
-68 -8 -60 -14 -112 90 -27 53 -28 115 -1 115 3 0 15 -7 26 -15z m-88 -20 c25
-8 11 -25 -22 -25 -18 0 -48 -5 -66 -11 l-33 -12 23 -17 c47 -36 23 -45 -156
-60 -215 -18 -356 -19 -361 -3 -7 19 33 32 121 40 49 5 81 13 84 21 2 8 -10
12 -42 12 -34 0 -46 4 -46 15 0 8 1 15 3 16 1 0 76 8 167 18 145 15 290 17
328 6z m-1103 -75 c105 -10 205 -34 205 -49 0 -19 -76 -25 -375 -25 -378 -2
-567 -17 -640 -54 -27 -14 -70 -31 -95 -38 -25 -7 -70 -22 -100 -34 -45 -19
-75 -23 -165 -23 -60 0 -120 3 -132 7 -59 19 -2 41 142 56 111 12 177 25 310
65 50 15 106 31 125 35 164 39 219 47 370 55 63 4 117 8 119 11 7 7 131 4 236
-6z m345 -50 c0 -5 -9 -10 -20 -10 -11 0 -20 5 -20 10 0 6 9 10 20 10 11 0 20
-4 20 -10z m-2520 -28 c0 -12 139 -116 189 -142 141 -71 384 -104 771 -102
195 1 262 -1 285 -12 l30 -13 -30 -13 c-16 -7 -39 -17 -51 -22 -11 -5 -160
-10 -331 -11 -253 -2 -313 -5 -327 -16 -14 -12 -22 -12 -36 -3 -10 6 -55 11
-102 11 -50 -1 -103 5 -133 15 -27 9 -71 16 -97 16 -26 0 -50 5 -53 10 -3 6
-14 10 -23 10 -23 0 -122 96 -122 118 0 10 -5 23 -11 29 -25 25 -3 133 27 133
8 0 14 -4 14 -8z m2158 -50 c-5 -40 -45 -45 -351 -39 -243 4 -280 3 -293 -11
-12 -11 -38 -16 -95 -16 -43 -1 -79 0 -79 1 0 1 24 14 54 28 30 14 90 30 137
37 46 6 91 15 99 19 8 5 131 8 273 7 l258 -1 -3 -25z m2507 -48 c0 -14 -8 -20
-32 -22 -34 -3 -46 14 -18 24 11 4 13 13 9 27 -6 20 -6 21 17 5 13 -8 24 -24
24 -34z m-2153 14 c-7 -7 -12 -8 -12 -2 0 14 12 26 19 19 2 -3 -1 -11 -7 -17z
m458 -3 c11 -10 43 -10 130 -4 63 5 123 6 133 3 20 -6 23 -24 3 -24 -7 0 -20
-7 -27 -16 -7 -9 -37 -31 -65 -49 -46 -30 -54 -40 -68 -89 -30 -103 17 -215
99 -230 55 -11 86 -66 37 -66 -9 0 -48 -12 -87 -27 -97 -36 -175 -100 -214
-173 -27 -51 -31 -67 -31 -136 1 -98 26 -154 91 -199 24 -18 43 -36 42 -41 -3
-11 -70 -22 -139 -23 -28 -1 -64 -8 -80 -16 -36 -17 -74 -52 -74 -67 0 -6 -13
-26 -30 -45 -37 -41 -38 -62 -5 -93 16 -15 23 -30 19 -42 -3 -11 1 -20 10 -24
9 -3 16 -17 16 -30 0 -17 7 -25 25 -30 25 -6 45 -31 45 -54 0 -12 -82 -50
-107 -50 -9 0 -34 -15 -57 -33 -23 -18 -60 -46 -84 -61 -24 -16 -48 -38 -54
-49 -16 -30 0 -105 37 -178 19 -37 32 -69 29 -71 -7 -7 88 -148 117 -175 13
-11 43 -31 67 -43 44 -23 54 -40 24 -40 -25 0 -164 -73 -211 -111 -22 -17 -47
-49 -56 -71 -15 -39 -13 -78 5 -78 5 0 10 -19 12 -42 2 -33 8 -45 26 -53 12
-5 22 -15 22 -22 0 -7 6 -13 13 -13 7 0 31 -18 52 -40 21 -22 44 -40 50 -40 6
0 26 -14 44 -30 26 -24 36 -28 47 -19 8 6 14 15 14 20 0 4 -29 37 -65 74 -61
61 -73 84 -76 140 -2 26 15 111 24 123 5 6 17 12 26 12 9 0 57 20 106 45 50
25 109 50 133 56 23 5 42 14 42 18 0 5 -15 18 -33 29 -18 10 -61 46 -96 78
-35 32 -78 69 -97 81 -46 32 -104 110 -104 141 0 14 7 34 16 43 15 17 15 21 2
41 -17 26 -10 114 10 127 6 4 40 12 74 19 35 7 77 18 93 25 18 7 85 12 165 13
184 1 210 3 210 12 0 7 -59 36 -140 68 -75 30 -154 78 -164 100 -5 12 -25 29
-43 39 -22 12 -42 36 -59 72 -15 29 -34 58 -43 62 -20 12 -21 11 60 54 112 60
142 67 229 51 41 -7 98 -13 125 -14 28 0 68 -7 90 -15 78 -28 87 -14 23 32
-24 17 -63 49 -88 72 -25 22 -53 41 -62 41 -18 0 -111 76 -136 111 -21 31 -25
148 -6 202 17 49 88 117 121 117 13 0 40 7 60 15 30 13 50 14 111 5 85 -12
382 -14 382 -2 -1 18 -19 34 -35 29 -9 -4 -30 0 -48 8 -33 15 -40 19 -114 68
-23 15 -50 27 -60 27 -10 0 -23 8 -30 19 -6 10 -32 23 -56 30 -86 21 -147 110
-131 189 8 40 47 76 73 69 11 -3 38 -1 58 5 21 5 54 11 73 14 19 3 53 10 75
16 22 5 72 15 112 21 66 10 72 13 75 36 l3 24 320 0 c342 0 352 -1 610 -68 28
-7 102 -21 165 -30 63 -9 137 -24 163 -31 26 -8 94 -22 150 -30 56 -9 110 -20
119 -25 10 -5 29 -9 44 -9 14 0 38 -9 53 -19 14 -10 64 -37 111 -60 47 -22
110 -59 140 -81 101 -75 264 -180 330 -212 83 -40 139 -78 220 -148 36 -31 81
-67 100 -80 31 -22 107 -87 208 -180 19 -16 37 -30 41 -30 9 0 444 -447 451
-463 6 -15 102 -162 128 -197 10 -14 40 -65 67 -115 26 -49 59 -105 73 -123
55 -73 109 -183 118 -245 4 -23 10 -46 14 -52 8 -10 33 -109 45 -175 3 -19 10
-44 15 -55 30 -65 43 -117 44 -169 1 -58 0 -60 -34 -78 -57 -32 -60 -41 -10
-33 25 3 57 15 72 26 16 11 29 15 33 9 9 -14 -3 -30 -31 -40 -31 -12 -31 -26
1 -34 20 -5 25 -13 25 -37 0 -24 -4 -30 -17 -27 -10 2 -19 13 -21 26 -4 28 -6
28 -50 -7 -49 -37 -204 -116 -267 -135 -30 -9 -108 -17 -187 -20 -143 -4 -160
-8 -152 -30 9 -23 123 -30 206 -11 40 8 93 20 118 26 86 19 155 42 175 59 32
28 85 51 108 48 28 -4 35 -49 13 -83 -9 -13 -16 -32 -16 -41 0 -23 -64 -84
-88 -84 -12 0 -23 -4 -27 -9 -3 -5 -22 -15 -43 -21 -20 -6 -46 -15 -57 -19
-50 -20 -129 -33 -235 -38 -277 -14 -473 -19 -512 -14 -36 5 -43 10 -48 36 -4
17 -13 54 -20 84 -12 52 -17 86 -19 144 -1 17 -7 27 -17 27 -26 0 -4 -166 36
-267 11 -26 -11 -49 -37 -38 -10 4 -72 13 -138 22 -210 26 -195 22 -212 59 -9
19 -25 36 -35 40 -11 3 -35 20 -54 37 -20 17 -52 33 -72 36 -36 6 -37 8 -52
69 -9 34 -22 68 -29 74 -14 13 -14 12 6 -99 4 -25 2 -33 -9 -33 -27 0 -52 28
-70 76 l-18 49 3 -55 c2 -30 5 -61 8 -69 2 -7 -2 -16 -9 -18 -14 -6 -42 54
-42 92 0 14 -4 25 -10 25 -5 0 -10 -21 -10 -47 l0 -47 -29 34 c-16 19 -33 32
-37 27 -11 -10 33 -97 48 -97 10 0 13 -24 13 -89 0 -107 16 -137 86 -161 24
-9 65 -25 90 -38 25 -12 53 -22 63 -22 9 0 27 -10 40 -22 22 -22 94 -53 201
-85 28 -9 59 -19 70 -24 62 -25 200 -41 317 -36 464 18 623 29 648 46 29 21
41 58 27 86 -18 36 -70 95 -78 89 -5 -3 -6 -24 -3 -48 l6 -43 -42 -7 c-24 -4
-47 -3 -51 1 -4 4 -11 27 -15 50 -6 39 -4 43 17 51 13 5 68 12 123 15 l98 6
33 -36 c29 -32 55 -102 55 -150 0 -8 -16 -33 -35 -56 -19 -22 -35 -46 -35 -52
0 -7 -8 -19 -17 -27 -30 -25 -194 -67 -288 -74 -49 -4 -98 -11 -109 -16 -10
-6 -84 -12 -165 -15 -80 -2 -170 -8 -199 -13 -28 -5 -58 -7 -65 -5 -6 3 -61
12 -122 21 -60 9 -139 20 -175 25 -36 6 -74 11 -85 13 -72 9 -162 34 -179 48
-6 4 -21 8 -35 8 -13 0 -32 6 -40 13 -9 8 -34 19 -56 25 -56 16 -106 61 -161
143 -26 38 -51 72 -56 75 -18 11 -19 -5 -3 -35 9 -18 13 -36 10 -41 -10 -16
-41 -11 -59 8 -16 19 -46 116 -46 151 0 10 -9 26 -20 36 -19 17 -20 17 -20 -1
0 -10 6 -36 14 -59 24 -69 56 -181 56 -193 0 -22 -36 -12 -62 16 -40 43 -89
171 -102 267 -9 67 -15 85 -28 85 -20 0 10 -195 40 -263 27 -60 28 -77 2 -77
-30 0 -54 30 -74 93 -10 31 -22 57 -27 57 -13 0 -11 -34 2 -47 16 -16 7 -67
-12 -71 -34 -6 -119 265 -119 380 0 28 2 30 26 24 30 -8 77 18 72 39 -2 7 -32
33 -68 57 -35 23 -77 61 -93 83 -99 142 -127 186 -127 200 0 9 -13 44 -29 79
-28 58 -30 74 -34 202 -3 76 -6 144 -8 149 -1 6 1 61 5 124 11 145 47 256 114
349 52 72 47 66 122 125 151 119 199 153 245 175 87 43 229 74 344 76 48 1 76
5 78 13 7 20 -38 25 -164 20 -235 -9 -368 -44 -414 -108 -11 -16 -26 -29 -33
-29 -6 0 -31 -17 -54 -37 -23 -21 -60 -49 -82 -63 -53 -32 -193 -236 -214
-311 -18 -68 -29 -160 -27 -221 2 -46 -24 -128 -40 -128 -8 0 -14 50 -23 175
-8 117 16 243 62 322 15 26 43 82 61 124 55 125 191 269 318 335 126 66 212
97 328 118 11 2 45 11 75 20 30 8 89 18 130 20 41 2 81 5 87 5 19 1 11 62 -9
75 -18 11 -234 -19 -252 -35 -6 -5 -29 -9 -53 -9 -56 0 -107 -19 -317 -121
-107 -51 -262 -176 -337 -270 -31 -40 -113 -215 -151 -324 -23 -68 -47 -206
-48 -279 0 -42 10 -98 50 -271 5 -22 12 -56 16 -75 8 -46 31 -90 47 -90 16 0
49 -58 36 -65 -28 -18 19 -120 72 -155 12 -8 50 -36 83 -61 52 -39 61 -50 62
-80 5 -87 23 -259 33 -304 7 -27 17 -72 23 -100 6 -27 18 -64 26 -82 8 -17 12
-39 8 -48 -6 -17 -7 -17 -25 -1 -43 39 -98 203 -116 346 -9 66 -21 100 -35
100 -12 0 -11 -7 26 -195 18 -95 33 -140 69 -210 53 -105 53 -106 -53 -123
-38 -7 -89 -20 -113 -31 -73 -33 -156 -129 -231 -266 -34 -63 -98 -73 -98 -14
0 43 -22 33 -36 -17 -10 -36 -14 -39 -55 -47 -63 -11 -100 -2 -153 39 l-47 36
17 26 c10 15 21 31 26 37 4 5 33 42 63 82 56 73 196 188 283 232 23 12 42 24
42 28 0 18 -104 -14 -193 -59 -113 -58 -195 -130 -261 -230 -21 -32 -40 -58
-42 -58 -12 0 -204 101 -204 108 0 4 19 17 43 30 23 12 78 52 122 88 129 105
266 168 401 184 97 10 114 25 43 35 -87 12 -171 9 -245 -10 -90 -22 -95 -26
-184 -105 -41 -36 -91 -77 -110 -90 -19 -14 -47 -36 -62 -49 l-28 -25 -22 21
c-13 11 -33 26 -45 32 -33 17 -29 33 25 82 114 107 233 184 367 240 21 9 137
27 219 34 51 5 80 20 69 38 -9 14 -250 1 -323 -18 -77 -20 -144 -58 -210 -120
-30 -28 -77 -66 -105 -85 -27 -18 -62 -44 -77 -56 -37 -30 -97 -49 -110 -36
-8 8 7 37 47 97 51 77 68 94 141 141 46 30 88 54 93 54 5 0 14 7 21 15 7 8 28
17 49 21 20 4 44 13 54 22 21 19 23 57 3 49 -8 -3 -34 -11 -58 -17 -23 -7 -59
-24 -78 -39 -19 -15 -42 -30 -50 -33 -21 -8 -177 -134 -224 -181 -46 -46 -94
-77 -119 -77 -11 0 -31 9 -47 20 -15 11 -47 28 -71 39 -24 10 -53 26 -64 34
-19 15 -19 16 -2 35 10 11 55 35 100 52 45 18 87 36 92 40 6 4 46 18 89 30 44
12 140 52 215 88 94 46 158 70 206 78 68 12 100 20 215 51 60 16 210 15 211
-2 1 -16 -118 -43 -245 -54 -118 -10 -158 -24 -142 -50 9 -15 37 -14 120 4 60
13 119 16 233 12 18 0 44 6 58 13 20 10 28 11 37 2 28 -28 39 -14 32 41 -12
91 -23 99 -124 85 -34 -5 -73 -3 -101 4 -38 9 -49 8 -70 -5 -19 -12 -55 -16
-167 -16 -83 -1 -153 -6 -164 -12 -31 -17 -281 -27 -441 -18 -78 4 -206 8
-284 8 -134 -1 -144 1 -185 25 -28 16 -66 27 -108 31 -36 3 -90 13 -120 21
-30 8 -71 19 -90 24 -19 6 -75 19 -125 30 -49 11 -136 38 -191 60 -70 27 -117
40 -151 40 -27 0 -53 4 -58 9 -19 18 -188 58 -385 92 -129 22 -286 23 -338 2
-19 -8 -42 -11 -53 -8 -24 8 -43 41 -34 63 3 10 -5 25 -22 41 -15 14 -43 44
-60 65 -34 41 -54 43 -36 3 6 -12 25 -52 42 -88 35 -74 37 -89 17 -89 -17 0
-76 87 -76 112 0 25 -28 78 -41 78 -34 0 -11 -102 42 -177 42 -60 37 -103 -11
-88 -23 7 -70 83 -70 113 0 22 -17 39 -27 28 -4 -4 -1 -12 5 -18 7 -7 12 -25
12 -41 0 -16 9 -41 20 -56 14 -21 17 -35 11 -57 -10 -40 -35 -41 -62 -2 -36
49 -50 94 -63 193 -13 104 -22 127 -42 101 -13 -19 -9 -83 7 -100 5 -6 9 -20
9 -32 0 -12 8 -46 19 -76 10 -29 24 -71 31 -93 7 -22 15 -45 17 -51 6 -17 -27
-26 -44 -13 -21 18 -28 2 -14 -36 14 -39 9 -55 -19 -55 -18 0 -80 74 -80 96 0
7 -12 36 -27 66 -22 42 -28 48 -31 31 -4 -24 46 -138 86 -196 18 -27 22 -41
15 -48 -8 -8 -27 5 -67 45 -31 31 -58 56 -61 56 -2 0 9 -25 26 -56 47 -90 35
-96 -36 -19 -35 38 -67 67 -70 64 -3 -4 20 -39 50 -79 55 -70 67 -113 28 -91
-37 19 -336 326 -349 357 -8 18 -27 52 -43 76 -16 24 -36 66 -44 93 -24 80
-80 171 -103 167 -30 -6 -40 -20 -26 -40 16 -22 25 -45 47 -112 27 -86 80
-195 129 -264 64 -89 339 -355 375 -362 33 -7 56 -46 42 -72 -5 -10 -19 -26
-30 -36 -12 -11 -21 -27 -21 -36 0 -23 -24 -42 -98 -79 l-64 -31 -49 16 c-50
16 -59 26 -122 124 -30 46 -49 45 -59 -3 -4 -20 -17 -55 -28 -77 -11 -21 -20
-52 -20 -69 0 -16 -6 -31 -12 -34 -7 -2 -53 -1 -102 3 -86 7 -90 8 -117 41
-15 19 -32 52 -38 74 -11 42 -27 73 -34 65 -1 -3 -25 -38 -53 -79 -27 -40 -58
-77 -69 -81 -24 -9 -172 15 -191 31 -22 18 -42 67 -50 117 -7 52 -28 82 -56
82 -40 0 -76 30 -111 94 -20 35 -39 82 -43 103 -4 21 -11 46 -15 55 -5 10 -5
27 1 42 10 28 45 35 80 16 26 -14 78 8 132 54 23 20 45 33 49 30 5 -3 18 -26
29 -52 19 -44 27 -50 108 -90 48 -23 94 -42 102 -42 19 0 74 49 137 121 40 45
49 61 47 88 -1 18 -5 35 -9 39 -4 4 -44 -32 -90 -80 -52 -56 -90 -88 -103 -88
-50 0 -72 22 -127 132 -31 59 -61 108 -67 108 -6 0 -35 -24 -65 -54 -29 -29
-69 -62 -88 -72 -34 -18 -35 -18 -58 4 -17 16 -26 41 -35 99 -7 43 -17 101
-22 128 -11 63 -12 305 0 365 28 148 57 212 97 218 22 3 149 -74 158 -97 3 -8
-6 -27 -21 -42 -24 -25 -25 -31 -15 -60 6 -18 11 -46 11 -63 0 -17 8 -65 18
-106 18 -72 20 -75 54 -84 29 -7 51 -4 114 19 44 15 88 31 99 36 11 4 38 15
59 24 37 15 39 17 23 32 -15 16 -23 16 -74 4 -32 -8 -86 -16 -120 -18 -60 -5
-63 -4 -73 22 -23 61 -5 156 39 208 15 17 34 44 42 59 8 14 29 47 47 73 18 26
30 50 27 53 -3 3 -27 -2 -53 -11 -29 -11 -77 -17 -128 -17 -88 0 -117 15 -130
66 -9 36 5 159 22 192 7 15 14 33 14 40 0 8 8 26 18 40 10 15 24 42 32 60 7
18 18 36 24 40 6 4 26 25 45 47 54 64 183 207 215 237 33 33 43 35 51 8 3 -11
10 -20 16 -20 5 0 24 -16 42 -36 19 -21 60 -51 93 -68 32 -17 59 -37 59 -43 0
-6 -34 -46 -75 -90 -111 -116 -127 -166 -83 -258 22 -44 112 -123 156 -135 43
-12 51 -42 16 -61 -19 -10 -21 -17 -16 -61 7 -60 66 -180 110 -226 24 -25 39
-32 67 -31 19 0 55 -4 80 -10 25 -5 69 -10 98 -11 44 0 53 3 50 16 -7 37 -102
74 -250 99 -70 11 -84 54 -50 150 14 40 24 52 47 59 17 5 39 12 50 17 11 4 40
13 65 21 42 12 45 15 45 48 0 34 -1 35 -40 36 -22 0 -58 6 -80 12 -22 7 -57
12 -78 12 -46 0 -69 11 -114 56 l-34 34 5 87 c3 56 9 91 18 97 7 6 25 28 41
48 29 40 58 56 149 83 32 9 60 21 63 26 8 12 -55 49 -83 49 -12 0 -31 -5 -41
-12 -16 -10 -26 -7 -58 15 -64 46 -69 51 -86 82 -15 31 -108 91 -120 79 -3 -4
-14 -3 -24 1 -16 6 -14 9 12 22 43 22 202 170 217 201 7 14 25 29 39 33 14 3
68 27 121 53 52 25 99 46 104 46 5 0 21 8 34 18 32 22 86 41 97 33 14 -10 66
-165 77 -233 6 -35 5 -39 -26 -54 -40 -20 -114 -104 -150 -171 -24 -43 -25
-53 -17 -98 7 -42 17 -57 61 -98 29 -27 70 -60 91 -73 l38 -25 -85 -85 -85
-85 45 -57 c25 -31 76 -84 112 -118 l67 -61 -29 -41 c-27 -39 -28 -44 -24
-144 4 -101 5 -104 46 -170 23 -37 42 -72 42 -77 0 -14 32 -29 48 -24 6 3 12
-2 12 -11 0 -16 46 -34 57 -22 4 3 -1 6 -10 6 -9 0 -17 5 -17 11 0 7 10 9 25
5 18 -5 30 -1 42 14 23 26 37 25 57 -5 17 -26 46 -34 46 -12 0 16 -60 63 -108
85 -20 10 -49 26 -64 36 -31 20 -88 116 -88 146 0 26 45 124 65 140 8 7 57 17
107 22 97 9 126 21 108 43 -11 13 -23 17 -134 40 -94 20 -151 50 -208 109 -26
28 -48 53 -48 57 0 4 15 29 33 55 29 43 39 49 73 52 21 2 44 8 50 12 6 5 49 9
97 8 48 -1 89 1 93 4 3 4 -9 14 -28 23 -18 10 -40 23 -48 30 -8 8 -42 28 -76
47 -150 82 -195 112 -224 148 -34 43 -36 52 -16 70 8 6 16 24 18 38 2 22 8 26
26 24 12 -2 22 2 22 8 0 6 15 17 33 25 18 7 40 22 50 33 20 22 119 41 231 45
45 1 71 6 74 15 2 8 -8 12 -30 12 -18 0 -55 12 -83 25 -27 14 -58 25 -69 25
-10 0 -33 15 -50 33 -17 17 -43 38 -58 44 -30 13 -68 79 -60 103 6 18 54 84
65 88 4 2 7 11 7 19 0 18 45 63 62 63 6 0 20 8 30 17 18 16 18 18 -14 35 -26
14 -29 17 -12 18 11 0 29 7 40 15 10 8 30 15 44 15 14 0 41 13 60 30 19 16 43
29 52 30 9 0 20 5 24 11 11 19 133 70 214 90 41 11 98 26 125 33 133 38 145
39 145 11 0 -16 -66 -75 -85 -75 -8 0 -21 -10 -29 -22 -22 -30 -22 -151 -1
-168 8 -7 15 -18 15 -25 0 -8 16 -27 35 -43 44 -35 38 -41 -105 -98 -144 -58
-238 -153 -223 -227 3 -17 12 -46 20 -64 14 -35 96 -103 123 -103 9 0 25 -9
36 -21 19 -21 18 -21 -52 -87 -39 -37 -92 -78 -118 -92 -36 -19 -49 -33 -57
-61 -10 -32 -8 -39 19 -80 30 -44 98 -112 157 -156 l30 -22 -30 -26 c-16 -14
-50 -43 -74 -63 -67 -56 -79 -71 -86 -108 -8 -43 15 -76 69 -100 21 -10 59
-33 84 -51 26 -18 51 -33 57 -33 21 0 85 -21 85 -28 0 -4 -36 -38 -80 -76 -44
-37 -80 -74 -80 -81 0 -19 116 -133 173 -169 29 -19 59 -41 66 -50 7 -9 20
-16 29 -16 9 0 25 -9 36 -19 12 -11 43 -31 70 -45 27 -14 55 -31 64 -38 11
-10 17 -9 28 7 8 10 14 25 14 32 0 11 -70 63 -86 63 -16 0 -124 77 -135 97 -6
12 -29 34 -51 48 -21 14 -38 33 -38 42 0 9 -9 26 -19 37 -20 21 -20 22 -1 64
11 23 27 45 37 48 10 3 31 12 46 20 16 7 37 14 47 14 10 0 28 9 41 19 l24 19
-30 12 c-107 41 -132 50 -145 50 -8 0 -34 18 -58 40 -23 22 -46 40 -52 40 -5
0 -14 9 -20 21 -9 16 -7 28 14 62 35 58 102 127 123 127 10 0 32 8 48 19 20
12 58 20 108 23 43 3 81 8 85 12 12 12 -49 50 -103 64 -48 13 -132 29 -185 35
-58 7 -121 78 -102 115 5 9 8 22 5 28 -5 13 130 144 150 144 8 0 20 7 27 15 7
8 25 15 41 15 15 0 39 4 52 9 14 6 53 12 88 15 34 3 64 7 65 9 2 2 5 14 6 27
4 31 -27 40 -182 50 -122 7 -173 21 -198 53 -5 6 -17 34 -27 60 -23 61 -9 97
38 97 37 0 67 25 67 57 0 32 89 73 157 73 27 0 54 5 60 11 6 6 45 13 88 15 80
4 139 32 133 63 -5 25 -92 55 -151 53 -21 -1 -48 3 -60 10 -12 7 -32 11 -44 9
-12 -1 -35 10 -55 27 -32 29 -32 31 -19 67 11 32 11 39 -3 54 -15 17 -15 19 0
32 9 7 25 18 37 24 11 5 28 23 37 40 17 30 43 42 94 44 32 1 209 69 214 83 9
21 36 38 61 38 16 0 49 9 73 20 24 11 87 27 139 36 52 9 98 19 104 22 5 3 36
7 70 8 276 11 405 22 424 38 20 16 74 33 86 28 6 -3 17 -11 25 -17z m-3030
-41 c0 -19 -16 -18 -24 2 -11 27 -7 37 9 24 8 -7 15 -19 15 -26z m2325 16 c-3
-5 -10 -10 -16 -10 -5 0 -9 5 -9 10 0 6 7 10 16 10 8 0 12 -4 9 -10z m1368
-15 c-2 -5 -17 -10 -33 -10 -17 0 -35 -6 -39 -14 -6 -9 -11 -10 -15 -2 -4 6
-18 8 -33 5 -34 -9 -27 17 8 27 34 10 114 6 112 -6z m1115 -3 c2 -7 -3 -12
-12 -12 -9 0 -16 7 -16 16 0 17 22 14 28 -4z m-4730 -172 c61 -34 156 -72 198
-80 27 -5 70 -14 97 -19 31 -7 72 -7 120 -1 39 5 159 13 266 16 182 7 194 6
188 -10 -4 -10 -7 -21 -7 -26 0 -17 -82 -50 -124 -50 -24 0 -63 -7 -87 -15
-35 -13 -79 -14 -248 -9 -265 7 -342 21 -394 72 -50 48 -80 105 -64 121 14 14
32 14 55 1z m932 -100 c0 -5 -11 -10 -25 -10 -14 0 -25 5 -25 10 0 6 11 10 25
10 14 0 25 -4 25 -10z m-874 -116 c109 -37 109 -37 334 -43 l225 -7 -50 -24
c-93 -44 -367 -62 -505 -32 l-84 18 -23 59 c-13 33 -23 61 -23 62 0 7 24 1
126 -33z m224 -844 c0 -5 -4 -10 -10 -10 -5 0 -10 5 -10 10 0 6 5 10 10 10 6
0 10 -4 10 -10z m-127 -164 c-2 -31 -43 -116 -55 -116 -15 0 -31 48 -25 73 8
31 54 80 70 74 6 -2 11 -16 10 -31z m1491 -1212 c9 -3 16 -15 16 -25 0 -23
-51 -98 -66 -99 -7 0 -27 26 -46 58 -29 48 -39 57 -61 55 -15 -1 -27 2 -27 8
0 10 159 13 184 3z m231 -44 c3 -5 22 -10 42 -10 30 0 34 -2 23 -15 -7 -8 -19
-15 -27 -15 -7 0 -31 -17 -52 -37 -21 -21 -48 -45 -60 -53 -21 -14 -23 -24
-26 -113 -2 -54 -6 -101 -9 -105 -12 -11 -61 13 -72 37 -6 12 -17 28 -23 34
-19 19 -12 85 16 171 36 110 42 116 119 116 35 0 66 -4 69 -10z m330 -60 c17
-5 63 -17 103 -26 105 -24 84 -51 -40 -53 -31 -1 -59 -5 -62 -10 -3 -4 -25
-11 -50 -13 -25 -3 -58 -16 -77 -30 -19 -14 -52 -34 -74 -44 -22 -10 -59 -33
-83 -51 -44 -34 -82 -43 -82 -20 1 39 30 113 59 149 32 40 92 88 110 88 5 0
15 7 22 16 11 13 25 15 79 9 36 -3 79 -10 95 -15z m2685 -145 c32 -16 34 -24
30 -93 -3 -69 24 -213 62 -327 16 -48 14 -57 -8 -61 -25 -4 -59 29 -67 66 -53
223 -81 430 -58 430 7 0 25 -7 41 -15z m-1426 -205 c-21 -8 -37 -3 -29 10 3 4
15 6 27 2 21 -5 21 -6 2 -12z m2295 -15 c11 3 21 -5 31 -28 8 -17 13 -36 11
-42 -2 -5 -3 -23 -2 -39 2 -31 -14 -56 -36 -56 -17 0 -123 98 -123 113 0 6 12
23 26 38 22 23 30 26 52 18 13 -5 32 -7 41 -4z m-4856 -18 c35 -24 164 -89
257 -131 150 -66 174 -76 187 -76 8 0 31 -9 51 -19 55 -29 164 -77 192 -86 24
-8 36 -15 107 -63 18 -12 36 -22 41 -22 5 0 15 -6 21 -14 14 -16 186 -116 201
-116 5 0 33 -19 62 -43 29 -23 74 -55 99 -69 26 -15 75 -60 110 -100 35 -40
69 -77 75 -83 6 -5 25 -33 42 -61 18 -28 42 -60 53 -70 12 -10 35 -46 51 -79
17 -33 39 -71 50 -84 22 -29 58 -107 58 -127 0 -8 12 -42 26 -77 14 -34 28
-79 30 -101 2 -21 15 -64 30 -95 34 -73 38 -106 36 -285 -1 -122 -4 -152 -18
-167 -25 -28 -42 -12 -64 59 -26 87 -60 235 -60 261 0 12 -9 40 -19 64 -10 23
-24 56 -29 72 -81 234 -284 528 -506 735 -144 134 -219 185 -336 230 -19 7
-80 34 -135 60 -172 81 -196 91 -240 96 -16 2 -49 11 -72 20 -73 27 -78 24
-194 -128 -19 -26 -26 -28 -89 -28 -37 0 -86 6 -108 14 -22 8 -60 16 -84 18
l-43 3 -6 -67 c-3 -37 -12 -74 -19 -83 -8 -10 -19 -27 -25 -39 -9 -18 -21 -21
-79 -24 -61 -3 -76 1 -125 27 -71 37 -133 55 -163 48 -14 -4 -39 -20 -57 -37
-75 -72 -144 -65 -234 25 -26 25 -58 46 -78 50 -64 14 -124 53 -181 118 -32
36 -58 73 -58 83 0 9 -19 38 -43 63 -24 26 -52 69 -62 96 -11 28 -24 53 -29
57 -6 4 1 8 17 8 20 0 41 -15 88 -64 53 -57 66 -65 107 -71 62 -8 110 12 156
67 l36 43 68 -72 c76 -81 86 -84 168 -56 90 31 160 84 185 142 l19 43 43 -34
c23 -19 70 -48 105 -63 61 -27 64 -28 98 -12 19 10 39 17 45 17 10 0 25 10 99
68 19 15 30 33 30 48 0 13 9 33 20 44 11 11 20 33 20 49 0 20 6 31 18 34 9 3
18 5 19 6 1 0 17 -9 36 -22z m-1383 -111 c0 -5 -7 -3 -15 4 -8 7 -12 17 -9 22
7 10 24 -9 24 -26z m6434 4 c50 -21 51 -23 35 -69 -13 -36 -27 -38 -86 -11
-45 20 -54 41 -33 81 13 24 27 24 84 -1z m210 -51 c36 -10 38 -12 32 -41 -3
-17 -6 -37 -6 -44 0 -10 -15 -14 -56 -14 -76 0 -98 13 -90 52 12 59 39 70 120
47z m620 -61 c-3 -9 3 -21 13 -27 26 -14 5 -30 -33 -24 -30 5 -31 6 -29 51 1
26 3 48 4 50 0 2 12 -5 26 -15 15 -11 22 -24 19 -35z m-388 31 c40 -10 44 -14
44 -43 0 -44 -11 -52 -70 -48 -58 4 -75 24 -65 73 7 33 21 35 91 18z m242 -41
l-3 -43 -45 0 c-42 0 -45 2 -48 30 -4 36 18 55 65 55 34 0 34 0 31 -42z
m-1708 -127 c0 -12 -20 -25 -27 -18 -7 7 6 27 18 27 5 0 9 -4 9 -9z m50 -1 c0
-5 -4 -10 -10 -10 -5 0 -10 5 -10 10 0 6 5 10 10 10 6 0 10 -4 10 -10z m288
-8 c2 -7 -3 -12 -12 -12 -9 0 -16 7 -16 16 0 17 22 14 28 -4z m-448 -43 c0 -4
-10 -14 -23 -21 -38 -22 -122 -120 -145 -170 -12 -26 -25 -80 -28 -120 -4 -40
-11 -76 -16 -79 -8 -5 -158 8 -166 15 -2 3 18 49 44 102 36 74 65 116 118 172
91 96 126 118 177 114 21 -2 39 -8 39 -13z m-3607 -22 c18 -13 61 -36 97 -51
290 -123 487 -221 535 -266 16 -15 79 -72 139 -127 73 -66 126 -124 162 -178
29 -44 74 -109 98 -145 25 -36 46 -68 46 -73 0 -4 11 -24 24 -45 13 -20 32
-62 42 -92 10 -30 31 -77 46 -103 16 -26 28 -52 28 -58 0 -5 12 -38 26 -72 26
-61 73 -224 99 -344 22 -103 -5 -152 -94 -169 -43 -8 -61 12 -61 70 0 53 -19
128 -63 248 -81 220 -151 358 -284 560 -114 172 -187 246 -359 363 -50 34
-107 74 -126 88 -19 15 -40 27 -45 27 -6 0 -17 7 -24 17 -8 9 -33 25 -56 35
-23 10 -45 23 -48 28 -11 18 -111 68 -140 71 -87 7 -85 -12 8 -73 40 -27 76
-48 80 -48 4 0 41 -24 83 -52 86 -61 85 -60 144 -84 78 -33 244 -217 287 -319
12 -27 40 -89 62 -136 23 -47 41 -96 41 -108 0 -12 6 -35 14 -50 15 -27 50
-184 67 -291 15 -97 8 -320 -11 -360 -9 -19 -23 -55 -30 -80 -22 -72 -37 -90
-77 -90 -34 0 -35 1 -30 30 31 154 12 351 -60 600 -60 211 -109 324 -147 341
-15 7 -26 23 -30 43 -4 20 -26 50 -64 86 -31 30 -78 81 -104 112 -30 35 -66
65 -97 80 -36 17 -50 30 -55 50 -9 44 -103 130 -166 152 -30 10 -78 32 -106
47 -37 21 -65 29 -100 29 -49 0 -146 -30 -151 -47 -2 -5 20 -17 48 -27 29 -11
95 -43 147 -73 52 -30 127 -71 167 -92 39 -21 84 -51 101 -67 17 -16 50 -47
74 -69 24 -22 84 -87 133 -145 50 -58 101 -116 114 -130 27 -27 73 -118 73
-143 0 -9 9 -40 20 -69 11 -29 20 -63 20 -76 0 -12 9 -41 21 -63 11 -22 22
-57 23 -77 17 -194 18 -240 7 -246 -6 -4 -11 -21 -11 -37 0 -17 -6 -32 -15
-36 -22 -8 -42 -50 -50 -108 -5 -29 -18 -62 -31 -78 -13 -16 -24 -33 -24 -39
0 -13 -127 -5 -142 10 -7 7 -5 18 5 33 8 13 18 40 22 59 4 19 12 40 17 47 5 6
14 56 19 110 9 87 7 112 -10 197 -26 121 -96 281 -156 354 -24 29 -72 101
-107 159 -95 160 -341 413 -402 413 -41 0 -31 -22 40 -84 36 -32 77 -77 92
-99 15 -23 37 -51 50 -63 12 -13 22 -28 22 -35 0 -6 12 -20 26 -32 15 -11 33
-36 41 -55 8 -19 23 -37 34 -39 23 -6 143 -244 154 -306 4 -20 11 -39 15 -42
5 -3 11 -23 15 -45 4 -22 18 -63 32 -92 23 -48 25 -59 18 -133 -5 -44 -9 -97
-9 -117 -1 -21 -7 -43 -13 -49 -7 -7 -9 -24 -6 -40 7 -35 -37 -131 -81 -176
-17 -18 -56 -42 -86 -55 -30 -12 -70 -34 -88 -50 -30 -26 -40 -29 -90 -26 -42
2 -58 7 -60 18 -1 9 14 47 35 85 21 39 53 110 72 158 28 76 33 100 33 180 0
51 -5 111 -10 133 -6 21 -13 66 -17 99 -8 74 -45 203 -83 293 -16 37 -41 99
-57 139 -15 39 -47 100 -71 135 -23 35 -70 110 -104 168 -34 58 -68 109 -76
113 -7 4 -34 26 -60 47 -25 22 -50 40 -57 40 -18 0 -97 82 -97 100 0 19 39 40
73 40 30 0 123 55 142 84 10 15 14 33 9 50 -12 49 4 54 139 49 123 -6 124 -6
177 24 54 30 69 51 106 141 20 48 33 51 77 19z m175 -26 c11 -7 10 -10 -3 -15
-19 -7 -35 0 -35 15 0 11 20 12 38 0z m-295 -434 c19 0 27 -5 27 -18 0 -28
-16 -31 -54 -8 -37 21 -51 48 -18 33 9 -4 29 -7 45 -7z m87 -32 c0 -8 -4 -15
-10 -15 -5 0 -10 7 -10 15 0 8 5 15 10 15 6 0 10 -7 10 -15z m675 -146 c10
-15 -1 -23 -20 -15 -9 3 -13 10 -10 16 8 13 22 13 30 -1z m45 -54 c0 -19 -15
-26 -35 -19 -15 6 -15 8 1 25 18 20 34 17 34 -6z m510 -294 c0 -6 -4 -13 -10
-16 -5 -3 -10 1 -10 9 0 9 5 16 10 16 6 0 10 -4 10 -9z m10 -51 c0 -5 -2 -10
-4 -10 -3 0 -8 5 -11 10 -3 6 -1 10 4 10 6 0 11 -4 11 -10z m-311 -51 c11 -29
21 -56 21 -61 0 -6 6 -24 13 -41 27 -63 60 -164 79 -236 11 -41 24 -83 29 -93
5 -9 16 -54 24 -100 13 -77 13 -85 -5 -125 l-19 -42 -55 1 c-79 2 -89 16 -71
93 8 33 14 75 15 93 0 18 5 42 11 54 8 14 8 27 -1 48 -6 15 -15 52 -20 81 -4
30 -16 81 -25 114 -38 136 -58 233 -52 248 12 31 34 17 56 -34z m71 -8 c0 -6
-4 -13 -10 -16 -5 -3 -10 1 -10 9 0 9 5 16 10 16 6 0 10 -4 10 -9z m28 -58 c2
-8 -5 -13 -17 -13 -12 0 -21 6 -21 16 0 18 31 15 38 -3z m-438 -23 c0 -5 -4
-10 -10 -10 -5 0 -10 5 -10 10 0 6 5 10 10 10 6 0 10 -4 10 -10z m454 -35 c15
-14 24 -30 21 -35 -8 -13 -19 -6 -45 30 -26 37 -13 39 24 5z m-426 -38 c6 -7
12 -26 14 -42 2 -22 -2 -30 -15 -33 -15 -3 -18 0 -12 17 4 15 2 21 -9 21 -19
0 -29 17 -22 35 7 18 30 19 44 2z m457 -76 c3 -5 1 -12 -5 -16 -5 -3 -10 1
-10 9 0 18 6 21 15 7z m55 -76 c10 -12 10 -15 -3 -15 -8 0 -17 7 -21 15 -3 8
-2 15 3 15 5 0 14 -7 21 -15z"/>
<path d="M6457 6914 c-6 -7 9 -28 86 -116 34 -41 54 -47 64 -22 4 11 -15 36
-58 80 -61 61 -78 72 -92 58z"/>
<path d="M4840 6770 c0 -5 11 -10 25 -10 14 0 25 5 25 10 0 6 -11 10 -25 10
-14 0 -25 -4 -25 -10z"/>
<path d="M4946 6773 c-15 -16 0 -20 87 -27 50 -4 113 -9 139 -11 26 -3 50 -1
52 4 7 10 -79 25 -94 16 -5 -3 -18 -2 -27 3 -22 11 -148 23 -157 15z"/>
<path d="M3220 6700 c0 -5 5 -10 10 -10 6 0 10 5 10 10 0 6 -4 10 -10 10 -5 0
-10 -4 -10 -10z"/>
<path d="M3310 6700 c0 -5 5 -10 10 -10 6 0 10 5 10 10 0 6 -4 10 -10 10 -5 0
-10 -4 -10 -10z"/>
<path d="M6190 6826 c0 -9 7 -19 15 -23 25 -9 27 2 5 22 -18 17 -20 17 -20 1z"/>
<path d="M5730 6700 c-8 -5 -12 -12 -8 -15 9 -9 59 6 52 16 -7 12 -25 11 -44
-1z"/>
<path d="M5080 6399 c-25 -5 -55 -11 -67 -14 -29 -7 -136 -101 -146 -128 -4
-12 -3 -52 3 -89 10 -59 17 -72 47 -97 19 -16 52 -37 74 -47 21 -11 39 -22 39
-25 0 -4 -26 -19 -57 -34 -32 -15 -73 -35 -91 -44 -116 -56 -199 -197 -155
-262 10 -15 35 -52 57 -82 37 -55 38 -57 22 -82 -9 -14 -21 -25 -27 -25 -20 0
-124 -78 -168 -125 -43 -47 -43 -48 -38 -105 6 -67 42 -139 78 -157 13 -7 35
-23 49 -38 29 -30 24 -37 -58 -80 -40 -21 -58 -37 -60 -53 -2 -12 -7 -22 -11
-22 -16 0 -81 -72 -81 -89 0 -10 14 -35 30 -56 17 -21 30 -43 30 -49 0 -7 25
-37 56 -68 35 -35 54 -62 51 -71 -3 -8 -25 -24 -49 -36 -82 -39 -152 -135
-116 -158 8 -4 28 -32 44 -62 36 -67 78 -101 236 -188 91 -51 129 -68 137 -60
20 20 11 35 -36 63 -54 31 -84 54 -160 125 l-53 48 0 79 c0 88 6 98 73 126 38
15 101 16 181 0 25 -4 36 -3 36 6 0 30 -25 50 -87 71 -112 36 -177 78 -166
105 3 8 -1 14 -10 14 -17 0 -29 24 -21 44 3 8 -2 31 -12 51 -13 27 -14 39 -5
48 6 6 11 23 11 38 0 34 62 92 93 87 12 -2 27 3 32 10 8 10 24 11 75 3 80 -13
190 -14 190 -2 0 11 -54 31 -82 31 -11 0 -58 21 -106 48 -48 26 -104 56 -125
67 -48 26 -77 74 -77 130 0 40 2 44 28 50 16 3 48 24 71 45 26 24 52 40 67 40
14 0 38 7 54 15 21 11 64 14 181 14 136 -1 154 1 166 17 7 10 13 21 13 24 0
10 -158 53 -190 52 -17 0 -39 9 -56 25 -15 13 -42 27 -59 30 -47 8 -121 83
-107 109 5 11 13 37 16 60 9 49 75 119 121 127 17 3 50 12 75 21 62 21 117 34
173 41 31 4 47 11 47 20 0 16 -78 65 -104 65 -25 0 -76 29 -76 43 0 6 -12 23
-26 36 -27 26 -64 99 -64 128 0 31 56 111 91 128 23 12 41 15 68 9 20 -5 65
-9 101 -9 36 -1 83 -7 105 -14 83 -26 91 -26 105 8 7 17 16 31 21 31 5 0 9 7
9 15 0 24 -51 19 -57 -5 -6 -24 -20 -25 -82 -5 -141 44 -189 50 -271 34z"/>
<path d="M6725 6312 c-189 -65 -255 -165 -191 -290 33 -65 86 -124 132 -147
44 -22 74 -45 74 -55 0 -4 -22 -5 -49 -2 -26 2 -58 -1 -69 -7 -12 -6 -49 -14
-84 -16 -34 -3 -76 -9 -92 -15 -17 -5 -44 -12 -59 -15 -40 -8 -33 -41 8 -38
30 2 54 -19 55 -49 0 -20 -3 -22 -28 -9 -9 5 -30 14 -45 20 -16 6 -31 20 -34
31 -3 11 -11 20 -18 20 -14 0 -45 -32 -45 -47 0 -6 -7 -16 -15 -23 -25 -21
-12 -35 28 -32 24 2 43 -2 53 -12 18 -19 12 -46 -11 -46 -8 0 -15 -7 -15 -16
0 -9 3 -14 8 -12 50 25 62 33 62 45 0 8 4 23 10 33 8 15 16 17 39 10 22 -6 35
-4 53 8 30 22 145 42 288 50 63 4 121 11 128 15 26 17 11 50 -50 111 -35 34
-83 75 -107 91 -24 17 -47 37 -51 45 -4 8 -15 29 -24 47 -9 18 -16 55 -16 86
0 54 0 55 33 60 29 4 70 17 122 38 102 42 122 46 188 37 238 -30 345 -52 369
-76 25 -25 14 -46 -29 -57 -26 -6 -26 -7 -20 -80 6 -87 40 -159 98 -209 20
-17 39 -41 43 -54 l8 -23 -82 7 c-63 5 -84 4 -90 -6 -7 -11 -16 -11 -47 -2
-43 12 -158 6 -210 -11 -47 -16 -104 -107 -111 -176 -4 -41 1 -58 28 -107 17
-33 41 -69 53 -81 11 -13 18 -25 15 -28 -2 -3 -40 -8 -84 -11 -96 -8 -203 -54
-270 -116 -24 -22 -44 -36 -44 -30 0 15 -43 55 -110 103 -79 56 -109 79 -162
121 -26 21 -56 38 -67 38 -27 0 -27 17 2 40 21 18 21 19 5 47 -11 20 -13 34
-7 45 15 27 -10 33 -28 8 l-16 -23 -14 27 c-30 56 -54 16 -44 -71 6 -49 16
-74 44 -115 63 -89 64 -90 86 -83 14 4 21 2 21 -7 0 -8 21 -25 47 -39 26 -14
48 -30 50 -35 2 -5 -55 -9 -129 -9 -73 -1 -153 -6 -178 -12 -54 -13 -100 -63
-122 -132 -14 -43 -13 -50 4 -91 11 -25 33 -60 50 -77 36 -37 34 -44 -14 -48
-102 -10 -222 -57 -272 -107 l-39 -39 7 -92 c6 -93 23 -158 52 -203 32 -48
113 -102 169 -114 64 -13 73 -23 42 -42 -21 -13 -47 -22 -145 -48 -79 -21
-152 -108 -152 -182 1 -54 75 -166 141 -210 85 -59 184 -108 216 -108 16 0 34
-5 41 -12 6 -6 15 -9 18 -5 11 11 -25 46 -86 85 -102 65 -159 121 -171 166 -6
22 -15 57 -21 78 -18 61 -5 85 60 114 38 17 67 23 86 20 15 -3 63 3 105 14 61
15 88 18 132 11 96 -16 94 17 -6 69 -97 51 -100 53 -132 85 -43 44 -69 63
-108 79 -19 8 -35 19 -35 23 0 5 -22 32 -50 61 -44 46 -50 58 -50 95 0 64 27
107 87 139 42 23 56 26 78 18 32 -12 58 -13 51 -2 -3 5 63 8 146 8 106 -1 152
2 155 11 5 14 -214 124 -233 116 -11 -4 -14 13 -14 98 0 57 4 109 8 114 26 36
80 60 142 63 164 8 237 8 293 3 l60 -6 21 -66 c18 -55 32 -77 79 -124 74 -72
72 -88 -11 -97 -34 -4 -67 -10 -73 -14 -6 -3 -31 -8 -56 -10 -84 -7 -159 -43
-149 -71 3 -7 -2 -42 -11 -77 -13 -48 -15 -70 -7 -88 58 -127 84 -169 139
-224 33 -33 66 -63 74 -65 24 -8 3 -28 -42 -41 -23 -6 -55 -22 -70 -35 -16
-13 -33 -23 -39 -23 -12 0 -68 -46 -85 -70 -10 -15 -7 -35 21 -114 38 -108 75
-157 164 -223 111 -83 172 -102 172 -54 0 20 -43 61 -65 61 -19 0 -115 97
-115 116 0 10 -10 28 -21 40 -18 19 -20 28 -12 51 6 15 8 53 6 83 -3 47 0 59
21 82 30 34 95 55 123 40 16 -9 149 -8 192 0 28 6 123 -18 137 -33 17 -19 54
-26 54 -11 -1 28 -74 76 -150 96 -36 10 -89 27 -118 37 -30 10 -61 19 -71 19
-9 0 -30 11 -46 25 -17 13 -50 39 -74 57 -60 46 -86 99 -94 189 -6 64 12 105
58 135 40 26 147 43 261 41 l101 -2 -36 55 c-19 30 -46 68 -58 83 -17 21 -23
42 -23 75 0 26 -7 60 -15 76 -8 16 -18 46 -21 67 -5 32 -2 42 21 65 l27 27
169 -5 169 -5 0 25 c0 26 -67 155 -104 200 -43 51 -47 67 -29 103 19 40 33 51
52 44 8 -3 37 5 65 19 128 61 122 60 215 47 47 -6 113 -16 146 -22 33 -6 69
-12 80 -14 11 -1 37 -6 58 -10 26 -5 37 -4 37 5 0 17 -118 137 -159 162 -43
26 -48 33 -61 77 -6 22 -6 40 1 52 7 13 5 27 -5 48 -14 26 -14 30 2 44 26 23
79 47 102 47 12 0 19 4 16 8 -9 14 62 42 107 42 24 0 48 -5 55 -12 9 -9 18 -9
37 0 14 7 59 12 100 12 41 0 77 5 80 10 13 22 -17 37 -81 43 -37 4 -71 11 -78
15 -6 5 -96 10 -201 11 -160 2 -194 5 -214 19 -67 47 -185 101 -207 96 -14 -4
-30 -2 -37 4 -11 10 -41 16 -62 13 -5 -1 -3 -6 5 -11 24 -15 -48 -12 -106 4
-83 24 -201 27 -259 8z m-375 -632 c0 -5 -4 -10 -10 -10 -5 0 -10 5 -10 10 0
6 5 10 10 10 6 0 10 -4 10 -10z"/>
<path d="M3540 5939 c0 -5 5 -7 10 -4 6 3 10 8 10 11 0 2 -4 4 -10 4 -5 0 -10
-5 -10 -11z"/>
<path d="M5270 5930 c0 -12 69 -42 81 -34 16 9 10 20 -16 32 -32 15 -65 15
-65 2z"/>
<path d="M5080 4971 c0 -12 29 -35 36 -28 11 10 -5 37 -21 37 -8 0 -15 -4 -15
-9z"/>
<path d="M8085 4807 c-9 -5 -31 -11 -49 -12 -79 -8 -188 -68 -171 -94 3 -6 0
-11 -8 -11 -7 0 -24 -11 -37 -25 -18 -19 -24 -38 -25 -80 -1 -30 -8 -62 -15
-71 -9 -10 -14 -44 -15 -96 0 -69 3 -82 19 -92 10 -6 31 -21 46 -33 15 -13 30
-23 33 -23 3 0 4 33 3 73 -3 74 14 192 35 243 27 66 34 75 98 105 65 31 69 32
233 35 92 1 172 5 177 8 6 4 5 17 -2 36 -10 26 -17 30 -62 34 -105 11 -243 13
-260 3z"/>
<path d="M5985 4726 c-18 -13 -18 -14 8 -9 15 3 30 9 33 14 8 14 -20 10 -41
-5z"/>
<path d="M8610 4593 c-19 -3 -43 -12 -53 -20 -9 -9 -27 -21 -39 -27 -59 -29
-118 -173 -118 -285 0 -54 5 -78 26 -117 34 -65 39 -69 107 -83 32 -7 61 -19
63 -26 9 -23 58 -33 142 -30 145 7 250 89 253 196 3 137 -20 225 -81 307 -21
28 -70 53 -115 57 -5 1 -21 5 -35 10 -14 5 -32 10 -40 11 -8 1 -28 4 -45 7
-16 2 -46 2 -65 0z m153 -84 c15 -7 37 -27 48 -46 11 -18 28 -33 37 -33 12 0
9 7 -11 28 -31 32 -28 62 6 62 44 0 117 -112 117 -179 0 -20 -24 -11 -46 17
-24 30 -42 26 -25 -6 6 -12 11 -49 11 -84 0 -54 -4 -69 -31 -108 -44 -63 -164
-122 -184 -90 -3 6 -16 10 -27 10 -34 0 -107 42 -144 82 -33 37 -34 40 -34
127 l0 89 58 70 c31 39 64 73 72 76 25 8 123 -1 153 -15z"/>
<path d="M8618 4401 c-23 -23 -50 -44 -60 -47 -31 -9 -14 -72 30 -112 91 -82
95 -84 136 -67 22 10 41 26 48 43 6 15 15 37 21 50 17 36 -32 125 -81 148 -21
9 -40 19 -44 21 -4 2 -27 -14 -50 -36z"/>
<path d="M7805 4270 c3 -5 8 -10 11 -10 2 0 4 5 4 10 0 6 -5 10 -11 10 -5 0
-7 -4 -4 -10z"/>
<path d="M7573 4238 c3 -7 14 -35 25 -63 11 -27 35 -86 52 -130 18 -44 48
-120 67 -170 35 -90 53 -123 53 -94 0 7 -18 66 -41 129 -22 63 -49 142 -60
175 -12 33 -26 66 -31 73 -6 7 -11 26 -10 42 0 20 -6 33 -18 40 -26 14 -43 13
-37 -2z"/>
<path d="M7493 4228 c-6 -7 -12 -20 -15 -28 -7 -22 75 -257 118 -337 55 -104
97 -173 106 -173 11 0 10 8 -7 38 -23 43 -48 105 -51 129 -1 12 -14 45 -28 75
-13 29 -35 82 -47 118 -12 36 -25 69 -30 75 -5 5 -9 17 -9 26 0 9 -7 20 -15
23 -13 5 -14 10 -5 27 14 25 -1 47 -17 27z"/>
<path d="M7903 4215 c-3 -9 4 -42 16 -74 11 -32 21 -68 21 -80 0 -12 5 -29 10
-39 19 -32 80 -213 80 -237 0 -13 5 -27 12 -31 8 -5 9 7 4 47 -4 30 -11 83
-15 119 -8 61 -22 111 -42 152 -5 10 -9 31 -9 47 0 29 -46 111 -62 111 -5 0
-11 -7 -15 -15z"/>
<path d="M7841 4196 c-10 -12 -10 -20 0 -38 7 -13 13 -36 14 -53 1 -16 2 -47
3 -67 1 -27 7 -38 17 -38 14 0 15 13 10 93 -4 50 -8 98 -10 105 -6 16 -20 15
-34 -2z"/>
<path d="M6580 4190 c0 -5 5 -10 10 -10 6 0 10 5 10 10 0 6 -4 10 -10 10 -5 0
-10 -4 -10 -10z"/>
<path d="M3697 4164 c-8 -8 1 -24 14 -24 5 0 9 7 9 15 0 15 -12 20 -23 9z"/>
<path d="M7800 4145 c0 -8 5 -15 10 -15 6 0 10 7 10 15 0 8 -4 15 -10 15 -5 0
-10 -7 -10 -15z"/>
<path d="M3420 4105 c-13 -16 -6 -100 10 -120 4 -5 13 -28 19 -51 15 -55 71
-138 84 -125 7 7 1 24 -18 53 -25 38 -39 87 -62 216 -6 39 -16 47 -33 27z"/>
<path d="M3140 4049 c0 -33 42 -167 63 -200 11 -18 37 -27 37 -13 0 3 -11 39
-25 79 -14 41 -29 93 -33 117 -5 29 -13 44 -25 46 -13 3 -17 -4 -17 -29z"/>
<path d="M3270 4015 c0 -14 5 -25 10 -25 6 0 10 11 10 25 0 14 -4 25 -10 25
-5 0 -10 -11 -10 -25z"/>
<path d="M7765 3970 c8 -38 17 -61 75 -190 21 -47 56 -125 77 -174 37 -86 63
-118 63 -80 0 10 -13 45 -29 79 -58 122 -133 281 -142 297 -5 10 -9 23 -9 30
0 7 -9 27 -21 43 l-20 30 6 -35z"/>
<path d="M3370 3956 c0 -9 7 -16 16 -16 9 0 14 5 12 12 -6 18 -28 21 -28 4z"/>
<path d="M8151 3959 c-22 -9 -22 -10 -7 -34 13 -20 14 -33 5 -73 -14 -69 -8
-157 11 -157 12 0 15 17 15 90 1 144 0 138 39 131 42 -8 55 8 24 28 -34 21
-60 26 -87 15z"/>
<path d="M7890 3930 c0 -31 0 -32 53 -160 20 -47 55 -133 79 -192 28 -71 49
-110 62 -114 37 -12 37 12 -2 77 -47 78 -148 313 -167 392 -9 36 -25 35 -25
-3z"/>
<path d="M9300 3941 c0 -23 54 -97 102 -140 l49 -44 77 2 c156 4 229 17 319
57 17 8 40 14 52 14 13 0 21 6 21 16 0 14 -8 15 -57 9 -32 -4 -78 -13 -103
-21 -32 -10 -81 -14 -165 -12 -117 3 -119 3 -125 28 -4 17 -15 26 -35 30 -31
7 -73 28 -112 56 -15 10 -23 12 -23 5z"/>
<path d="M8230 3841 c-11 -22 -13 -83 -4 -130 12 -59 22 -31 21 59 -1 50 -2
90 -4 90 -1 0 -7 -9 -13 -19z"/>
<path d="M8325 3828 c-14 -71 -17 -130 -6 -141 18 -18 31 11 30 68 -1 28 2 62
6 78 6 20 4 27 -8 27 -9 0 -18 -13 -22 -32z"/>
<path d="M3254 3786 c-6 -16 11 -46 27 -46 15 0 10 37 -6 50 -12 10 -16 9 -21
-4z"/>
<path d="M8810 3714 c-11 -26 -20 -50 -20 -54 0 -4 -7 -13 -16 -20 -10 -9 -14
-26 -12 -49 2 -28 7 -36 23 -36 16 0 21 9 27 50 3 28 13 73 22 100 19 60 18
55 6 55 -5 0 -18 -21 -30 -46z"/>
<path d="M8916 3752 c-3 -6 -1 -14 5 -17 15 -10 25 3 12 16 -7 7 -13 7 -17 1z"/>
<path d="M8626 3731 c-35 -38 -42 -261 -8 -261 12 0 14 12 9 70 -5 65 -1 95
28 188 9 27 -6 29 -29 3z"/>
<path d="M8692 3730 c-19 -18 -22 -31 -21 -98 1 -42 5 -95 10 -117 4 -22 11
-57 14 -77 3 -21 11 -38 18 -38 9 0 12 45 12 175 0 96 -3 175 -6 175 -3 0 -15
-9 -27 -20z"/>
<path d="M9848 3733 c-16 -2 -28 -9 -28 -14 0 -12 37 -12 45 1 4 6 10 8 14 6
4 -3 13 -1 21 5 16 9 2 10 -52 2z"/>
<path d="M8531 3716 c-11 -13 -10 -80 1 -91 3 -3 8 18 12 46 8 57 5 67 -13 45z"/>
<path d="M7790 3693 c0 -28 10 -53 21 -53 14 0 11 34 -6 56 -14 19 -14 19 -15
-3z"/>
<path d="M9625 3689 c-22 -5 -80 -12 -129 -17 -61 -5 -91 -11 -94 -21 -3 -9 1
-11 14 -7 11 3 54 8 96 10 42 3 86 9 97 15 11 6 42 11 70 11 27 0 53 5 56 10
7 12 -53 11 -110 -1z"/>
<path d="M8435 3669 c-12 -19 5 -23 22 -6 16 16 16 17 1 17 -9 0 -20 -5 -23
-11z"/>
<path d="M8870 3661 c-5 -11 -10 -30 -10 -43 0 -13 -5 -29 -10 -34 -12 -12 18
-204 31 -204 4 0 5 30 2 68 -9 94 -8 120 4 180 10 52 2 68 -17 33z"/>
<path d="M7230 3569 c0 -33 4 -90 9 -127 5 -37 12 -98 15 -135 6 -82 -6 -85
-45 -11 -14 27 -33 50 -42 52 -15 3 -15 -1 3 -43 11 -25 34 -64 52 -86 l33
-41 -40 -35 c-22 -19 -57 -46 -77 -59 -20 -13 -66 -58 -101 -99 -52 -60 -68
-87 -80 -135 -8 -32 -12 -62 -9 -65 12 -12 24 -3 40 33 9 20 27 51 40 69 12
17 22 34 22 38 0 4 16 25 35 46 19 22 35 43 35 49 0 14 155 90 185 90 27 0 85
25 85 37 0 4 -6 14 -14 22 -38 42 -109 275 -121 394 -8 83 -25 88 -25 6z"/>
<path d="M7085 3490 c-9 -14 36 -103 54 -108 11 -4 12 3 7 33 -14 71 -42 106
-61 75z"/>
<path d="M7694 3324 c7 -58 19 -84 32 -71 9 9 -16 116 -29 124 -7 4 -8 -15 -3
-53z"/>
<path d="M9686 5073 c-11 -11 -6 -23 9 -23 8 0 15 4 15 9 0 13 -16 22 -24 14z"/>
<path d="M4175 3630 c3 -5 10 -10 16 -10 5 0 9 5 9 10 0 6 -7 10 -16 10 -8 0
-12 -4 -9 -10z"/>
<path d="M10097 3463 c-16 -15 -5 -24 25 -21 41 4 50 28 11 28 -17 0 -33 -3
-36 -7z"/>
<path d="M4240 3450 c0 -5 7 -10 15 -10 8 0 15 5 15 10 0 6 -7 10 -15 10 -8 0
-15 -4 -15 -10z"/>
<path d="M5380 2121 c0 -13 27 -21 71 -21 28 0 39 4 39 15 0 12 -13 15 -55 15
-30 0 -55 -4 -55 -9z"/>
<path d="M2600 1305 c-16 -19 -3 -19 30 0 24 13 24 14 4 15 -12 0 -27 -7 -34
-15z"/>
</g>
</svg>
