<?xml version="1.0" standalone="no"?>
<!DOCTYPE svg PUBLIC "-//W3C//DTD SVG 20010904//EN"
 "http://www.w3.org/TR/2001/REC-SVG-20010904/DTD/svg10.dtd">
<svg version="1.0" xmlns="http://www.w3.org/2000/svg"
 width="1200.000000pt" height="1200.000000pt" viewBox="0 0 1200.000000 1200.000000"
 preserveAspectRatio="xMidYMid meet">

<g transform="translate(0.000000,1200.000000) scale(0.100000,-0.100000)"
fill="#4a4a4a" stroke="none">
<path d="M6013 9853 c-10 -31 -10 -40 2 -49 16 -12 174 -7 189 6 12 11 -2 30
-22 30 -37 0 -92 22 -92 35 0 10 -11 15 -33 15 -28 0 -33 -4 -44 -37z"/>
<path d="M6311 9836 c-7 -9 -11 -23 -7 -31 10 -26 96 -57 184 -66 46 -5 110
-16 142 -24 32 -8 74 -15 95 -15 20 0 60 -11 88 -25 43 -20 67 -24 127 -23 60
1 82 -3 110 -20 19 -11 74 -30 121 -40 88 -20 176 -63 254 -126 54 -45 192
-116 224 -116 43 -1 93 -38 255 -190 45 -42 99 -89 121 -105 79 -56 203 -192
245 -270 30 -53 70 -103 140 -173 87 -87 100 -105 117 -158 24 -78 41 -103 79
-110 24 -5 36 0 62 24 44 42 42 69 -13 122 -25 25 -65 76 -88 114 -54 88 -101
145 -283 345 -82 90 -158 176 -169 192 -27 38 -171 144 -217 158 -20 7 -42 19
-48 26 -7 8 -31 20 -54 27 -22 6 -50 19 -61 29 -11 9 -35 24 -54 34 -19 9 -66
38 -105 64 -75 48 -119 74 -182 105 -22 10 -46 22 -54 27 -8 5 -33 18 -55 30
-22 12 -49 29 -60 39 -24 21 -138 81 -220 115 -69 28 -216 44 -505 52 -153 4
-178 3 -189 -11z"/>
<path d="M5170 9833 c-14 -2 -55 -10 -92 -18 -37 -8 -81 -15 -97 -15 -39 0
-107 -23 -196 -66 -38 -19 -77 -34 -85 -34 -8 0 -29 -8 -46 -19 -17 -10 -41
-22 -55 -26 -13 -4 -37 -20 -54 -35 -16 -15 -43 -34 -59 -41 -41 -20 -48 -43
-10 -36 33 6 132 45 219 87 33 16 87 34 120 39 33 6 87 16 120 22 33 6 79 14
101 18 23 4 58 17 78 29 21 12 44 22 52 22 8 0 29 7 45 16 51 26 22 65 -41 57z"/>
<path d="M5765 9648 c-55 -5 -131 -10 -170 -12 -38 -1 -86 -8 -105 -14 -19 -6
-69 -16 -110 -22 -75 -10 -160 -32 -300 -75 -41 -13 -92 -26 -113 -30 -51 -8
-81 -38 -67 -65 8 -16 21 -20 60 -20 27 0 61 5 77 11 15 7 66 18 113 25 156
24 235 41 265 56 17 9 62 21 102 27 39 6 83 15 98 21 14 5 49 10 76 10 28 0
62 6 77 14 15 7 73 16 128 19 108 5 147 18 142 45 -3 14 -17 17 -88 18 -47 1
-130 -3 -185 -8z"/>
<path d="M6452 9612 c-8 -5 -12 -19 -10 -32 3 -24 80 -61 154 -74 21 -4 66
-15 99 -25 147 -44 273 -67 294 -52 42 28 -45 85 -191 123 -61 16 -116 32
-121 35 -5 3 -41 9 -81 14 -39 4 -84 11 -101 14 -16 3 -36 2 -43 -3z"/>
<path d="M5890 9500 c-8 -5 -34 -10 -57 -10 -49 0 -108 -13 -211 -46 -60 -20
-93 -24 -196 -24 -102 0 -131 -3 -167 -20 -24 -11 -57 -20 -74 -20 -16 0 -53
-9 -82 -20 -93 -36 -157 -58 -208 -70 -27 -6 -85 -27 -127 -46 -42 -19 -109
-43 -150 -53 -126 -33 -192 -58 -230 -90 -21 -18 -97 -63 -170 -102 -73 -39
-160 -87 -192 -106 -61 -36 -245 -181 -280 -222 -37 -42 -159 -164 -251 -251
-50 -47 -104 -101 -120 -121 -60 -71 -122 -155 -135 -179 -18 -33 -80 -118
-156 -210 -34 -41 -71 -94 -83 -118 -12 -24 -42 -70 -66 -103 -24 -33 -58 -90
-75 -127 -18 -37 -42 -81 -55 -97 -13 -17 -29 -63 -38 -105 -9 -41 -24 -93
-33 -115 -10 -22 -27 -76 -40 -120 -12 -44 -33 -113 -48 -152 -18 -52 -26 -92
-26 -141 0 -37 -7 -92 -16 -122 -8 -30 -19 -100 -24 -155 -4 -55 -16 -170 -25
-255 -20 -175 -22 -322 -6 -363 14 -37 14 -237 0 -274 -15 -40 -13 -106 4
-139 8 -16 22 -63 31 -104 16 -73 27 -113 100 -350 20 -63 36 -122 36 -130 0
-8 9 -33 19 -55 75 -153 141 -323 141 -361 0 -11 47 -119 96 -218 13 -28 24
-56 24 -63 0 -32 44 -93 122 -173 66 -68 92 -103 127 -175 40 -81 59 -105 190
-238 80 -81 148 -155 149 -163 2 -9 -1 -21 -7 -27 -16 -16 -13 -42 7 -67 21
-27 57 -21 65 10 7 25 23 25 84 -1 44 -19 66 -33 167 -109 18 -14 51 -35 72
-48 22 -13 73 -44 114 -68 41 -25 113 -69 160 -100 114 -73 242 -137 347 -174
48 -17 101 -39 118 -49 40 -25 200 -69 294 -82 42 -6 80 -13 84 -16 5 -3 246
-7 535 -9 433 -3 536 -1 577 11 28 7 92 16 143 20 50 3 109 12 130 20 20 8 79
19 131 24 51 6 125 17 165 26 39 9 94 21 121 27 28 6 73 22 100 36 28 14 70
31 95 38 78 22 312 123 385 166 38 23 108 61 155 84 47 23 110 58 140 78 30
20 58 36 62 36 22 0 220 146 256 189 24 28 62 62 86 76 25 14 80 70 132 132
166 198 229 290 300 435 30 60 88 163 130 230 41 66 87 146 101 177 14 31 40
88 58 126 18 39 36 81 40 95 4 14 20 53 36 87 19 40 29 79 29 108 0 26 17 113
37 193 30 121 37 166 37 252 1 90 5 115 29 175 15 39 34 84 43 100 32 59 36
94 40 345 6 335 -6 465 -56 605 -11 33 -26 96 -31 140 -12 89 -34 170 -73 260
-14 33 -26 68 -26 77 0 10 -15 50 -34 90 -18 40 -45 106 -60 146 -32 89 -50
126 -86 172 -15 19 -39 58 -54 85 -15 28 -41 69 -59 92 -103 136 -177 261
-177 300 0 9 -20 35 -43 57 -24 23 -56 64 -72 91 -15 28 -56 79 -90 115 -34
36 -84 94 -111 130 -66 88 -348 375 -388 394 -17 8 -42 27 -56 41 -14 15 -41
35 -61 45 -19 10 -69 47 -110 82 -41 35 -113 83 -160 108 -46 24 -108 59 -137
77 -60 39 -160 78 -236 95 -28 5 -112 35 -186 64 -74 30 -158 63 -185 74 -28
11 -78 25 -110 31 -33 6 -98 20 -145 30 -47 10 -113 18 -145 18 -33 0 -73 4
-88 10 -16 6 -49 11 -75 11 -26 0 -72 7 -102 15 -63 17 -118 19 -140 5z m108
-186 c20 -3 38 -15 48 -30 16 -23 15 -28 -11 -85 -32 -73 -28 -117 15 -161 73
-73 200 5 218 134 10 74 34 78 262 38 58 -10 129 -22 157 -25 30 -4 68 -17 88
-30 39 -27 95 -45 140 -45 34 0 86 -29 130 -72 36 -36 64 -48 110 -48 23 0 61
-17 122 -54 48 -30 96 -62 107 -72 10 -9 41 -25 69 -35 28 -10 68 -31 89 -46
22 -15 63 -43 91 -61 66 -42 98 -67 330 -270 162 -141 218 -196 273 -269 30
-40 64 -78 75 -84 27 -14 86 -108 116 -183 13 -33 37 -77 53 -98 17 -21 51
-84 77 -140 25 -57 51 -110 59 -118 16 -20 58 -131 79 -211 8 -35 27 -81 40
-101 30 -44 39 -80 31 -113 -9 -36 -26 -31 -81 25 -99 101 -176 84 -130 -28
17 -39 34 -56 104 -103 55 -36 85 -37 107 -4 38 57 60 13 94 -185 11 -69 26
-150 31 -180 17 -88 22 -150 13 -150 -5 0 -32 16 -61 36 -45 31 -56 35 -80 27
-23 -8 -30 -19 -41 -59 -7 -27 -10 -65 -6 -84 7 -44 48 -98 78 -106 25 -6 74
14 95 40 19 23 28 20 45 -11 18 -36 23 -103 12 -176 -6 -43 -4 -74 8 -122 20
-80 20 -128 1 -165 -17 -33 -46 -45 -74 -31 -11 6 -44 11 -73 11 -92 0 -128
-45 -107 -132 6 -28 20 -55 32 -63 29 -20 108 -19 145 2 25 14 32 15 46 4 27
-22 21 -108 -14 -194 -16 -42 -30 -91 -30 -111 0 -41 -41 -168 -76 -238 -17
-33 -24 -64 -24 -102 0 -45 -6 -62 -36 -107 -20 -30 -45 -63 -54 -74 -10 -11
-32 -49 -49 -84 -17 -35 -47 -85 -65 -110 -19 -25 -39 -66 -46 -91 -16 -60
-49 -113 -108 -178 -26 -29 -70 -94 -97 -145 -35 -67 -67 -111 -117 -160 -38
-38 -83 -88 -99 -110 -74 -102 -294 -307 -330 -307 -16 0 -19 7 -19 40 0 86
-105 148 -146 85 -27 -41 -4 -80 67 -113 44 -20 59 -32 59 -47 0 -26 -54 -77
-145 -136 -182 -120 -213 -140 -250 -166 -22 -16 -56 -35 -75 -42 -19 -8 -65
-34 -102 -58 -40 -27 -90 -50 -125 -58 -67 -16 -173 -53 -220 -78 -38 -20
-113 -23 -113 -4 0 6 5 31 10 55 23 99 -61 171 -125 107 -19 -18 -25 -35 -25
-66 0 -36 6 -46 40 -78 l40 -37 -30 -31 c-47 -48 -247 -93 -505 -113 -73 -5
-135 -17 -185 -34 -86 -29 -111 -31 -510 -27 -259 2 -265 2 -310 26 -50 28
-241 95 -268 95 -9 0 -45 13 -80 30 -34 16 -84 36 -110 44 -63 18 -137 52
-187 85 -22 15 -62 37 -90 50 -27 13 -68 37 -90 52 -24 16 -60 30 -90 34 -27
4 -82 23 -121 42 -73 36 -295 208 -314 243 -6 11 -35 38 -65 60 -30 22 -64 57
-74 78 -25 47 -75 108 -207 248 -127 136 -153 170 -234 309 -35 61 -88 150
-117 200 -29 49 -60 115 -69 145 -9 30 -38 115 -65 188 -27 73 -49 139 -49
148 0 9 -9 52 -20 95 -34 132 -52 291 -60 529 -5 165 -12 239 -24 277 -19 61
-23 191 -11 403 6 118 12 156 31 202 14 34 24 78 24 106 0 131 54 394 90 440
11 14 20 39 20 57 0 20 11 48 30 74 40 55 105 196 135 296 14 44 39 100 56
125 16 25 47 79 69 120 21 41 59 106 84 143 25 38 46 70 46 73 0 12 99 145
140 189 25 28 58 66 72 85 76 105 364 361 408 364 11 1 16 -12 20 -44 4 -36
10 -47 32 -58 23 -11 33 -10 63 2 34 14 36 18 33 53 -3 33 -9 41 -45 61 -24
13 -43 29 -43 37 0 35 99 125 138 125 19 0 70 30 133 78 73 55 119 52 119 -9
0 -51 54 -82 95 -55 37 25 37 67 -1 107 -13 14 -24 33 -24 42 0 17 56 58 97
71 11 4 41 22 65 41 23 19 46 35 50 35 4 0 40 16 81 35 41 19 89 35 108 35 19
1 45 7 59 15 14 8 34 14 46 15 12 0 40 14 62 30 23 17 48 30 56 30 8 0 47 17
88 39 77 40 132 56 236 67 76 7 79 -1 17 -62 -56 -54 -61 -95 -16 -143 34 -36
68 -40 132 -14 51 20 72 61 63 125 -5 39 -3 46 28 74 66 63 102 75 208 69 52
-4 110 -8 128 -11z"/>
<path d="M6684 9046 c-43 -43 -46 -90 -9 -134 29 -35 62 -44 103 -26 41 17 62
51 62 102 0 91 -90 124 -156 58z"/>
<path d="M4953 9059 c-102 -30 -92 -159 13 -159 54 1 84 26 91 77 5 35 2 45
-20 67 -28 28 -35 29 -84 15z"/>
<path d="M7253 8806 c-22 -19 -28 -32 -27 -65 1 -34 11 -52 59 -111 63 -77 98
-93 158 -70 112 45 101 123 -34 235 -52 44 -112 48 -156 11z"/>
<path d="M7772 8413 c-30 -44 -35 -69 -17 -106 20 -43 63 -67 119 -69 62 -1
96 22 96 65 0 42 -28 83 -76 113 -54 33 -97 32 -122 -3z"/>
<path d="M3613 8110 c-66 -27 -51 -150 18 -150 48 0 97 59 83 103 -15 51 -50
67 -101 47z"/>
<path d="M8077 8082 c-40 -44 -7 -93 75 -112 57 -14 92 -2 102 34 7 25 -20 65
-55 83 -37 19 -103 16 -122 -5z"/>
<path d="M3717 7923 c-13 -12 -7 -68 12 -109 20 -43 52 -72 136 -120 48 -28
54 -29 185 -29 l135 0 11 -55 c13 -69 5 -67 271 -62 179 3 211 1 284 -17 46
-12 110 -21 143 -21 34 -1 86 -9 116 -20 30 -11 70 -19 88 -20 65 0 108 -83
64 -123 -24 -22 -47 -21 -102 4 -47 22 -152 53 -230 69 -157 31 -190 33 -293
21 -182 -22 -231 -32 -287 -58 -30 -13 -75 -31 -100 -38 -25 -7 -83 -29 -130
-50 -47 -21 -103 -42 -124 -49 -47 -13 -138 -93 -178 -155 -20 -32 -28 -58
-28 -89 0 -38 5 -49 38 -81 53 -50 114 -92 197 -137 39 -20 93 -56 122 -79 43
-35 64 -45 120 -54 37 -7 88 -18 113 -26 70 -22 233 -38 308 -31 39 4 89 2
119 -4 41 -9 69 -8 133 4 90 17 187 57 196 81 9 23 -15 45 -50 45 -63 0 -71
34 -25 104 27 40 30 53 25 87 -10 65 -52 136 -96 165 -22 15 -49 42 -61 60
-11 18 -28 35 -37 38 -28 9 -245 11 -268 3 -27 -10 -60 14 -50 38 6 16 15 17
79 12 63 -6 79 -3 125 18 49 23 56 23 90 11 20 -8 73 -17 117 -21 44 -3 122
-19 173 -35 51 -17 99 -30 107 -30 8 0 30 -14 50 -31 50 -44 67 -109 60 -224
-10 -142 -54 -380 -81 -438 -18 -39 -24 -69 -24 -122 0 -91 -20 -124 -97 -164
-129 -67 -136 -81 -140 -287 -3 -192 3 -217 68 -263 66 -49 154 -71 274 -71
l104 0 33 -34 c18 -18 52 -56 75 -83 l42 -50 -100 -92 -99 -92 -56 25 c-31 14
-82 30 -114 35 -82 13 -220 82 -273 135 -66 68 -159 75 -239 20 -60 -42 -75
-80 -60 -152 7 -32 12 -71 12 -86 0 -32 20 -74 46 -98 39 -34 152 -86 214 -97
125 -24 141 -30 130 -50 -18 -34 -32 -115 -41 -241 -25 -334 -28 -346 -130
-556 -71 -145 -76 -162 -59 -195 26 -48 78 -11 151 105 73 117 101 130 203
102 142 -40 219 -56 277 -56 34 0 124 -5 199 -11 120 -10 147 -10 225 6 49 9
139 21 200 25 64 4 125 14 147 24 21 9 58 16 83 16 27 0 75 11 113 27 122 49
226 84 279 95 69 15 103 0 156 -69 155 -201 196 -244 231 -241 18 2 37 14 50
31 23 32 20 46 -45 183 -22 45 -39 88 -39 97 0 8 -8 35 -18 59 -31 71 -44 141
-43 235 0 94 11 143 60 263 16 41 37 108 46 149 10 41 33 110 52 155 47 109
54 133 43 162 -17 43 -45 30 -111 -53 -33 -43 -70 -89 -82 -103 -35 -41 -107
-177 -123 -232 -10 -31 -28 -63 -46 -80 -26 -24 -38 -28 -89 -28 -32 0 -97
-10 -144 -22 l-86 -21 -77 21 c-42 11 -89 23 -103 26 -14 3 -43 20 -65 37 -75
60 -189 134 -234 151 -87 35 -104 29 -304 -92 -59 -36 -123 -75 -144 -86 -60
-35 -253 -77 -317 -69 -30 4 -59 12 -64 19 -5 6 -11 44 -13 84 l-3 73 25 -6
c14 -3 64 -9 112 -14 48 -6 106 -15 129 -21 93 -25 118 -10 348 208 60 56 114
102 120 102 9 0 169 -99 265 -164 55 -37 101 -40 216 -16 119 24 155 41 241
110 35 28 78 58 95 66 18 9 49 30 70 48 43 36 117 76 179 96 46 15 161 71 217
106 102 65 104 183 4 259 -37 28 -112 55 -155 55 -30 0 -176 -84 -229 -132
-20 -18 -88 -62 -151 -98 -63 -36 -181 -109 -262 -163 -145 -95 -149 -97 -176
-83 -52 27 -133 128 -133 166 0 5 7 10 14 10 8 0 43 17 78 37 59 35 69 38 169
43 113 6 116 7 214 80 28 20 76 50 108 66 64 32 123 83 137 119 5 13 7 79 4
146 -3 93 -9 129 -22 150 -27 41 -120 148 -194 221 -55 54 -68 73 -68 97 0 35
4 36 40 17 37 -21 60 -4 60 44 0 79 18 86 115 44 39 -17 90 -29 145 -34 47 -4
126 -13 176 -19 68 -9 108 -9 155 -1 35 6 100 15 145 20 136 16 164 37 144
108 -5 20 -10 50 -10 66 0 37 84 192 112 207 14 7 50 10 99 6 65 -4 80 -2 93
12 9 10 16 22 16 27 0 23 -52 67 -125 104 -44 23 -91 52 -105 65 -14 13 -74
48 -134 79 l-110 56 -120 1 c-155 0 -201 8 -201 33 0 13 10 22 28 27 57 15 74
51 39 82 -21 19 -97 23 -164 7 -24 -5 -73 -14 -109 -20 -42 -6 -94 -24 -140
-49 -64 -33 -74 -42 -71 -62 11 -78 8 -94 -17 -97 -59 -9 -98 46 -86 120 9 50
20 66 97 136 l58 52 138 -7 c119 -5 145 -3 185 12 52 20 71 18 242 -30 109
-30 149 -31 240 -5 38 11 86 20 106 20 86 0 223 48 283 99 34 30 78 132 83
196 5 52 2 63 -16 79 -19 17 -24 18 -46 6 -14 -7 -34 -32 -45 -55 -48 -99
-107 -127 -285 -132 -71 -2 -141 -5 -155 -5 -49 -3 -237 23 -347 47 -129 29
-271 33 -349 11 -27 -8 -69 -17 -94 -21 -83 -13 -113 -37 -183 -142 -36 -54
-72 -122 -81 -152 -8 -29 -29 -81 -44 -115 -39 -82 -43 -114 -29 -226 13 -96
8 -181 -14 -270 -9 -36 -8 -55 4 -95 34 -110 77 -217 105 -257 16 -24 39 -65
53 -91 13 -27 56 -81 95 -121 97 -97 128 -159 129 -253 0 -90 -15 -109 -127
-153 -80 -32 -81 -32 -200 -25 l-120 7 -87 -90 c-95 -100 -88 -97 -245 -107
-83 -5 -92 -4 -132 20 -27 16 -59 48 -82 82 -20 32 -52 66 -71 77 -33 19 -37
19 -100 4 -36 -9 -89 -22 -117 -29 -56 -13 -83 -9 -131 20 -47 30 -63 61 -70
138 -4 60 -2 72 19 103 29 43 85 71 207 103 146 39 135 8 138 395 3 429 6 493
21 519 17 31 15 191 -3 223 -8 14 -14 36 -15 50 0 14 -6 48 -14 75 -88 309
-104 347 -163 387 -91 62 -261 112 -418 122 -122 8 -572 10 -643 3 -34 -4 -83
-13 -108 -22 -24 -8 -58 -15 -74 -15 -34 0 -180 44 -232 71 -37 19 -89 25
-101 12z m1039 -213 l161 2 32 -28 c28 -23 42 -28 85 -27 91 3 135 -22 121
-68 -8 -23 -20 -24 -75 -4 -23 8 -54 15 -67 15 -14 0 -57 11 -97 25 -63 22
-94 25 -257 30 -209 6 -307 14 -314 25 -7 12 32 23 58 17 12 -3 33 1 47 9 18
11 41 13 85 8 33 -3 132 -5 221 -4z m-446 -20 c11 -7 9 -11 -13 -19 -35 -14
-74 -14 -82 -2 -14 23 64 41 95 21z m57 -517 c3 -9 1 -36 -6 -61 -17 -64 -25
-154 -17 -197 4 -20 22 -53 40 -73 62 -70 55 -102 -21 -102 -41 0 -195 40
-233 61 -8 4 -40 20 -72 34 -69 32 -128 93 -128 135 0 43 39 116 69 130 31 14
148 45 211 55 25 4 56 13 70 21 35 19 79 18 87 -3z m2515 -251 c-3 -135 5
-176 43 -212 58 -55 14 -101 -72 -75 -26 8 -82 21 -122 30 -63 13 -161 52
-271 108 -17 9 -26 22 -28 43 -3 35 6 44 68 68 25 10 63 35 85 56 48 45 94 70
132 70 15 0 46 9 68 20 22 10 54 18 70 17 l30 -2 -3 -123z m-418 -283 c13 -6
32 -25 41 -43 l17 -31 -37 -39 c-44 -47 -58 -43 -94 28 -20 39 -22 51 -13 72
13 27 44 32 86 13z m-455 -1864 c53 -30 105 -55 115 -55 9 0 29 -6 44 -14 25
-12 118 -30 237 -45 l50 -6 -48 -19 c-27 -11 -63 -33 -80 -49 -39 -37 -70 -45
-217 -57 -63 -5 -142 -14 -175 -20 -33 -6 -82 -9 -110 -6 -27 2 -105 9 -173
15 -68 6 -136 17 -150 25 -15 8 -48 20 -75 27 -26 6 -50 15 -52 19 -3 4 22 10
55 14 76 9 275 108 340 171 85 81 97 81 239 0z m651 -196 c0 -42 -26 -95 -68
-135 -27 -26 -45 -34 -90 -39 -32 -4 -77 -16 -101 -26 -24 -10 -51 -19 -61
-19 -9 0 -46 -13 -81 -29 -88 -40 -203 -62 -282 -54 -48 4 -71 2 -95 -11 -44
-22 -247 -24 -290 -2 -16 8 -59 20 -94 26 -36 5 -85 17 -108 25 -23 8 -52 15
-63 15 -11 0 -57 10 -101 22 -98 26 -136 58 -136 112 0 43 8 44 98 16 35 -11
87 -20 116 -20 32 0 61 -6 76 -17 38 -27 369 -52 705 -53 l230 0 71 36 c40 20
111 70 159 110 48 41 93 74 101 74 9 0 14 -11 14 -31z"/>
<path d="M8364 7655 c-21 -32 -12 -68 22 -92 14 -10 43 -33 65 -50 48 -38 59
-40 84 -13 16 17 17 28 9 77 -8 53 -12 59 -49 80 -55 31 -110 31 -131 -2z"/>
<path d="M3001 7041 c-6 -10 -13 -47 -17 -82 -5 -57 -4 -66 14 -83 28 -25 67
-14 87 24 22 42 20 123 -3 143 -25 23 -69 22 -81 -2z"/>
<path d="M7613 6653 c-40 -20 -48 -39 -28 -69 18 -28 44 -30 85 -9 37 19 47
50 24 76 -20 23 -38 23 -81 2z"/>
<path d="M2868 6330 c-18 -14 -28 -34 -33 -65 -7 -51 3 -71 44 -87 21 -8 29
-5 43 12 23 28 24 107 2 138 -19 27 -25 27 -56 2z"/>
<path d="M2926 5544 c-24 -23 -20 -53 9 -66 30 -13 55 3 55 36 0 42 -36 59
-64 30z"/>
<path d="M8554 5196 c-29 -21 -58 -89 -50 -120 8 -32 61 -93 87 -101 51 -16
119 49 119 114 0 90 -91 152 -156 107z"/>
<path d="M2999 4936 c-16 -34 -3 -74 27 -88 20 -10 29 -8 52 9 53 39 32 103
-35 103 -26 0 -36 -6 -44 -24z"/>
<path d="M8258 4623 c-39 -44 -30 -91 22 -118 40 -21 72 -19 104 6 34 27 34
65 -1 101 -32 34 -100 40 -125 11z"/>
<path d="M3393 4315 c-38 -16 -73 -68 -73 -108 0 -33 86 -127 117 -127 11 0
35 10 54 23 106 71 18 262 -98 212z"/>
<path d="M7969 4164 c-11 -13 -11 -20 1 -41 26 -45 64 -67 96 -56 24 8 30 16
32 45 2 28 -2 40 -20 52 -29 21 -92 21 -109 0z"/>
<path d="M3803 3794 c-46 -48 -53 -76 -29 -122 40 -76 118 -96 159 -40 40 54
-1 185 -65 201 -17 5 -32 -4 -65 -39z"/>
<path d="M4313 3475 c-11 -8 -28 -33 -37 -55 -15 -38 -15 -44 0 -76 20 -42 70
-59 126 -44 40 11 88 60 88 90 0 30 -48 79 -88 90 -50 13 -64 13 -89 -5z"/>
<path d="M7113 3470 c-27 -16 -33 -26 -33 -55 0 -63 62 -100 118 -71 68 35 41
146 -35 146 -10 0 -33 -9 -50 -20z"/>
<path d="M4946 3219 c-54 -42 -73 -120 -37 -153 10 -9 35 -19 54 -23 31 -5 40
-1 67 25 23 24 30 39 30 70 0 54 -7 70 -41 87 -36 19 -41 19 -73 -6z"/>
<path d="M6050 3105 c-18 -22 -17 -72 2 -92 23 -22 64 -10 72 22 14 56 -42
108 -74 70z"/>
<path d="M5443 3099 c-26 -9 -39 -31 -48 -82 -14 -75 53 -117 104 -63 59 63
17 172 -56 145z"/>
<path d="M4677 9400 c-21 -12 -61 -25 -88 -30 -28 -5 -65 -16 -82 -24 -18 -8
-52 -20 -77 -27 -73 -20 -320 -144 -382 -192 -31 -24 -70 -49 -87 -55 -17 -7
-46 -17 -63 -24 -18 -7 -53 -31 -78 -53 -25 -23 -63 -52 -85 -65 -46 -28 -177
-136 -187 -155 -5 -7 -32 -29 -61 -48 -30 -20 -80 -68 -112 -107 -31 -38 -61
-70 -66 -70 -19 0 -133 -118 -155 -161 -13 -27 -49 -76 -80 -111 -31 -35 -65
-82 -76 -104 -10 -23 -30 -52 -44 -64 -13 -13 -24 -28 -24 -34 0 -6 -25 -49
-55 -95 -30 -45 -71 -111 -90 -145 -19 -33 -45 -76 -59 -95 -14 -19 -29 -51
-32 -70 -3 -20 -19 -57 -35 -82 -16 -25 -29 -52 -29 -60 0 -8 -12 -32 -25 -54
-29 -46 -32 -87 -9 -109 11 -12 20 -13 34 -6 25 13 95 145 118 225 14 43 38
88 75 137 30 40 68 100 86 133 37 71 84 141 142 211 23 27 63 86 88 130 80
140 161 227 312 333 31 22 75 62 98 88 60 70 258 249 316 287 28 17 70 41 95
51 25 10 63 31 85 46 63 42 222 129 235 129 6 0 36 11 66 25 30 14 61 25 68
25 8 0 20 10 28 23 17 25 104 68 253 124 71 28 101 44 103 57 8 40 -60 48
-121 16z"/>
<path d="M7123 9394 c-8 -20 21 -44 53 -44 31 0 39 18 18 41 -21 23 -62 25
-71 3z"/>
<path d="M3138 8710 c-40 -33 -78 -60 -83 -60 -44 0 -212 -174 -260 -271 -15
-30 -55 -85 -89 -124 -72 -82 -87 -104 -111 -168 -10 -26 -28 -56 -40 -65 -12
-9 -36 -37 -53 -61 -25 -34 -32 -54 -32 -90 0 -27 -10 -67 -24 -98 -13 -28
-29 -76 -36 -107 -6 -30 -20 -79 -30 -109 -10 -29 -24 -102 -30 -162 -6 -60
-20 -129 -30 -154 -46 -111 -80 -204 -80 -216 0 -8 -12 -49 -26 -92 -16 -47
-29 -118 -34 -180 -5 -56 -18 -131 -29 -166 -29 -95 -42 -303 -42 -680 -1
-331 -1 -332 25 -406 17 -47 26 -96 26 -133 0 -32 7 -75 16 -96 8 -20 22 -68
30 -107 8 -38 25 -87 38 -110 13 -22 33 -71 44 -110 29 -96 66 -205 85 -246 9
-19 30 -72 46 -118 17 -46 36 -90 42 -97 17 -21 47 -17 64 9 18 29 12 50 -49
174 -32 65 -49 114 -56 163 -6 44 -19 85 -35 110 -15 24 -37 91 -56 172 -17
73 -42 172 -56 220 -14 49 -28 127 -33 175 -4 49 -13 102 -19 118 -26 63 -30
667 -5 740 7 22 17 67 23 100 5 33 16 76 24 95 8 19 20 73 26 120 29 222 52
334 119 600 28 107 57 226 66 264 11 46 29 88 58 130 23 33 55 90 71 126 16
36 37 74 48 86 21 22 64 108 113 224 37 87 75 142 131 191 21 19 71 79 111
134 142 195 160 218 207 270 26 28 47 55 47 58 0 4 -11 7 -24 7 -15 0 -53 -24
-98 -60z"/>
<path d="M8706 8335 c-11 -28 -6 -89 8 -117 8 -14 36 -53 63 -86 26 -33 60
-80 75 -104 15 -23 48 -71 72 -105 27 -38 52 -87 62 -125 14 -51 29 -75 74
-123 56 -60 93 -130 122 -235 7 -25 24 -65 38 -90 39 -67 47 -94 69 -217 11
-62 26 -123 32 -135 12 -23 23 -98 37 -268 5 -52 15 -99 26 -120 38 -70 86
-296 96 -450 5 -80 14 -168 19 -195 5 -28 10 -104 10 -169 2 -127 -11 -209
-56 -351 -14 -44 -28 -123 -33 -175 -5 -66 -14 -109 -29 -138 -12 -23 -26 -79
-33 -125 -7 -57 -21 -102 -43 -147 -19 -36 -38 -85 -44 -110 -19 -77 -34 -124
-47 -145 -7 -11 -22 -55 -34 -98 -12 -43 -34 -102 -50 -132 -15 -29 -34 -80
-41 -112 -7 -32 -23 -74 -36 -93 -13 -19 -23 -41 -23 -48 0 -8 -17 -39 -38
-70 -43 -64 -100 -159 -127 -212 -10 -19 -41 -64 -70 -100 -29 -36 -58 -76
-65 -90 -23 -46 -153 -211 -209 -267 -227 -223 -376 -366 -430 -413 -36 -30
-108 -96 -160 -145 -83 -78 -109 -96 -186 -129 -96 -41 -167 -78 -310 -161
-53 -31 -113 -58 -145 -64 -30 -6 -62 -16 -70 -21 -25 -16 73 -12 113 5 20 8
60 15 89 15 80 0 233 49 305 98 16 10 51 34 78 52 28 19 64 45 82 59 74 60 99
77 139 101 83 49 124 81 206 157 117 110 194 176 259 220 63 43 281 268 305
316 9 17 48 68 86 112 73 84 99 126 128 210 10 27 27 70 38 95 43 94 54 127
61 197 6 53 15 80 34 105 15 19 33 59 41 89 7 30 44 114 80 187 36 72 71 153
76 179 6 26 25 77 42 113 17 36 41 88 54 115 13 28 35 86 50 130 15 44 37 92
50 107 12 16 29 59 39 99 9 40 26 86 38 103 20 28 22 46 27 202 4 132 8 175
20 189 19 22 71 45 105 45 31 0 65 33 65 63 0 36 -38 64 -98 72 -72 10 -84 24
-81 99 3 80 -14 172 -45 244 -20 47 -25 78 -30 184 -4 103 -9 138 -30 190 -14
34 -28 77 -32 93 -4 17 -17 50 -30 76 -12 25 -26 63 -30 84 -4 22 -18 62 -30
90 -17 36 -24 69 -24 115 -1 141 -49 361 -89 405 -10 11 -34 54 -54 95 -24 49
-64 106 -117 165 -44 50 -80 93 -80 97 0 4 -30 44 -67 88 -89 105 -111 134
-120 156 -4 11 -17 35 -29 54 -12 19 -30 60 -38 90 -9 30 -26 73 -39 95 -24
43 -60 58 -71 30z"/>
<path d="M8590 8129 c0 -34 29 -78 53 -79 12 0 8 39 -8 70 -18 34 -45 40 -45
9z"/>
<path d="M8915 7619 c-18 -28 39 -117 68 -106 29 11 17 87 -17 109 -16 11 -44
10 -51 -3z"/>
<path d="M9080 7196 c0 -14 4 -28 10 -31 5 -3 18 -34 29 -68 11 -34 26 -79 35
-99 9 -21 16 -57 16 -80 1 -58 23 -169 60 -303 44 -158 49 -196 59 -430 8
-187 11 -215 31 -252 19 -38 20 -47 10 -80 -7 -21 -16 -43 -21 -49 -18 -23
-39 -133 -39 -207 0 -91 -24 -230 -51 -302 -11 -27 -28 -102 -38 -165 -11 -67
-30 -138 -45 -170 -14 -30 -26 -68 -26 -85 -1 -16 -7 -46 -14 -65 -8 -19 -25
-65 -39 -102 -14 -36 -41 -99 -61 -139 -27 -54 -33 -76 -25 -86 29 -34 122 74
141 165 6 26 23 75 39 108 16 34 31 82 35 105 4 24 24 76 45 115 22 39 39 81
39 94 0 12 11 55 25 95 14 40 39 149 55 242 16 92 37 193 45 223 13 44 15 84
10 200 -3 80 -5 180 -5 222 1 42 -5 101 -14 130 -16 58 -47 289 -46 353 0 22
-6 49 -14 60 -7 11 -16 41 -19 66 -3 25 -18 81 -31 125 -14 43 -26 102 -26
129 0 66 -15 118 -44 152 -13 16 -29 48 -36 71 -13 49 -41 82 -70 82 -15 0
-20 -7 -20 -24z"/>
<path d="M2474 6979 c-10 -17 13 -36 27 -22 12 12 4 33 -11 33 -5 0 -12 -5
-16 -11z"/>
<path d="M2427 6745 c-8 -18 11 -31 25 -17 11 11 3 32 -12 32 -4 0 -10 -7 -13
-15z"/>
<path d="M2370 6458 c-39 -92 -67 -331 -49 -417 7 -34 9 -89 5 -141 -3 -47 -1
-112 5 -145 22 -125 40 -233 54 -325 8 -52 21 -120 30 -150 8 -30 31 -116 51
-190 20 -74 43 -159 51 -189 26 -94 147 -397 200 -496 8 -16 23 -53 33 -80 9
-28 36 -81 59 -118 22 -37 41 -74 41 -81 0 -32 147 -221 180 -231 61 -19 68
51 12 116 -21 24 -55 71 -76 104 -21 33 -46 71 -55 85 -19 28 -36 71 -46 115
-4 17 -29 68 -56 115 -27 47 -49 95 -49 105 0 34 -95 295 -137 380 -22 44 -44
96 -48 115 -4 19 -13 47 -21 61 -7 15 -18 56 -24 92 -5 35 -21 89 -35 120 -22
48 -27 77 -35 228 -13 218 -24 316 -40 354 -9 23 -10 93 -5 285 6 251 2 310
-25 310 -6 0 -15 -10 -20 -22z"/>
<path d="M2050 5320 c0 -63 2 -70 19 -70 41 0 65 74 41 121 -6 11 -21 19 -35
19 -24 0 -25 -2 -25 -70z"/>
<path d="M2107 5088 c-21 -11 -22 -37 -1 -66 19 -28 30 -28 49 2 26 40 -9 86
-48 64z"/>
<path d="M2175 4820 c-10 -30 12 -60 43 -60 53 0 73 53 26 70 -39 15 -62 12
-69 -10z"/>
<path d="M2304 4579 c-4 -7 2 -21 17 -33 13 -12 32 -33 42 -49 18 -28 47 -37
47 -14 0 21 -97 110 -106 96z"/>
<path d="M8877 4320 c-53 -42 -151 -184 -182 -265 -43 -111 -86 -192 -134
-248 -22 -27 -57 -76 -78 -110 -39 -65 -185 -240 -287 -343 -68 -68 -145 -131
-261 -214 -143 -101 -189 -130 -220 -139 -16 -4 -48 -20 -69 -35 -21 -14 -45
-26 -53 -26 -7 0 -35 -10 -61 -23 -26 -13 -67 -30 -92 -37 -25 -8 -70 -27
-100 -43 -112 -60 -338 -148 -465 -182 -49 -13 -110 -31 -135 -40 -74 -27
-172 -31 -226 -10 -40 15 -62 17 -158 10 -61 -5 -187 -10 -281 -11 -93 -1
-335 -5 -537 -9 l-366 -6 -164 71 c-274 121 -372 144 -403 96 -15 -23 -15 -27
4 -63 21 -42 23 -43 176 -78 33 -8 105 -30 160 -50 91 -32 109 -35 211 -35 78
0 134 -6 188 -20 80 -20 66 -20 786 -39 218 -5 253 -4 315 12 40 10 132 21
215 26 80 4 154 12 165 18 11 6 50 17 85 23 36 6 97 27 137 45 39 18 87 36
105 40 28 5 112 30 223 65 17 5 86 40 155 76 69 37 164 87 212 112 61 31 110
66 159 114 40 38 95 84 124 103 29 18 83 62 121 98 38 36 110 101 159 145 50
43 110 103 135 132 25 28 73 80 107 114 56 56 113 148 113 184 0 7 11 34 25
60 14 26 25 56 25 68 0 12 14 39 31 60 32 41 179 327 179 350 0 23 -17 24 -43
4z"/>
<path d="M2594 4296 c-9 -25 5 -83 22 -90 21 -8 29 19 18 62 -10 39 -30 53
-40 28z"/>
<path d="M2660 4086 c0 -15 58 -62 66 -53 5 5 -50 67 -60 67 -3 0 -6 -6 -6
-14z"/>
<path d="M2774 3935 c-3 -8 3 -29 15 -47 11 -18 30 -51 42 -73 12 -22 58 -75
103 -119 77 -75 114 -104 194 -153 20 -12 43 -30 51 -41 9 -11 26 -25 38 -31
42 -21 158 -131 238 -224 43 -50 58 -60 105 -72 30 -8 56 -19 58 -24 7 -22
258 -228 315 -259 34 -19 77 -46 96 -61 73 -56 107 -81 136 -97 17 -9 46 -29
65 -44 19 -15 55 -33 80 -40 24 -7 55 -21 68 -31 13 -10 40 -21 61 -25 32 -5
124 -44 191 -80 119 -65 203 -95 290 -106 47 -5 96 -16 110 -23 14 -7 48 -16
75 -19 44 -7 48 -6 35 7 -20 19 -169 97 -187 97 -25 0 -226 81 -256 103 -16
12 -42 34 -57 50 -18 17 -39 27 -58 27 -21 0 -51 15 -95 49 -36 26 -96 61
-136 75 -41 16 -136 71 -226 132 -86 57 -168 107 -183 110 -23 6 -137 76 -152
93 -10 12 -79 61 -85 61 -4 0 -28 15 -54 33 -25 19 -66 45 -91 60 -25 15 -72
51 -105 82 -33 30 -74 62 -92 70 -33 16 -342 319 -411 403 -44 53 -138 132
-158 132 -8 0 -17 -7 -20 -15z"/>
<path d="M5220 2335 c0 -8 1 -15 3 -15 1 0 41 -16 87 -36 119 -49 206 -56 723
-52 383 3 440 6 502 22 97 26 108 38 53 59 -71 27 -120 31 -180 13 -47 -13
-78 -14 -208 -6 -85 5 -168 13 -186 16 -18 3 -70 -2 -116 -11 -68 -14 -113
-16 -243 -10 -88 3 -192 13 -232 21 -99 19 -203 19 -203 -1z"/>
<path d="M6687 2325 c-50 -17 -57 -25 -21 -24 51 1 125 16 136 27 17 17 -66
15 -115 -3z"/>
</g>
</svg>
