<?xml version="1.0" standalone="no"?>
<!DOCTYPE svg PUBLIC "-//W3C//DTD SVG 20010904//EN"
 "http://www.w3.org/TR/2001/REC-SVG-20010904/DTD/svg10.dtd">
<svg version="1.0" xmlns="http://www.w3.org/2000/svg"
 width="1200.000000pt" height="1200.000000pt" viewBox="0 0 1200.000000 1200.000000"
 preserveAspectRatio="xMidYMid meet">

<g transform="translate(0.000000,1200.000000) scale(0.100000,-0.100000)"
fill="#4a4a4a" stroke="none">
<path d="M5730 10967 c-25 -5 -83 -10 -130 -11 -47 -2 -104 -6 -125 -10 -48
-9 -187 -86 -233 -130 -38 -35 -80 -113 -107 -196 -10 -30 -28 -76 -41 -102
-18 -36 -24 -64 -24 -118 0 -69 -1 -71 -39 -106 -22 -19 -45 -52 -52 -72 -20
-65 -47 -98 -129 -162 -44 -34 -97 -81 -117 -106 -50 -60 -98 -89 -158 -98
-58 -9 -146 -52 -230 -111 -77 -55 -304 -291 -312 -324 -10 -43 -33 -81 -48
-81 -56 0 -323 -183 -294 -201 10 -6 8 -9 -8 -9 -29 0 -65 -39 -59 -64 7 -29
-16 -64 -90 -136 -57 -56 -114 -142 -114 -173 0 -5 19 -8 43 -7 64 4 79 1 75
-12 -3 -7 -35 -17 -74 -23 l-69 -10 -7 -50 c-5 -27 -9 -56 -10 -64 -1 -8 -9
-16 -18 -18 -10 -3 -27 -22 -39 -43 l-21 -38 35 -6 c39 -8 48 -26 12 -26 -37
0 -74 -22 -90 -55 -42 -85 -60 -115 -71 -115 -13 0 -44 -38 -83 -100 -18 -28
-22 -50 -23 -110 0 -84 9 -102 74 -162 37 -33 40 -41 47 -104 4 -38 3 -77 -2
-86 -5 -9 -9 -32 -9 -51 0 -18 -3 -37 -7 -41 -5 -4 -13 -51 -20 -104 -7 -53
-17 -117 -23 -142 -5 -25 -17 -121 -25 -215 -20 -227 -32 -321 -44 -343 -5
-10 -7 -38 -4 -62 5 -37 4 -42 -10 -37 -10 4 -17 3 -17 -1 0 -4 -7 -52 -15
-107 -19 -127 -19 -124 5 -118 18 5 19 2 14 -28 -3 -19 -17 -43 -30 -54 -26
-23 -33 -72 -11 -93 18 -19 17 -143 -4 -357 -23 -241 -31 -278 -78 -395 -21
-52 -51 -135 -66 -184 -32 -104 -48 -132 -130 -240 -33 -43 -70 -93 -82 -110
-33 -48 -144 -152 -188 -176 -130 -71 -145 -84 -144 -115 1 -38 22 -98 37
-103 6 -2 21 8 33 22 48 55 66 20 73 -144 5 -121 28 -244 69 -370 20 -63 30
-78 58 -95 19 -11 54 -42 78 -68 48 -52 54 -83 30 -155 -18 -56 -6 -172 24
-219 30 -47 87 -99 119 -107 76 -21 98 -31 103 -46 3 -10 31 -26 68 -39 34
-12 96 -35 137 -51 41 -17 83 -30 92 -30 9 0 50 -14 91 -30 73 -29 81 -30 244
-31 207 -1 302 -9 513 -42 91 -15 200 -27 243 -27 72 0 78 -1 72 -19 -4 -15 1
-21 27 -30 36 -13 29 -28 -17 -33 -32 -3 -41 -22 -31 -64 5 -17 13 -24 30 -24
32 0 53 -25 37 -44 -9 -11 -2 -29 37 -89 27 -41 59 -102 72 -137 13 -34 31
-77 40 -96 14 -26 16 -43 9 -76 -20 -98 -28 -190 -29 -303 0 -113 -16 -220
-39 -262 -18 -33 -129 -268 -145 -306 -21 -51 -33 -270 -17 -311 11 -28 12
-28 31 -11 25 23 37 13 23 -18 -18 -39 6 -68 126 -155 147 -106 126 -102 518
-102 301 0 358 3 470 21 152 25 367 23 441 -5 28 -10 58 -13 86 -10 27 4 46 2
50 -5 13 -20 43 -11 55 16 11 24 10 29 -9 45 -12 10 -36 19 -54 20 -60 3 -71
4 -86 11 -8 3 -49 15 -90 26 -41 11 -101 34 -133 51 -32 17 -63 30 -70 28 -7
-1 -28 5 -47 14 -19 8 -54 18 -78 22 -30 4 -64 22 -109 56 -36 28 -72 50 -80
50 -23 0 -68 27 -117 69 -26 22 -62 45 -82 50 -20 6 -44 16 -53 24 -18 16 -94
36 -162 42 -24 3 -66 7 -94 11 -38 4 -58 1 -85 -14 -77 -42 -40 -73 95 -79 71
-3 94 -8 111 -24 11 -10 26 -19 32 -19 18 0 14 -32 -6 -56 -18 -22 -210 -118
-259 -130 -15 -4 -40 -15 -55 -26 -26 -18 -29 -18 -55 -2 -76 47 -110 73 -146
111 -21 23 -48 45 -59 49 -16 5 -19 12 -14 35 3 16 1 29 -4 29 -6 0 -10 8 -10
18 0 24 58 183 74 202 7 8 28 50 47 94 19 43 40 81 48 84 29 11 27 -23 -6
-104 -31 -77 -56 -166 -70 -255 -4 -31 -1 -39 22 -57 34 -27 152 -32 161 -7 9
21 8 83 -1 133 -6 35 -3 53 16 95 13 29 30 58 36 65 7 7 13 19 13 26 0 11 49
27 96 30 5 1 24 17 41 36 l31 35 29 -21 c16 -12 49 -32 73 -44 24 -12 57 -31
72 -41 15 -11 41 -28 58 -39 16 -11 42 -20 57 -20 17 0 38 -10 52 -25 13 -14
35 -28 50 -32 14 -3 63 -23 109 -45 46 -21 92 -38 104 -38 11 0 39 -10 62 -21
72 -37 76 -39 88 -39 6 0 19 -6 27 -14 26 -22 76 -35 94 -24 38 21 12 88 -34
88 -46 0 -169 72 -234 138 -15 15 -34 22 -59 22 -28 0 -46 9 -79 38 -58 52
-83 66 -152 87 -79 23 -114 41 -126 68 -5 12 -26 32 -46 45 -40 27 -40 23 2
142 21 61 24 80 16 105 -7 21 -7 47 0 85 6 30 11 72 10 93 -2 60 -2 167 1 235
3 55 7 67 29 85 15 12 31 31 37 43 11 21 33 151 36 213 1 24 10 41 32 60 30
24 31 29 27 77 -5 45 -2 55 18 75 17 17 24 36 25 69 2 67 2 68 25 75 19 6 20
12 14 82 l-7 74 32 34 c32 33 33 36 22 73 -16 52 -15 129 1 142 6 5 22 18 35
28 15 12 26 36 33 77 7 33 18 67 25 76 8 8 14 27 14 41 0 13 12 53 26 88 30
74 59 269 42 285 -2 3 -19 8 -36 11 -28 6 -33 3 -43 -22 -24 -59 -27 -69 -33
-89 -8 -33 -41 -124 -79 -220 -20 -49 -39 -103 -43 -120 -4 -16 -17 -51 -30
-77 -13 -26 -24 -60 -24 -76 0 -16 -6 -35 -14 -41 -8 -7 -18 -27 -22 -44 -3
-18 -20 -75 -36 -127 -47 -154 -99 -351 -108 -410 -5 -30 -13 -75 -19 -100
-21 -101 -41 -208 -48 -264 -5 -33 -13 -61 -20 -63 -9 -3 -12 39 -12 169 -1
95 -1 180 -2 188 -3 45 14 376 23 440 5 41 14 131 18 200 13 196 35 403 47
425 16 31 26 215 12 231 -6 8 -15 14 -19 14 -15 0 -40 -62 -40 -97 0 -19 -7
-47 -15 -63 -9 -18 -15 -53 -14 -88 1 -32 -1 -67 -5 -78 -8 -27 -27 -147 -36
-229 -4 -38 -12 -104 -18 -145 -6 -41 -16 -142 -22 -225 -19 -274 -20 -290
-28 -325 -4 -19 -7 -89 -5 -154 1 -66 -2 -137 -6 -158 -5 -23 -5 -52 0 -70 7
-26 -4 -166 -16 -205 -8 -24 -37 0 -88 75 -78 113 -116 184 -117 217 0 41 -19
105 -30 105 -19 0 -41 59 -30 79 7 14 3 54 -13 143 -19 102 -23 149 -20 278 3
149 -6 237 -30 287 -7 17 -7 30 1 48 28 61 -4 145 -55 145 -28 0 -88 16 -113
31 -31 18 -56 26 -102 32 -60 8 -64 -10 -12 -49 19 -15 42 -41 51 -57 8 -17
29 -44 45 -61 17 -17 42 -56 56 -86 26 -53 27 -61 27 -227 0 -113 -4 -176 -11
-183 -8 -8 -26 6 -66 52 -81 94 -117 143 -145 196 -13 26 -39 74 -58 107 -19
33 -39 70 -44 82 -6 12 -22 41 -36 63 -35 55 -27 84 34 137 37 32 50 50 54 81
4 21 18 60 32 86 14 26 25 64 25 85 0 23 8 47 20 60 10 13 26 44 35 70 16 43
41 105 79 195 46 106 165 256 204 256 32 0 3 -148 -47 -248 -32 -63 -37 -82
-23 -82 9 0 76 85 107 136 47 77 99 145 116 155 11 5 19 20 19 35 0 14 11 35
24 47 61 57 116 97 152 112 95 40 275 32 436 -19 24 -7 71 -21 106 -31 34 -10
62 -22 62 -26 0 -4 10 -11 22 -15 12 -4 30 -17 40 -30 10 -12 28 -26 40 -30
12 -4 31 -17 41 -30 10 -13 46 -42 80 -64 66 -44 95 -88 115 -177 5 -23 24
-61 42 -83 28 -35 33 -50 34 -98 1 -31 4 -61 8 -67 3 -5 9 -32 13 -60 10 -69
21 -92 43 -99 13 -5 21 -19 24 -44 3 -21 24 -68 47 -106 23 -38 46 -90 52
-119 5 -28 16 -61 24 -74 8 -12 15 -30 15 -40 0 -10 9 -45 20 -78 37 -113 79
-260 95 -330 18 -83 42 -165 61 -218 8 -20 14 -50 14 -66 0 -16 7 -34 15 -41
8 -7 15 -20 15 -29 0 -9 14 -54 31 -101 17 -47 34 -98 39 -115 19 -74 43 -152
55 -175 34 -70 55 -119 66 -155 6 -22 33 -78 59 -125 26 -47 59 -111 73 -143
15 -31 39 -83 54 -115 72 -154 332 -476 420 -517 37 -18 104 -15 130 6 20 17
-1 44 -44 57 -28 9 -48 26 -77 65 -21 30 -60 72 -87 93 -39 31 -49 45 -49 69
0 33 -31 108 -49 119 -6 4 -11 16 -11 28 0 15 5 19 20 15 10 -3 24 1 31 9 17
21 49 17 104 -15 28 -16 79 -44 115 -62 36 -18 72 -38 80 -45 8 -7 35 -17 60
-24 25 -7 52 -18 60 -25 8 -7 38 -25 66 -39 60 -30 154 -111 154 -132 0 -8
-11 -36 -25 -62 -14 -26 -25 -53 -25 -61 0 -21 -90 -102 -137 -123 -23 -10
-45 -23 -48 -28 -3 -4 -20 -11 -38 -15 -17 -4 -48 -17 -68 -30 -46 -30 -80
-23 -174 34 -38 22 -75 41 -83 41 -8 0 -40 15 -71 32 -68 39 -196 98 -231 106
-14 3 -34 11 -45 18 -11 7 -40 18 -65 24 -25 6 -63 25 -85 41 -22 16 -53 37
-69 47 -16 9 -45 31 -65 47 -50 42 -98 75 -109 75 -5 0 -22 16 -36 35 -15 19
-34 35 -43 35 -9 0 -48 15 -87 34 -97 47 -136 63 -169 71 -33 9 -52 38 -38 63
5 9 12 42 15 72 8 79 44 170 72 182 25 12 37 42 40 108 2 58 28 170 48 208 8
16 18 53 22 83 3 30 13 65 21 78 18 29 32 157 15 148 -5 -4 -20 -39 -32 -79
-12 -40 -33 -94 -46 -120 -13 -26 -24 -64 -24 -85 0 -21 -6 -47 -13 -58 -17
-25 -47 -132 -47 -167 0 -14 -6 -31 -13 -37 -8 -6 -19 -30 -26 -53 -7 -24 -22
-59 -33 -78 -11 -19 -27 -56 -35 -82 -27 -92 -112 -248 -134 -248 -19 0 -1 79
27 115 18 24 26 50 30 90 4 54 77 260 110 312 8 12 14 32 14 43 0 12 4 29 10
39 5 10 11 31 14 47 3 16 14 51 25 79 10 27 29 86 41 130 12 44 31 107 41 141
10 33 19 69 19 80 0 10 7 37 14 59 8 22 12 43 9 48 -8 13 -23 -3 -23 -24 0
-11 -25 -84 -57 -162 -31 -78 -60 -162 -65 -187 -4 -24 -17 -61 -28 -82 -11
-21 -20 -44 -20 -51 0 -19 -74 -166 -84 -167 -4 0 -5 8 -1 18 4 9 11 37 16 62
5 24 14 49 19 54 6 6 10 19 10 31 0 12 7 30 15 41 8 10 15 32 15 47 0 15 7 44
15 64 8 19 24 71 34 115 11 43 24 85 30 91 5 7 13 48 17 92 4 44 15 104 26
134 20 59 24 121 8 121 -6 0 -14 -10 -19 -23 -61 -156 -101 -264 -101 -274 0
-7 -4 -13 -10 -13 -14 0 -13 11 9 66 16 41 46 204 42 231 -1 5 -6 8 -12 8 -11
0 -42 -79 -74 -190 -21 -74 -53 -161 -71 -197 -8 -14 -14 -32 -14 -40 -1 -7
-9 -31 -20 -53 -11 -22 -19 -48 -20 -57 0 -10 -11 -43 -25 -74 -14 -31 -25
-63 -25 -70 0 -8 -7 -14 -16 -14 -14 0 -15 8 -9 47 9 65 53 199 81 248 12 22
28 63 35 90 6 28 16 58 20 67 5 9 11 34 15 55 6 41 9 53 53 188 16 50 32 106
36 125 4 19 12 40 17 47 5 6 12 46 15 87 6 71 5 76 -14 76 -30 0 -40 -18 -48
-85 -6 -52 -33 -152 -67 -250 -5 -16 -15 -48 -20 -70 -5 -22 -18 -56 -29 -77
-10 -20 -23 -58 -29 -84 -9 -40 -54 -137 -133 -289 -22 -42 -57 -135 -57 -151
0 -8 -4 -22 -9 -32 -5 -9 -23 -60 -40 -113 -26 -85 -36 -140 -56 -304 -2 -22
-7 -61 -11 -87 -9 -64 14 -65 44 -3 23 47 42 59 42 25 0 -33 18 -23 30 18 19
59 70 165 91 187 10 12 21 36 23 55 2 20 17 64 31 100 15 36 31 74 35 85 4 11
17 40 28 65 45 97 102 253 102 280 0 26 27 57 39 44 8 -7 4 -29 -14 -74 -14
-35 -25 -80 -25 -99 0 -48 -21 -114 -64 -206 -20 -41 -36 -84 -36 -95 0 -12
-8 -38 -19 -58 -10 -20 -31 -77 -47 -127 -15 -49 -45 -127 -66 -173 -21 -45
-38 -87 -38 -93 0 -5 -9 -29 -20 -51 -11 -23 -20 -47 -20 -53 0 -24 26 -65 38
-60 6 2 27 -9 46 -26 l35 -30 12 22 c6 13 22 34 35 48 l24 26 0 -23 c0 -12 -7
-34 -16 -47 -25 -39 -12 -72 36 -86 63 -19 76 -40 63 -102 -9 -43 -9 -56 5
-77 36 -57 101 -104 169 -120 46 -12 57 -11 100 5 39 16 75 19 190 20 101 0
146 -4 154 -12 7 -7 23 -13 35 -13 37 0 37 -18 0 -34 -24 -10 -37 -24 -45 -49
-12 -37 -8 -57 21 -99 41 -60 24 -68 -128 -65 -113 2 -134 -6 -134 -55 l0 -30
73 6 c39 3 131 9 202 12 118 5 135 4 179 -15 26 -12 61 -30 76 -41 15 -11 67
-29 115 -41 89 -21 107 -20 285 8 32 5 94 43 112 68 4 5 8 31 8 58 0 54 4 57
105 77 33 6 74 18 91 25 49 21 174 135 174 159 0 12 23 45 50 75 l50 54 0 87
c0 66 4 91 15 100 18 15 19 51 3 72 -21 24 -139 86 -183 94 -57 10 -187 75
-193 96 -5 22 -140 98 -173 98 -12 0 -43 17 -68 38 -25 21 -62 42 -81 46 -19
3 -51 19 -70 34 -19 15 -47 35 -63 45 -23 15 -26 21 -16 38 8 17 7 23 -7 34
-17 12 -18 41 -22 343 -4 304 -3 337 16 428 34 163 46 284 33 343 -6 29 -11
69 -11 89 -1 20 -7 48 -15 62 -8 14 -14 52 -15 87 0 80 -8 99 -80 195 -33 43
-63 91 -66 106 -25 113 -101 218 -165 228 -31 5 -39 11 -39 28 0 13 -11 28
-30 39 -16 10 -38 30 -49 46 -11 16 -36 36 -56 45 -19 9 -35 21 -35 26 0 16
-72 56 -125 69 -27 7 -58 15 -67 18 -16 4 -18 20 -18 148 l0 144 148 154 c82
84 175 188 207 231 52 69 62 77 84 72 231 -52 375 -66 675 -66 173 0 314 -5
366 -12 96 -15 412 -16 688 -3 100 4 181 9 180 11 -2 1 -84 5 -183 9 -99 4
-183 9 -187 11 -3 2 -213 6 -465 9 -252 3 -467 8 -478 12 -11 3 -72 7 -135 8
-192 3 -359 17 -370 30 -14 17 -2 45 19 45 9 0 22 5 28 11 8 8 41 10 105 5 51
-3 109 -5 128 -4 19 1 49 1 65 0 270 -10 354 -14 490 -22 173 -11 538 -20 945
-25 140 -1 267 -3 282 -4 21 -1 29 -8 38 -36 14 -43 7 -55 -31 -55 -28 0 -24
-3 32 -33 35 -19 71 -32 81 -29 9 2 35 32 57 66 22 33 69 95 104 136 36 41 62
78 60 83 -7 11 76 158 106 188 14 14 38 46 54 70 15 24 41 63 58 87 23 32 28
46 20 56 -17 20 13 43 34 26 12 -10 16 -9 22 6 8 21 45 58 121 122 65 54 73
81 38 123 -14 17 -26 43 -26 58 0 16 -10 41 -22 57 -20 25 -23 40 -23 120 0
88 1 92 33 128 18 21 32 45 30 53 -6 30 -96 54 -223 59 -114 4 -211 19 -335
49 -63 16 -200 40 -277 50 -37 5 -53 3 -53 -4 0 -16 45 -31 94 -31 24 0 61 -6
82 -14 22 -7 83 -16 136 -20 91 -6 148 -20 148 -36 0 -4 -23 -26 -50 -50 -124
-107 -160 -159 -200 -290 -32 -103 -36 -107 -102 -86 -81 26 -175 37 -398 46
-415 16 -440 19 -440 56 0 30 42 131 70 171 17 23 30 46 30 51 0 13 29 36 36
29 7 -6 -26 -99 -57 -158 -11 -23 -17 -48 -14 -60 9 -28 51 -24 80 9 18 20 24
23 25 11 0 -9 6 -22 14 -28 22 -18 52 2 66 43 6 18 20 42 30 51 11 10 20 25
20 33 0 8 18 41 40 73 51 75 55 103 17 107 -22 3 -31 -3 -45 -28 -9 -18 -27
-47 -38 -65 -12 -18 -27 -49 -34 -69 -6 -20 -20 -41 -31 -46 -24 -13 -23 -6 1
45 11 22 20 47 20 55 0 8 7 24 15 34 19 25 19 56 2 56 -17 0 -117 117 -117
136 0 11 28 12 153 8 83 -3 167 -5 185 -5 18 1 42 -4 53 -9 23 -13 148 -29
166 -23 26 10 1 22 -70 33 -39 7 -117 23 -172 36 -55 13 -122 24 -150 24 -44
1 -52 4 -70 31 -11 16 -38 56 -60 89 -22 32 -47 59 -54 60 -8 0 -27 12 -42 26
-26 25 -31 26 -71 15 -39 -10 -275 -44 -423 -60 -33 -4 -70 -12 -82 -19 -14
-8 -71 -12 -165 -12 -170 0 -173 2 -289 118 -41 43 -98 98 -125 124 -38 36
-58 68 -88 138 -42 99 -94 177 -138 206 -60 40 -98 152 -65 195 10 14 22 15
72 8 101 -15 141 5 95 46 -11 10 -20 24 -20 31 0 7 -8 19 -17 26 -24 17 -58
67 -68 98 -4 13 -16 37 -26 54 -11 17 -19 41 -19 53 0 12 -20 60 -45 107 -25
48 -45 100 -45 116 0 16 -6 35 -14 43 -8 8 -13 23 -10 33 3 11 -6 41 -20 67
-15 26 -26 60 -26 73 0 14 -6 38 -14 52 -8 15 -17 38 -20 52 -3 14 -28 61 -56
105 -27 44 -67 122 -87 175 -48 126 -112 231 -185 306 l-60 61 16 31 c9 17 20
33 25 36 5 4 12 19 16 35 3 16 30 53 60 83 53 55 76 99 131 250 13 37 24 82
25 100 1 49 23 160 31 153 8 -8 101 184 129 264 25 72 28 331 4 331 -8 0 -15
5 -15 10 0 6 5 10 10 10 16 0 11 33 -10 68 -20 33 -60 45 -60 17 0 -8 9 -15
20 -15 25 0 37 -27 22 -49 -29 -39 -36 -62 -25 -80 9 -14 6 -19 -18 -30 -37
-16 -38 -35 -1 -26 26 6 26 6 7 -9 -44 -34 -66 -15 -45 38 5 14 10 43 11 63 3
49 8 57 25 42 20 -17 30 -3 13 18 -33 40 -44 73 -31 94 11 17 7 30 -23 88 -20
38 -56 90 -81 115 -24 26 -44 51 -44 57 0 6 -9 8 -19 4 -15 -4 -23 3 -38 32
-21 42 -43 55 -43 24 0 -12 -5 -21 -11 -21 -7 0 -9 10 -6 26 3 19 -1 29 -19
40 -25 17 -44 12 -44 -12 0 -28 -35 -11 -38 19 -3 21 -9 27 -26 27 -14 0 -27
-9 -32 -21 l-9 -20 -28 21 c-48 38 -50 33 -93 -190 -23 -122 -28 -170 -16
-170 6 0 14 5 17 10 14 22 24 8 27 -37 8 -116 64 -15 87 155 10 79 14 88 30
78 6 -4 9 -32 6 -69 -4 -56 -9 -86 -36 -212 -12 -57 -11 -65 6 -65 8 0 25 20
37 45 23 47 44 61 35 23 -21 -81 -29 -130 -23 -136 11 -10 43 36 62 88 23 60
34 71 34 34 0 -17 -5 -35 -11 -41 -13 -13 -29 -125 -19 -136 8 -9 60 94 60
119 0 8 9 35 20 60 12 24 24 65 29 90 10 50 15 59 30 50 6 -4 5 -21 -5 -48 -7
-22 -14 -52 -14 -67 0 -15 -11 -60 -25 -101 -25 -76 -33 -146 -16 -135 16 10
62 110 77 171 34 131 39 144 52 144 10 0 12 -7 7 -27 -4 -16 -9 -44 -11 -65
-2 -20 -11 -56 -19 -80 -9 -23 -20 -56 -25 -73 -4 -16 -11 -37 -15 -46 -8 -21
12 -34 29 -20 8 7 26 50 40 96 15 47 31 85 36 85 15 0 12 -25 -10 -87 -11 -31
-17 -59 -15 -64 6 -9 -19 -109 -35 -138 -17 -33 -53 -25 -114 26 -44 37 -177
98 -216 99 -36 2 -129 33 -152 51 -7 6 -43 13 -79 16 -36 3 -93 14 -128 23
-54 15 -67 16 -99 4 -20 -7 -77 -20 -127 -27 -49 -7 -105 -16 -122 -19 l-33
-6 0 131 c0 108 3 133 15 137 8 4 32 36 52 73 47 86 77 118 119 125 18 4 47
18 64 33 31 25 33 26 101 14 39 -6 74 -9 80 -6 17 11 79 -27 85 -51 8 -33 19
-23 34 33 17 62 26 72 45 47 22 -29 18 -50 -19 -117 -29 -51 -33 -68 -28 -97
l8 -34 21 30 c12 17 25 43 29 60 4 16 14 39 22 52 10 15 12 35 8 60 -4 26 -1
45 10 60 27 40 -8 63 -76 49z m135 -253 c-7 -58 -35 -98 -35 -50 0 27 16 107
28 136 10 26 14 -29 7 -86z m179 -12 c-10 -60 -15 -73 -26 -66 -10 7 -4 85 8
105 12 20 24 -5 18 -39z m78 -8 c-2 -21 -8 -43 -13 -48 -5 -6 -9 -18 -9 -28 0
-10 -4 -18 -10 -18 -12 0 -10 111 3 128 18 23 32 6 29 -34z m-400 -409 c34
-14 69 -25 77 -25 9 0 34 -9 56 -19 22 -10 65 -27 95 -37 183 -58 343 -197
289 -251 -8 -8 -20 -7 -45 3 -20 8 -68 14 -118 14 -83 0 -86 -1 -115 -32 -17
-18 -31 -40 -31 -48 0 -8 -12 -35 -26 -60 -24 -43 -74 -207 -95 -315 -17 -88
-19 -95 -32 -95 -6 0 -25 12 -42 28 -16 15 -42 33 -57 41 -15 8 -37 25 -50 38
-20 21 -20 25 -6 39 15 15 19 14 54 -10 44 -30 57 -32 74 -11 18 21 -5 72 -41
90 -38 20 -116 9 -146 -21 -40 -40 -24 -164 21 -164 7 0 25 -13 41 -30 16 -16
37 -30 47 -30 18 0 36 -25 26 -36 -13 -12 -94 12 -122 36 -17 15 -55 42 -85
60 -49 30 -57 32 -100 24 -43 -8 -46 -11 -46 -39 0 -25 5 -31 25 -33 36 -4
122 -46 143 -69 16 -18 16 -22 2 -33 -21 -18 -19 -36 7 -54 46 -32 88 -11 88
43 0 12 6 21 13 21 14 0 58 -28 69 -44 10 -14 -20 -36 -47 -36 -12 0 -45 -11
-73 -25 -35 -17 -69 -25 -105 -25 -49 0 -57 3 -122 58 -38 31 -71 56 -72 55
-10 -9 -22 2 -38 36 -9 22 -32 54 -51 72 -19 18 -34 40 -34 48 0 9 -12 34 -25
56 -34 55 -32 84 11 131 20 21 47 57 59 79 51 92 65 121 65 139 0 11 6 27 13
35 8 9 22 36 31 60 9 24 26 55 37 69 10 14 19 30 19 37 0 19 59 65 91 72 16 3
34 12 40 19 15 19 26 18 56 -6 14 -11 40 -20 57 -20 17 0 49 -10 71 -23 30
-17 43 -33 57 -72 9 -27 16 -51 13 -53 -2 -2 -17 5 -32 16 -16 11 -51 32 -78
47 -89 47 -163 14 -185 -80 -23 -99 -23 -97 14 -155 63 -96 102 -102 196 -30
36 27 71 49 78 50 8 0 12 -19 12 -65 0 -97 29 -82 49 26 6 30 15 74 20 99 21
92 15 134 -27 187 -49 61 -68 76 -100 81 -14 2 -37 9 -51 17 -15 7 -43 16 -63
20 -20 4 -39 13 -42 20 -8 23 80 103 117 105 4 0 35 -11 69 -25z m603 -30 c-7
-50 -41 -135 -54 -135 -5 0 -14 7 -21 15 -10 12 -8 21 8 47 12 18 30 52 41 76
11 23 23 42 27 42 3 0 3 -20 -1 -45z m-868 9 c4 -11 -20 -37 -66 -74 -18 -14
-52 -54 -77 -90 -25 -36 -56 -80 -70 -99 -13 -19 -24 -43 -24 -55 0 -24 -34
-79 -43 -70 -11 12 6 67 40 127 18 32 33 65 33 72 0 7 8 23 18 36 10 13 26 42
36 64 11 22 22 47 26 55 4 8 20 17 36 21 16 3 39 11 49 17 22 12 37 11 42 -4z
m-175 -55 c-18 -17 -32 -35 -32 -39 0 -5 -7 -16 -16 -24 -65 -65 -134 -219
-115 -255 10 -19 9 -21 -12 -21 -17 0 -32 -12 -50 -39 -40 -60 -142 -141 -177
-141 -63 0 -44 44 27 61 32 9 55 24 88 61 42 47 135 216 135 246 0 42 125 182
163 182 19 0 17 -3 -11 -31z m1105 8 c-3 -8 -8 -40 -12 -73 l-6 -59 20 23 c21
24 41 22 41 -4 0 -8 -11 -19 -25 -24 -26 -10 -32 -24 -15 -35 6 -3 10 -18 10
-31 0 -35 -24 -25 -30 12 -3 16 -11 29 -18 29 -8 0 -20 8 -27 19 -12 16 -12
23 -1 45 8 14 19 45 25 69 8 27 17 42 27 42 9 0 14 -6 11 -13z m-1237 -2 c0
-6 -60 -106 -76 -125 -6 -8 -26 -40 -42 -72 -17 -31 -47 -78 -67 -103 -20 -26
-43 -61 -52 -78 -17 -34 -51 -66 -70 -67 -23 0 -14 18 27 52 36 29 41 40 51
98 13 70 48 150 84 190 12 14 26 34 29 46 8 26 116 82 116 59z m468 -235 c18
-11 37 -30 42 -43 6 -12 15 -30 22 -39 23 -32 -1 -31 -59 2 -65 36 -73 45 -73
78 0 28 24 29 68 2z m382 -60 c0 -5 -4 -10 -10 -10 -5 0 -10 5 -10 10 0 6 5
10 10 10 6 0 10 -4 10 -10z m192 -40 c20 -22 33 -64 23 -80 -4 -7 -17 -4 -39
10 -19 11 -45 20 -59 20 -14 0 -38 11 -54 24 -24 21 -26 26 -13 41 11 14 24
16 69 10 34 -4 63 -14 73 -25z m-652 -13 c17 -30 7 -46 -18 -31 -21 13 -30 68
-10 62 7 -3 20 -16 28 -31z m576 -92 c54 -45 56 -72 4 -67 -19 2 -48 14 -65
26 -16 12 -38 25 -47 29 -11 4 -18 17 -18 33 0 25 2 26 40 21 27 -3 57 -18 86
-42z m-1498 -38 c3 -13 -10 -23 -45 -38 -67 -30 -215 -183 -238 -247 -26 -75
-28 -88 -12 -118 8 -16 13 -41 10 -55 -2 -14 2 -43 11 -64 9 -21 19 -70 22
-109 4 -39 11 -79 16 -89 29 -56 40 -139 41 -292 1 -123 -3 -173 -16 -216 -12
-39 -17 -85 -15 -155 3 -162 45 -274 104 -274 22 0 64 -42 64 -63 0 -18 32
-47 52 -47 10 0 18 -6 18 -14 0 -8 9 -21 20 -29 20 -14 20 -14 -7 -19 -72 -14
-199 19 -248 63 -12 11 -35 22 -52 25 -20 4 -43 21 -63 45 -17 21 -39 39 -49
39 -11 0 -42 15 -70 34 -28 19 -64 37 -80 41 -16 3 -35 13 -42 21 -6 8 -21 14
-33 14 -29 0 -146 42 -176 63 -13 9 -36 17 -50 17 -14 0 -33 7 -43 14 -10 8
-27 12 -37 9 -11 -3 -30 1 -42 9 -50 32 -89 28 -251 -26 -93 -31 -97 -31 -97
-6 0 11 -6 20 -12 20 -7 0 -20 4 -28 10 -12 7 -9 13 13 34 16 14 36 26 46 26
16 0 61 49 61 68 0 5 24 40 54 78 29 38 55 78 57 89 3 11 13 21 24 23 27 6 51
40 118 171 33 63 70 132 83 153 13 21 24 40 24 42 0 18 69 102 101 121 50 32
75 75 44 75 -8 0 -15 5 -15 10 0 13 27 13 35 1 3 -6 26 4 52 21 l46 31 18 -21
c9 -12 25 -48 35 -79 9 -32 25 -72 35 -89 14 -23 20 -61 25 -150 5 -98 10
-123 26 -140 13 -14 16 -24 9 -29 -16 -9 -13 -42 5 -70 12 -19 15 -41 12 -85
-2 -34 3 -104 13 -158 9 -53 14 -103 12 -110 -3 -6 -2 -28 1 -47 6 -28 11 -35
31 -35 21 0 25 8 41 73 22 92 30 325 14 432 -6 44 -15 105 -19 135 -3 30 -11
62 -16 70 -5 8 -8 22 -7 31 3 20 -37 167 -78 290 -35 102 -33 117 34 216 86
128 199 221 303 249 35 9 66 21 69 26 9 15 38 4 42 -15z m1360 -31 c5 -26 -16
-45 -28 -26 -5 8 -10 23 -10 33 0 24 34 18 38 -7z m-933 -33 c-8 -35 -2 -30
-70 -54 -90 -31 -121 -7 -37 29 26 11 56 28 67 36 32 25 48 20 40 -11z m1215
-34 c0 -30 -43 -120 -55 -115 -12 4 -10 17 17 84 23 54 38 67 38 31z m-1496
-34 c8 -42 2 -55 -26 -55 -11 0 -22 -8 -25 -20 -7 -27 -29 -25 -37 3 -9 35 -7
97 4 97 6 0 18 -9 27 -19 19 -23 33 -19 33 10 0 32 17 21 24 -16z m-142 -72
c-1 -109 0 -103 -17 -103 -22 0 -41 47 -48 117 -6 58 -5 62 16 66 48 10 50 7
49 -80z m1375 56 c11 -4 24 -13 28 -19 16 -27 -162 -241 -230 -276 -28 -14
-46 -9 -67 21 -9 12 55 46 101 54 33 6 35 8 48 71 7 36 15 85 18 109 3 24 8
48 11 53 6 9 49 3 91 -13z m159 6 c4 -8 2 -21 -4 -28 -5 -6 -26 -45 -47 -84
-20 -40 -40 -73 -44 -73 -13 0 11 114 25 123 8 4 14 14 14 20 0 17 29 57 41
57 5 0 12 -7 15 -15z m-1626 -60 c0 -8 -4 -15 -10 -15 -5 0 -10 7 -10 15 0 8
5 15 10 15 6 0 10 -7 10 -15z m522 -50 c15 -27 36 -68 47 -90 22 -48 103 -125
131 -125 11 0 20 -7 20 -15 0 -29 107 -128 152 -142 52 -15 112 -17 138 -3 50
27 69 -32 22 -67 -22 -16 -53 -23 -133 -30 -153 -14 -209 -11 -244 13 -17 12
-45 24 -63 27 -18 4 -49 20 -70 36 -20 17 -62 41 -92 54 -30 14 -63 34 -74 45
-10 12 -31 24 -46 27 -16 3 -34 13 -41 21 -7 8 -36 27 -65 41 -68 33 -92 58
-78 81 6 9 20 19 30 20 10 2 39 23 64 47 25 24 56 46 70 50 14 4 36 18 50 30
26 25 50 31 114 30 36 0 41 -4 68 -50z m-576 -96 c0 -67 7 -79 43 -79 16 0 34
-7 41 -15 7 -8 18 -15 24 -15 10 0 98 -62 190 -132 32 -25 56 -47 56 -53 0 -5
-35 -86 -59 -135 -19 -40 -20 -50 -10 -109 6 -36 15 -73 19 -81 12 -21 117
-41 147 -27 31 14 30 46 -4 115 -20 41 -27 70 -27 121 -1 62 0 66 23 69 13 2
36 -6 52 -17 15 -12 31 -21 34 -21 4 0 26 -14 50 -30 33 -23 58 -31 100 -34
77 -6 108 -50 70 -100 -8 -11 -15 -31 -15 -45 0 -13 -8 -34 -19 -45 -27 -31
-34 -71 -15 -90 21 -22 30 -14 49 44 9 27 27 65 41 85 13 20 24 41 24 48 0 21
46 71 58 63 17 -10 15 -65 -3 -100 -8 -15 -15 -36 -15 -46 0 -10 -7 -46 -16
-80 -10 -39 -12 -66 -6 -72 15 -15 58 53 66 104 4 26 11 50 17 53 5 4 9 15 9
25 0 10 11 39 24 64 13 25 26 51 29 58 3 10 8 10 16 2 12 -11 11 -16 -25 -101
-8 -17 -14 -40 -14 -51 0 -12 -11 -52 -25 -90 -54 -149 -12 -212 43 -67 31 80
68 184 92 263 25 77 45 106 56 78 3 -9 1 -30 -6 -48 -13 -38 -57 -198 -75
-278 -7 -30 -14 -59 -15 -65 -1 -5 -2 -23 -1 -40 1 -27 4 -24 29 30 15 33 34
80 41 105 32 107 84 266 91 280 4 9 11 30 15 48 4 18 11 29 17 26 18 -11 -2
-132 -49 -294 -53 -182 -73 -295 -49 -269 6 6 53 141 76 219 11 36 31 90 44
120 13 30 30 79 37 108 7 28 17 52 22 52 18 0 -17 -224 -47 -294 -9 -21 -16
-53 -16 -70 0 -18 -7 -41 -15 -52 -16 -21 -20 -54 -6 -54 13 0 81 145 81 172
0 13 7 36 15 52 8 15 15 40 15 55 1 14 10 37 21 50 17 21 22 22 30 10 15 -21
0 -145 -26 -224 -37 -113 -65 -208 -67 -234 -6 -50 19 -29 51 43 50 114 82
128 45 21 -16 -48 -16 -125 0 -126 6 -1 24 26 40 59 50 99 61 75 25 -56 -23
-84 -23 -82 -21 -129 3 -53 27 -40 47 25 38 127 47 152 56 152 12 0 12 -153 0
-165 -10 -11 -20 -115 -11 -115 11 0 30 41 36 77 7 44 44 125 59 130 14 4 17
-213 3 -300 -12 -83 -22 -88 -136 -82 -135 7 -165 27 -123 81 25 32 26 43 6
81 -8 15 -22 54 -31 85 -8 32 -24 68 -34 80 l-19 23 -26 -30 c-53 -62 -57 -79
-40 -144 18 -71 19 -108 3 -113 -6 -2 -28 -1 -47 3 -118 25 -153 28 -213 16
-57 -10 -127 -14 -198 -9 -14 1 -53 1 -88 2 -35 0 -80 7 -100 16 -20 9 -68 18
-107 20 -38 1 -105 6 -148 10 -76 7 -78 8 -84 35 -4 20 -17 36 -44 51 -45 25
-52 54 -14 64 36 9 58 57 50 108 -7 50 -7 83 1 159 7 72 1 92 -24 78 -24 -13
-102 -143 -102 -169 0 -27 -20 -82 -31 -82 -13 0 -37 51 -40 85 -2 34 10 119
22 151 4 12 13 68 19 125 8 72 18 112 31 131 27 38 24 88 -12 198 -17 52 -37
118 -44 145 -7 28 -25 79 -40 114 -19 45 -25 74 -22 98 4 24 2 33 -8 33 -28 0
-36 35 -17 79 25 60 47 51 48 -20z m1528 -35 c3 -9 6 -34 6 -56 0 -45 -13 -47
-44 -5 -16 22 -18 31 -8 52 13 28 37 33 46 9z m-89 -85 c20 -37 16 -104 -5
-104 -12 0 -16 15 -18 68 -2 37 -1 67 2 67 3 0 13 -14 21 -31z m-175 -83 c0
-8 -4 -17 -9 -21 -12 -7 -24 12 -16 25 9 15 25 12 25 -4z m71 -39 c-8 -8 -11
-5 -11 9 0 27 14 41 18 19 2 -9 -1 -22 -7 -28z m-2039 -9 c-17 -8 -26 -8 -34
0 -9 9 -4 12 23 11 32 0 33 -1 11 -11z m2128 -100 c0 -13 11 -33 23 -45 13
-12 29 -41 37 -65 7 -24 21 -52 31 -63 26 -30 71 -125 81 -170 5 -22 15 -69
23 -105 12 -63 18 -83 35 -125 27 -67 49 -185 34 -185 -17 0 -69 72 -86 120
-45 127 -81 271 -87 350 -5 70 -11 92 -32 120 -15 19 -33 49 -41 65 -8 17 -23
44 -33 61 -18 30 -16 64 5 64 5 0 10 -10 10 -22z m178 -83 c29 -35 52 -73 52
-84 0 -11 4 -22 8 -25 5 -3 15 -30 22 -62 8 -31 19 -58 26 -61 6 -2 10 -13 7
-24 -5 -17 8 -86 42 -224 7 -27 11 -52 9 -54 -12 -13 -36 32 -49 89 -25 114
-42 172 -83 285 -22 61 -45 126 -52 145 -7 19 -22 45 -33 58 -11 12 -16 22
-11 22 6 0 34 -29 62 -65z m179 -577 c-3 -8 -6 -5 -6 6 -1 11 2 17 5 13 3 -3
4 -12 1 -19z m33 -73 c0 -8 -4 -15 -9 -15 -5 0 -11 7 -15 15 -3 9 0 15 9 15 8
0 15 -7 15 -15z m-2700 -76 c0 -13 -47 -30 -65 -23 -15 6 -19 16 -10 25 9 9
75 7 75 -2z m-160 -45 c0 -3 -20 -32 -45 -64 -25 -32 -45 -61 -45 -65 0 -3
-18 -28 -40 -56 -22 -28 -40 -59 -40 -69 0 -29 -19 -34 -44 -11 -12 12 -26 21
-32 21 -10 0 -44 77 -44 102 0 17 40 45 125 86 28 14 55 31 60 38 12 15 105
31 105 18z m236 -13 c22 -11 54 -23 70 -26 16 -4 38 -11 49 -15 56 -25 99 -40
113 -40 14 0 216 -97 297 -143 34 -20 40 -29 43 -60 3 -30 7 -36 24 -34 31 3
33 -21 3 -33 -22 -8 -26 -15 -21 -34 8 -30 -18 -41 -66 -28 -50 13 -129 8
-167 -11 -19 -9 -39 -17 -45 -17 -6 0 -19 -12 -28 -28 -10 -15 -22 -34 -27
-42 -6 -8 -19 -44 -29 -80 -49 -164 -59 -206 -84 -364 -8 -47 -18 -81 -26 -84
-11 -3 -12 27 -9 159 5 175 13 218 63 324 34 71 159 205 192 205 41 0 114 25
138 47 31 28 30 51 -2 65 -20 9 -30 9 -52 -4 -15 -8 -44 -18 -66 -21 -45 -7
-221 -91 -233 -110 -4 -8 -21 -20 -38 -28 -26 -12 -32 -24 -50 -94 -12 -44
-24 -87 -28 -95 -29 -69 -48 -146 -43 -178 3 -20 5 -95 5 -167 -2 -274 5 -344
35 -384 6 -8 11 -21 11 -30 2 -55 19 -184 30 -231 8 -30 19 -95 25 -145 6 -49
18 -108 26 -130 8 -22 17 -60 19 -85 2 -25 8 -63 14 -85 31 -126 43 -177 52
-240 6 -38 17 -81 25 -95 14 -26 24 -61 50 -163 7 -32 24 -77 36 -100 28 -53
48 -107 48 -130 0 -9 20 -38 45 -65 25 -26 45 -53 45 -60 0 -7 21 -35 48 -61
102 -105 165 -182 156 -191 -8 -7 -89 -23 -189 -36 -16 -2 -123 -5 -236 -7
-114 -3 -214 -9 -225 -15 -11 -5 -31 -8 -45 -5 -20 4 -31 -2 -48 -22 -11 -15
-21 -36 -21 -46 0 -34 36 -42 169 -37 115 4 131 7 179 32 43 23 68 29 133 31
47 2 82 -2 86 -8 9 -14 -32 -45 -76 -57 -21 -5 -57 -23 -79 -40 -23 -16 -46
-30 -52 -30 -5 0 -10 -6 -10 -14 0 -20 -19 -31 -32 -18 -10 10 -47 -5 -158
-62 -25 -13 -68 -31 -97 -40 -28 -9 -63 -28 -78 -42 -14 -13 -50 -39 -78 -58
-84 -54 -183 -164 -226 -250 -12 -25 -26 -48 -30 -51 -13 -7 -80 130 -93 188
-6 29 -14 97 -18 152 -5 55 -13 143 -20 195 -13 107 -8 366 10 560 7 69 13
181 15 250 1 69 7 174 13 233 5 60 8 116 5 126 -2 9 1 46 7 81 7 36 16 108 21
160 10 103 12 117 22 170 4 19 11 93 16 163 6 71 15 135 21 142 7 8 12 36 12
62 0 26 6 72 13 100 11 44 11 79 -2 210 -14 150 -11 285 6 308 4 6 14 51 21
100 7 50 21 115 30 145 10 30 20 81 23 112 3 32 12 65 20 73 9 8 23 38 33 67
9 29 20 55 24 58 3 3 19 36 35 74 31 73 93 143 143 160 15 5 33 15 40 23 17
17 21 17 68 -6z m-451 -1 c7 -11 -42 -26 -53 -16 -7 8 17 26 35 26 6 0 15 -4
18 -10z m3020 -160 c25 -39 45 -74 45 -78 0 -4 9 -16 21 -25 11 -10 19 -26 17
-35 -3 -13 -14 -17 -51 -15 -67 2 -74 11 -69 82 3 42 0 69 -12 92 -18 37 -20
49 -6 49 5 0 29 -32 55 -70z m194 9 c12 -22 21 -46 21 -54 0 -7 11 -26 24 -42
13 -16 26 -49 30 -77 8 -53 -3 -56 -29 -6 -8 16 -31 46 -50 67 -27 29 -35 47
-35 76 0 21 -5 47 -10 58 -6 11 -8 24 -5 30 10 15 30 -5 54 -52z m-3039 31 c0
-5 -5 -10 -11 -10 -5 0 -7 5 -4 10 3 6 8 10 11 10 2 0 4 -4 4 -10z m1440 -142
c8 0 33 -4 55 -8 50 -10 355 -23 532 -22 104 1 134 -2 143 -13 7 -8 9 -15 4
-16 -61 -5 -714 10 -749 17 -57 11 -135 38 -135 46 0 5 30 6 68 2 37 -3 74 -6
82 -6z m-297 -97 c6 -6 31 -11 57 -11 25 0 54 -7 64 -15 11 -8 31 -15 45 -15
14 0 50 -9 79 -20 29 -11 57 -18 62 -15 5 3 46 6 92 6 46 1 88 5 94 10 17 14
191 16 205 2 11 -11 -40 -50 -198 -150 -37 -24 -42 -32 -48 -75 -4 -27 -18
-69 -31 -94 -13 -25 -24 -58 -24 -73 0 -16 -10 -37 -24 -50 l-23 -22 -34 28
c-19 15 -38 33 -42 40 -9 15 -70 88 -130 156 -23 27 -55 55 -72 64 -16 8 -43
28 -60 43 -114 105 -153 139 -172 149 -31 16 -29 28 10 45 36 16 133 14 150
-3z m1711 -2 c16 -5 32 -6 36 -4 4 3 20 -2 36 -9 16 -8 55 -17 86 -21 55 -6
90 -26 69 -39 -11 -7 -204 10 -265 24 -53 12 -64 25 -41 50 11 12 25 18 34 14
9 -3 29 -10 45 -15z m-303 -60 c11 -22 2 -46 -22 -60 -11 -5 -19 -19 -19 -30
0 -31 -21 -18 -58 35 -40 60 -32 75 39 74 37 -1 53 -6 60 -19z m-504 -10 c18
-18 0 -60 -65 -146 -70 -92 -125 -130 -187 -129 -37 1 -42 4 -62 45 -26 51
-20 72 30 97 18 9 34 20 37 23 8 10 86 53 120 66 8 3 33 17 55 30 45 28 56 30
72 14z m333 -58 c32 -33 62 -70 65 -83 4 -12 32 -48 62 -79 34 -36 51 -62 48
-72 -10 -25 -109 -36 -158 -18 -27 11 -114 134 -152 216 -38 85 -35 95 33 95
41 0 49 -5 102 -59z m-1588 3 c156 -59 381 -180 386 -207 5 -23 -21 -21 -42 2
-11 12 -35 20 -70 23 -28 2 -72 14 -97 26 -58 28 -159 40 -159 18 0 -8 19 -24
43 -34 23 -10 61 -35 83 -54 23 -19 55 -40 70 -45 116 -43 143 -52 172 -58 18
-4 45 -17 61 -30 15 -13 61 -43 102 -65 76 -43 161 -104 168 -123 2 -6 -3 -7
-15 -2 -11 4 -36 11 -58 16 -21 5 -51 16 -66 24 -15 8 -40 16 -54 19 -38 7
-99 27 -111 37 -6 4 -20 8 -30 7 -11 0 -50 9 -88 21 -37 13 -88 23 -115 24
-41 2 -47 -1 -47 -18 0 -15 14 -25 60 -42 33 -12 72 -22 87 -22 15 -1 30 -5
33 -11 3 -5 17 -10 30 -10 13 0 27 -5 30 -10 4 -6 10 -8 15 -5 5 3 37 -6 71
-20 34 -14 66 -25 71 -25 4 0 39 -15 78 -32 74 -35 97 -66 38 -52 -95 23 -323
-10 -323 -46 0 -12 19 -15 110 -15 122 0 213 -11 262 -32 29 -11 33 -18 31
-46 -3 -29 0 -32 28 -35 19 -2 38 3 47 12 26 26 65 18 128 -25 81 -57 78 -69
-16 -69 -41 0 -96 -5 -122 -11 -122 -28 -142 -39 -123 -68 7 -13 34 -15 280
-26 63 -3 121 -7 128 -10 24 -9 1 -25 -36 -25 -42 0 -122 -37 -171 -80 -18
-17 -42 -30 -51 -30 -10 0 -37 -16 -60 -35 -24 -20 -54 -45 -68 -56 -19 -15
-26 -30 -27 -57 -1 -23 -21 -77 -53 -142 -58 -118 -76 -145 -90 -136 -11 7 19
127 50 198 20 46 19 86 -2 73 -5 -3 -35 -58 -65 -121 -31 -62 -60 -114 -66
-114 -20 0 -8 80 21 141 16 35 34 87 40 114 6 28 13 62 16 78 12 51 -50 18
-70 -38 -7 -19 -8 -19 -24 3 -23 30 -40 16 -71 -58 -13 -30 -30 -68 -38 -83
-8 -15 -21 -39 -28 -53 -12 -24 -13 -22 -17 41 -2 40 1 70 8 76 6 5 16 35 23
66 7 32 21 88 32 125 24 78 22 113 -6 113 -13 0 -22 -10 -28 -30 -5 -16 -18
-57 -29 -90 -12 -33 -25 -87 -30 -120 -5 -33 -11 -77 -14 -97 -3 -20 -14 -44
-25 -53 -17 -16 -18 -16 -23 6 -9 42 -10 53 -2 99 4 25 9 73 11 105 2 33 8 80
14 105 16 70 14 130 -5 137 -23 8 -32 -12 -39 -87 -4 -36 -13 -78 -21 -94 -8
-16 -14 -39 -14 -52 0 -30 -21 -75 -31 -68 -12 7 -11 73 1 126 5 24 16 97 25
163 9 66 21 138 26 161 11 43 -3 124 -21 124 -11 0 -12 -4 -35 -145 -9 -55
-25 -136 -35 -180 -11 -44 -22 -98 -25 -120 -3 -22 -11 -62 -17 -89 -10 -45
-12 -48 -24 -31 -8 10 -14 36 -14 58 0 21 -4 46 -10 56 -13 24 41 351 74 451
30 90 34 143 9 138 -45 -9 -114 -260 -142 -513 -8 -76 -25 -78 -29 -2 l-3 58
-32 -3 c-26 -2 -33 -8 -35 -28 -2 -14 -7 -28 -11 -32 -10 -11 -2 160 10 215 6
26 9 50 6 53 -7 7 40 173 53 189 5 6 13 34 16 61 l5 49 -26 -30 c-14 -16 -28
-41 -32 -55 -11 -43 -44 -110 -53 -110 -21 0 -8 90 26 185 20 55 38 115 41
133 5 29 3 33 -13 30 -20 -3 -93 -137 -94 -171 0 -10 -8 -32 -17 -50 -16 -30
-18 -31 -21 -9 -3 22 12 114 45 269 8 40 12 76 9 82 -3 5 1 35 9 67 12 47 25
68 67 111 67 66 104 76 180 47z m1848 1 c0 -8 -15 -32 -34 -53 -30 -32 -35
-35 -42 -19 -5 13 3 28 27 53 36 37 49 42 49 19z m240 -5 c8 -15 7 -26 -6 -45
-19 -29 -30 -26 -37 12 -9 51 21 74 43 33z m126 -10 c25 -10 26 -13 20 -63 -7
-51 -20 -77 -32 -64 -3 3 -17 35 -29 71 -22 62 -22 66 -5 66 10 0 31 -5 46
-10z m-266 -17 c-1 -25 -84 -118 -98 -109 -16 9 4 52 42 94 33 35 56 42 56 15z
m367 -160 c-3 -27 -9 -73 -12 -104 -7 -55 -19 -88 -29 -78 -12 12 -19 151 -8
172 5 12 13 30 16 40 3 9 13 17 22 17 14 0 16 -8 11 -47z m-159 12 c6 -14 12
-67 13 -118 1 -83 -2 -97 -28 -147 l-28 -54 -7 64 c-17 154 -17 193 4 238 23
49 30 51 46 17z m-218 -64 c0 -4 -22 -27 -50 -50 -61 -51 -68 -32 -10 28 36
37 60 46 60 22z m-715 -63 c-3 -35 -12 -119 -20 -188 -7 -69 -19 -175 -26
-237 -7 -62 -16 -118 -20 -124 -7 -13 -177 155 -200 198 -13 24 -12 28 51 168
15 33 33 77 40 98 11 34 34 57 45 45 3 -2 0 -20 -6 -39 -11 -39 -39 -178 -39
-196 0 -7 4 -13 9 -13 9 0 71 146 71 167 0 7 11 36 24 65 14 29 31 68 38 86
22 56 39 41 33 -30z m283 11 c30 -33 42 -55 42 -76 0 -17 8 -38 19 -47 18 -16
19 -30 15 -209 -6 -263 -8 -287 -23 -329 -10 -30 -18 -38 -37 -38 -25 0 -63
31 -65 53 -6 58 -4 206 2 224 5 12 4 35 -2 50 -5 17 -6 47 -1 73 4 25 4 83 0
130 -10 115 -14 211 -9 216 7 7 15 1 59 -47z m-623 -36 c-4 -32 -10 -64 -14
-71 -11 -19 -1 -72 13 -72 12 0 46 35 46 48 1 13 57 82 62 76 3 -3 -8 -42 -24
-87 -17 -45 -35 -97 -41 -114 -6 -18 -16 -33 -22 -33 -6 0 -27 17 -47 38 -19
20 -51 50 -71 65 -39 29 -47 56 -22 77 8 7 15 18 15 25 0 14 90 105 104 105 4
0 5 -26 1 -57z m1495 7 c0 -5 -6 -29 -14 -52 -17 -51 -30 -117 -28 -138 3 -23
-15 -47 -27 -35 -6 6 -6 26 0 55 6 25 14 65 18 90 4 25 13 55 19 68 13 22 32
30 32 12z m-416 -19 c3 -5 -14 -29 -39 -54 -25 -26 -45 -50 -45 -56 0 -8 -23
-24 -113 -78 -21 -12 -44 -29 -52 -37 -17 -17 -20 -52 -5 -61 10 -6 123 69
154 104 11 12 25 21 31 21 7 0 29 20 49 45 41 49 73 61 62 23 -3 -13 -6 -28
-6 -35 0 -11 -69 -83 -139 -146 -16 -13 -55 -41 -87 -62 -32 -20 -64 -44 -71
-52 -24 -30 -34 -3 -28 77 5 80 11 107 29 126 6 6 26 28 44 48 18 20 37 36 42
36 6 0 29 17 53 39 38 35 92 70 109 71 4 0 9 -4 12 -9z m-154 -6 c0 -12 -46
-52 -82 -73 -30 -17 -39 -18 -48 -8 -7 10 -5 20 10 37 10 13 19 21 20 17 0 -3
17 2 38 12 37 19 62 25 62 15z m-451 -27 c5 -13 7 -54 5 -93 -2 -38 -4 -164
-4 -278 -2 -234 2 -225 -78 -210 l-47 9 2 44 c3 46 8 82 39 230 9 47 20 119
24 160 7 82 28 160 42 160 5 0 12 -10 17 -22z m1098 -75 c-11 -77 -35 -192
-45 -210 -18 -31 -31 23 -21 82 16 87 34 160 43 173 15 24 29 -4 23 -45z
m-257 -86 c0 -27 -32 -130 -53 -170 -12 -23 -16 -25 -27 -13 -15 20 -6 60 32
142 31 66 48 81 48 41z m341 -19 c11 -20 8 -79 -8 -159 -6 -31 -5 -33 10 -20
9 7 17 24 17 37 0 61 50 29 60 -38 l7 -43 11 28 c13 30 36 36 46 11 3 -9 6
-42 6 -75 0 -67 19 -80 42 -29 15 36 38 40 38 7 0 -43 -30 -127 -45 -127 -14
0 -19 11 -16 37 1 7 -8 17 -19 23 -35 19 -204 150 -213 165 -10 19 9 158 25
185 16 26 25 25 39 -2z m-533 -45 c2 -25 -2 -45 -10 -52 -60 -48 -91 -72 -140
-110 -32 -24 -58 -47 -58 -52 0 -31 145 37 175 81 22 32 35 38 35 16 0 -27
-12 -46 -30 -46 -10 0 -21 -8 -25 -19 -3 -10 -37 -42 -75 -70 -38 -29 -72 -56
-76 -62 -10 -17 5 -23 29 -12 84 39 112 43 104 13 -5 -21 8 -26 32 -11 25 16
41 1 41 -39 0 -47 1 -47 -147 -39 -80 4 -117 9 -123 19 -7 11 -11 10 -25 -4
-10 -9 -25 -16 -34 -14 -13 3 -17 18 -19 80 -3 75 -2 77 25 92 15 8 39 33 53
55 16 26 59 66 118 108 51 37 99 78 108 91 21 33 38 23 42 -25z m261 -74 c9
-27 6 -38 -28 -98 -21 -37 -41 -79 -44 -93 -4 -15 -18 -40 -32 -56 -25 -29
-32 -52 -17 -52 11 0 60 50 93 98 17 23 35 39 40 36 10 -6 -24 -71 -48 -90
-16 -14 -38 -73 -29 -81 3 -3 35 22 72 56 52 49 72 61 92 59 21 -2 28 -9 30
-30 3 -23 -3 -30 -37 -48 -23 -11 -47 -29 -53 -40 -7 -11 -18 -20 -24 -20 -6
0 -21 -11 -34 -25 -28 -30 -51 -32 -75 -5 -10 11 -26 20 -37 20 -16 0 -18 9
-18 79 0 75 11 129 29 141 5 3 19 25 31 50 13 25 31 56 41 69 11 13 19 32 19
42 0 29 17 22 29 -12z m147 -110 c3 -6 34 -29 68 -50 100 -64 109 -71 163
-128 47 -48 58 -71 34 -71 -4 0 -21 11 -37 25 -16 14 -60 44 -99 68 -71 43
-175 135 -175 156 0 14 37 14 46 0z m1242 -15 c36 -10 218 -291 200 -310 -10
-9 -69 27 -93 56 -37 46 -117 125 -144 142 -31 21 -81 24 -81 5 0 -7 11 -28
25 -47 14 -19 25 -37 25 -40 0 -17 -76 -40 -135 -40 -36 0 -65 -4 -65 -8 0 -5
14 -18 30 -30 60 -45 27 -67 -75 -52 -33 4 -75 16 -92 25 -28 14 -31 20 -23
35 6 10 10 33 10 50 0 50 66 113 153 146 40 15 76 31 82 36 5 4 19 8 31 8 12
0 27 7 34 15 13 15 75 20 118 9z m175 -44 c73 -42 101 -65 93 -78 -19 -31
-155 52 -156 96 0 17 4 16 63 -18z m-879 -40 c25 -10 46 -26 46 -34 0 -20 -57
-66 -81 -66 -11 0 -29 -4 -39 -10 -48 -26 -63 20 -33 98 18 49 22 49 107 12z
m-3228 -17 c-11 -11 -19 6 -11 24 8 17 8 17 12 0 3 -10 2 -21 -1 -24z m3484
-13 c0 -18 -30 -84 -47 -102 -9 -11 -30 -18 -50 -18 -35 0 -93 24 -93 38 0 20
64 72 89 72 14 0 33 5 41 10 20 13 60 13 60 0z m-3482 -34 c2 -9 -2 -24 -9
-32 -17 -21 -33 -2 -25 31 7 28 29 29 34 1z m2768 -39 c15 -13 24 -29 20 -35
-6 -11 -163 -92 -178 -92 -4 0 6 29 24 64 43 87 83 106 134 63z m-2766 -57 c0
-5 -7 -10 -15 -10 -8 0 -15 5 -15 10 0 6 7 10 15 10 8 0 15 -4 15 -10z m1608
-32 c3 -16 -77 -68 -103 -68 -8 0 -26 -11 -42 -24 -17 -14 -48 -26 -79 -30
-43 -5 -53 -3 -69 14 -27 30 -49 26 -41 -7 8 -33 62 -83 89 -83 10 0 32 -9 48
-20 34 -25 56 -17 90 32 35 50 61 72 121 101 31 15 61 34 68 42 26 31 117 10
125 -29 3 -12 6 -83 7 -159 3 -124 5 -140 22 -153 29 -21 54 -17 86 14 l28 27
-16 77 c-13 64 -14 84 -4 110 11 29 10 36 -8 61 -16 21 -19 35 -14 63 6 33 9
35 33 30 44 -11 162 -25 242 -29 108 -6 112 -10 134 -114 10 -48 22 -117 26
-153 17 -155 54 -289 113 -408 45 -91 45 -102 4 -102 -18 0 -58 -7 -88 -15
-32 -8 -58 -11 -64 -5 -5 5 -3 35 4 74 14 77 14 80 2 84 -4 1 -14 -8 -20 -20
-17 -33 -74 -102 -150 -182 -57 -61 -64 -66 -58 -40 4 16 14 43 23 59 14 29
61 164 98 287 20 65 15 91 -16 86 -17 -2 -26 -18 -43 -79 -12 -43 -30 -88 -39
-103 -9 -14 -17 -34 -17 -44 0 -10 -4 -22 -9 -27 -5 -6 -14 -37 -20 -70 -8
-40 -19 -68 -36 -84 -13 -14 -27 -22 -30 -19 -10 9 15 99 41 151 49 99 57 254
9 181 -18 -28 -21 -37 -49 -146 -9 -37 -27 -72 -50 -100 -20 -23 -36 -44 -36
-48 0 -11 -59 -50 -64 -42 -3 5 12 35 33 68 67 107 61 172 -9 93 -55 -62 -61
-33 -15 65 34 73 43 131 20 131 -9 0 -46 -64 -104 -181 -11 -22 -34 -58 -51
-79 -16 -21 -30 -42 -30 -46 0 -11 -27 -12 -34 -1 -9 16 25 95 49 114 14 11
25 26 25 35 0 9 8 30 19 47 10 17 22 49 26 71 4 22 10 45 14 50 15 20 34 94
28 109 -15 39 -67 -3 -67 -54 0 -14 -10 -50 -21 -80 -12 -30 -24 -73 -28 -95
-4 -27 -12 -41 -24 -43 -26 -5 -31 23 -13 79 21 64 16 82 -20 73 -25 -6 -27
-5 -20 17 20 70 19 79 -3 79 -21 0 -38 -25 -77 -112 -9 -21 -21 -38 -26 -38
-13 0 -10 17 13 65 26 54 31 138 9 142 -20 4 -71 -78 -77 -125 -6 -42 -63
-121 -63 -87 0 11 9 35 20 53 25 41 26 65 3 60 -11 -2 -19 -14 -21 -29 -3 -27
-47 -77 -58 -66 -4 3 4 22 15 41 15 24 21 48 19 73 -3 42 -25 52 -43 18 -22
-43 -96 -145 -105 -145 -10 0 25 76 79 173 15 26 15 29 -3 42 -17 13 -23 13
-40 2 -11 -8 -23 -20 -26 -28 -41 -88 -96 -169 -115 -169 -15 0 12 58 37 82
26 24 28 32 22 65 -4 21 -8 39 -9 41 -2 2 -17 -16 -34 -40 -17 -24 -42 -56
-56 -73 -21 -26 -25 -27 -25 -10 1 11 7 29 15 39 8 11 15 30 15 42 0 13 5 26
10 29 16 10 12 52 -6 59 -22 8 -31 0 -39 -33 -7 -34 -62 -121 -76 -121 -5 0
-7 11 -3 24 8 33 -13 42 -40 17 -49 -46 -49 -9 -1 55 19 25 35 51 35 58 0 7
14 30 30 51 17 21 30 44 30 52 0 16 42 84 61 99 8 6 29 14 46 17 18 4 50 18
71 32 47 31 175 74 222 75 43 0 56 8 69 42 10 26 11 26 53 14 24 -7 44 -20 46
-28z m-1663 22 c-3 -5 -10 -10 -16 -10 -5 0 -9 5 -9 10 0 6 7 10 16 10 8 0 12
-4 9 -10z m3302 -38 c26 -11 82 -30 123 -43 41 -12 79 -26 84 -30 21 -19 -7
-21 -64 -6 -33 10 -70 17 -83 17 -13 0 -29 6 -35 13 -9 8 -54 13 -139 14 -70
1 -131 7 -136 12 -14 14 9 39 41 45 52 9 161 -3 209 -22z m711 -12 c23 -17 42
-37 42 -46 0 -9 -13 -33 -28 -53 -16 -20 -40 -66 -53 -103 -19 -55 -21 -70
-11 -92 6 -14 16 -26 21 -26 6 0 26 33 45 73 40 84 108 164 114 133 2 -10 -5
-30 -15 -45 -23 -31 -59 -123 -67 -170 -9 -52 -20 -60 -69 -50 -23 4 -69 8
-102 9 -33 0 -78 7 -100 14 -39 14 -40 16 -38 59 1 49 5 58 71 165 39 63 126
162 143 162 3 0 25 -14 47 -30z m-1040 -2 c7 -7 12 -23 12 -36 0 -23 2 -23 83
-21 79 2 192 -13 226 -31 25 -12 109 -29 186 -35 85 -8 137 -23 132 -38 -2 -7
-21 -11 -43 -10 -35 3 -73 10 -228 45 -66 14 -112 16 -230 6 -102 -8 -126 -17
-126 -48 0 -18 44 -32 105 -34 11 -1 36 -11 56 -23 20 -13 43 -23 51 -23 9 0
21 -6 27 -14 6 -8 25 -19 41 -26 33 -14 41 -40 13 -40 -10 0 -31 9 -48 20 -16
11 -36 20 -44 20 -8 0 -22 6 -30 13 -26 21 -124 49 -161 45 -31 -3 -35 -6 -38
-35 -3 -29 0 -33 22 -33 46 0 159 -31 188 -51 41 -30 38 -66 -7 -85 -59 -24
-66 -20 -63 34 l3 47 -44 3 c-28 2 -49 -2 -60 -12 -18 -17 -61 -20 -165 -12
-38 3 -89 0 -115 -5 -94 -21 -195 -4 -205 35 -12 52 -16 152 -7 166 9 13 14
13 42 -2 48 -28 74 -23 99 17 13 21 42 46 69 60 25 13 55 35 65 49 10 14 26
26 35 26 9 1 32 9 51 20 40 22 90 26 108 8z m-2887 -78 c55 -56 59 -64 69
-127 39 -250 52 -324 70 -393 5 -19 16 -73 25 -120 14 -78 58 -221 75 -245 4
-5 13 -28 20 -49 7 -21 28 -71 48 -110 58 -118 102 -218 102 -232 0 -10 -9 -8
-35 7 -35 21 -95 85 -95 102 0 5 -11 20 -25 35 -60 64 -103 126 -109 156 -4
17 -22 65 -40 106 -36 79 -76 212 -76 251 0 37 -21 142 -35 174 -12 29 -35
199 -35 262 0 18 -7 58 -15 90 -15 56 -21 153 -9 153 3 0 32 -27 65 -60z
m5543 -1 c11 -10 8 -11 -104 -40 -112 -29 -202 -77 -264 -141 -35 -36 -55 -82
-42 -96 9 -8 36 9 130 81 41 31 77 57 81 57 3 0 27 14 52 31 52 36 123 51 123
26 0 -16 -32 -40 -47 -35 -14 5 -77 -25 -114 -54 -20 -15 -40 -28 -44 -28 -4
0 -32 -22 -63 -50 -31 -27 -59 -50 -64 -50 -4 0 -28 -30 -53 -67 l-45 -68 0
35 c0 19 7 44 15 54 27 36 16 73 -13 44 -28 -28 -24 8 8 68 38 71 147 194 172
194 9 0 21 7 28 15 7 8 24 15 39 15 14 1 49 7 76 15 49 13 111 11 129 -6z
m-1914 -59 c0 -11 -4 -20 -10 -20 -5 0 -10 2 -10 4 0 2 -3 11 -6 20 -4 11 -1
16 10 16 9 0 16 -8 16 -20z m-380 -82 c15 -10 65 -98 55 -98 -10 0 -60 34 -68
46 -4 7 -23 22 -42 34 -19 12 -32 26 -29 31 6 11 59 2 84 -13z m176 -13 c27
-8 66 -15 86 -15 72 0 81 -16 52 -90 -23 -58 -57 -64 -98 -18 -17 19 -48 47
-68 62 -26 19 -38 35 -38 52 0 28 2 29 66 9z m2094 -29 c0 -7 -30 -28 -67 -47
-36 -18 -78 -43 -92 -54 -14 -11 -42 -31 -62 -45 -33 -22 -57 -48 -125 -138
-12 -15 -32 -48 -44 -74 -12 -26 -37 -62 -56 -82 -19 -19 -34 -37 -34 -41 0
-3 -7 -13 -16 -22 -34 -38 -96 -128 -109 -160 -16 -37 -45 -45 -45 -12 0 12
11 43 25 71 14 27 25 55 25 61 0 6 35 45 78 87 54 52 87 94 104 131 16 36 42
69 72 94 25 20 49 47 52 59 5 19 67 69 190 150 68 45 104 53 104 22z m-2146
-93 c35 -37 49 -79 24 -71 -15 5 -78 85 -78 99 0 18 20 8 54 -28z m-3164 3 c0
-13 -20 -26 -41 -26 -14 0 -11 28 4 33 23 10 37 7 37 -7z m5305 -51 c0 -23 -8
-32 -55 -56 -58 -31 -100 -63 -152 -116 -31 -32 -68 -44 -68 -23 0 55 105 155
225 214 39 20 50 15 50 -19z m-2197 -20 c7 -14 12 -31 12 -38 0 -20 -183 -122
-200 -112 -5 3 -17 -6 -26 -20 -17 -26 -43 -34 -45 -12 -1 6 -2 19 -3 27 -4
43 17 66 112 122 110 64 134 70 150 33z m-2988 5 c0 -6 -10 -18 -22 -28 -12
-9 -33 -29 -47 -44 -26 -29 -61 -38 -61 -15 0 19 11 31 59 65 44 32 71 40 71
22z m2184 -45 c8 -9 13 -21 11 -28 -2 -7 -6 -24 -9 -39 -4 -16 -12 -28 -19
-28 -15 0 -44 69 -39 93 4 21 35 22 56 2z m-2119 -15 c10 -31 -2 -54 -37 -75
-18 -10 -46 -31 -61 -47 -35 -34 -55 -36 -63 -4 -7 29 1 46 21 46 8 0 18 6 22
14 10 18 92 86 103 86 5 0 12 -9 15 -20z m3425 4 c81 -3 115 -7 200 -18 76
-10 154 -16 300 -21 69 -2 166 -10 215 -16 50 -6 124 -13 165 -16 41 -2 79 -9
85 -14 5 -5 21 -9 35 -9 14 0 35 -7 46 -15 18 -14 17 -16 -34 -65 -89 -87
-132 -147 -133 -188 -1 -75 -4 -77 -125 -79 -60 -2 -116 -3 -124 -3 -71 -2
-491 20 -501 26 -4 2 -114 6 -244 9 -346 7 -679 26 -693 40 -3 2 -2 14 2 27 5
20 40 53 167 158 47 38 170 103 239 125 30 10 63 25 74 34 31 27 96 40 176 34
41 -2 109 -7 150 -9z m-1003 -66 c-4 -57 -21 -137 -48 -224 -5 -17 -9 -37 -9
-46 0 -17 -27 -44 -36 -36 -2 3 0 17 6 32 5 15 14 50 19 79 5 29 16 78 25 110
9 32 16 78 16 102 0 35 4 45 16 45 14 0 15 -10 11 -62z m-96 15 c3 -55 -2 -99
-22 -171 -10 -40 -19 -81 -19 -91 0 -19 -26 -48 -35 -39 -10 10 -7 75 9 188
21 141 21 140 46 140 15 0 20 -7 21 -27z m-125 -67 c-4 -31 -12 -54 -17 -51
-10 7 -12 108 -2 118 16 17 25 -15 19 -67z m389 35 c7 -24 -5 -79 -39 -166
-15 -38 -32 -82 -38 -97 -6 -16 -14 -28 -19 -28 -19 0 4 117 32 165 4 6 12 40
19 78 12 67 32 88 45 48z m2572 -5 c14 -13 -19 -49 -138 -154 -75 -67 -132
-126 -142 -148 -21 -42 -96 -144 -183 -247 -34 -40 -76 -96 -94 -125 -35 -57
-56 -68 -47 -24 4 15 10 48 15 74 13 72 109 254 161 307 14 14 45 41 69 60 31
24 41 38 36 50 -23 54 -19 60 37 63 56 3 65 11 103 93 14 30 40 49 81 59 24 6
94 0 102 -8z m-2660 -49 c-6 -60 -35 -154 -50 -164 -12 -7 -4 52 20 150 21 80
38 89 30 14z m-2189 -17 c23 -11 42 -24 42 -29 0 -6 -13 -26 -30 -44 -16 -19
-30 -39 -30 -44 0 -17 -50 -57 -59 -47 -5 5 -13 49 -20 98 -12 103 -4 128 33
101 12 -8 40 -24 64 -35z m-315 3 c6 -34 -6 -60 -47 -95 -36 -31 -49 -34 -69
-14 -26 26 -9 64 47 102 28 19 54 34 57 34 4 0 9 -12 12 -27z m1084 1 c2 -5
-3 -19 -11 -29 -14 -19 -15 -19 -21 -2 -4 9 -4 24 -1 33 6 16 27 15 33 -2z
m-587 -3 c0 -15 -60 -124 -80 -146 -10 -11 -34 -45 -53 -75 -19 -30 -51 -70
-71 -89 -29 -28 -36 -31 -41 -18 -9 21 17 73 60 122 19 22 65 79 101 128 62
80 84 101 84 78z m4092 -38 c-1 -8 -24 -38 -69 -89 -13 -14 -23 -30 -23 -36 0
-6 -18 -28 -41 -50 -47 -46 -68 -40 -40 12 10 19 23 51 30 70 11 34 19 41 88
74 17 9 35 21 38 27 7 11 17 7 17 -8z m-4439 -37 c3 -8 2 -61 -2 -118 -11
-140 1 -325 29 -456 6 -30 9 -63 7 -75 -3 -21 -4 -21 -14 4 -6 14 -14 41 -17
60 -3 19 -8 45 -12 59 -14 57 -23 118 -23 157 -1 29 -6 45 -18 52 -10 6 -13
11 -7 11 7 0 13 50 17 143 3 78 9 150 12 160 9 21 21 22 28 3z m427 0 c0 -8
-4 -18 -10 -21 -5 -3 -10 -14 -10 -24 0 -9 -16 -36 -35 -58 -19 -23 -35 -46
-35 -52 0 -6 -17 -30 -39 -54 -21 -23 -44 -54 -52 -68 -22 -42 -113 -148 -126
-148 -21 -1 -15 36 12 67 14 17 25 33 25 37 0 3 15 26 33 50 17 24 43 60 57
80 14 19 33 46 44 58 10 12 32 42 49 67 39 57 59 79 75 79 6 1 12 -5 12 -13z
m151 -12 c19 -10 42 -24 51 -32 14 -12 21 -12 32 -2 10 8 29 10 56 5 33 -6 40
-11 40 -30 0 -26 -45 -85 -64 -85 -7 0 -22 21 -35 46 -34 72 -47 45 -26 -57
28 -139 144 -341 282 -489 24 -25 43 -48 43 -52 0 -3 12 -21 26 -38 15 -17 24
-34 20 -37 -15 -15 -169 71 -241 134 -51 45 -146 232 -171 335 -9 40 -32 100
-51 132 -30 51 -53 127 -53 172 0 19 49 18 91 -2z m4009 -52 c0 -11 -8 -26
-17 -35 -24 -22 -108 -141 -144 -204 -43 -77 -65 -66 -36 17 18 54 78 135 155
212 32 33 42 35 42 10z m-4737 -68 c4 -27 8 -62 9 -79 0 -16 7 -69 15 -116 8
-47 13 -97 11 -110 -2 -20 -6 -15 -21 26 -11 28 -25 64 -32 80 -7 17 -19 50
-26 75 -7 25 -19 53 -27 63 -9 9 -16 36 -16 59 -1 39 1 43 29 49 45 10 49 6
58 -47z m977 -25 c0 -6 -9 -31 -19 -57 -11 -26 -22 -55 -25 -64 -7 -24 -23
-23 -37 4 -10 18 -7 30 16 75 19 35 35 53 47 53 10 0 18 -5 18 -11z m-372 -25
c1 -10 -11 -33 -28 -51 -16 -18 -30 -35 -30 -39 0 -3 -12 -23 -27 -43 -16 -20
-32 -43 -38 -52 -39 -65 -97 -140 -132 -174 -24 -23 -43 -49 -43 -58 0 -27 14
-20 51 24 19 23 57 64 85 93 28 28 64 69 80 91 42 57 76 95 86 95 45 0 -44
-150 -156 -263 -44 -45 -88 -93 -96 -106 -12 -17 -26 -24 -55 -25 l-40 -1 -3
76 -3 77 101 102 c55 56 100 108 100 116 0 7 18 32 41 56 22 23 49 57 61 76
22 35 41 38 46 6z m1448 -6 c-3 -18 -10 -60 -16 -93 -27 -161 -40 -225 -55
-280 -9 -33 -25 -107 -36 -165 -46 -256 -71 -318 -114 -286 -15 11 -17 17 -8
27 18 22 36 136 30 188 -3 27 -1 53 4 58 5 5 12 50 16 99 3 49 9 94 14 99 13
17 39 128 60 258 7 43 18 77 24 77 6 0 22 11 35 25 34 36 54 33 46 -7z m96 1
c6 -17 -19 -201 -41 -314 -6 -27 -17 -81 -24 -120 -8 -38 -21 -87 -30 -108 -9
-20 -21 -62 -26 -93 -11 -56 -27 -88 -40 -79 -12 7 16 165 49 280 7 22 16 76
22 120 5 44 16 109 25 145 8 36 17 91 20 123 4 47 8 57 23 57 10 0 20 -5 22
-11z m-1052 -24 c10 -12 9 -19 -4 -37 -9 -13 -35 -51 -58 -86 -34 -52 -43 -60
-55 -50 -16 13 -14 29 9 112 11 42 18 51 48 62 46 16 46 16 60 -1z m148 -27
c2 -10 -23 -50 -57 -93 -34 -41 -61 -79 -61 -84 0 -5 -7 -11 -15 -15 -8 -3
-20 -16 -26 -30 -14 -29 -45 -40 -53 -19 -6 16 15 56 69 130 16 23 43 62 59
88 23 38 33 46 55 43 15 -2 27 -10 29 -20z m994 -63 c-2 -33 -10 -89 -19 -125
-8 -36 -19 -87 -23 -115 -24 -135 -34 -172 -53 -192 -11 -13 -24 -23 -29 -23
-13 0 -9 66 6 107 8 21 19 65 26 98 7 33 19 74 26 91 7 17 16 64 19 105 9 106
13 121 33 117 14 -3 16 -13 14 -63z m-765 34 c15 -5 40 -22 55 -36 27 -26 64
-29 111 -8 28 12 20 -14 -18 -56 -35 -40 -46 -79 -22 -79 8 0 34 23 58 51 85
99 119 131 133 126 10 -4 12 -15 6 -47 -6 -34 -21 -53 -86 -115 -44 -42 -95
-84 -114 -94 -25 -13 -36 -26 -38 -45 -3 -25 -1 -27 20 -21 33 11 110 70 170
133 34 35 62 41 72 16 10 -27 7 -32 -41 -69 -25 -19 -61 -57 -79 -83 -17 -26
-41 -55 -53 -64 -20 -17 -28 -38 -15 -38 10 0 112 69 119 80 10 16 35 12 35
-6 0 -24 -211 -232 -240 -236 -14 -1 -26 -11 -28 -20 -6 -29 30 -21 74 15 21
19 50 40 63 47 13 7 51 32 84 56 60 44 77 48 77 15 0 -18 -184 -191 -203 -191
-13 0 -57 -40 -57 -52 0 -4 7 -8 15 -8 17 0 137 64 181 97 30 23 44 22 44 -3
0 -7 -28 -39 -62 -71 -88 -82 -118 -116 -118 -130 0 -27 45 -8 95 38 16 16 35
29 41 29 29 0 23 -307 -6 -359 -8 -14 -9 -14 -16 4 -27 78 -88 183 -144 249
-125 148 -149 172 -177 180 -26 8 -33 16 -38 45 -6 40 6 196 30 371 9 63 18
153 20 200 1 47 3 86 4 88 2 5 21 2 48 -9z m837 -95 c-1 -121 -19 -213 -48
-243 -38 -38 -45 -19 -25 66 11 43 24 107 29 143 19 123 21 131 33 127 8 -2
12 -32 11 -93z m531 80 c61 -2 198 -9 305 -14 193 -10 575 -21 865 -26 403 -7
402 -7 376 -37 -10 -13 -66 -15 -414 -11 -221 2 -463 7 -537 10 -128 7 -207 8
-275 6 -69 -2 -270 6 -404 17 -80 6 -158 9 -175 6 -19 -4 -38 -1 -50 8 -16 11
-17 17 -7 36 12 22 16 22 109 16 53 -3 147 -8 207 -11z m-432 -83 c-1 -47 -7
-71 -25 -97 -28 -41 -34 -42 -42 -9 -12 47 28 178 52 173 14 -3 17 -15 15 -67z
m-1163 -23 c0 -20 -32 -85 -49 -98 -3 -3 -19 -24 -35 -48 -30 -43 -42 -48 -59
-20 -7 11 0 30 30 74 43 62 90 114 104 114 5 0 9 -10 9 -22z m1476 -24 c78 -9
138 -11 167 -5 26 4 49 6 52 2 3 -3 95 -6 203 -8 108 -1 269 -5 357 -9 88 -3
198 -7 245 -9 96 -4 537 -6 560 -2 8 1 43 -2 78 -6 55 -7 64 -11 73 -34 20
-54 50 -52 -576 -34 -338 10 -814 20 -1170 25 -239 3 -249 6 -201 63 28 34 46
35 212 17z m-2092 -85 c-9 -18 -44 -65 -78 -105 -47 -56 -67 -72 -88 -73 -18
-1 -28 4 -28 14 0 16 96 131 163 196 37 35 42 38 45 20 2 -11 -4 -34 -14 -52z
m112 -56 c20 -32 52 -76 70 -97 19 -22 34 -45 34 -52 0 -14 -43 -24 -62 -13
-7 4 -31 9 -53 11 -50 5 -56 29 -20 81 30 45 30 47 6 47 -11 0 -36 -23 -61
-55 -42 -55 -75 -70 -86 -40 -4 9 6 32 22 52 16 21 41 57 56 80 15 24 34 43
42 43 9 0 32 -26 52 -57z m502 -56 c3 -60 1 -67 -16 -67 -40 0 -57 56 -27 86
8 9 15 24 15 36 0 11 5 18 13 16 7 -3 13 -29 15 -71z m-2678 -171 c0 -14 4
-36 10 -50 5 -15 12 -43 15 -64 7 -56 26 -236 35 -332 7 -85 52 -266 70 -284
6 -6 10 -20 10 -33 0 -20 -5 -23 -34 -23 -22 0 -45 9 -64 25 -17 14 -34 25
-39 25 -5 0 -26 18 -47 39 -22 22 -60 54 -85 72 -47 32 -161 162 -161 183 0 6
10 29 21 51 12 22 28 60 35 86 8 26 21 52 29 59 8 7 15 18 15 25 0 6 18 29 39
51 22 21 43 55 48 74 5 21 18 39 31 45 12 5 22 13 22 17 0 4 4 18 10 32 12 33
40 34 40 2z m2030 6 c0 -23 -26 -47 -60 -57 -14 -4 -29 -11 -35 -15 -5 -4 -23
-10 -40 -14 -58 -14 -211 -95 -275 -146 -36 -28 -86 -65 -112 -82 -31 -20 -51
-42 -58 -63 -6 -18 -20 -41 -30 -50 -11 -10 -20 -21 -20 -25 0 -4 -23 -44 -50
-90 -28 -46 -56 -102 -62 -124 -7 -23 -17 -50 -24 -61 -6 -11 -19 -43 -28 -71
-18 -56 -42 -105 -72 -150 -62 -91 -104 -200 -104 -269 0 -55 31 -140 63 -173
15 -16 27 -36 27 -45 0 -9 8 -25 18 -35 10 -10 32 -42 51 -71 18 -30 43 -62
54 -72 28 -22 18 -34 -14 -17 -67 36 -119 78 -235 189 -72 68 -96 99 -156 199
-54 89 -78 143 -78 178 0 32 -57 132 -75 132 -28 0 -35 -34 -25 -116 24 -190
24 -183 7 -190 -21 -8 -65 17 -107 61 -19 20 -51 46 -70 57 -70 43 -110 79
-110 101 0 29 21 86 43 120 9 14 17 30 17 35 0 4 20 27 44 51 26 26 47 56 50
75 11 54 67 96 209 155 41 17 47 24 47 50 0 36 5 40 76 51 47 8 64 17 105 55
27 26 70 55 94 66 24 11 47 24 50 29 13 21 102 57 154 64 51 7 111 32 111 47
0 7 97 69 109 69 4 0 18 11 31 25 13 14 28 25 33 25 5 0 25 14 44 30 18 17 42
30 51 30 10 0 26 6 37 14 11 7 61 16 110 19 50 4 104 11 120 16 52 16 85 13
85 -7z m77 -68 c-3 -3 -12 -4 -19 -1 -8 3 -5 6 6 6 11 1 17 -2 13 -5z m-1247
-89 c0 -8 -7 -15 -15 -15 -16 0 -20 12 -8 23 11 12 23 8 23 -8z m-1120 -93 c0
-13 -12 -22 -22 -16 -10 6 -1 24 13 24 5 0 9 -4 9 -8z m28 -372 c12 -12 22
-25 22 -30 0 -6 5 -10 10 -10 6 0 24 -16 41 -35 17 -19 36 -35 41 -35 6 0 21
-10 33 -22 44 -45 91 -84 135 -113 24 -17 60 -47 80 -67 19 -21 41 -38 48 -38
6 0 40 -28 74 -62 35 -35 82 -75 106 -90 50 -32 56 -45 43 -81 -12 -32 -52
-53 -151 -83 -78 -23 -240 -78 -275 -94 -11 -5 -35 -12 -53 -15 -57 -12 -51
28 20 133 40 59 35 79 -35 125 -39 26 -64 52 -78 80 -12 23 -29 51 -39 62 -39
44 -62 143 -64 273 -2 130 2 139 42 102z m3587 -62 c34 -15 33 -27 -15 -133
-38 -82 -50 -113 -50 -127 0 -8 -7 -23 -15 -34 -14 -19 -14 -19 -16 1 -5 62 3
166 15 205 8 25 17 57 20 73 7 29 21 33 61 15z m133 -88 c5 -56 -132 -310
-154 -287 -4 4 7 40 24 80 18 39 32 83 32 95 0 13 9 35 20 49 11 14 20 34 20
45 0 61 53 78 58 18z m150 -127 c73 -46 100 -106 67 -149 -8 -10 -15 -31 -15
-46 0 -35 -31 -99 -44 -95 -6 2 -11 21 -11 43 0 21 -6 49 -13 61 -13 23 -33
181 -25 196 6 10 10 9 41 -10z m-110 -18 c2 -18 -35 -94 -109 -220 -16 -27
-33 -60 -39 -72 -11 -27 -30 -30 -30 -6 0 25 41 146 56 163 7 8 29 48 50 88
26 50 42 72 53 70 9 -2 17 -12 19 -23z m31 -176 c14 -41 14 -62 -1 -77 -7 -7
-38 -61 -68 -120 -32 -60 -62 -107 -70 -107 -8 0 -18 15 -24 33 -10 37 8 87
59 161 33 47 34 49 60 104 10 20 22 37 26 37 4 0 12 -14 18 -31z m229 -26 c2
-11 -4 -40 -13 -64 -9 -24 -26 -74 -38 -111 -22 -67 -50 -99 -69 -80 -15 15 9
104 47 177 17 33 34 71 38 84 7 27 31 24 35 -6z m81 -112 c23 -15 7 -83 -44
-186 -25 -51 -51 -95 -57 -97 -7 -3 -11 -23 -10 -49 1 -32 -4 -51 -19 -68 -18
-22 -22 -23 -35 -9 -12 12 -13 23 -4 63 6 27 16 55 21 61 6 7 7 28 4 47 -5 26
-3 36 9 40 9 4 16 12 16 19 0 7 13 45 29 83 16 39 32 78 35 88 6 18 32 22 55
8z m-279 -47 c0 -20 -11 -54 -25 -78 -27 -47 -25 -76 6 -76 35 0 51 -81 26
-130 -7 -14 -24 -55 -37 -92 -13 -38 -27 -68 -30 -68 -8 0 -40 73 -40 92 0 8
14 42 30 76 17 34 30 73 30 87 0 37 -27 31 -44 -10 -17 -39 -21 -41 -43 -20
-18 18 -11 56 18 96 10 15 19 30 19 34 0 15 34 81 53 103 28 31 37 28 37 -14z
m-3082 -15 c11 -17 19 -20 53 -14 36 6 47 3 87 -25 26 -18 65 -50 87 -70 22
-20 63 -52 90 -71 28 -18 58 -43 68 -56 10 -13 42 -38 70 -57 29 -19 65 -48
81 -65 l29 -30 -27 -11 c-15 -5 -35 -10 -45 -10 -9 0 -22 -5 -27 -10 -17 -17
-114 -15 -189 4 -38 10 -88 18 -110 17 -22 0 -62 8 -90 18 -55 21 -277 71
-312 71 -12 0 -48 11 -79 25 -31 14 -62 25 -68 25 -85 0 -193 100 -123 114 12
3 78 15 147 27 118 21 188 47 231 85 8 8 19 14 23 14 4 0 19 9 33 20 33 26 55
25 71 -1z m3416 -116 c-5 -58 -15 -95 -39 -143 -17 -36 -39 -94 -49 -130 -39
-144 -49 -175 -57 -184 -14 -16 -30 45 -24 93 9 66 58 235 74 256 5 5 12 26
16 45 7 35 38 104 57 128 23 27 29 10 22 -65z m-289 -285 c3 -7 9 -41 15 -75
5 -35 15 -91 20 -125 6 -35 19 -85 29 -113 33 -88 61 -189 61 -221 0 -17 11
-65 24 -105 19 -59 36 -155 41 -221 0 -5 -4 -8 -10 -8 -5 -1 -13 12 -16 28 -3
16 -22 63 -42 103 -21 41 -37 81 -37 90 0 29 -42 143 -61 167 -10 14 -19 39
-19 56 0 17 -7 69 -16 116 -13 66 -23 92 -45 115 -21 22 -29 41 -29 67 0 20 4
40 10 43 5 3 18 26 29 50 20 44 37 57 46 33z m270 -125 c-11 -144 -18 -291
-16 -348 1 -33 -1 -70 -4 -82 -7 -31 -35 -30 -35 1 0 14 -5 37 -11 53 -34 88
-40 284 -10 318 10 11 23 35 30 54 10 30 37 71 48 71 2 0 1 -30 -2 -67z
m-2017 -770 l65 -68 -6 -105 c-8 -141 -49 -291 -86 -314 -12 -8 -44 37 -60 84
-11 29 -24 257 -23 375 1 54 14 95 30 95 8 0 44 -30 80 -67z m902 -51 c0 -10
-4 -22 -8 -27 -5 -6 -15 -37 -22 -70 -8 -33 -20 -71 -27 -85 -7 -14 -13 -34
-13 -46 0 -11 -6 -29 -14 -39 -12 -17 -14 -15 -20 19 -7 38 -5 55 18 116 7 19
21 61 31 93 14 42 23 57 37 57 11 0 18 -7 18 -18z m213 -68 c5 -6 -16 -91 -33
-129 -5 -11 -16 -43 -25 -71 -24 -78 -101 -248 -114 -252 -13 -4 -14 28 -2 60
5 13 26 77 46 143 55 181 103 274 128 249z m117 -438 c0 -19 96 -104 137 -121
33 -14 33 -14 33 -82 0 -51 -5 -76 -21 -102 -13 -22 -19 -46 -17 -70 3 -36 3
-36 -31 -33 -53 6 -66 14 -104 63 -44 58 -59 87 -50 92 5 2 40 1 78 -4 97 -11
125 -11 125 1 0 6 -12 22 -27 36 -16 14 -43 39 -60 56 -25 23 -43 31 -75 33
-56 3 -118 29 -118 51 0 9 10 32 21 51 19 30 26 34 50 29 16 -3 31 -1 34 4 9
15 25 12 25 -4z m-306 -67 c-3 -5 -10 -7 -15 -3 -5 3 -7 10 -3 15 3 5 10 7 15
3 5 -3 7 -10 3 -15z m618 -166 c25 -22 23 -56 -7 -91 -14 -17 -25 -39 -25 -50
0 -11 -6 -25 -14 -32 -12 -9 -21 -7 -45 11 -34 25 -39 39 -16 39 18 0 31 24
40 75 12 65 32 80 67 48z m97 -81 c19 -14 21 -23 15 -60 -6 -38 -9 -42 -34
-42 -32 0 -38 15 -32 78 5 46 17 52 51 24z m123 -64 c13 -7 39 -28 58 -45 l35
-33 -32 0 c-17 0 -35 5 -38 10 -3 6 -15 10 -26 10 -12 0 -23 10 -29 26 -18 47
-11 54 32 32z m-462 -88 c0 -5 -7 -10 -15 -10 -8 0 -15 5 -15 10 0 6 7 10 15
10 8 0 15 -4 15 -10z m-809 -56 c27 -9 52 -20 55 -25 3 -5 13 -9 23 -9 10 0
28 -9 41 -20 13 -11 29 -20 35 -20 7 0 18 -6 24 -14 6 -7 24 -16 39 -20 15 -3
45 -22 66 -41 54 -48 41 -59 -61 -51 -43 4 -166 9 -273 11 -336 8 -350 9 -350
35 0 15 123 71 142 64 13 -4 21 2 27 18 12 33 29 45 84 58 26 7 50 16 53 21 8
13 39 11 95 -7z m1637 -55 c29 -10 66 -19 82 -19 17 0 30 -4 30 -10 0 -5 5
-10 11 -10 6 0 28 -15 49 -32 21 -18 56 -46 79 -62 34 -23 42 -33 39 -55 -2
-21 -11 -28 -43 -37 -110 -31 -138 -34 -210 -19 -38 8 -101 20 -139 26 -40 6
-81 19 -94 30 -14 10 -31 19 -38 19 -7 0 -21 11 -29 24 -9 13 -25 26 -35 29
-24 6 -34 29 -26 61 4 18 21 29 81 50 42 15 84 25 93 22 9 -3 24 -1 32 4 17
11 43 6 118 -21z"/>
<path d="M5386 9343 c-14 -14 -4 -32 27 -52 28 -18 34 -18 47 -6 13 13 11 17
-10 33 -32 22 -57 32 -64 25z"/>
<path d="M4948 8513 c-10 -2 -18 -8 -18 -13 0 -5 -15 -17 -33 -29 -73 -45
-108 -143 -69 -192 18 -21 21 -22 65 -10 40 12 47 18 60 55 9 22 19 57 22 76
4 19 15 48 24 63 15 27 15 29 -3 43 -11 8 -22 13 -25 13 -3 -1 -14 -3 -23 -6z"/>
<path d="M5201 8357 c-33 -49 -67 -171 -58 -209 4 -14 18 -30 33 -37 22 -10
33 -8 68 9 22 11 51 29 64 40 21 17 22 22 11 65 -6 25 -9 68 -6 96 6 46 5 50
-23 64 -44 23 -56 19 -89 -28z"/>
<path d="M3453 6952 c-53 -55 -73 -84 -73 -107 0 -32 9 -32 72 6 29 17 60 34
68 38 19 10 25 48 10 67 -17 20 -57 18 -77 -4z"/>
<path d="M3557 6865 c-33 -13 -80 -44 -106 -68 -26 -24 -52 -46 -58 -48 -12
-4 -16 -21 -14 -51 2 -28 30 -21 77 17 23 19 46 35 51 35 14 0 132 84 138 99
5 13 -11 42 -24 40 -3 0 -32 -11 -64 -24z"/>
<path d="M3600 6750 c-14 -11 -30 -20 -36 -20 -6 0 -19 -9 -29 -20 -10 -11
-25 -20 -34 -20 -21 0 -80 -36 -102 -63 -11 -13 -16 -30 -12 -42 13 -47 23
-45 87 20 35 34 74 66 87 70 24 7 89 71 89 87 0 14 -24 8 -50 -12z"/>
<path d="M3563 6585 c-23 -25 -47 -45 -53 -45 -13 0 -91 -40 -112 -58 -24 -20
-23 -52 0 -52 11 0 27 9 38 21 18 20 139 104 179 124 11 6 21 21 23 33 5 36
-27 27 -75 -23z"/>
<path d="M3621 6530 c-13 -11 -29 -20 -37 -20 -7 0 -19 -8 -26 -19 -7 -10 -26
-26 -43 -35 -48 -26 -129 -87 -138 -102 -11 -19 1 -54 17 -54 8 0 19 7 26 15
7 8 17 15 22 15 11 0 67 39 137 96 18 15 52 38 75 50 30 16 41 28 41 45 0 32
-41 36 -74 9z"/>
<path d="M3639 6374 c-8 -9 -29 -23 -46 -31 -33 -13 -192 -128 -205 -147 -13
-19 -9 -66 5 -66 17 0 92 50 135 90 19 16 48 38 65 47 18 8 47 29 65 44 18 16
37 29 43 29 6 0 9 10 7 23 -4 28 -48 36 -69 11z"/>
<path d="M3665 6233 c-16 -8 -41 -25 -55 -38 -14 -12 -50 -36 -80 -54 -134
-78 -150 -90 -150 -115 0 -12 6 -30 13 -39 11 -16 15 -15 47 12 19 17 40 30
46 31 6 0 17 6 24 14 15 19 158 116 170 116 15 0 52 60 46 75 -7 19 -23 18
-61 -2z"/>
<path d="M3666 6078 c-11 -6 -67 -47 -124 -90 -57 -44 -115 -84 -128 -90 -40
-18 -45 -78 -7 -78 21 0 110 60 147 99 17 17 58 49 92 72 66 43 81 63 63 85
-14 17 -18 17 -43 2z"/>
<path d="M3690 5945 c-19 -14 -40 -25 -46 -25 -7 0 -30 -21 -51 -46 -21 -25
-47 -50 -58 -55 -42 -20 -139 -86 -149 -101 -12 -20 7 -68 27 -68 8 0 44 29
81 65 36 35 83 73 104 84 20 10 46 28 56 40 11 12 25 21 32 21 20 0 64 59 64
86 0 31 -17 30 -60 -1z"/>
<path d="M3704 5821 c-29 -26 -83 -68 -120 -93 -38 -25 -80 -56 -94 -68 -14
-12 -37 -28 -52 -36 -27 -14 -44 -46 -33 -64 11 -17 24 -12 106 45 44 30 82
55 85 55 2 0 17 11 32 25 15 14 55 45 89 68 34 23 65 50 68 59 6 18 -10 58
-23 58 -4 -1 -30 -22 -58 -49z"/>
<path d="M3700 5674 c-46 -30 -103 -72 -126 -92 -61 -54 -116 -97 -141 -111
-16 -8 -23 -21 -23 -41 0 -42 22 -38 78 13 26 24 70 59 97 77 28 19 61 44 75
56 14 12 35 25 48 29 12 3 22 13 22 21 0 8 5 14 10 14 23 0 90 54 90 71 0 33
-42 21 -130 -37z"/>
<path d="M3750 5554 c-41 -30 -86 -66 -100 -78 -14 -13 -39 -28 -57 -35 -17
-7 -39 -21 -49 -32 -9 -10 -23 -19 -30 -19 -7 0 -14 -3 -16 -7 -1 -5 -20 -21
-41 -36 -32 -24 -38 -34 -35 -60 4 -46 35 -47 79 -4 20 19 54 46 77 61 23 14
49 37 57 50 9 13 29 29 45 36 16 6 37 21 47 32 23 26 93 71 100 64 6 -6 -3
-46 -14 -61 -5 -6 -21 -21 -38 -33 -16 -13 -62 -53 -102 -90 -39 -37 -88 -80
-107 -95 -38 -30 -47 -61 -21 -71 18 -7 65 10 65 23 0 6 33 35 73 67 39 31 80
68 89 82 9 14 33 36 53 47 43 26 84 102 77 142 -6 33 -39 73 -61 73 -9 0 -50
-25 -91 -56z"/>
<path d="M3863 5318 c-39 -32 -63 -50 -90 -66 -16 -10 -29 -72 -15 -72 6 0 23
11 39 23 15 13 39 30 54 38 77 42 90 54 87 79 -4 36 -29 35 -75 -2z"/>
<path d="M4027 7423 c-4 -3 -7 -15 -7 -25 0 -26 24 -17 28 10 3 21 -8 29 -21
15z"/>
<path d="M4153 7262 c-6 -4 -16 -27 -23 -52 -6 -25 -15 -59 -20 -75 -6 -17
-18 -64 -29 -105 -11 -41 -33 -128 -51 -193 -31 -117 -31 -137 -5 -137 22 0
31 27 45 130 7 52 19 111 27 130 19 45 45 121 47 138 2 8 7 17 13 20 13 9 33
69 33 102 0 30 -20 53 -37 42z"/>
<path d="M4780 6876 c-14 -8 -54 -20 -90 -28 -59 -12 -65 -16 -65 -38 0 -16 9
-29 26 -39 25 -14 30 -13 80 20 29 19 70 42 91 51 45 20 51 48 11 48 -16 0
-39 -7 -53 -14z"/>
<path d="M5626 6188 c-20 -62 -12 -129 13 -114 14 9 15 126 1 126 -6 0 -12 -6
-14 -12z"/>
<path d="M5855 5980 c-15 -29 -11 -61 5 -43 10 10 24 73 16 73 -3 0 -13 -14
-21 -30z"/>
<path d="M7488 6029 c-51 -29 -95 -182 -66 -228 16 -27 25 -26 33 2 17 55 66
145 95 174 40 39 35 63 -12 63 -18 0 -41 -5 -50 -11z"/>
<path d="M7681 6032 c-28 -4 -72 -45 -94 -87 -8 -17 -24 -38 -36 -49 -25 -23
-45 -79 -36 -106 4 -14 15 -20 36 -20 24 0 29 4 29 25 0 40 38 105 91 157 62
60 66 89 10 80z"/>
<path d="M7792 6018 c-28 -27 -81 -110 -118 -185 -25 -49 -26 -55 -12 -69 25
-25 57 -8 79 42 11 24 24 46 29 49 5 3 17 23 27 43 10 20 36 56 59 79 30 30
39 44 31 52 -19 19 -71 13 -95 -11z"/>
<path d="M7919 5968 c-80 -91 -119 -150 -119 -182 0 -49 81 -60 96 -14 9 30
70 110 138 183 31 32 55 63 53 69 -2 5 -26 11 -54 13 l-50 4 -64 -73z"/>
<path d="M8118 5979 c-103 -105 -158 -184 -158 -228 0 -18 6 -21 40 -21 35 0
41 4 56 35 9 19 38 57 65 85 27 28 49 57 49 65 0 8 18 29 40 46 43 35 50 54
23 62 -10 2 -26 8 -35 12 -13 5 -34 -9 -80 -56z"/>
<path d="M8289 5998 c-16 -14 -123 -145 -152 -188 -24 -34 -22 -77 3 -85 27
-9 30 -6 83 72 25 37 73 96 106 131 l60 63 -25 9 c-34 13 -57 12 -75 -2z"/>
<path d="M8484 5989 c-21 -6 -57 -39 -110 -99 -86 -99 -108 -134 -100 -156 11
-28 36 -13 116 70 50 51 103 95 137 112 56 29 73 48 57 64 -15 14 -68 19 -100
9z"/>
<path d="M8422 6552 c-14 -9 -92 -139 -92 -153 0 -5 -13 -28 -30 -51 -28 -38
-40 -91 -22 -101 4 -3 20 -3 35 0 20 4 37 19 58 52 16 25 29 52 29 59 0 7 20
42 45 79 52 75 56 99 19 113 -30 12 -26 12 -42 2z"/>
<path d="M8568 6518 c-16 -17 -36 -45 -44 -61 -9 -15 -31 -49 -50 -74 -53 -69
-76 -119 -61 -131 37 -29 66 -19 102 36 13 20 37 55 53 77 15 22 39 59 52 83
13 23 27 42 32 42 15 0 8 48 -8 54 -30 11 -46 6 -76 -26z"/>
<path d="M8702 6518 c-5 -7 -44 -64 -86 -127 -73 -109 -90 -153 -63 -164 20
-7 85 40 111 81 23 37 116 122 134 122 5 0 21 17 36 38 24 34 25 38 9 50 -9 6
-42 12 -74 12 -33 0 -61 -5 -67 -12z"/>
<path d="M6046 3398 c-3 -13 -6 -31 -6 -42 0 -15 3 -16 15 -6 16 13 21 70 6
70 -5 0 -11 -10 -15 -22z"/>
<path d="M6276 2790 c-9 -22 -16 -49 -16 -59 0 -10 -18 -63 -39 -117 -38 -97
-81 -230 -81 -252 0 -6 10 -16 21 -23 27 -14 42 1 57 56 5 22 17 60 25 85 50
142 87 316 73 339 -13 20 -24 12 -40 -29z"/>
<path d="M5215 2750 c-3 -5 -1 -10 4 -10 6 0 11 5 11 10 0 6 -2 10 -4 10 -3 0
-8 -4 -11 -10z"/>
<path d="M6441 2538 c-5 -13 -15 -45 -22 -72 -7 -26 -23 -61 -36 -76 -33 -39
-53 -92 -53 -139 0 -81 36 -60 66 38 10 31 26 67 36 80 10 13 18 38 18 55 0
17 9 47 19 67 13 25 16 40 9 52 -13 23 -27 21 -37 -5z"/>
<path d="M6332 2515 c-15 -32 -15 -65 -2 -65 12 0 30 42 30 71 0 27 -15 24
-28 -6z"/>
<path d="M6280 2363 c-7 -21 -19 -48 -27 -61 -13 -22 -11 -42 7 -42 4 0 15 17
24 38 10 20 23 48 31 61 15 27 12 41 -10 41 -7 0 -19 -17 -25 -37z"/>
<path d="M6500 2368 c-11 -18 -20 -38 -20 -45 0 -7 -8 -27 -18 -45 -29 -52
-58 -176 -45 -189 6 -6 17 -8 23 -4 19 12 52 96 61 153 4 30 19 71 33 93 31
47 33 69 6 69 -12 0 -28 -13 -40 -32z"/>
<path d="M6560 2160 c-11 -11 -23 -34 -27 -51 -3 -16 -14 -34 -23 -39 -10 -5
-20 -16 -24 -25 -6 -16 12 -65 25 -65 11 0 75 130 82 168 7 37 -4 41 -33 12z"/>
<path d="M6646 2068 c-13 -52 -8 -68 23 -68 39 0 44 10 26 54 -17 41 -40 47
-49 14z"/>
</g>
</svg>
